<?xml version="1.0" encoding="UTF-8" standalone="no"?><!DOCTYPE svg PUBLIC "-//W3C//DTD SVG 1.1//EN" "http://www.w3.org/Graphics/SVG/1.1/DTD/svg11.dtd"><!-- Generated by graphviz version 2.40.1 (20161225.0304)
 --><!-- Title: CFG for &#39;f&#39; function Pages: 1 --><svg xmlns="http://www.w3.org/2000/svg" xmlns:xlink="http://www.w3.org/1999/xlink" width="685pt" height="571pt" viewBox="0.00 0.00 685.15 571.20">
<g id="graph0" class="graph" transform="scale(1 1) rotate(0) translate(4 567.2)">
<title>CFG for 'f' function</title>
<polygon fill="#ffffff" stroke="transparent" points="-4,4 -4,-567.2 681.148,-567.2 681.148,4 -4,4"/>
<text text-anchor="middle" x="338.574" y="-8.2" font-family="Times,serif" font-size="14.00" fill="#000000">CFG for 'f' function</text>
<!-- Node0x1c5cc80 -->
<g id="node1" class="node">
<title>Node0x1c5cc80</title>
<polygon fill="#b70d28" fill-opacity="0.439216" stroke="#b70d28" points="251.025,-361.9 251.025,-562.7 449.123,-562.7 449.123,-361.9 251.025,-361.9"/>
<text text-anchor="start" x="259.025" y="-546.1" font-family="Times,serif" font-size="14.00" fill="#000000">%1:</text>
<text text-anchor="start" x="259.025" y="-529.3" font-family="Times,serif" font-size="14.00" fill="#000000"> %2 = alloca i32, align 4</text>
<text text-anchor="start" x="259.025" y="-512.5" font-family="Times,serif" font-size="14.00" fill="#000000"> %3 = alloca i32, align 4</text>
<text text-anchor="start" x="259.025" y="-495.7" font-family="Times,serif" font-size="14.00" fill="#000000"> store i32 %0, i32* %3, align 4</text>
<text text-anchor="start" x="259.025" y="-478.9" font-family="Times,serif" font-size="14.00" fill="#000000"> %4 = load i32, i32* %3, align 4</text>
<text text-anchor="start" x="259.025" y="-462.1" font-family="Times,serif" font-size="14.00" fill="#000000"> switch i32 %4, label %8 [</text>
<text text-anchor="start" x="259.025" y="-445.3" font-family="Times,serif" font-size="14.00" fill="#000000"> i32 1, label %5</text>
<text text-anchor="start" x="259.025" y="-428.5" font-family="Times,serif" font-size="14.00" fill="#000000"> i32 2, label %6</text>
<text text-anchor="start" x="259.025" y="-411.7" font-family="Times,serif" font-size="14.00" fill="#000000"> i32 3, label %7</text>
<text text-anchor="start" x="259.025" y="-394.9" font-family="Times,serif" font-size="14.00" fill="#000000"> ]</text>
<polyline fill="none" stroke="#b70d28" points="251.025,-386.7 449.123,-386.7 "/>
<text text-anchor="middle" x="279.4626" y="-370.1" font-family="Times,serif" font-size="14.00" fill="#000000">def</text>
<polyline fill="none" stroke="#b70d28" points="307.9002,-361.9 307.9002,-386.7 "/>
<text text-anchor="middle" x="331.4002" y="-370.1" font-family="Times,serif" font-size="14.00" fill="#000000">1</text>
<polyline fill="none" stroke="#b70d28" points="354.9002,-361.9 354.9002,-386.7 "/>
<text text-anchor="middle" x="378.4002" y="-370.1" font-family="Times,serif" font-size="14.00" fill="#000000">2</text>
<polyline fill="none" stroke="#b70d28" points="401.9002,-361.9 401.9002,-386.7 "/>
<text text-anchor="middle" x="425.4002" y="-370.1" font-family="Times,serif" font-size="14.00" fill="#000000">3</text>
</g>
<!-- Node0x1c5d520 -->
<g id="node2" class="node">
<title>Node0x1c5d520</title>
<polygon fill="#ecd3c5" fill-opacity="0.439216" stroke="#3d50c3" points="147.0582,-258.1 147.0582,-316.5 231.0898,-316.5 231.0898,-258.1 147.0582,-258.1"/>
<text text-anchor="start" x="155.0582" y="-299.9" font-family="Times,serif" font-size="14.00" fill="#000000">%8:</text>
<text text-anchor="start" x="155.0582" y="-283.1" font-family="Times,serif" font-size="14.00" fill="#000000">8: </text>
<text text-anchor="start" x="155.0582" y="-266.3" font-family="Times,serif" font-size="14.00" fill="#000000"> br label %9</text>
</g>
<!-- Node0x1c5cc80&#45;&gt;Node0x1c5d520 -->
<g id="edge1" class="edge">
<title>Node0x1c5cc80:s0-&gt;Node0x1c5d520</title>
<path fill="none" stroke="#000000" d="M251.074,-374.3C225.6441,-374.3 209.6692,-349.3441 200.316,-326.1642"/>
<polygon fill="#000000" stroke="#000000" points="203.5835,-324.9091 196.8196,-316.7542 197.0218,-327.3471 203.5835,-324.9091"/>
</g>
<!-- Node0x1c5d570 -->
<g id="node3" class="node">
<title>Node0x1c5d570</title>
<polygon fill="#ecd3c5" fill-opacity="0.439216" stroke="#3d50c3" points="196,-137.5 196,-212.7 374.148,-212.7 374.148,-137.5 196,-137.5"/>
<text text-anchor="start" x="204" y="-196.1" font-family="Times,serif" font-size="14.00" fill="#000000">%5:</text>
<text text-anchor="start" x="204" y="-179.3" font-family="Times,serif" font-size="14.00" fill="#000000">5: </text>
<text text-anchor="start" x="204" y="-162.5" font-family="Times,serif" font-size="14.00" fill="#000000"> store i32 1, i32* %2, align 4</text>
<text text-anchor="start" x="204" y="-145.7" font-family="Times,serif" font-size="14.00" fill="#000000"> br label %10</text>
</g>
<!-- Node0x1c5cc80&#45;&gt;Node0x1c5d570 -->
<g id="edge2" class="edge">
<title>Node0x1c5cc80:s1-&gt;Node0x1c5d570</title>
<path fill="none" stroke="#000000" d="M331.074,-362.3C331.074,-313.6064 316.2149,-259.793 303.3871,-222.4086"/>
<polygon fill="#000000" stroke="#000000" points="306.6264,-221.0694 300.0089,-212.7954 300.0223,-223.3902 306.6264,-221.0694"/>
</g>
<!-- Node0x1c5d600 -->
<g id="node4" class="node">
<title>Node0x1c5d600</title>
<polygon fill="#f1ccb8" fill-opacity="0.439216" stroke="#3d50c3" points="392,-137.5 392,-212.7 570.148,-212.7 570.148,-137.5 392,-137.5"/>
<text text-anchor="start" x="400" y="-196.1" font-family="Times,serif" font-size="14.00" fill="#000000">%6:</text>
<text text-anchor="start" x="400" y="-179.3" font-family="Times,serif" font-size="14.00" fill="#000000">6: </text>
<text text-anchor="start" x="400" y="-162.5" font-family="Times,serif" font-size="14.00" fill="#000000"> store i32 4, i32* %2, align 4</text>
<text text-anchor="start" x="400" y="-145.7" font-family="Times,serif" font-size="14.00" fill="#000000"> br label %10</text>
</g>
<!-- Node0x1c5cc80&#45;&gt;Node0x1c5d600 -->
<g id="edge3" class="edge">
<title>Node0x1c5cc80:s2-&gt;Node0x1c5d600</title>
<path fill="none" stroke="#000000" d="M378.074,-362.3C378.074,-309.0184 410.4996,-256.5946 438.9641,-220.8397"/>
<polygon fill="#000000" stroke="#000000" points="441.7329,-222.9825 445.3387,-213.0201 436.3073,-218.5595 441.7329,-222.9825"/>
</g>
<!-- Node0x1c5d6c0 -->
<g id="node5" class="node">
<title>Node0x1c5d6c0</title>
<polygon fill="#f1ccb8" fill-opacity="0.439216" stroke="#3d50c3" points="499,-249.7 499,-324.9 677.148,-324.9 677.148,-249.7 499,-249.7"/>
<text text-anchor="start" x="507" y="-308.3" font-family="Times,serif" font-size="14.00" fill="#000000">%7:</text>
<text text-anchor="start" x="507" y="-291.5" font-family="Times,serif" font-size="14.00" fill="#000000">7: </text>
<text text-anchor="start" x="507" y="-274.7" font-family="Times,serif" font-size="14.00" fill="#000000"> store i32 9, i32* %2, align 4</text>
<text text-anchor="start" x="507" y="-257.9" font-family="Times,serif" font-size="14.00" fill="#000000"> br label %10</text>
</g>
<!-- Node0x1c5cc80&#45;&gt;Node0x1c5d6c0 -->
<g id="edge4" class="edge">
<title>Node0x1c5cc80:s3-&gt;Node0x1c5d6c0</title>
<path fill="none" stroke="#000000" d="M449.074,-374.3C485.0651,-374.3 519.4072,-353.083 544.9518,-331.6044"/>
<polygon fill="#000000" stroke="#000000" points="547.3464,-334.1603 552.5891,-324.9535 542.7492,-328.8814 547.3464,-334.1603"/>
</g>
<!-- Node0x1c5d4d0 -->
<g id="node7" class="node">
<title>Node0x1c5d4d0</title>
<polygon fill="#ecd3c5" fill-opacity="0.439216" stroke="#3d50c3" points="0,-137.5 0,-212.7 178.148,-212.7 178.148,-137.5 0,-137.5"/>
<text text-anchor="start" x="8" y="-196.1" font-family="Times,serif" font-size="14.00" fill="#000000">%9:</text>
<text text-anchor="start" x="8" y="-179.3" font-family="Times,serif" font-size="14.00" fill="#000000">9: </text>
<text text-anchor="start" x="8" y="-162.5" font-family="Times,serif" font-size="14.00" fill="#000000"> store i32 0, i32* %2, align 4</text>
<text text-anchor="start" x="8" y="-145.7" font-family="Times,serif" font-size="14.00" fill="#000000"> br label %10</text>
</g>
<!-- Node0x1c5d520&#45;&gt;Node0x1c5d4d0 -->
<g id="edge8" class="edge">
<title>Node0x1c5d520-&gt;Node0x1c5d4d0</title>
<path fill="none" stroke="#000000" d="M162.8002,-257.8208C152.6408,-246.4219 140.7801,-233.1142 129.5793,-220.547"/>
<polygon fill="#000000" stroke="#000000" points="131.9781,-217.978 122.7117,-212.8415 126.7524,-222.6355 131.9781,-217.978"/>
</g>
<!-- Node0x1c5d7a0 -->
<g id="node6" class="node">
<title>Node0x1c5d7a0</title>
<polygon fill="#b70d28" fill-opacity="0.439216" stroke="#b70d28" points="280.525,-25.3 280.525,-100.5 485.623,-100.5 485.623,-25.3 280.525,-25.3"/>
<text text-anchor="start" x="288.525" y="-83.9" font-family="Times,serif" font-size="14.00" fill="#000000">%10:</text>
<text text-anchor="start" x="288.525" y="-67.1" font-family="Times,serif" font-size="14.00" fill="#000000">10: </text>
<text text-anchor="start" x="288.525" y="-50.3" font-family="Times,serif" font-size="14.00" fill="#000000"> %11 = load i32, i32* %2, align 4</text>
<text text-anchor="start" x="288.525" y="-33.5" font-family="Times,serif" font-size="14.00" fill="#000000"> ret i32 %11</text>
</g>
<!-- Node0x1c5d570&#45;&gt;Node0x1c5d7a0 -->
<g id="edge5" class="edge">
<title>Node0x1c5d570-&gt;Node0x1c5d7a0</title>
<path fill="none" stroke="#000000" d="M317.9792,-137.4269C326.1402,-128.0834 334.9712,-117.9728 343.4176,-108.3025"/>
<polygon fill="#000000" stroke="#000000" points="346.1465,-110.4987 350.0888,-100.6647 340.8743,-105.8938 346.1465,-110.4987"/>
</g>
<!-- Node0x1c5d600&#45;&gt;Node0x1c5d7a0 -->
<g id="edge6" class="edge">
<title>Node0x1c5d600-&gt;Node0x1c5d7a0</title>
<path fill="none" stroke="#000000" d="M448.1688,-137.4269C440.0078,-128.0834 431.1768,-117.9728 422.7304,-108.3025"/>
<polygon fill="#000000" stroke="#000000" points="425.2737,-105.8938 416.0592,-100.6647 420.0015,-110.4987 425.2737,-105.8938"/>
</g>
<!-- Node0x1c5d6c0&#45;&gt;Node0x1c5d7a0 -->
<g id="edge7" class="edge">
<title>Node0x1c5d6c0-&gt;Node0x1c5d7a0</title>
<path fill="none" stroke="#000000" d="M596.3904,-249.5286C601.3683,-216.6042 602.7845,-169.2088 579.074,-137 567.7415,-121.6057 532.6819,-106.3628 495.286,-93.7414"/>
<polygon fill="#000000" stroke="#000000" points="496.3344,-90.4018 485.7413,-90.5906 494.1401,-97.049 496.3344,-90.4018"/>
</g>
<!-- Node0x1c5d4d0&#45;&gt;Node0x1c5d7a0 -->
<g id="edge9" class="edge">
<title>Node0x1c5d4d0-&gt;Node0x1c5d7a0</title>
<path fill="none" stroke="#000000" d="M178.2583,-140.3866C181.2315,-139.2424 184.1764,-138.111 187.074,-137 215.0738,-126.2646 245.3637,-114.7599 273.5658,-104.0943"/>
<polygon fill="#000000" stroke="#000000" points="274.9271,-107.3215 283.0436,-100.5118 272.452,-100.7737 274.9271,-107.3215"/>
</g>
</g>
</svg>