<?xml version="1.0" encoding="UTF-8" standalone="no"?><!DOCTYPE svg PUBLIC "-//W3C//DTD SVG 1.1//EN" "http://www.w3.org/Graphics/SVG/1.1/DTD/svg11.dtd"><!-- Generated by graphviz version 2.40.1 (20161225.0304)
 --><!-- Title: CFG for &#39;f&#39; function Pages: 1 --><svg xmlns="http://www.w3.org/2000/svg" xmlns:xlink="http://www.w3.org/1999/xlink" width="212pt" height="341pt" viewBox="0.00 0.00 212.30 341.40">
<g id="graph0" class="graph" transform="scale(1 1) rotate(0) translate(4 337.4)">
<title>CFG for 'f' function</title>
<polygon fill="#ffffff" stroke="transparent" points="-4,4 -4,-337.4 208.3,-337.4 208.3,4 -4,4"/>
<text text-anchor="middle" x="102.15" y="-8.2" font-family="Times,serif" font-size="14.00" fill="#000000">CFG for 'f' function</text>
<!-- Node0x12bd9e0 -->
<g id="node1" class="node">
<title>Node0x12bd9e0</title>
<polygon fill="#b70d28" fill-opacity="0.439216" stroke="#b70d28" points="11.9231,-249.7 11.9231,-332.9 192.3769,-332.9 192.3769,-249.7 11.9231,-249.7"/>
<text text-anchor="start" x="19.9231" y="-316.3" font-family="Times,serif" font-size="14.00" fill="#000000">%0:</text>
<text text-anchor="start" x="19.9231" y="-299.5" font-family="Times,serif" font-size="14.00" fill="#000000"> %1 = icmp sgt i32 1, 0</text>
<text text-anchor="start" x="19.9231" y="-282.7" font-family="Times,serif" font-size="14.00" fill="#000000"> br i1 %1, label %2, label %3</text>
<polyline fill="none" stroke="#b70d28" points="11.9231,-274.5 192.3769,-274.5 "/>
<text text-anchor="middle" x="57.1994" y="-257.9" font-family="Times,serif" font-size="14.00" fill="#000000">T</text>
<polyline fill="none" stroke="#b70d28" points="102.4757,-249.7 102.4757,-274.5 "/>
<text text-anchor="middle" x="147.367" y="-257.9" font-family="Times,serif" font-size="14.00" fill="#000000">F</text>
</g>
<!-- Node0x12be100 -->
<g id="node2" class="node">
<title>Node0x12be100</title>
<polygon fill="#e8765c" fill-opacity="0.439216" stroke="#b70d28" points="9.1342,-154.3 9.1342,-212.7 93.1658,-212.7 93.1658,-154.3 9.1342,-154.3"/>
<text text-anchor="start" x="17.1342" y="-196.1" font-family="Times,serif" font-size="14.00" fill="#000000">%2:</text>
<text text-anchor="start" x="17.1342" y="-179.3" font-family="Times,serif" font-size="14.00" fill="#000000">2: </text>
<text text-anchor="start" x="17.1342" y="-162.5" font-family="Times,serif" font-size="14.00" fill="#000000"> br label %4</text>
</g>
<!-- Node0x12bd9e0&#45;&gt;Node0x12be100 -->
<g id="edge1" class="edge">
<title>Node0x12bd9e0:s0-&gt;Node0x12be100</title>
<path fill="none" stroke="#000000" d="M57.15,-249.3C57.15,-240.8186 56.6495,-231.7476 55.9376,-223.1351"/>
<polygon fill="#000000" stroke="#000000" points="59.3991,-222.5585 54.9839,-212.9275 52.4294,-223.2098 59.3991,-222.5585"/>
</g>
<!-- Node0x12be150 -->
<g id="node3" class="node">
<title>Node0x12be150</title>
<polygon fill="#f7b396" fill-opacity="0.439216" stroke="#3d50c3" points="111.1342,-154.3 111.1342,-212.7 195.1658,-212.7 195.1658,-154.3 111.1342,-154.3"/>
<text text-anchor="start" x="119.1342" y="-196.1" font-family="Times,serif" font-size="14.00" fill="#000000">%3:</text>
<text text-anchor="start" x="119.1342" y="-179.3" font-family="Times,serif" font-size="14.00" fill="#000000">3: </text>
<text text-anchor="start" x="119.1342" y="-162.5" font-family="Times,serif" font-size="14.00" fill="#000000"> br label %4</text>
</g>
<!-- Node0x12bd9e0&#45;&gt;Node0x12be150 -->
<g id="edge2" class="edge">
<title>Node0x12bd9e0:s1-&gt;Node0x12be150</title>
<path fill="none" stroke="#000000" d="M147.15,-249.3C147.15,-240.8186 147.6505,-231.7476 148.3624,-223.1351"/>
<polygon fill="#000000" stroke="#000000" points="151.8706,-223.2098 149.3161,-212.9275 144.9009,-222.5585 151.8706,-223.2098"/>
</g>
<!-- Node0x12be2c0 -->
<g id="node4" class="node">
<title>Node0x12be2c0</title>
<polygon fill="#b70d28" fill-opacity="0.439216" stroke="#b70d28" points="0,-25.3 0,-117.3 204.3,-117.3 204.3,-25.3 0,-25.3"/>
<text text-anchor="start" x="8" y="-100.7" font-family="Times,serif" font-size="14.00" fill="#000000">%4:</text>
<text text-anchor="start" x="8" y="-83.9" font-family="Times,serif" font-size="14.00" fill="#000000">4: </text>
<text text-anchor="start" x="8" y="-67.1" font-family="Times,serif" font-size="14.00" fill="#000000"> %.0 = phi i32 [ 1, %2 ], [ 2, %3 ]</text>
<text text-anchor="start" x="8" y="-50.3" font-family="Times,serif" font-size="14.00" fill="#000000"> %5 = add nsw i32 %.0, 1</text>
<text text-anchor="start" x="8" y="-33.5" font-family="Times,serif" font-size="14.00" fill="#000000"> ret i32 undef</text>
</g>
<!-- Node0x12be100&#45;&gt;Node0x12be2c0 -->
<g id="edge3" class="edge">
<title>Node0x12be100-&gt;Node0x12be2c0</title>
<path fill="none" stroke="#000000" d="M64.5496,-154.0208C68.3568,-145.6451 72.6323,-136.2389 76.8986,-126.853"/>
<polygon fill="#000000" stroke="#000000" points="80.1923,-128.0649 81.1441,-117.5129 73.8198,-125.1682 80.1923,-128.0649"/>
</g>
<!-- Node0x12be150&#45;&gt;Node0x12be2c0 -->
<g id="edge4" class="edge">
<title>Node0x12be150-&gt;Node0x12be2c0</title>
<path fill="none" stroke="#000000" d="M139.7504,-154.0208C135.9432,-145.6451 131.6677,-136.2389 127.4014,-126.853"/>
<polygon fill="#000000" stroke="#000000" points="130.4802,-125.1682 123.1559,-117.5129 124.1077,-128.0649 130.4802,-125.1682"/>
</g>
</g>
</svg>