<?xml version="1.0" standalone="yes"?>
<svg xmlns="http://www.w3.org/2000/svg" width="850" height="665">
<path style="fill:#f87e3f; stroke:none;" d="M188 55L188 49C164.314 55.7714 141.202 65.7281 120 78.449C105.738 87.0062 92.3362 99.025 77 105.536C56.4679 114.254 38.2784 122.784 20 135.86C13.9933 140.156 4.53937 145.324 1.02778 152.039C-1.00206 155.921 0 161.755 0 166L0 197L0 308L1 308C33.4351 256.291 104.47 233.256 160 217.427C177.771 212.362 201.856 211.711 217.96 202.721C227.451 197.424 233.5 179.952 239.344 171C251.728 152.031 266.9 135.079 284 120.282C333.956 77.0563 401.727 57.2562 466 50.8295C484.062 49.0234 500.623 46 519 46C494.901 32.9042 462.209 38.7054 436 36.9105C407.398 34.9518 378.681 35.6879 350 34.9854C294.159 33.6175 241.309 34.8881 188 55z"/>
<path style="fill:#fd4651; stroke:none;" d="M397 63L397 64C412.847 61.8661 428.165 55.9827 444 53.4383C472.506 48.8579 501.921 48 531 48C514.537 40.8985 487.846 46.2342 471 49.7893C461.418 51.8115 451.651 50.4552 442 52.0811C426.75 54.6502 412.12 59.8792 397 63z"/>
<path style="fill:#f87e3f; stroke:none;" d="M524 46L525 47L524 46z"/>
<path style="fill:#0d0d0c; stroke:none;" d="M203 276C203 303.248 210.782 332.051 221.427 357C229.239 375.308 239.758 391.748 245.291 411C249.107 424.276 254.034 437.197 259.201 450C260.863 454.119 262.949 461.735 267.213 463.882C278.326 469.477 295.35 451.968 307 454.09C314.554 455.465 328.356 468.295 335.815 464.867C343.706 461.241 343.053 445.897 353.004 444.743C367.66 443.043 385.182 449.896 400 450.91C432.999 453.17 465.157 450.253 498 449.04C511.949 448.525 511.529 465.593 522.015 470.972C531.517 475.847 542.277 465.243 552 466.2C561.299 467.115 575.299 481.417 583.867 478.353C588.42 476.725 589.717 468.063 590.974 464C595.446 449.556 597.333 434.581 601.044 420C604.9 404.85 630.302 391.958 642 382.6C646.698 378.842 652.027 373.1 658 371.525C667.499 369.019 682.693 374.8 692 377.127C727.73 386.057 758.513 402.309 786 427.17C794.929 435.245 814.849 464.816 827.003 447.91C834.528 437.443 824.086 419.678 819.247 410C803.028 377.562 775.301 347.484 747 325.211C739.63 319.41 731.994 313.724 724 308.811C720.868 306.886 715.815 304.876 714.788 300.957C713.621 296.506 717.453 290.086 718.947 286C723.012 274.875 726.718 263.484 729.626 252C740.452 209.247 746.965 160.713 720.656 122C691.204 78.6634 645.472 70.4946 598 58.6265C562.672 49.7944 526.452 45.5908 490 48.0895C481.486 48.6731 473.414 51.5759 465 52.5216C402.294 59.5699 338.421 75.5483 288 116.46C260.435 138.826 242.821 166.619 223.946 195.999C218.751 204.086 211.721 204.696 203 206.873C189.668 210.202 176.29 213.39 163 216.884C119.391 228.35 76.0251 243.744 39 270.141C26.5051 279.05 14.2769 288.488 5.15895 301C1.01307 306.689 -2.63801 316 1.02778 322.96C9.58365 339.205 36.728 315.731 46 310.201C91.3433 283.156 151.52 275.858 203 276z"/>
<path style="fill:#fd4651; stroke:none;" d="M542 48L543 49L542 48z"/>
<path style="fill:#f87e3f; stroke:none;" d="M633.667 56.3333L634.333 56.6667L633.667 56.3333M643 57L652 61L643 57M674 63L674 64C677.593 65.8322 678.927 67.8148 676 71L676 72C686.191 79.179 692.251 90.3546 701 99.0038C743.884 141.4 745.367 194.637 730.714 250C726.096 267.45 716.649 285.311 714 303C765.477 325.21 800.59 378.603 827 425L828 425C821.189 401.175 803.592 380.359 789.465 360.715C784.594 353.941 772.416 341.57 775 333C760.379 333.895 751.672 313.595 738 315C734.596 306.333 723.504 306.76 720.643 298.829C716.728 287.979 730.888 272.794 732 262L734 265L756 271.517L782 271.039L808 274L812 279C812.194 272.62 816.588 273.593 821 271L822 271L829 275L829 276L823 287L827 291L835 294C835.958 292.33 836.935 290.671 837.849 288.976C844.673 276.335 845.312 292.461 850 297L850 155L850 117L848.972 102.638L835 96.3326L801 84.1265L783 77.9838L768 76.0964L758 70.4529L749 72.0957L717 65.3866L704 69.3541L695 64.9113L674 63z"/>
<path style="fill:#fd4651; stroke:none;" d="M394.667 64.3333L395.333 64.6667L394.667 64.3333M390 65L390 66L393 66L390 65M386 66L386 67L389 67L386 66M383 67L383 68L386 68L383 67M381.667 68.3333L382.333 68.6667L381.667 68.3333M377.667 69.3333L378.333 69.6667L377.667 69.3333M374.667 70.3333L375.333 70.6667L374.667 70.3333M371.667 71.3333L372.333 71.6667L371.667 71.3333M368.667 72.3333L369.333 72.6667L368.667 72.3333M365.667 73.3333L366.333 73.6667L365.667 73.3333M362 74L362 75L365 75L362 74M360.667 75.3333L361.333 75.6667L360.667 75.3333z"/>
<path style="fill:#0d0d0c; stroke:none;" d="M479 155C493.831 177.422 516.108 197.019 534.999 216C538.978 219.998 549.321 234.875 555.089 234.948C558.531 234.992 562.686 230.062 565 227.91C572.819 220.64 580.806 213.608 589 206.754C596.9 200.145 604.969 193.78 612.999 187.335C615.444 185.373 620.302 181.999 620.4 178.464C620.519 174.159 611.038 169.172 608 167C597.368 159.399 580.595 148.171 584.714 133C588.876 117.666 599.969 111.065 614 104.862C647.667 89.9766 682.018 97.4131 705.331 127C748.674 182.009 719.599 267.741 683.72 319C606.839 428.835 460.943 468.792 335 427.329C308.428 418.581 280.135 403.564 260.285 383.715C193.49 316.919 215.825 208.891 277.004 147C311.174 112.431 361.395 83.8036 410 76.2963C441.693 71.4012 475.911 83.9536 502 101.355C511.282 107.546 527.441 124.508 519.911 136.956C514.173 146.441 489.157 150.777 479 155z"/>
<path style="fill:#fd4651; stroke:none;" d="M427.667 75.3333L428.333 75.6667L427.667 75.3333M357.667 76.3333L358.333 76.6667L357.667 76.3333z"/>
<path style="fill:#fbfbf9; stroke:none;" d="M556 238L555 238L478 155C487.614 151.003 497.108 147.301 507 144C511.472 142.508 517.067 141.354 519.543 136.895C525.199 126.708 514.606 111.694 506.999 105.669C486.11 89.1232 456.816 77.2152 430 76.0394C409.769 75.1523 390.816 81.0711 372 87.9529C329.724 103.415 290.845 128.864 262.31 164C214.137 223.318 201.444 316.261 254.289 377C275.089 400.906 308.803 419.169 339 428.229C407.019 448.636 488.85 448.012 555 421.551C592.368 406.603 626.895 381.335 655.961 353.83C665.974 344.354 673.216 333.131 681.141 322C710.768 280.392 733.806 221.068 724.679 169C713.824 107.071 642.701 74.9559 593.105 117.529C573.667 134.214 591.121 154.143 606 165.116C609.7 167.844 621.097 173.48 620.369 179.001C619.516 185.468 607.652 191.836 603 195.611C587.451 208.228 567.586 221.553 556 238z"/>
<path style="fill:#fd4651; stroke:none;" d="M355 77L356 78L355 77M353 78L354 79L353 78M350 79L351 80L350 79M348 80L349 81L348 80M346 81L347 82L346 81M459 81L460 82L459 81M343 82L344 83L343 82z"/>
<path style="fill:#f87e3f; stroke:none;" d="M461 82L462 83L461 82z"/>
<path style="fill:#fd4651; stroke:none;" d="M341 83L342 84L341 83M339 84L340 85L339 84M337 85L338 86L337 85M335 86L336 87L335 86M333 87L334 88L333 87M331 88L332 89L331 88M687 88L688 89L687 88M329 89L330 90L329 89M689 89L690 90L689 89z"/>
<path style="fill:#fbfbf9; stroke:none;" d="M691 89L692 90L691 89z"/>
<path style="fill:#fd4651; stroke:none;" d="M327 90L328 91L327 90M691 90L692 91L691 90M325 91L326 92L325 91M692 91L693 92L692 91M323 92L324 93L323 92M693 92L694 93L693 92M322 93L323 94L322 93M695 93L696 94L695 93M320 94L321 95L320 94M696 94L697 95L696 94M504 103L505 104L504 103M705 103L706 104L705 103M304 104L305 105L304 104M706 104L707 105L706 104M707 105L708 106L707 105M301 106L302 107L301 106M708 106L709 107L708 106M300 107L301 108L300 107M709 107L710 108L709 107M298 108L299 109L298 108M710 108L711 109L710 108M297 109L298 110L297 109M294 111L295 112L294 111M712 111L713 112L712 111M293 112L294 113L293 112M713 112L714 113L713 112M714 113L715 114L714 113M290 114L291 115L290 114M715 114L716 115L715 114M289 115L290 116L289 115M716 116L717 117L716 116M717 117L718 118L717 117M284 119L285 120L284 119z"/>
<path style="fill:#fbfbf9; stroke:none;" d="M432 120.3C441.881 119.376 448.525 127.693 451.982 136C458.572 151.832 453.903 172.552 434 174.215C400.678 176.998 399.818 123.309 432 120.3z"/>
<path style="fill:#f87e3f; stroke:none;" d="M435.667 120.333L436.333 120.667L435.667 120.333z"/>
<path style="fill:#fd4651; stroke:none;" d="M719 120L720 121L719 120z"/>
<path style="fill:#0d0d0c; stroke:none;" d="M428 121.465C398.439 126.832 404.9 178.984 436 173.671C465.516 168.628 456.458 116.297 428 121.465z"/>
<path style="fill:#fd4651; stroke:none;" d="M720 121L721 122L720 121z"/>
<path style="fill:#f87e3f; stroke:none;" d="M422 122L423 123L422 122z"/>
<path style="fill:#fd4651; stroke:none;" d="M423 122L424 123L423 122M721 123L722 124L721 123M443 124L444 125L443 124M722 124L723 125L722 124M444 125L445 126L444 125M276 126L277 127L276 126M445 126L446 127L445 126M723 126L724 127L723 126M275 127L276 128L275 127M274 128L275 129L274 128M273 129L274 130L273 129M725 129L726 130L725 129M448 130L449 131L448 130M726 131L727 132L726 131z"/>
<path style="fill:#fbfbf9; stroke:none;" d="M659 132.302C689.462 127.948 696.834 177.82 665 182.556C636.148 186.849 629.713 136.488 659 132.302z"/>
<path style="fill:#fd4651; stroke:none;" d="M660 132L660 133L664 133L660 132z"/>
<path style="fill:#f87e3f; stroke:none;" d="M664 132L665 133L664 132z"/>
<path style="fill:#0d0d0c; stroke:none;" d="M656 133.533C628.164 140.254 639.637 187.635 668 181.481C698.661 174.829 685.711 126.36 656 133.533z"/>
<path style="fill:#fd4651; stroke:none;" d="M668 133L669 134L668 133z"/>
<path style="fill:#f87e3f; stroke:none;" d="M669 133L670 134L669 133z"/>
<path style="fill:#fd4651; stroke:none;" d="M727 133L728 134L727 133M267 135L268 136L267 135M728 135L729 136L728 135M266 136L267 137L266 136M265 137L266 138L265 137M729 137L730 138L729 137M264 138L265 139L264 138M263 139L264 140L263 139M730 139L731 140L730 139z"/>
<path style="fill:#f87e3f; stroke:none;" d="M453 140L454 141L453 140z"/>
<path style="fill:#fd4651; stroke:none;" d="M453.333 141.667L453.667 142.333L453.333 141.667M731.333 141.667L731.667 142.333L731.333 141.667z"/>
<path style="fill:#f87e3f; stroke:none;" d="M408 142L409 143L408 142z"/>
<path style="fill:#fd4651; stroke:none;" d="M408.333 143.667L408.667 144.333L408.333 143.667z"/>
<path style="fill:#f87e3f; stroke:none;" d="M681 143L682 144L681 143M454 144L455 145L454 144z"/>
<path style="fill:#fd4651; stroke:none;" d="M732.333 144.667L732.667 145.333L732.333 144.667M454 145L454 148L455 148L454 145z"/>
<path style="fill:#0d0d0c; stroke:none;" d="M497 157C511.16 151.58 532.699 143.12 548 145.3C560.307 147.054 571.862 154.588 582 161.333C586.463 164.303 602.741 172.079 602.654 178.09C602.548 185.512 585.092 196.346 580 201.09C574.787 205.946 563.765 222.137 556 221.694C550.348 221.371 543.726 211.727 540 208C526.107 194.102 504.148 175.583 497 157z"/>
<path style="fill:#f87e3f; stroke:none;" d="M497 157C504.979 175.875 526.307 193.197 540.174 208.039C543.575 211.68 551.362 221.746 557 221.08C565.442 220.084 576.88 203.705 583 198.17C589.715 192.096 601.122 185.305 603 176C586.132 165.495 567.777 147.21 547 145.199C531.328 143.682 511.914 152.799 497 157z"/>
<path style="fill:#fd4651; stroke:none;" d="M257 146L258 147L257 146M733.333 147.667L733.667 148.333L733.333 147.667M408.333 151.667L408.667 152.333L408.333 151.667M734 151L735 152L734 151z"/>
<path style="fill:#f87e3f; stroke:none;" d="M408 153L409 154L408 153z"/>
<path style="fill:#fd4651; stroke:none;" d="M454.333 153.667L454.667 154.333L454.333 153.667M735.333 154.667L735.667 155.333L735.333 154.667z"/>
<path style="fill:#f87e3f; stroke:none;" d="M454 155L455 156L454 155z"/>
<path style="fill:#fd4651; stroke:none;" d="M249 156L250 157L249 156M736.333 158.667L736.667 159.333L736.333 158.667M246 160L247 161L246 160M245 161L246 162L245 161M640.333 161.667L640.667 162.333L640.333 161.667M244 163L245 164L244 163M737 163L737 166L738 166L737 163M243 164L244 165L243 164M242 166L243 167L242 166M241 167L242 168L241 167M448 167L449 168L448 167M447 168L448 169L447 168M738 168L738 174L739 174L738 168M240 169L241 170L240 169z"/>
<path style="fill:#f87e3f; stroke:none;" d="M446 169L447 170L446 169z"/>
<path style="fill:#fd4651; stroke:none;" d="M239 170L240 171L239 170z"/>
<path style="fill:#f87e3f; stroke:none;" d="M491 171L492 172L491 171z"/>
<path style="fill:#fd4651; stroke:none;" d="M238 172L239 173L238 172M424 172L425 173L424 172M440 172L441 173L440 172M237 173L238 174L237 173z"/>
<path style="fill:#f87e3f; stroke:none;" d="M426 173L427 174L426 173z"/>
<path style="fill:#fd4651; stroke:none;" d="M645 173L646 174L645 173M236 175L237 176L236 175M496 176L497 177L496 176M739 176L739 201L740 201L739 176M497 177L498 178L497 177z"/>
<path style="fill:#f87e3f; stroke:none;" d="M648 177L649 178L648 177z"/>
<path style="fill:#fd4651; stroke:none;" d="M234 178L235 179L234 178z"/>
<path style="fill:#f87e3f; stroke:none;" d="M499 180L500 181L499 180z"/>
<path style="fill:#fd4651; stroke:none;" d="M232 181L233 182L232 181M655 181L656 182L655 181M231 183L232 184L231 183M230 185L231 186L230 185M229 186L230 187L229 186M228 188L229 189L228 188M507 188L508 189L507 188M508 189L509 190L508 189M227 190L228 191L227 190M509 190L511 192L509 190z"/>
<path style="fill:#f87e3f; stroke:none;" d="M509 191L510 192L509 191z"/>
<path style="fill:#fd4651; stroke:none;" d="M225 193L226 194L225 193M224 195L225 196L224 195M216 203L217 204L216 203M213 204L214 205L213 204M738 206L738 212L739 212L738 206M183.667 211.333L184.333 211.667L183.667 211.333M179.667 212.333L180.333 212.667L179.667 212.333M175.667 213.333L176.333 213.667L175.667 213.333M737 213L737 219L738 219L737 213M171.667 214.333L172.333 214.667L171.667 214.333M167.667 215.333L168.333 215.667L167.667 215.333M163.667 216.333L164.333 216.667L163.667 216.333M159.667 217.333L160.333 217.667L159.667 217.333M156.667 218.333L157.333 218.667L156.667 218.333M736 220L736 225L737 225L736 220M735 226L735 230L736 230L735 226M734 231L734 234L735 234L734 231M733 236L733 239L734 239L733 236M732 240L732 243L733 243L732 240M731 244L731 247L732 247L731 244M730 248L730 252L731 252L730 248M729.333 252.667L729.667 253.333L729.333 252.667M728.333 256.667L728.667 257.333L728.333 256.667M727.333 259.667L727.667 260.333L727.333 259.667M732 262C730.209 271.925 715.133 290.591 721.029 300.56C724.929 307.156 733.754 307.637 738 315C751.748 316.079 760.362 335.333 775 333C771.23 340.789 783.055 352.647 787.505 358.91C802.576 380.122 818.009 400.647 828 425L828 433L829 433L828 428L829 428L831 438L830 438L830 434L829 434C829.252 440.779 826.859 456.711 816 453.347C802.275 449.095 789.01 428.554 778 419.417C751.918 397.772 723.567 384.759 691 376.63C681.503 374.259 667.791 369.424 658 371.199C651.635 372.353 645.869 378.708 641 382.602C628.287 392.769 603.504 405.058 600.412 422C597.782 436.412 594.912 451.055 590.333 465C589.037 468.949 587.823 477.279 582.977 478.37C574.658 480.243 562.065 467.188 553 466.139C543.521 465.042 531.737 475.493 523 471.111C514.133 466.664 512.511 449.713 501.995 449.023C490.212 448.25 477.764 451.173 466 451.94C444.811 453.321 423.141 451.773 402 450.981C386.186 450.39 367.55 442.299 352.005 444.352C342.3 445.633 343.35 462.163 334.94 464.787C326.623 467.382 314.596 454.165 306 453.458C294.633 452.524 279.231 468.178 268.065 463.847C264.058 462.293 261.956 455.632 260.412 452C255.552 440.568 251.146 428.822 247.338 417C246.126 413.237 245.094 402.611 241 402L242 398L241 398L240 400L220 357L221 357L224 365L225 365L210 328L211 328L213 337L214 337L210 320L209 320L209 324L208 324C205.25 312.003 199.025 299.529 202 287L203 287L203 294L204 294L203 276C153.755 275.592 104.915 283.96 59 303.012C47.2903 307.87 36.8436 315.332 26 321.799C21.6507 324.394 15.3438 329.195 10 328.617C6.23083 328.208 3.04335 325.002 0 323C5.69078 330.703 11.5422 330.238 20 328C12.9397 333.636 7.86707 331.244 0 329L0 394C0 404.03 -1.88973 416.288 0.785494 426C4.48839 439.442 10.3556 453.224 17.8148 464.996C22.8166 472.89 30.2362 478.227 32 488L28 488L27 500C18.2927 494.24 11.0917 483.737 0 483C0.100894 494.148 9.98469 508.221 20 513L15 515C15.0351 527.718 23.5515 527.344 28.2755 537.018C33.5547 547.83 21.5507 544.955 16.0015 541.792C13.5475 540.393 11.3373 538.577 9 537L19 551L18 552L10 548C10.7452 555.228 14.7722 559.255 22 560C21.404 548.459 32.4308 558.196 37 561.627C44.5506 567.296 58.9757 584.95 69 584.407C72.3704 584.225 75.3657 580.825 78 579L79 580L74 588C78.3983 591.356 81.8383 594.209 82 600L88 599L84 592L90 591L91 587C97.9732 594.604 87.1019 601.348 84 608C115.024 619.879 149.713 618.68 182 624.804C197.015 627.652 210.532 634.19 225 637.61C236.676 640.371 248.268 639.821 260 641.286C264.849 641.892 267.895 645.797 272.129 646.397C281.762 647.763 291.592 645.41 301 644.993C304.076 644.857 306.971 646.618 310 646.357C314.606 645.961 317.377 641.092 322 640.228C339.825 636.895 358.948 638.577 377 636.83C394.408 635.146 411.546 630.285 429 629.089C464.289 626.673 499.711 628.658 535 625.772C571.599 622.778 606.963 615.363 643 608.611C669.33 603.678 695.088 600.244 721 594L721 593L715 589L722 590C722.941 581.336 727.292 578.887 735 582C738.959 577.582 743.918 574.044 750 574C745.464 580.289 736.933 581.651 736 590L737 590C740.497 585.989 742.279 586.843 747 588L749 583C752.597 584.515 765.131 586.664 763.623 579.089C763.075 576.334 756.808 574.105 758.971 571.118C761.717 567.324 767.242 569.032 771 567.938C777.738 565.974 780.157 558.941 788 560C784.989 548.95 811.734 549.15 818.867 545.49C822.741 543.503 823.914 539.014 828 537L827 542C832.034 541.495 838.305 540.236 840 535L835 530C843.588 531.061 849.041 528.3 850 519L824 526C828.711 517.016 846.494 521.674 849.682 510.79C854.076 495.789 850 473.674 850 458L850 339C850 324.996 852.951 307.11 847.84 294C846.662 290.977 846.615 285.976 844.161 283.662C840.154 279.884 835.994 291.515 835 294L827 291L823 287L829 276L829 275L822 271L821 271C816.099 273.01 811.79 272.383 812 279L808 274L785 271.083L766 272.528L745 264.722L732 262M726 263L726 266L727 266L726 263M725.333 266.667L725.667 267.333L725.333 266.667M41 268L42 269L41 268M724.333 269.667L724.667 270.333L724.333 269.667M723 272L723 275L724 275L723 272M832 273L832 277L835 276L835 274L832 273M722 275L722 278L723 278L722 275z"/>
<path style="fill:#f87e3f; stroke:none;" d="M199 278L199 279L202 280L202 277L199 278z"/>
<path style="fill:#fd4651; stroke:none;" d="M721 278L721 281L722 281L721 278M832 278L830 286C835.019 286.732 836.035 283.407 837 279L832 278z"/>
<path style="fill:#f87e3f; stroke:none;" d="M219 280L220 281L219 280z"/>
<path style="fill:#fd4651; stroke:none;" d="M219 281L219 288L220 288L219 281M720 281L720 284L721 284L720 281M719 284L719 287L720 287L719 284M19 285L20 286L19 285M18 286L19 287L18 286z"/>
<path style="fill:#f87e3f; stroke:none;" d="M786 286L786 288L789 288L789 286L786 286z"/>
<path style="fill:#fd4651; stroke:none;" d="M17 287L18 288L17 287z"/>
<path style="fill:#f87e3f; stroke:none;" d="M98 293L98 294C104.165 293.731 111.91 292.893 115 287L98 293M202 287C198.539 298.714 204.443 312.881 208 324L209 324L202 287z"/>
<path style="fill:#fd4651; stroke:none;" d="M718.333 287.667L718.667 288.333L718.333 287.667M717 289L717 292L718 292L717 289M12 292L13 293L12 292M716 292L716 295L717 295L716 292M11 293L12 294L11 293M10 294L11 295L10 294M204 295L204 302L205 302L204 295M715.333 295.667L715.667 296.333L715.333 295.667z"/>
<path style="fill:#f87e3f; stroke:none;" d="M105 297L105 299L107 299L107 297L105 297z"/>
<path style="fill:#fd4651; stroke:none;" d="M714.333 298.667L714.667 299.333L714.333 298.667M6 299L7 300L6 299z"/>
<path style="fill:#f87e3f; stroke:none;" d="M94 301L98 305L99 299L94 301z"/>
<path style="fill:#fd4651; stroke:none;" d="M205 302L205 307L206 307L205 302M3 303L4 304L3 303M715 303L716 304L715 303M716.667 304.333L717.333 304.667L716.667 304.333M718.667 305.333L719.333 305.667L718.667 305.333z"/>
<path style="fill:#f87e3f; stroke:none;" d="M88 310L93 310L92 306L88 310z"/>
<path style="fill:#fd4651; stroke:none;" d="M720 306L721 307L720 306M206 307L206 312L207 312L206 307M721.667 307.333L722.333 307.667L721.667 307.333M723 308L724 309L723 308M725 309L726 310L725 309M726.667 310.333L727.333 310.667L726.667 310.333M728 311L729 312L728 311M207 312L207 316L208 316L207 312M729 312L730 313L729 312M731 313L732 314L731 313M732 314L735 316L732 314M208 316L208 319L209 319L208 316M735 316L738 318L735 316z"/>
<path style="fill:#f87e3f; stroke:none;" d="M771 317L771 318L782 321C779.563 316.825 775.545 316.505 771 317z"/>
<path style="fill:#fd4651; stroke:none;" d="M738 318L739 319L738 318M224 319L225 320L224 319M739 319L742 321L739 319M742 321L743 322L742 321z"/>
<path style="fill:#f87e3f; stroke:none;" d="M90 325L97 327C96.7815 322.259 92.6462 320.937 90 325z"/>
<path style="fill:#fd4651; stroke:none;" d="M743 322L746 324L743 322z"/>
<path style="fill:#f87e3f; stroke:none;" d="M0 324C0.773332 333.726 14.5763 334.146 20 328C10.8 329.558 7.99308 329.259 0 324z"/>
<path style="fill:#fd4651; stroke:none;" d="M746 324L747 325L746 324z"/>
<path style="fill:#f87e3f; stroke:none;" d="M770 327L774 327L773 324L770 327z"/>
<path style="fill:#fd4651; stroke:none;" d="M747 325L748 326L747 325M748 326L749 327L748 326M749.667 327.333L750.333 327.667L749.667 327.333z"/>
<path style="fill:#f87e3f; stroke:none;" d="M210 328L214 338L210 328z"/>
<path style="fill:#fd4651; stroke:none;" d="M751 328L752 329L751 328M752 329L753 330L752 329M753 330L754 331L753 330M754.667 331.333L755.333 331.667L754.667 331.333M756 332L757 333L756 332M757 333L758 334L757 333M758 334L759 335L758 334M759 335L760 336L759 335M760 336L761 337L760 336M761 337L762 338L761 337M762 338L763 339L762 338z"/>
<path style="fill:#f87e3f; stroke:none;" d="M85 339L88 341L85 339z"/>
<path style="fill:#fd4651; stroke:none;" d="M763 339L764 340L763 339M764 340L765 341L764 340M765 341L766 342L765 341M769 344L770 345L769 344M771 346L772 347L771 346z"/>
<path style="fill:#f87e3f; stroke:none;" d="M216 347L219 357L220 357L216 347z"/>
<path style="fill:#fd4651; stroke:none;" d="M773 349L774 350L773 349M774 350L775 351L774 350M775 351L776 352L775 351M776 352L777 353L776 352M777 353L778 354L777 353M778 354L779 355L778 354M779 355L780 356L779 355M780 356L781 357L780 356z"/>
<path style="fill:#f87e3f; stroke:none;" d="M220 357L240 400L241 400C238.779 387.102 228.34 367.066 220 357z"/>
<path style="fill:#fd4651; stroke:none;" d="M781 357L782 358L781 357M782 358L784 361L782 358M784 361L785 362L784 361M785 362L786 363L785 362M786 363L787 364L786 363M787 364L788 365L787 364M225 366L226 367L225 366M788 366L789 367L788 366M789 367L790 368L789 367M226 368L227 369L226 368M790 368L791 369L790 368M791 369L792 370L791 369M227 370L228 371L227 370M792.333 370.667L792.667 371.333L792.333 370.667M228 372L229 373L228 372M793 372L794 373L793 372M794 373L795 374L794 373M229 374L230 375L229 374M795 374L796 375L795 374M796 375L798 378L796 375M230 376L231 377L230 376M231.333 377.667L231.667 378.333L231.333 377.667M798 378L799 379L798 378M232.333 379.667L232.667 380.333L232.333 379.667M799 379L800 380L799 379M800 380L802 383L800 380M233.333 381.667L233.667 382.333L233.333 381.667M234 383L235 384L234 383M802 383L803 384L802 383M803 384L804 385L803 384M235 385L236 386L235 385M804.333 385.667L804.667 386.333L804.333 385.667M236 387L237 388L236 387M805 387L806 388L805 387M806 388L807 389L806 388M237 389L238 390L237 389M807.333 389.667L807.667 390.333L807.333 389.667M238 391L239 392L238 391M808 391L809 392L808 391M809.333 392.667L809.667 393.333L809.333 392.667M239.333 393.667L239.667 394.333L239.333 393.667M810 394L811 395L810 394M240.333 395.667L240.667 396.333L240.333 395.667M811 396L812 397L811 396M812 397L813 398L812 397M813 399L814 400L813 399z"/>
<path style="fill:#f87e3f; stroke:none;" d="M241.333 400.667L241.667 401.333L241.333 400.667z"/>
<path style="fill:#fd4651; stroke:none;" d="M814 400L815 401L814 400M815.333 401.667L815.667 402.333L815.333 401.667M816 404L817 405L816 404z"/>
<path style="fill:#0d0d0c; stroke:none;" d="M267 405.431C276.235 403.871 276.555 412.8 282.927 415.442C285.623 416.56 288.998 414.383 292 415.226C299.888 417.443 306.61 424.176 314 427.68C320.744 430.877 331.002 432.201 336.678 436.995C341.514 441.078 334.943 451.085 329.985 452.068C322.531 453.545 313.583 443.564 306 442.419C297.012 441.061 280.175 457.051 272.649 450.393C269.974 448.026 268.771 443.208 267.424 440C263.609 430.907 250.465 408.223 267 405.431z"/>
<path style="fill:#f87e3f; stroke:none;" d="M268 405.643C250.421 407.048 263.62 429.934 267.424 439C268.906 442.531 270.257 447.947 273.394 450.381C280.574 455.955 296.49 441.327 305 442.086C313.356 442.832 321.668 452.907 329.96 451.577C334.233 450.892 340.762 441.664 337.353 437.702C333.919 433.711 324.786 432.505 320 430.6C310.491 426.814 302.471 419.469 293 415.998C289.672 414.779 286.283 416.538 283.133 415.458C276.851 413.305 276.677 404.949 268 405.643z"/>
<path style="fill:#fd4651; stroke:none;" d="M817 406L818 407L817 406M818 408L819 409L818 408M819 410L820 411L819 410M820 412L821 413L820 412M821 414L822 415L821 414M822.333 415.667L822.667 416.333L822.333 415.667M823.333 417.667L823.667 418.333L823.333 417.667M824.333 420.667L824.667 421.333L824.333 420.667M825.333 422.667L825.667 423.333L825.333 422.667z"/>
<path style="fill:#f87e3f; stroke:none;" d="M0.333333 425.667L0.666667 426.333L0.333333 425.667z"/>
<path style="fill:#0d0d0c; stroke:none;" d="M571 425.517C589.97 420.146 585.438 440.788 582.873 451C581.944 454.702 581.201 462.488 576.775 463.667C569.15 465.697 560.232 456.631 553 454.998C540.039 452.07 530.366 468.906 521.324 452C520.195 449.888 518.352 446.748 519.357 444.278C520.691 440.996 527.002 439.759 530 438.692C536.833 436.26 544.866 431.933 552 430.929C554.768 430.539 557.289 432.372 560 431.765C564.127 430.84 566.876 426.685 571 425.517z"/>
<path style="fill:#f87e3f; stroke:none;" d="M518 444C518.949 446.782 519.981 449.448 521.464 452C531.042 468.47 541.023 450.81 554 454.981C559.617 456.786 572.779 467.533 578.437 462.393C586.87 454.73 589.759 429.092 577 425.641C570.069 423.767 566.813 429.507 561 431.553C555.797 433.385 549.992 431.868 544 434.189C535.361 437.535 526.211 439.627 518 444z"/>
<path style="fill:#fd4651; stroke:none;" d="M312 427L313 428L312 427M314 428L315 429L314 428z"/>
<path style="fill:#f87e3f; stroke:none;" d="M828 428L830 438L831 438L828 428M2 430L3 431L2 430z"/>
<path style="fill:#fd4651; stroke:none;" d="M346 430L347 431L346 430z"/>
<path style="fill:#f87e3f; stroke:none;" d="M347 430L348 431L347 430M3 433L4 434L3 433M4.33333 435.667L4.66667 436.333L4.33333 435.667M5 439L6 440L5 439M414 440L415 441L414 440z"/>
<path style="fill:#fd4651; stroke:none;" d="M337 443L338 444L337 443z"/>
<path style="fill:#f87e3f; stroke:none;" d="M7 444L8 445L7 444M9 449L10 450L9 449M13 457L14 458L13 457M14 459L15 460L14 459M16 462L17 463L16 462M17 464L18 465L17 464M18 466L20 468L18 466M20 469L31 486L32 486C29.9707 479.101 26.2807 472.671 20 469M0 480L13 489L0 480M31 487L32 488L31 487M0 490L1 491L0 490M15 490L21 496L15 490M2 493L3 494L2 493M30 493L27 494L28 497L23 497L27 500L30 493M5 497L6 498L5 497M15 510L16 511L15 510M18 512L20 514L18 512M17 514L18 515L17 514M841 517L842 518L841 517M837 519L838 520L837 519M845 520L846 521L845 520M837 523L838 524L837 523M15 524L16 525L15 524M824 525L825 526L824 525M20 529L21 530L20 529M27 534L28 535L27 534z"/>
<path style="fill:#fd4651; stroke:none;" d="M20 537L23 540L20 537z"/>
<path style="fill:#f87e3f; stroke:none;" d="M827 537L828 538L827 537M20 538L21 539L20 538M833 540L834 541L833 540M11 541L12 542L11 541M14 541L15 542L14 541M827 542L828 543L827 542M28 545L29 546L28 545M17 547L18 548L17 547M12 549L13 550L12 549M10 552L11 553L10 552M25 553L26 554L25 553M839 554L840 555L839 554z"/>
<path style="fill:#fd4651; stroke:none;" d="M837 555C837.86 558.081 838.908 558.522 842 558L837 555z"/>
<path style="fill:#f87e3f; stroke:none;" d="M841.333 555.667L841.667 556.333L841.333 555.667M30 556L31 557L30 556z"/>
<path style="fill:#fd4651; stroke:none;" d="M794 558L794 559L798 557L794 558M819 562L819 563L828 567C830.951 563.162 833.277 562.556 838 563L838 562L834 557L819 562z"/>
<path style="fill:#f87e3f; stroke:none;" d="M15 558L16 559L15 558M834 558L835 559L834 558M17 559L18 560L17 559M779 561L780 562L779 561M836 561L837 562L836 561z"/>
<path style="fill:#fd4651; stroke:none;" d="M840 561L841 562L840 561M806 564C807.69 569.501 814.005 568.209 819 569C816.753 561.679 812.276 564.028 806 564z"/>
<path style="fill:#f87e3f; stroke:none;" d="M837 563L838 564L837 563M809.667 564.333L810.333 564.667L809.667 564.333z"/>
<path style="fill:#fd4651; stroke:none;" d="M798 567L805 572C803.479 568.249 802.182 566.39 798 567z"/>
<path style="fill:#f87e3f; stroke:none;" d="M803 567L804 568L803 567M770 568L771 569L770 568z"/>
<path style="fill:#fd4651; stroke:none;" d="M768 576C772.174 582.285 790.529 576.329 797 574L795 568L768 576z"/>
<path style="fill:#f87e3f; stroke:none;" d="M47 569L48 570L47 569M795 569L796 570L795 569M757 572L758 573L757 572M749.333 574.667L749.667 575.333L749.333 574.667M758 574L759 575L758 574M54 575L55 576L54 575M772 575L773 576L772 575M792 575L793 576L792 575M767 576L768 577L767 576M76 579L77 580L76 579M726 579L725 581L726 579M736 579L737 580L736 579M745 579L746 580L745 579M40 580L41 581L40 580z"/>
<path style="fill:#fd4651; stroke:none;" d="M41 580C45.9764 588.865 64.741 602.445 75 603C70.1658 591.059 52.1014 584.623 41 580z"/>
<path style="fill:#f87e3f; stroke:none;" d="M42 580L43 581L42 580M60 580L61 581L60 580M44 581L45 582L44 581M733 581L734 582L733 581M741 581L742 582L741 581M41 582L42 583L41 582M63 582L64 583L63 582M95 582L95 584L97 584L97 582L95 582M723 583L724 584L723 583M749 583L748 585L749 583M80 587L81 587L85 588C85.9462 583.796 81.8335 584.197 80 587z"/>
<path style="fill:#fd4651; stroke:none;" d="M727 584L731 590L730 584L727 584z"/>
<path style="fill:#f87e3f; stroke:none;" d="M752 584L753 585L752 584M758 584L759 585L758 584M51 585L52 586L51 585M68 585L69 586L68 585z"/>
<path style="fill:#fbfbf9; stroke:none;" d="M81 585L85 589L85 585L81 585z"/>
<path style="fill:#f87e3f; stroke:none;" d="M722 585L723 586L722 585M736 585L737 586L736 585M730 586L731 587L730 586M743 586L744 587L743 586M91 587L92 588L91 587M81 588L82 589L81 588M93 588L94 589L93 588M719 588L720 589L719 588M735.333 588.667L735.667 589.333L735.333 588.667M60 589L61 590L60 589M76 589L77 590L76 589M83 589L84 590L83 589M737 589L738 590L737 589M52 590L53 591L52 590M729.667 590.333L730.333 590.667L729.667 590.333M63 591L64 592L63 591M721 591L722 594L721 591M55 592L56 593L55 592M717 592L718 593L717 592M84 593L88 597L84 593M719 594L720 595L719 594M59 595L60 596L59 595M62 597L63 598L62 597M71 597L72 598L71 597M92 597L93 598L92 597M73 599L74 600L73 599M81 599L82 600L81 599M84 599L85 600L84 599M702 599L703 600L702 599M693 601L694 602L693 601M74 603L75 604L74 603M669 603L670 604L669 603M661 605L662 606L661 605M657.667 606.333L658.333 606.667L657.667 606.333M649 607L650 608L649 607M84 608L85 609L84 608M643 608L644 609L643 608M88 609L89 610L88 609M638 609L639 610L638 609M633 610L634 611L633 610M94 611L95 612L94 611M628 611L629 612L628 611M99 612L100 613L99 612M623 612L624 613L623 612M618 613L619 614L618 613M108 614L109 615L108 614M612 614L613 615L612 614M114 615L115 616L114 615M602 616L603 617L602 616M134 618L135 619L134 618M594 618L595 619L594 618M140.667 619.333L141.333 619.667L140.667 619.333M585 619L586 620L585 619M148.667 620.333L149.333 620.667L148.667 620.333M579 620L580 621L579 620M157.667 621.333L158.333 621.667L157.667 621.333M575 621L576 622L575 621M165 622L166 623L165 622M567 622L568 623L567 622M171 623L171 624L174 624L171 623M178 624L178 625L181 625L178 624M547.667 624.333L548.333 624.667L547.667 624.333M535 625L536 626L535 625M538.667 625.333L539.333 625.667L538.667 625.333M190 626L191 627L190 626M521 626L522 627L521 626M527 626L528 627L527 626M196 627L197 628L196 627M509 627L510 628L509 627M200 628L201 629L200 628M442 628L443 629L442 628M203 629L204 630L203 629M425 629L425 630L428 630L425 629M417.667 630.333L418.333 630.667L417.667 630.333M213 632L214 633L213 632M405 632L406 633L405 632M392 634L393 635L392 634M385 635L386 636L385 635M379 636L380 637L379 636M223 637L224 638L223 637M363 637L363 638L366 638L363 637M230.667 638.333L231.333 638.667L230.667 638.333M351 638L351 639L354 639L351 638M355.667 638.333L356.333 638.667L355.667 638.333M329 639L329 640L332 640L329 639M242 640L243 641L242 640M319 640L320 641L319 640M261 641L262 642L261 641M300.667 644.333L301.333 644.667L300.667 644.333M297 645L298 646L297 645M273.667 646.333L274.333 646.667L273.667 646.333M286 646L287 647L286 646M295 646L296 647L295 646M290 647L290 648L293 648L290 647z"/>
</svg>
