<?xml version="1.0" encoding="UTF-8" standalone="no"?><!DOCTYPE svg PUBLIC "-//W3C//DTD SVG 1.1//EN" "http://www.w3.org/Graphics/SVG/1.1/DTD/svg11.dtd"><!-- Generated by graphviz version 2.40.1 (20161225.0304)
 --><!-- Title: CFG for &#39;f&#39; function Pages: 1 --><svg xmlns="http://www.w3.org/2000/svg" xmlns:xlink="http://www.w3.org/1999/xlink" width="286pt" height="409pt" viewBox="0.00 0.00 286.38 408.60">
<g id="graph0" class="graph" transform="scale(1 1) rotate(0) translate(4 404.6)">
<title>CFG for 'f' function</title>
<polygon fill="#ffffff" stroke="transparent" points="-4,4 -4,-404.6 282.3772,-404.6 282.3772,4 -4,4"/>
<text text-anchor="middle" x="139.1886" y="-8.2" font-family="Times,serif" font-size="14.00" fill="#000000">CFG for 'f' function</text>
<!-- Node0x19aab40 -->
<g id="node1" class="node">
<title>Node0x19aab40</title>
<polygon fill="#b9d0f9" fill-opacity="0.439216" stroke="#3d50c3" points="54.1447,-324.9 54.1447,-400.1 243.9533,-400.1 243.9533,-324.9 54.1447,-324.9"/>
<text text-anchor="start" x="62.1447" y="-383.5" font-family="Times,serif" font-size="14.00" fill="#000000">%1:</text>
<text text-anchor="start" x="62.1447" y="-366.7" font-family="Times,serif" font-size="14.00" fill="#000000"> %2 = alloca i32, align 4</text>
<text text-anchor="start" x="62.1447" y="-349.9" font-family="Times,serif" font-size="14.00" fill="#000000"> store i32 %0, i32* %2, align 4</text>
<text text-anchor="start" x="62.1447" y="-333.1" font-family="Times,serif" font-size="14.00" fill="#000000"> br label %3</text>
</g>
<!-- Node0x19ab2b0 -->
<g id="node2" class="node">
<title>Node0x19ab2b0</title>
<polygon fill="#b70d28" fill-opacity="0.439216" stroke="#b70d28" points="50,-171.1 50,-287.9 248.098,-287.9 248.098,-171.1 50,-171.1"/>
<text text-anchor="start" x="58" y="-271.3" font-family="Times,serif" font-size="14.00" fill="#000000">%3:</text>
<text text-anchor="start" x="58" y="-254.5" font-family="Times,serif" font-size="14.00" fill="#000000">3: </text>
<text text-anchor="start" x="58" y="-237.7" font-family="Times,serif" font-size="14.00" fill="#000000"> %4 = load i32, i32* %2, align 4</text>
<text text-anchor="start" x="58" y="-220.9" font-family="Times,serif" font-size="14.00" fill="#000000"> %5 = icmp sgt i32 %4, 0</text>
<text text-anchor="start" x="58" y="-204.1" font-family="Times,serif" font-size="14.00" fill="#000000"> br i1 %5, label %6, label %9</text>
<polyline fill="none" stroke="#b70d28" points="50,-195.9 248.098,-195.9 "/>
<text text-anchor="middle" x="99.2763" y="-179.3" font-family="Times,serif" font-size="14.00" fill="#000000">T</text>
<polyline fill="none" stroke="#b70d28" points="148.5526,-171.1 148.5526,-195.9 "/>
<text text-anchor="middle" x="197.9439" y="-179.3" font-family="Times,serif" font-size="14.00" fill="#000000">F</text>
</g>
<!-- Node0x19aab40&#45;&gt;Node0x19ab2b0 -->
<g id="edge1" class="edge">
<title>Node0x19aab40-&gt;Node0x19ab2b0</title>
<path fill="none" stroke="#000000" d="M149.049,-324.7433C149.049,-316.4293 149.049,-307.3731 149.049,-298.2602"/>
<polygon fill="#000000" stroke="#000000" points="152.5491,-297.9839 149.049,-287.9839 145.5491,-297.9839 152.5491,-297.9839"/>
</g>
<!-- Node0x19ab430 -->
<g id="node3" class="node">
<title>Node0x19ab430</title>
<polygon fill="#bb1b2c" fill-opacity="0.439216" stroke="#b70d28" points="0,-25.3 0,-134.1 198.098,-134.1 198.098,-25.3 0,-25.3"/>
<text text-anchor="start" x="8" y="-117.5" font-family="Times,serif" font-size="14.00" fill="#000000">%6:</text>
<text text-anchor="start" x="8" y="-100.7" font-family="Times,serif" font-size="14.00" fill="#000000">6: </text>
<text text-anchor="start" x="8" y="-83.9" font-family="Times,serif" font-size="14.00" fill="#000000"> %7 = load i32, i32* %2, align 4</text>
<text text-anchor="start" x="8" y="-67.1" font-family="Times,serif" font-size="14.00" fill="#000000"> %8 = sub nsw i32 %7, 1</text>
<text text-anchor="start" x="8" y="-50.3" font-family="Times,serif" font-size="14.00" fill="#000000"> store i32 %8, i32* %2, align 4</text>
<text text-anchor="start" x="8" y="-33.5" font-family="Times,serif" font-size="14.00" fill="#000000"> br label %3, !llvm.loop !6</text>
</g>
<!-- Node0x19ab2b0&#45;&gt;Node0x19ab430 -->
<g id="edge2" class="edge">
<title>Node0x19ab2b0:s0-&gt;Node0x19ab430</title>
<path fill="none" stroke="#000000" d="M99.049,-171.5C97.1333,-162.8153 95.6253,-153.6685 94.5251,-144.6497"/>
<polygon fill="#000000" stroke="#000000" points="97.9897,-144.1291 93.4563,-134.5531 91.0286,-144.866 97.9897,-144.1291"/>
</g>
<!-- Node0x19ab480 -->
<g id="node4" class="node">
<title>Node0x19ab480</title>
<polygon fill="#b9d0f9" fill-opacity="0.439216" stroke="#3d50c3" points="215.7208,-50.5 215.7208,-108.9 278.3772,-108.9 278.3772,-50.5 215.7208,-50.5"/>
<text text-anchor="start" x="223.7208" y="-92.3" font-family="Times,serif" font-size="14.00" fill="#000000">%9:</text>
<text text-anchor="start" x="223.7208" y="-75.5" font-family="Times,serif" font-size="14.00" fill="#000000">9: </text>
<text text-anchor="start" x="223.7208" y="-58.7" font-family="Times,serif" font-size="14.00" fill="#000000"> ret void</text>
</g>
<!-- Node0x19ab2b0&#45;&gt;Node0x19ab480 -->
<g id="edge3" class="edge">
<title>Node0x19ab2b0:s1-&gt;Node0x19ab480</title>
<path fill="none" stroke="#000000" d="M247.049,-183.5C273.9254,-183.5 269.4864,-148.2703 261.0977,-118.8591"/>
<polygon fill="#000000" stroke="#000000" points="264.4067,-117.7107 258.141,-109.1673 257.7114,-119.7534 264.4067,-117.7107"/>
</g>
<!-- Node0x19ab430&#45;&gt;Node0x19ab2b0 -->
<g id="edge4" class="edge">
<title>Node0x19ab430-&gt;Node0x19ab2b0</title>
<path fill="none" stroke="#000000" d="M104.6724,-134.2093C103.8928,-143.0043 102.7086,-152.1545 101.1198,-161.0764"/>
<polygon fill="#000000" stroke="#000000" points="97.6596,-160.5325 99.1541,-171.0214 104.5268,-161.8899 97.6596,-160.5325"/>
</g>
</g>
</svg>