<?xml version="1.0" encoding="UTF-8" standalone="no"?><!DOCTYPE svg PUBLIC "-//W3C//DTD SVG 1.1//EN" "http://www.w3.org/Graphics/SVG/1.1/DTD/svg11.dtd"><!-- Generated by graphviz version 2.40.1 (20161225.0304)
 --><!-- Title: CFG for &#39;f&#39; function Pages: 1 --><svg xmlns="http://www.w3.org/2000/svg" xmlns:xlink="http://www.w3.org/1999/xlink" width="468pt" height="588pt" viewBox="0.00 0.00 467.60 588.00">
<g id="graph0" class="graph" transform="scale(1 1) rotate(0) translate(4 584)">
<title>CFG for 'f' function</title>
<polygon fill="#ffffff" stroke="transparent" points="-4,4 -4,-584 463.598,-584 463.598,4 -4,4"/>
<text text-anchor="middle" x="229.799" y="-8.2" font-family="Times,serif" font-size="14.00" fill="#000000">CFG for 'f' function</text>
<!-- Node0x108cbc0 -->
<g id="node1" class="node">
<title>Node0x108cbc0</title>
<polygon fill="#b9d0f9" fill-opacity="0.439216" stroke="#3d50c3" points="136.975,-470.7 136.975,-579.5 315.123,-579.5 315.123,-470.7 136.975,-470.7"/>
<text text-anchor="start" x="144.975" y="-562.9" font-family="Times,serif" font-size="14.00" fill="#000000">%0:</text>
<text text-anchor="start" x="144.975" y="-546.1" font-family="Times,serif" font-size="14.00" fill="#000000"> %1 = alloca i32, align 4</text>
<text text-anchor="start" x="144.975" y="-529.3" font-family="Times,serif" font-size="14.00" fill="#000000"> %2 = alloca i32, align 4</text>
<text text-anchor="start" x="144.975" y="-512.5" font-family="Times,serif" font-size="14.00" fill="#000000"> store i32 1, i32* %1, align 4</text>
<text text-anchor="start" x="144.975" y="-495.7" font-family="Times,serif" font-size="14.00" fill="#000000"> store i32 0, i32* %2, align 4</text>
<text text-anchor="start" x="144.975" y="-478.9" font-family="Times,serif" font-size="14.00" fill="#000000"> br label %3</text>
</g>
<!-- Node0x108d3f0 -->
<g id="node2" class="node">
<title>Node0x108d3f0</title>
<polygon fill="#b70d28" fill-opacity="0.439216" stroke="#b70d28" points="127,-316.9 127,-433.7 325.098,-433.7 325.098,-316.9 127,-316.9"/>
<text text-anchor="start" x="135" y="-417.1" font-family="Times,serif" font-size="14.00" fill="#000000">%3:</text>
<text text-anchor="start" x="135" y="-400.3" font-family="Times,serif" font-size="14.00" fill="#000000">3: </text>
<text text-anchor="start" x="135" y="-383.5" font-family="Times,serif" font-size="14.00" fill="#000000"> %4 = load i32, i32* %2, align 4</text>
<text text-anchor="start" x="135" y="-366.7" font-family="Times,serif" font-size="14.00" fill="#000000"> %5 = icmp slt i32 %4, 10</text>
<text text-anchor="start" x="135" y="-349.9" font-family="Times,serif" font-size="14.00" fill="#000000"> br i1 %5, label %6, label %12</text>
<polyline fill="none" stroke="#b70d28" points="127,-341.7 325.098,-341.7 "/>
<text text-anchor="middle" x="176.2763" y="-325.1" font-family="Times,serif" font-size="14.00" fill="#000000">T</text>
<polyline fill="none" stroke="#b70d28" points="225.5526,-316.9 225.5526,-341.7 "/>
<text text-anchor="middle" x="274.9439" y="-325.1" font-family="Times,serif" font-size="14.00" fill="#000000">F</text>
</g>
<!-- Node0x108cbc0&#45;&gt;Node0x108d3f0 -->
<g id="edge1" class="edge">
<title>Node0x108cbc0-&gt;Node0x108d3f0</title>
<path fill="none" stroke="#000000" d="M226.049,-470.595C226.049,-461.9033 226.049,-452.8151 226.049,-443.849"/>
<polygon fill="#000000" stroke="#000000" points="229.5491,-443.8056 226.049,-433.8057 222.5491,-443.8057 229.5491,-443.8056"/>
</g>
<!-- Node0x108d570 -->
<g id="node3" class="node">
<title>Node0x108d570</title>
<polygon fill="#bb1b2c" fill-opacity="0.439216" stroke="#b70d28" points="0,-171.1 0,-279.9 198.098,-279.9 198.098,-171.1 0,-171.1"/>
<text text-anchor="start" x="8" y="-263.3" font-family="Times,serif" font-size="14.00" fill="#000000">%6:</text>
<text text-anchor="start" x="8" y="-246.5" font-family="Times,serif" font-size="14.00" fill="#000000">6: </text>
<text text-anchor="start" x="8" y="-229.7" font-family="Times,serif" font-size="14.00" fill="#000000"> %7 = load i32, i32* %1, align 4</text>
<text text-anchor="start" x="8" y="-212.9" font-family="Times,serif" font-size="14.00" fill="#000000"> %8 = mul nsw i32 %7, 2</text>
<text text-anchor="start" x="8" y="-196.1" font-family="Times,serif" font-size="14.00" fill="#000000"> store i32 %8, i32* %1, align 4</text>
<text text-anchor="start" x="8" y="-179.3" font-family="Times,serif" font-size="14.00" fill="#000000"> br label %9</text>
</g>
<!-- Node0x108d3f0&#45;&gt;Node0x108d570 -->
<g id="edge2" class="edge">
<title>Node0x108d3f0:s0-&gt;Node0x108d570</title>
<path fill="none" stroke="#000000" d="M127.049,-329.3C107.1493,-329.3 98.9683,-311.2965 96.1965,-290.2853"/>
<polygon fill="#000000" stroke="#000000" points="99.6642,-289.7725 95.2616,-280.1358 92.6937,-290.4147 99.6642,-289.7725"/>
</g>
<!-- Node0x108d5c0 -->
<g id="node4" class="node">
<title>Node0x108d5c0</title>
<polygon fill="#b9d0f9" fill-opacity="0.439216" stroke="#3d50c3" points="254.5,-187.9 254.5,-263.1 459.598,-263.1 459.598,-187.9 254.5,-187.9"/>
<text text-anchor="start" x="262.5" y="-246.5" font-family="Times,serif" font-size="14.00" fill="#000000">%12:</text>
<text text-anchor="start" x="262.5" y="-229.7" font-family="Times,serif" font-size="14.00" fill="#000000">12: </text>
<text text-anchor="start" x="262.5" y="-212.9" font-family="Times,serif" font-size="14.00" fill="#000000"> %13 = load i32, i32* %1, align 4</text>
<text text-anchor="start" x="262.5" y="-196.1" font-family="Times,serif" font-size="14.00" fill="#000000"> ret i32 %13</text>
</g>
<!-- Node0x108d3f0&#45;&gt;Node0x108d5c0 -->
<g id="edge3" class="edge">
<title>Node0x108d3f0:s1-&gt;Node0x108d5c0</title>
<path fill="none" stroke="#000000" d="M324.049,-329.3C349.4518,-329.3 357.2812,-300.7166 358.9856,-273.5484"/>
<polygon fill="#000000" stroke="#000000" points="362.4937,-273.3894 359.3628,-263.2678 355.4984,-273.1327 362.4937,-273.3894"/>
</g>
<!-- Node0x108d520 -->
<g id="node5" class="node">
<title>Node0x108d520</title>
<polygon fill="#bb1b2c" fill-opacity="0.439216" stroke="#b70d28" points="59.5,-25.3 59.5,-134.1 264.598,-134.1 264.598,-25.3 59.5,-25.3"/>
<text text-anchor="start" x="67.5" y="-117.5" font-family="Times,serif" font-size="14.00" fill="#000000">%9:</text>
<text text-anchor="start" x="67.5" y="-100.7" font-family="Times,serif" font-size="14.00" fill="#000000">9: </text>
<text text-anchor="start" x="67.5" y="-83.9" font-family="Times,serif" font-size="14.00" fill="#000000"> %10 = load i32, i32* %2, align 4</text>
<text text-anchor="start" x="67.5" y="-67.1" font-family="Times,serif" font-size="14.00" fill="#000000"> %11 = add nsw i32 %10, 1</text>
<text text-anchor="start" x="67.5" y="-50.3" font-family="Times,serif" font-size="14.00" fill="#000000"> store i32 %11, i32* %2, align 4</text>
<text text-anchor="start" x="67.5" y="-33.5" font-family="Times,serif" font-size="14.00" fill="#000000"> br label %3, !llvm.loop !6</text>
</g>
<!-- Node0x108d570&#45;&gt;Node0x108d520 -->
<g id="edge4" class="edge">
<title>Node0x108d570-&gt;Node0x108d520</title>
<path fill="none" stroke="#000000" d="M122.6871,-170.7946C126.5223,-161.9189 130.5236,-152.6587 134.4432,-143.5876"/>
<polygon fill="#000000" stroke="#000000" points="137.7342,-144.795 138.4879,-134.227 131.3084,-142.0184 137.7342,-144.795"/>
</g>
<!-- Node0x108d520&#45;&gt;Node0x108d3f0 -->
<g id="edge5" class="edge">
<title>Node0x108d520-&gt;Node0x108d3f0</title>
<path fill="none" stroke="#000000" d="M193.0157,-134.1685C198.5208,-145.8745 203.5925,-158.4016 207.049,-170.6 219.5356,-214.667 224.2779,-265.9922 225.9025,-306.2252"/>
<polygon fill="#000000" stroke="#000000" points="222.4131,-306.5955 226.2589,-316.4677 229.4089,-306.352 222.4131,-306.5955"/>
</g>
</g>
</svg>