<svg id="图层_1" data-name="图层 1" xmlns="http://www.w3.org/2000/svg" viewBox="0 0 638.6 392.85"><defs><style>.cls-1{fill:#da417c;}.cls-2{fill:#130a0a;}.cls-3{fill:#e5ba2e;}.cls-4{fill:#040404;}</style></defs><title>未标题-2</title><rect class="cls-1" x="10.42" y="10.42" width="626.77" height="381.01"/><path class="cls-2" d="M638.6,392.85H9V9H638.6ZM11.83,390H635.77V11.84H11.83Z"/><rect class="cls-3" x="0.68" y="0.68" width="623.79" height="377.08"/><path class="cls-4" d="M625.15,378.45H0V0H625.15ZM1.37,377.08H623.79V1.37H1.37Z"/><path class="cls-2" d="M55.76,118.57l-.17,2.13-5.51,0,.2-1.77,1.71-.11,1.07-9.25h2.37l-1.05,9.1Zm-3.22-7-1.74.16.25-2.15h1.74Z"/><path class="cls-2" d="M61.12,118.21l1.44-1,2.48,2.9-2,1.51Z"/><path class="cls-2" d="M75.28,121.64l-.47-1.06,0,0-3.14,1.21-.61-1.5.75-5.47h-1.4l.28-2h2.6l.24.28.74.84L73.59,119l1.41-.52.11,1.33,4.52-11.28,2.26.52-2,5h0l-.72,1.77L76.73,122Zm-3-12.64h2.6l-.36,2.56h-2.6Zm7,6.93.28-.76,1.79-.68,1.47,5.79q-.13.25-.45.8l-.17.28-1.49.58Z"/><path class="cls-2" d="M89.76,108.57H92l-.28,2-1.58,11H87.91ZM91.94,114h1.91l-.22,1.58-.06.5-.14,1,2.48,0,.2-1.53-2.32,0L94,114l3.11,0,1,1.12-.33,2.41-1.27,1.12-5.18,0Zm4.08,5.7h2.23l1.29-9.21H91.91l.27-2H101l1,1.12-1.49,10.68-.74.66-.53.47H95.78Zm-3.8-8.31h6.45l-.25,1.85H92Z"/><path class="cls-2" d="M106.62,115.53h2.18l-.27,1.91,0,.24-.28,2.1h1.38l.31-2.33h-1.22l.27-1.91h2.26l.3.35.66.79-.55,3.93-1.27,1.12h-4.6Zm2.6-6.44h2.24L111.2,111l-.08.46-.17,1.29h4.58l.25-1.75h-4.44l.27-1.89h5.57l.33.39.63.73-.46,3.33q-.63.54-1.29,1.14h-8Zm4,6.42h2.16l-.27,1.92L115,118l-.25,1.8h1.44l.31-2.33h-1.29l.27-1.92h2.35l1,1.12-.55,4L117,121.71h-4.66Z"/><path class="cls-2" d="M124,122l-.44-.55-.27-.32,2-11.77,2.29.08-.56,3-.33,2-.16.85h0l-.35,2-.8,4.72Zm3-4.69h-.66l.36-2h1.52q.38.41,1,1.12l-.75,5.58H126.4Zm.17-4.86H128v0h2.35l-.27,2-3.22,0Zm1.24-3.31h1.79l-.44,3.14H128Zm4.23,11.11H129l.28-2h1.22l-.27-.22a4.36,4.36,0,0,1,0-.44c0-.13,0-.24,0-.35l1.18-1.21H130l.86-6.26h1.68l-.22,1.61-.11.76-.22,1.53-.06.47,0,.28h1v0l1.71,0v0h1l.09-.74h-.94l-.08.58-1.73,0,.08-.58h-.82l.22-1.53,3.48,0,.11-.76h-1l-.08.6-1.73,0,.09-.6h-.83l.24-1.61h.14v0h3.92l1,1.12-.56,4L135.91,116h-2.07l-.44.46h2.09l-.22,1.61H133l.19-1.36-1.47,1.51h5.25l-.28,2H135l-.27,1.85h-2.27Zm.39-11.26,2,0-.19.58h-2Z"/><path class="cls-2" d="M151.65,119.65h3l-.27,1.86h-8.3l.16-1.21-4.89.84,0-2,1.11-.19,0,0,2.57-.43,1.25-.19,0,1.83.08-.55h3v0h2.31Zm-8.52-4.15H142l.25-1.89h4.5l-.27,1.89h-1.1l-.41,2.9-2.29.38Zm-.61-4.4.27-2h4.8l-.28,2Zm.89,2.37.33-2.37,0,.14H146l-.31,2.22Zm8.64,3.23h2.65l-.25,1.81h-2.65l-.13,1h-2.32l.14-1h-2.62l.27-1.81h2.6v0h2.32Zm3.78-6.91-.69,5q-.82.69-1.27,1.12h-1.69l-.09.63h-2.31l.08-.63h-2.79l1-7.21h6.81Zm-4.92.62H150l-.13,1-.25,1.74,0,.21-.11.8h.94l.14-1h-.78l.24-1.74h.78Zm2.31,2.71h-.94l-.14,1h.94Zm.38-2.71h-.93l-.14,1h.93Z"/><path class="cls-2" d="M159.67,121.19l-.6-.95,1-3.93,2,.24-1.19,4.8Zm.38-8.14.44-1.12,7-4,1.74,1.18-.3.19-2.2,1.29-6.16,3.71Zm2.09,7.78-.31-.36.61-4.32h2.35l-.5,3.55h3.61l.19-1.25h2.05l-.28,2-1.27,1.14h-5.79Q162.41,121.18,162.13,120.83Zm2.95-5,2-.43,0,.69.83-1.07h-5.74l.27-1.89h4l-1.05-1.2,1.4-1.21,1.27,1.42-1.15,1h2.85q.22.28.6.69l.36.43-.11.77-1.82,2.35-1.65-.74.19,2-2,.43Zm1.79-5.21,2.2-1.31,4.28,2.51a5.83,5.83,0,0,1,.13.71l.08.41-.77,1.25Zm3.17,6,2.07-.52.36,3.83-.44.58-.31.43-1.22.3Z"/><path class="cls-2" d="M178.4,118.21l1.44-1,2.48,2.9-2,1.51Z"/><path class="cls-2" d="M187.23,119.74l4.81-1.1.19,2-4.83,1.09Zm.44-3.09,2.07-2.48h-1.07l1.79-1.7.74,0,1.16-1.37,1.55,1.4-2.71,3.17-3.12,2.82Zm.06-4.28,3.26-4.09,1.68,1.29-2,2.49-2.21,2.1Zm3.14,3.74,1.77-.22-.08,2-4.25.58Zm1.66,3.57h7.65l-.27,2h-7.65Zm3.14-2.38h-2.56l.27-1.91h7.17l-.27,1.91h-2.21l0,0h-2.38Zm-1.88-3,.17-.62.16-.6,3.44-2.27h-3.36l.27-1.92h5.8q.47.57.72.84l-.17,1.15L199.18,112l-1.76,1.25-2.95,2.05Zm1.87,3.16H198l-.28,2.07h-2.38Zm1.9-4.1,1.77-1.25,1.38,1.07q0,.51.06,1.17l-.8,1Z"/><path class="cls-2" d="M207.52,114.91h-1.87l.3-2.16.63-.55.33-.28h1.38l-.22,1.61-.06.39,0,.21h2l-.16,1.21-.06.39,0,.39h4.8l.11-.79h-4.66l.17-1.21h6.57l.09-.6h-8.56l.24-1.61h9.91l.72.84-.31,2.16h-1.85l-.22,1.55-.64.58-.31.27-8.56,0Zm-1.32,3h2.37l-.19,1.37-.08.47-.06.47h6.46l.14-.95h-6.32l.19-1.37h7.83q.25.27.72.84l-.28,2.05-1,.84H205.69Zm2.78-7h-2.62l.25-1.77h2.62l.11-.74h2.31l-.11.74h2.95l.11-.74h2.31l-.11.74h2.64l-.25,1.77h-2.62l-.11.69h-2.31l.09-.69H211.3l-.11.69h-2.31Z"/><path class="cls-2" d="M225.2,114.46l-1.05,3.93-.86-.19-.35-.65,1.49-4.89H224l.28-2h1.49v0h2.16v0H229l-.28,2h-1.1l-.11.73.93-.14.11,2.46q-.39.52-.52.66l-.55.13-.09-2.16-1,7.4h-2.18Zm.88-6.25h2.16l-.33,2.29h-2.16Zm6.16,11.44.58-.6h-.74l-2.53,2.87-1-.62q0-.81-.06-1.28l.93-1h-1.35l.24-1.78h2.53l.19-.41h2.37l-.19.41h3.4l-.25,1.78h-1.57l1,.79,0,.38,0,.85-.86.87Zm-3-8.2h2.12l-.22,1.55-.06.52L231,114.6l0,.35,0,.21h3.53l.08-.55h-3.37l.14-1.09h3.37l.08-.52h-3.37l.22-1.55h4.36l.39.45.31.37.25.3-.42,3-1.27,1.12h-6.63Zm1.18-.95h-1.24l.25-1.72h1.22l.08-.58h2l-.08.58h1.58l.08-.58h2l-.08.58h1.36l-.24,1.72H236l-.11.74h-2l.11-.74h-1.58l-.11.74h-2Z"/><path class="cls-2" d="M241.07,119.38l7.7-.68-.11,2.1-7.73.68Zm9.36,1.69-.6-.55-.5-8h-7.65l.3-2.11h7.22l-.14-2.32,2.42-.08.16,2.4h1.58l1.38.09,0-.09h.64l-.28,2.11h-3.15l.46,6.82H254l-.28,2.1h-2.93ZM242.09,114h7l-.28,2.1h-7Zm1.94,2.24h2.38l-.35,2.54-2.42.21Zm8.28-7.83,2-.08.28,1.89h-2Zm2.26,2h-1.37l1.37.09Z"/><path class="cls-2" d="M259,116.56h8.78l-.27,1.94h-8.8Zm5.27,3.19h4.3l.64-4.51h-7.34l-1-1.14.82-5.79H264l-.19,1.42-.27,1.92-.24,1.59h7.42l.49.55.47.57-.85,6.15-.36.32-.92.8H264Zm-.28-10h9.08l-.27,1.92h-9.08Z"/><path class="cls-2" d="M276.41,119.63H289.6l-.27,2H276.13Zm1-5.4.3-1.21,7.11-4.86,1.66,1.25-.58.39,0,0L284,111.16v0l-5.85,4.13Zm1.24,1h2.27l-.6,4.29h-2.27Zm4.38-2.62h2.37L285,115.4l-.28,2-.3,2.13H282.1Zm1.07-1.34,1.95-1.34,4.11,3q0,.27.06,1.18l-1,1.17Zm1.08,4.17h4.08l-.28,2h-4.08Z"/><path class="cls-2" d="M294.43,119.81h13.14l-.27,1.92-13.16,0Zm1.35-8.69,2.12-.3,0,6.22-2.15.3Zm3.86-2.45h2.2l-1.54,11h-2.2Zm3.59,0h2.2l-1.5,11h-2.23Zm1.43,8.35,2-6.2,2,.38-2,6.2Z"/><path class="cls-2" d="M313.05,121.11l.09-1.23,4-3.6-2.42-3.46,1.85-1.14h-2.76l.28-2.07h12.16l-.28,2.07H323.4l1.52,1-3.53,3.6,2.82,3.57L324,121.1l-1.47,1.09-3.42-4.48-4.88,4.48Zm9.54-9.42h-5.35l2.18,3.44Zm-3.78-3.46h2.29l.13,1.23h-2.31Z"/><path class="cls-2" d="M332.61,115.47l-1.69-.76,3.76-6.29,2,1-2.27,3.79h.88L334.05,122H331.7Zm2.65.88,5.24-3.68.33-.25,0,0,2.37-1.67,1.11,2-7.17,5-.82.55Zm1.77,4.2.39-2.84,2.63-1.83-.52,3.69h1.69l-.3,2.1H338Zm1.68-12h2.37l-.55,3.91-2.62,1.83Zm2.67,11,.2-1.37h2.12l-.33,2.35-1.27,1.12h-1Z"/><path class="cls-2" d="M350.76,117.5h4.55l-.53,3.74h-4.55ZM353.2,120l.19-1.26-1.07.06-.17,1.21Z"/><path class="cls-2" d="M49.51,161.79l5.33-7.35-2,.13,0-2.15,3.4,0L57.72,154l-5.54,7.64,4.85-.32-.28,2.26H49.45Zm1.1-9.37,2,0-.06,3.44h-2.4Z"/><path class="cls-2" d="M62.45,161.08l1.44-1,2.48,2.9-2,1.51Z"/><path class="cls-2" d="M71.83,160l-.2-1.1,2.9-4.72h-2l.28-2h3l.71-1.12,2.27.6-.14.22-1.88,2.92-.19.32L73,160.67Zm1.85-.13,3-4.69L76.41,157l-.13.9-.22,1.61-.13.88L75.72,162l-.38,2.7H73Zm4.94,3h2.65l.13-.9H75.86l.24-1.62h5.54l.11-.88H76.22l.22-1.61H82l.13-.9H76.57l.25-1.86H83.6q.71.82,1,1.14l-1,7.24-.94.85-.33.28H78.39Zm0-10.71,7.5,0-.28,2h-8.5Z"/><path class="cls-2" d="M89.75,155.76l.24-1.23,4.91-3.74,1.65,1.4-.06.06-2,1.53-.72.57-3.18,2.4Zm.14,7.46.89-6.47,1.57-1.2h.93l-.27,2h0l-.66,4.8H95l-.27,2H90.84Zm3.56-3.85h1.13l.25-1.83H93.15l.28-2h2.82l1,.88-.45,3.31-.66.58-.63.55H93.24ZM97.92,156l-.33.44-.11-.06-.17-.17-.8-.68h0l-2-1.67,2-1.47,1.69,1.36.16-1.14h2.27l-1.21,8.63H97.2Zm-2.71,6.31.13-.88h1.91L97,163.22l-.85.76-.42.36h-.8Zm2.43.22h2.23l1.58-11.34h2.31l-1.68,12.13-.49.43-.8.71H97.34Z"/><path class="cls-2" d="M107,162.67h13.14l-.27,1.92-13.16,0Zm1.35-8.69,2.12-.3,0,6.22-2.15.3Zm3.86-2.45h2.2l-1.54,11h-2.2Zm3.59,0H118l-1.51,11h-2.23Zm1.43,8.35,2-6.2,2,.38-2,6.2Z"/><path class="cls-2" d="M125.27,160.78l3.23-1.34-2.05.17,3.25-1.29,2-.19,2.29-.93h-2.07L130,158l-4.08,1.61-.19-1.14,2.54-1.31h-2.56l.24-1.67h5.22l0-.35.19-1.36,0-.38.22-1.53.11-.76h2.38l-.11.76-.2,1.53-.06.38-.19,1.36,0,.35h5.33l-.24,1.67h-2.56l.36.93L131.76,160l-6.1,2h-.09Zm8.52,1.7,1.43-1.29-6.95.62.6.76-2.56,1.94-.63-.85q.17-.76.27-1.21l.64-.47-.28,0,6.1-2,3.12-.28.55,1.4-.64.06,1.32,1.45c0,.22,0,.39-.06.5s0,.18,0,.29,0,.24,0,.39l-.91.85Zm-6.89-10.57h4.63l-.2,1.53h-4.64Zm0,1.91h4.38l-.19,1.36H126.7Zm2.37,9.37h.89l.2-1.42,2.4-.21-.25,1.81-1.27,1.12h-2.16Zm4.74-9.37h4.55l-.19,1.36H133.8Zm.27-1.91h4.8l-.2,1.53H134Zm2,9.18-.75-2,0,0,1.76-.77,1,2.75-1.74.8Z"/><path class="cls-2" d="M143.43,164.53c-.14-.21-.21-.33-.24-.35l-.36-.57,2.46-11.9,2.35-.09-1,4.81-1.69,8.3Zm2.18-1,.5-1.14,2.35-1.36h-2l.44-3.16q.44-.41.89-.79l.38-.33h1.13l-.24,1.72h0l-.33,2.4.6-.36,1.29-1.92,1.85.65-.78,1.25,3.47,1.81.16,1.2-.85,1.1-4-2.37-4.23,2.46Zm4.72-7.51h-3.4l.38-1.86h9.58l-.25,1.86h-4l-.08.57h-2.34Zm.38-2.7-3.28.14.38-1.86,8.91-.36-.13,1.85-3.53.14L153,154h-2.34Zm2.73,5.16h-4.2l.24-1.72h5.33l.38.44q.24.25.58.68l-.44,3.16h-2.24Z"/><path class="cls-2" d="M162.1,163.73l-.11-.41q0-.14-.2-.74l1.74-3h-2.74l.3-2.1h3l.41-2.87h2.38l-.41,2.87h2.65l.41-2.87h2.38l-.41,2.87h2.87l-.3,2.1h-2.87l-.63,4.56h-2.38l.63-4.56h-2.78l-2.6,4.65Zm.35-11.39h2.48l-.17-1.18,2.29-.66.28,1.85h2.35l1.16-1.85,1.91,1-.5.82h2.24l-.3,2.13h-12Z"/><path class="cls-2" d="M182.65,153.25,180,164.36l-1.41-.19c-.07-.13-.17-.28-.3-.47s-.23-.35-.3-.47l2.89-12.12h2.26l-.41,1.64v.09Zm8.52.06q.33.35.72.84l-.39,2.84-.89.79h-.17l.61.87q-.24.87-.3,1.2l-.94.68-1.43-2.24.74-.5H188l-.2,1.42-.36.32-.42.38.24-.08.36,1.92-1.41.54-.52-1.89.82-.3.11,0h-2.27l.19-1.39h1.21l.13-.87h-1.55l.53.5-2,1.72.52.14-.09.3h1.93l-.28,2h3.15l.22-1.58h1.57l-.34,2.48-1,.82h-5.13q-.45-.54-.72-.82L183,161l-.86,2.48-1-.22q-.2-.39-.33-.68l-.16-.33.94-2.6.86.24-.36-.38q.09-.55.16-1.23l.66-.54h-.5l.61-4.46h2.24l-.19,1.33,0,.32-.16,1.15v0l0,.3h4.47l0-.32h-4.31l.16-1.15h4.31l0-.32h-4.31l.17-1.33Zm1.93-2.24-.22,1.67h-4l-.16.41h-2.26l.17-.41h-3.76l.41-1.64Zm-1.44,9.07.11,2.43-.8,1-.94.19-.16-3.22Z"/><path class="cls-2" d="M196.83,164.55l-.47-1.06,1-2.46,1.79.46-1.33,3.3Zm.74-10.19H211l-.22,1.59H197.33Zm1.62,9.2.27-1.91h2.23l-.19,1.36h1.35l-.6-1.72L203,161h-5.1l.66-4.69h2.29l-.2,1.42,0,.43-.16,1.1,0,.32h6.07l.06-.44-5.91,0,.14-1h5.91l.06-.43h-5.91l.2-1.42h7.07l1,1.12-.35,2.43L207.48,161h-3.54l.52,1.44L203,163h1.88l.16-1.09H207l-.22,1.66-1.29,1.12h-5.36Zm1.51-9.7,1.41-.35h-3.28l.22-1.62h4.52v-.71H206v.71h4.31L210,153.5H206.3l1.49.38-.13.32h-2.07l.3-.69h-3.2l.11.69h-2.05Zm6.6,7.64,1.9-.49.27,2.45-.75,1-1,.22Z"/><path class="cls-2" d="M214.57,162.18l12.45,0-.28,2H214.28Zm5.58-4.24h-3.61l.16-1.15-1.1.65-.72-1.21.39-1.2,7.14-4.39,2.38,1.29-.49.3L218,156l7.36,0L222,153.77l2.15-1.28,4.19,2.62q0,.47.09,1.23l-1,1.14-1.49-1-.2,1.47H222.5l-.14,1H220Zm-.42,3.08h-4.06l.27-1.92,10.12,0-.27,1.89-3.7,0-.14,1h-2.35Z"/><path class="cls-2" d="M232.59,161.38q-.25-.44-.53-1l1.68-5.29,2.16.41-2,6.12Zm2.49,2,1.38-9.91h2.38l-1.25,8.93h2.87l.25-1.74h2.09l-.38,2.71-1.29,1.14H236Zm3.84-11.8,2.27-.74.83,3.75-2.29.73Zm3.62,4.62,2.2-.74.91,4.53-.22.36-.44.71-1.38.47Z"/><path class="cls-2" d="M250,162.53h1.32l.36-2.59-1.41.25,0-2,1.73-.28,2.38-.36,1-.14,0,1.94-1.25.21-.52,3.75-.36.32-.91.8h-2.54Zm2.29-6.91h-1.55l.28-2h5l-.28,2h-1.16l-.25,1.78-2.37.35Zm.63-4.54h2.34l-.34,2.38h-2.32Zm1.91,12.73.27-1.23,1.68-1.23-1-1.44,1.21-1h-1.33l.25-1.86h6.45q.52.58,1,1.14l-.09.63-2.09,2.37,1.43,1.26a2.16,2.16,0,0,1,0,.32l0,.9-1.05,1.06-2.6-2.52-3.26,2.57Zm1.95-7.12q-.33-.55-.61-1l1.29-4.24h2.17l-.55,1.86-1,3.49Zm3.7,2.22h-2.57l1.18,1.51Zm0-3.46.3-2.13h-1.52l.52-1.86h2.32l1,1.14-.31,2.21h1.44L264,156.6h-2.48Z"/><path class="cls-2" d="M275.38,156.61l-5.88,7.94-1.22-.84-.12-1.17,5.54-7.42,1.54,1.07-1.55-3.91,2.23-1.21,4.69,11.56-.47,1.14-1.55.82Z"/><path class="cls-2" d="M299.92,153l-1.46,1.64,1,1-.11,1-.82.69-1.79-1.91L295,156.71l-.33-.38-.28.14h0l-1.74.93v0l-2.23,1.2h1.3V158l1.91-.17-.83-.41,1.76-.93.41.17,3.81,1.51.14.54.16.63-.55.9-1.19-.58-.3,2.15,1.08-.8.74,1.09-1.25.88,1.18.27-.74,1.59-5.65-1.23,0,.57-4.42.52-1-1.15.47-3.46-.82.46-.41-.85q.17-.44.5-1.2l6.48-3.17,1.27.77-.08-.08a4.34,4.34,0,0,0,.09-.49l.11-.5.6-.41-.83-.84.94-.77h-.83l.22-1.59h4.61q.49.54.72.84Zm-13,3.41,1.43-.58-.38-.47-.12.25-.77-.25q-.06-.21-.3-.84l1.29-2.76,1.44.46-.41.84h.55l0,0h3.7q.38.47.71.84l-.06.39-3.43,2.22-3.84,1.64-.28-.82Zm2.27-2h-.75l-.46.9Zm0,0,.64.76,1.3-.76Zm2.24,8h-2.12l-.09.77,2-.21Zm-1.73-2.76,0,.35-.12.93,0,.35h5.36l0-.35h-5.21l.14-.93h5.19l0-.35Zm2-6.77h-2.05l.24-1.7H292l-.06.43H294l-.14,1.06h-2.1Zm4.53,9.53h-2.75l2.12.46Zm-2.62-3.85h1.41l-1.4-.69Zm4.16-5.52H296l.85,1Z"/><path class="cls-2" d="M305.13,156.83c-.11-.22-.27-.58-.49-1.07l2.09-4.72,2.16.44-1.68,3.25h0l-1.1,2.3Zm-.33,6.61.86-6.11H308l-.64,4.56,1.15-.58.61,1.39-3.4,1.91Zm2.35-6.69.89-2h-.69l1-1.91h1.11a4.68,4.68,0,0,0,.42.49l.3.35-.12.85-1.19,2.62Zm6,3.49-2.62,4.28-1.08-.58q-.11-.47-.22-1.12l2.45-3.91,1.38-3.49,2,.52-1.19,2.92.91-.49,1.84,4.48q-.14.4-.49,1.15l-1.21.65Zm-2.76-2.7-.19-.38q-.19-.38-.3-.63l2-5.49,2.21.46h0l-1.35,3.08-1.16,3.25Zm5.05-3h-2.53l.85-1.92h2.89l.49.57.2.24.28.33-.47,3.2h-2Z"/><path class="cls-2" d="M324.64,163.38h1.9l.06-.38h-5l.24-1.61h5l.06-.39h-5.44l.19-1.34h5.44l0-.39h-5l.22-1.59h5l.06-.38h-4.61l.5-3.58h2.31l-.2,1.56,0,.32,0,.16h2.29l.08-.47h-2.15l.22-1.56h2.15l0-.33h-5.38l.24-1.62h5.36l.08-.6h2.38l-.08.6,5.52,0-.24,1.64h-5.51l0,.33h4q.39.49.72.84l-.27,1.89-1,.87h-4l-.06.38h4.16q.27.28.72.82l-.11.82h.6l-.28,2h-.6l-.11.85-.3.27-.66.57H329l-.11.79-.64.58-.31.27h-3.45Zm7.25-2L332,161h-2.68l-.06.39Zm.25-1.74,0-.39H329.5l0,.39Zm.38-3.91.06-.47h-2.51l-.08.47Z"/><path class="cls-2" d="M339.29,162.67h13.14l-.27,1.92-13.16,0Zm1.35-8.69,2.12-.3,0,6.22-2.15.3Zm3.86-2.45h2.2l-1.54,11H343Zm3.59,0h2.2l-1.5,11h-2.23Zm1.43,8.35,2-6.2,2,.38-2,6.2Z"/><path class="cls-2" d="M359.89,160.37h4.55l-.53,3.74h-4.55Zm2.45,2.46.19-1.26-1.07.06-.17,1.21Z"/><path class="cls-2" d="M49.89,204.24l4.38.3.22-2.3-3.26-.3.14-1.51,5.35-5.1,1.46,1.37-3.36,3.44h.83L57,201.73l-.36,3.5-1.46,1.25-5.73,0ZM51,195.3l5.47-.09-1.93,1.86-3.83.44Z"/><path class="cls-2" d="M62.91,203.94l1.44-1,2.48,2.9-2,1.51Z"/><path class="cls-2" d="M72,205.33h1.3l.36-2.57-1.22.19-.06-2,.74-.11h.06l.75-.11,2.18-.36.82-.13,0,2-1.07.17-.52,3.71-.63.57-.64.55H71.71Zm2.26-6.89H72.85l.28-2h4.69l-.3,2H76.37l-.27,1.81-2.16.33Zm.64-4.54H77l-.33,2.37H74.55Zm1.83,13.46-.66-.9,2.48-12.31h1.93l-2,10.49-.53,2.79Zm5.57-2.11H83l.28-2H82.07L81.56,207h-2l.52-3.72H78.89l.31-1.74h4.3l.25-1.8H82.58l-.24,1.66h-2l.22-1.66h-1l.34-1.72H84l.25-1.78H83.06l-.24,1.64h-2l.23-1.64h-.85l.41-2.05h4.67q.52.57.66.76l.3.36-1.52,10.89-1.27,1.12H82Z"/><path class="cls-2" d="M90.15,202.87l-.2-1.1,2.9-4.72h-2l.28-2h3l.71-1.12,2.27.6-.14.22-1.88,2.92-.19.32-3.54,5.55Zm1.85-.13,3-4.69-.25,1.78-.13.9-.22,1.61-.13.88L94,204.86l-.38,2.7H91.33Zm4.94,3H99.6l.13-.9H94.18l.24-1.62H100l.11-.88H94.54l.22-1.61h5.54l.13-.9H94.89l.25-1.86h6.78q.71.82,1,1.14l-1,7.24-.94.85-.33.28H96.71Zm0-10.71,7.5,0-.28,2h-8.5Z"/><path class="cls-2" d="M107.78,202.29h8.78l-.27,1.94h-8.8Zm5.27,3.19h4.3L118,201h-7.34l-1-1.14.82-5.79h2.31l-.19,1.42-.27,1.92-.24,1.59h7.42l.49.55.47.57-.85,6.15-.36.32-.93.8h-5.57Zm-.28-10h9.08l-.27,1.92H112.5Z"/><path class="cls-2" d="M125.35,205.47l4.81-1.1.19,2-4.83,1.09Zm.44-3.09,2.07-2.48h-1.07l1.79-1.7.74,0,1.16-1.37,1.55,1.4-2.71,3.17-3.12,2.82Zm.06-4.28,3.26-4.09,1.68,1.29-2,2.49-2.21,2.1Zm3.14,3.74,1.77-.22-.08,2-4.25.58Zm1.66,3.57h7.65l-.27,2h-7.65Zm3.14-2.38h-2.56l.27-1.91h7.17L138.4,203h-2.21l0,0h-2.38Zm-1.88-3,.17-.62.16-.6,3.44-2.27h-3.36l.27-1.92h5.8q.47.57.72.84l-.17,1.15-1.63,1.14L135.54,199l-2.95,2.05Zm1.87,3.16h2.38l-.28,2.07h-2.38Zm1.9-4.1,1.77-1.25,1.38,1.07q0,.51.06,1.17l-.8,1Z"/><path class="cls-2" d="M145.63,200.65h-1.87l.3-2.16.63-.55.33-.28h1.38l-.22,1.61-.06.39,0,.21h2l-.16,1.21-.06.39,0,.39h4.8l.11-.79H148l.17-1.21h6.57l.09-.6h-8.56l.24-1.61h9.91l.72.84-.31,2.16H155l-.22,1.55-.64.58-.31.27-8.56,0Zm-1.32,3h2.37l-.19,1.37-.08.47-.06.47h6.46L153,205h-6.32l.19-1.37h7.83q.25.27.72.84l-.28,2.05-1,.84H143.79Zm2.78-7h-2.62l.25-1.77h2.62l.11-.74h2.31l-.11.74h2.95l.11-.74H155l-.11.74h2.64l-.25,1.77h-2.62l-.11.69h-2.31l.09-.69h-2.93l-.11.69H147Z"/><path class="cls-2" d="M163.57,200.2l-1.08,3.66-1-.21-.36-.63,1.49-4.86h-.72l.27-2h5.69l-.28,2h-1.54l-.16,1.12.86-.24.42,3.14-.49.69-.56.16-.38-2.78-1,7.37h-2.18Zm.86-6.09h2.18l-.27,1.91h-2.18Zm4,.6h2.21l-.27,2-.24,1.69-.27,1.86-.24,1.66-.25,1.88,0,.28-.2,1.47h2.53l.23-1.75h-2.37l.27-1.88h2.37l.23-1.66h-2.37l.25-1.86h2.37l.24-1.69h-2.37l.28-2h3.45l.47.55.49.58-1.47,10.54-1.27,1.14h-5.82Z"/><path class="cls-2" d="M179.48,207.49q-.3-.39-.64-.92l2.48-11h2.35l-.47,2.22L181,207.59Zm2.26-2.13h9.05l0,0h1.07l-.27,2-10.13,0Zm1.46-6.56,2.1-.38.31,6.3-2.12.38Zm.63-3.27h2.34l0,0h2.45v0l4.55,0-.27,1.94-9.49,0Zm2.74,2.56,2.09-.14-.44,6.42-2.07.14Zm-.35-3.63,2.37,0,0,.92h-2.43Zm4.22,3.83,2,.36-2.15,6.53h-2.1Z"/><path class="cls-2" d="M198.39,195.47h2.24l-.3,2.1-.41,3-.22,1.56-.08.54-.34,2.49h1.36l.41-3h-1.21l.22-1.56h1.21l.42-3H200.5l.28-2.1h2.34l1,1.12-.08.6-.19,1.28-1.07,7.64-.83.73q-.17.17-.44.39h-4.71Zm2.05-1.12,2.24,0-.36,1h-2.24Zm3.61,5.54,2-.85.91,3.88-2,.85Zm.33,5.36h3l1-7.45h-2l1.25-2.07h2.23q.69.77,1,1.12l-1.32,9.37-.5.44-.77.68h-4.2Zm0-6.89-.19-1.18L206,194l2,.9-.5.87-1.27,2.07-.67,1.14Z"/><path class="cls-2" d="M215.21,207l.33-.79.2-.52,2.1-.77h-2.1l.45-3.3.47-.41.49-.43h1.52l-.25,1.78-.09.6-.22,1.64,1.65-.6.71-1.55,2.34.41-.46,1,2.18.73.3-2.22h-6.24l.25-1.78H220l-.25-.65.19-.38q.11-.25.38-.79l2.63-1.09,1.13-1.1h-1.35l1.82-1.74h3.87a3.31,3.31,0,0,0,.25.32l.22.25.25.28-.31,2.21h-2.23l.19-1.33h-2.18l1.33.82-.75.69,2.57.92.35,1.14-.41.73-.28-.13-.88-.27-3.22-1.15-3.11,1.26h6.13l1,.71-.49,3.42h-2l1.88.63.27,1.26-.77,1-5.16-2.08-5.36,2.11Zm.31-7.42q.19-.46.52-1.17l2.84-1.37.77,1.85L216,200.68Zm.69-3.74,1.22-1.8,2.37,1.14-1.27,1.86Zm4.19,1.64q0-.51,0-1.26l2.68-2.62,1.62,1.12-.36.32-1.82,1.74h0l-1.36,1.28Z"/><path class="cls-2" d="M232.62,205.22h13l-.28,2h-13Zm6.07-5h-3.21l.11-.69-1.82,1.2-.72-1,.31-1.23,8-5.41,1.38,1.69-.17.11-2.2,1.45v0l-.41.25-2.48,1.67h5.24l-2.23-1.85,2.13-1.42,4.14,3.49c0,.49,0,.91,0,1.23l-1,1-1.58-1.29-.11.79h-3l-.11.88h-2.35Zm-.42,3h-4.34l.28-2h11l-.28,2h-4.3l-.27,1.81H238Zm-3.92.6h2.23l.17,1.21H234.5Zm8-.09,2.26,0-.64,1.33H241.7Z"/><path class="cls-2" d="M252.55,194.51h2.23l-.27,2-.06.39-1.14,8.19h7.62l1.21-8.58h-7.48l.28-2h8.6l.38.44q.24.25.58.68L263,205.95l-.91.8-.36.32h-11Zm2.6,5.9h2l-.24,1.61-.06.49-.06.47h1.32l.14-1H257l.22-1.61h2.31q.55.63.72.85l-.34,2.49-.3.27-.66.57h-4.41Zm1.66-1h-2.09l.25-1.8h2.09l.13-.82h2.18l-.13.82h1.88l-.25,1.8H259l-.11.87h-2.18Z"/><path class="cls-2" d="M268.65,206.78l-.38-1.07,2.37-4.81,2.09.76-1,2-1,2.08-.75,1.51Zm5.19-2.93.44-3.22H268.9l.27-2h13l-.28,2h-5.24l-.12.85-.27,2-.11.74Zm-4-7.78.33-.28.94-.85h1.13l-.28,2-.17,1.26h-2.24Zm1,9.7,1-2.08,8.74,1.37.56,1-.42,1.33Zm9.21-8.83h-7.91l.28-2h9q.36.41,1,1.14l-.3,2.13h-2.23Zm-5-3.14h2.38l.08,1h-2.35Zm1.65,7.68h4.38l-.28,2H276.4Z"/><path class="cls-2" d="M290.86,207l-.49-1,.38-1-4.42.74,0-2,4-.63v0L291,203l0,1.44,1.52-3.93,1.93.5L292,207.3Zm-2.68-7.62H286.9l.28-2h1.25v0h2.23v0l1.18,0-.28,2h-1.14l-.5,3.63-2.29.36Zm.77-5.58h2.23l-.47,3.46h-2.24Zm7,11.52h1l.71-4.86H292l-.28-1.88,4.45-2.45h-3.37l.25-1.88h6.29l.38.44q.24.25.58.68l-.11.76-4.36,2.45h3.31q.36.41,1,1.14l-.86,6.23L298,207.1h-2.32Zm-2.1,1.66-.2-.44-.27-.54,2-5.43,2,.47L295,207.34Z"/><path class="cls-2" d="M304.25,207.3l-.64-.9,2.34-11.75,5.72-.68,0,2-3.83.47-.25,1.29-.41,2-.2,1.17-.57,2.75-.74,3.74Zm2.73-5.65h1.25l.25-1.89h-1.13l.41-2H310c.22.23.46.51.72.84l-.6,4.26-.33.28-.63.55h-2.62Zm3.51,5.66q-.28-.42-.66-.9l2.37-11.85,6.26-.68,0,1.94-4.31.46-.39,2-.5,2.51-1.32,6.64Zm3.39-9.06h4.23l-.3,2.07h-4.33Zm.69,2.22h2.18l-1,6.91h-2.2Z"/><path class="cls-2" d="M322.41,206.74l-.24-1.15,7.64-11.67,2,1-2.13,3.25-.57.85-5.46,8.35Zm6.79-7.54L330,198l1.18-.66,3.51,8.17-.46,1.15-1.46.82Z"/><path class="cls-2" d="M339.81,206.56q.31-.55.44-.8l.22-.39,4.55-1.48.28-2h2.48l-.31,2-1.35,1.59-5.93,2Zm.89-5.9.91-.8.36-.32h1.22l-.25,1.85-.45,3.27h-2.35Zm1.71-6.42h2.26l-.25,1.8-.08.5-.09.69,6.21,0,.17-1.21-6.05,0,.27-1.8,7.18,0q.38.46.6.69l.19.22.19.22-.36,2.54L351.37,199l-9.63,0Zm8.19,7.15h-7.5l.27-1.85h8.74l1,1.12-.55,4h-2.37Zm-4.34,4.13,1.35-1.61,4.3,1.45q.09.36.28,1.25l-.66.88Z"/><path class="cls-2" d="M358.05,200.84h13.38l-.25,1.78H357.8Zm1.22,4.7.64-.54h-1.83l.25-1.8h7.61l.06-.41h2.26l-.06.41h2.67l-.25,1.78-9.22,0,1.21,1.29-1.46,1.21ZM359.1,198l-.44-1.09,1.47-2.89,2,.25-.39.84-.75,1.55-.78,1.59Zm4.53,2.41H359l.25-1.78h4.66l0-.43h2.27l0,.41h4.72l-.25,1.8h-4.72l0,.28h-2.27Zm-2.13-3.75h-.31l.74-1.55h3.53l-.17,1.21,1.19-2.22,2,.25-.39.76h0l-.83,1.53h0l-.74,1.37-1-.27-.42-1.09h-1.55l.22,1.1-2,.58Zm1.65,9.15h2.43l.09-.65h2.26l-.24,1.63-.3.27-.64.55H362.9Zm5.08-9.15h-.75l.8-1.55h4l-.22,1.55h-1.73l.22,1.14-2,.6Z"/><path class="cls-2" d="M378.21,203.23h4.55l-.53,3.74h-4.55Zm2.45,2.46.19-1.26-1.07.06-.17,1.21Z"/><path class="cls-2" d="M53.64,246.69H50.71l-1.41-1.44,3.36-7.16,2.18.9-2.78,5.92,1.85-.14.64-4.65h2.37l-1.27,9.26H53.29Zm2.92-2.11,1.49-.16-.28,2.27H56.27Z"/><path class="cls-2" d="M62.78,246.81l1.44-1,2.48,2.9-2,1.51Z"/><path class="cls-2" d="M75.75,239l-2.64,11.11-1.41-.19c-.07-.13-.17-.28-.3-.47s-.23-.35-.3-.47L74,236.84h2.26l-.41,1.64v.09Zm8.52.06q.33.35.72.84l-.39,2.84-.89.79h-.17l.61.87q-.24.87-.3,1.2l-.94.68L81.48,244l.74-.5H81.1l-.2,1.42-.36.32-.42.38.24-.08.36,1.92L79.3,248l-.52-1.89.82-.3.11,0H77.43l.19-1.39h1.21l.13-.87H77.4l.53.5-2,1.72.52.14-.09.3h1.93l-.28,2h3.15l.22-1.58H83l-.34,2.48-1,.82H76.52q-.45-.54-.72-.82l.33-2.33-.86,2.48-1-.22q-.2-.39-.33-.68l-.16-.33.94-2.6.86.24-.36-.38q.09-.55.16-1.23l.66-.54h-.5l.61-4.46H78.4l-.19,1.33,0,.32L78,241.84v0l0,.3h4.47l0-.32H78.17l.16-1.15h4.31l0-.32H78.37l.17-1.33Zm1.93-2.24L86,238.48H82l-.16.41H79.61l.17-.41H76l.41-1.64Zm-1.44,9.07.11,2.43-.8,1-.94.19L83,246.27Z"/><path class="cls-2" d="M89.93,250.28l-.47-1.06,1-2.46,1.79.46-1.33,3.3Zm.74-10.19H104.1l-.22,1.59H90.44Zm1.62,9.2.27-1.91h2.23l-.19,1.36h1.35l-.6-1.72.78-.25H91l.66-4.69H94l-.2,1.42,0,.43-.16,1.1,0,.32H99.6l.06-.44-5.91,0,.14-1H99.8l.06-.43H93.95l.2-1.42h7.07l1,1.12-.35,2.43-1.27,1.14H97l.52,1.44-1.43.52H98l.16-1.09h1.95l-.22,1.66-1.29,1.12H93.24Zm1.51-9.7,1.41-.35H91.93l.22-1.62h4.52v-.71h2.4v.71h4.31l-.22,1.63H99.41l1.49.38-.13.32H98.7l.3-.69H95.8l.11.69H93.85Zm6.6,7.64,1.9-.49.27,2.45-.75,1-1,.22Z"/><path class="cls-2" d="M107.7,250.38l-.66-.88,2.27-12.31h2.1l-1,5.54-.33,1.88-.33,1.75-.75,4.12Zm2.29-2h.91l.28-2.05h-1.25l.31-1.75h1.19l.27-1.88h-1.13l.33-1.78H112l.25-1.88h-1l.33-1.88h1.71l1,1.14L112.75,249l-.94.85-.33.28h-1.74Zm7.67.69-1.24-1.77-.72-1.1-.58,4.18h-2.05l1.85-13.22h2.24l-.27,1.94-.47,3.39h3.86q.58.71,1,1.12l-.13,1-1.77,2.49-1.21-1.61.77-1.14H116l-.16,1.07,1.43-.88.78,1.09,0,0,1.21,1.63.88,1.1q-.11.68-.22,1.2l-1.11.93Zm-2.34.71.16-1.36.83-1,1.1,1.55-1.3,1.47Zm2.26-9.28h1.79l.19-1.4h-2.51l.27-1.94h3.56q.41.52,1,1.14l-.36,2.54L120.21,242h-2.84Z"/><path class="cls-2" d="M125.57,250l-.52-1L129,236.62l2.29.39-1.46,4.51,1.65-.35.31,4.21-.71,2-1.43.3-.38-4.45-2.23,7Zm5.79,0q-.27-.57-.52-1l.55-1.61.44-1.25,3.25-9.45,2.27.44-1.46,4.23,1.73-.36.71,8-.3.38-.5.63-1.49.28-.64-7.45-2.56,7.46Z"/><path class="cls-2" d="M143.89,243.42q0-.46,0-1.18l4.6-5.17,1.71,1.4,0,0L145,244.32S144.62,244,143.89,243.42ZM144,248l5.51-6.15,1.69,1.47-4,4.42,4.78-.33.91,2.05-8.75.55Zm9.1,1.42-.93-2h0l-.85-1.86,2.23-1.21,2.2,4.89-2.2,1.26Zm-1.21-11L154,237l3.07,5.38q-.22.73-.35,1.17l-1.4,1Z"/><path class="cls-2" d="M162.62,242.87h2.1l-.25,1.78,0,.33-.11.79h3.37l.16-1.12h-3.22l.24-1.78h4.23l1,1.12-.33,2.43-.24.22-.24.21c-.19.18-.45.41-.78.69H162Zm4.83,5.25h3.44l1.19-8.72h-9.4l.28-1.94h10.65l1,1.12-1.46,10.37-1.27,1.12h-4.67ZM163,240.19h7.65l-.27,1.94h-7.67Z"/><path class="cls-2" d="M178.47,248.07l4.88-.69-.13,1.91-4.72.69Zm.28-2.43,1.52-2.24-.41,0,1.47-2h.25l1.18-1.7,1.62.95L181.61,245l-2,2.29Zm0-3.75,3.26-5.51,1.87.79-2.78,4.29-1.47,2h0Zm2.9,3.22,1.94-.35,0,1.88-3.83.66Zm2.1,4.86-.47-1,1.73-4.81,2.31,0-2.24,6.18Zm2.09-10.32H184l.27-1.91h3.06l0-1.23h2.38l0,1.23h3.42l-.27,1.91h-4.36v0h-2.59ZM184,242.13l1.74-2.3h2.59l-1.74,2.3,3.22,0,.58,1.75h-.14l-5.16.14-1.05,0Zm3.86,7.6-.66-.79.67-4.86,2.27-.08-.6,4.28h.6l.25-1.86h1.4l-.39,2.81q-.38.36-1,.85H188.2Zm2.7-5.88-.64-1.91-.36-1.12,1.8-.8,1.36,4.1-1.79.82Z"/><path class="cls-2" d="M197.78,242.43h12.41l-.3,2.11H197.48Z"/><path class="cls-2" d="M216.67,244.08H215l.28-2q.55-.46,1-.85h1.4l-.22,1.58,0,.17-.06.38h1.74l-.19,1.26-.06.47,0,.09h5.32l.08-.57h-5.16l.17-1.26h6.84l.08-.55h-8.56l.22-1.58h2.81l0-.32,2.4,0,0,.3h4.74l.45.55.27.3-.27,2h-1.68l-.22,1.61L226,246l-.64.58h-6.71l0,.14,0,.27-.19,1.34-.08.55h5.74l.08-.55h-5.6l.19-1.34h7l.72.84-.24,1.69-1,.85h-9.47Zm-.42-3.5-.13-1.18,2.2-2.75,1.68,1,0,.06L218,240l-.93,1.15Zm2.42-.87h-.19l1.46-1.8h2.56l-.25,1.8H220.7l.28.62-1.66.8Zm3.83.87q-.08-.83-.09-1.18l2.16-2.75,1.68,1-.08.09-1.68,2.1-1.11,1.36Zm2.42-.87h-.17l1.44-1.8h2.71l-.25,1.8H227l.3.62-1.71.8Z"/><path class="cls-2" d="M242.66,248.25h3l-.27,1.86h-8.3l.16-1.21-4.89.84,0-2,1.11-.19,0,0,2.57-.43,1.25-.19,0,1.83.08-.55h3v0h2.31Zm-8.52-4.15H233l.25-1.89h4.5l-.27,1.89h-1.1L236,247l-2.29.38Zm-.61-4.4.27-2h4.8l-.28,2Zm.89,2.37.33-2.37,0,.14H237l-.31,2.22Zm8.64,3.23h2.65l-.25,1.81h-2.65l-.13,1h-2.32l.14-1h-2.62l.27-1.81h2.6v0h2.32Zm3.78-6.91-.69,5q-.82.69-1.27,1.12h-1.69l-.09.63h-2.31l.08-.63h-2.79l1-7.21h6.81Zm-4.92.62H241l-.12,1-.25,1.74,0,.21-.11.8h.94l.14-1h-.78L241,240h.78Zm2.31,2.71h-.94l-.14,1h.94Zm.38-2.71h-.93l-.14,1h.93Z"/><path class="cls-2" d="M251.75,249.46l-.11-.41q0-.14-.2-.74l1.74-3h-2.74l.3-2.1h3l.41-2.87h2.38l-.41,2.87h2.65l.41-2.87h2.38l-.41,2.87h2.87l-.3,2.1h-2.87l-.63,4.56h-2.38l.63-4.56h-2.78l-2.6,4.65Zm.34-11.39h2.48l-.17-1.18,2.29-.66.28,1.85h2.35l1.16-1.85,1.91,1-.5.82h2.24l-.3,2.13h-12Z"/><path class="cls-2" d="M268.55,249.3l.2-.66.17-.57,4.2-2.49,1.73,1.53-5.57,3.38Zm7.37-1.45-2.65-2.35h0l-2.26-2,1.11-.82-2.27.87-.31-1.15.25-.46.36-.66,3.23-1.2h-3.61l.3-2.07h12.14l-.28,2.07H278.5l2.87,1.18.31,1.12-.67,1.18-2.2-1,1,1-2.38,1.83-1.65-1.36,2.31-1.83-1.25-.57.94-1.61h-3.64l.46,1.67-1.35.52,2.35,2,0,0,1.66,1.34,0,0,3.33,2.4,0,.87,0,.35-1.22,1.31Zm-1-10.95,2.42,0,.16,1H275Z"/><path class="cls-2" d="M285.81,248.39l4.69-.79,0,1.88-4.69.8Zm6.1-7-2.75,3.49-2.62,2.56,0,0-.39-1.72,2.15-2.7h-.78l1.57-1.72h.56l1.11-1.37,1.25.79.31-2.26h2l-.27,1.89-.08.5-.56,4.05,1.52-4.56h-.72l.25-1.89h.66l.39-1.62h2.27l-.38,1.63h1.76l.47.55.49.58-1.33,9.53-1.27,1.14h-2.45l.27-1.89h1.57l.24-1.69-1.43.28-.09-3-1,3-1.44-.28-.52,3.77h-2Zm-5.32-.08,3.31-4.69,1.77.92-2.46,3.39-1.9,2.1Zm2.31,4,2-.25-.08,1.85-4,.49Zm9.11-5h-1.18l-.41,1.17.74-.17.19,3.87Z"/><path class="cls-2" d="M306.37,243.07l-1.08,3.66-1-.21-.36-.63,1.49-4.86h-.72l.27-2h5.69l-.28,2h-1.54l-.16,1.12.86-.24.42,3.14-.49.69-.56.16-.38-2.78-1,7.37h-2.18Zm.86-6.09h2.18l-.27,1.91H307Zm4,.6h2.21l-.27,2-.24,1.69-.27,1.86-.24,1.66-.25,1.88,0,.28-.2,1.47h2.53l.24-1.75h-2.37l.27-1.88H315l.24-1.66h-2.37l.25-1.86h2.37l.24-1.69h-2.37l.28-2h3.45l.47.55.49.58-1.47,10.54-1.27,1.14h-5.82Z"/><path class="cls-2" d="M322.29,250.36q-.3-.39-.64-.92l2.48-11h2.35l-.47,2.22-2.24,9.83Zm2.26-2.13h9.05l0,0h1.07l-.27,2-10.13,0Zm1.46-6.56,2.1-.38.31,6.3-2.12.38Zm.63-3.27H329l0,0h2.45v0l4.55,0-.27,1.94-9.49,0Zm2.74,2.56,2.09-.14-.44,6.42-2.07.14Zm-.34-3.63,2.37,0,0,.92H329Zm4.22,3.83,2,.36-2.15,6.53H331Z"/><path class="cls-2" d="M341.74,244.08h-1.65l.28-2q.55-.46,1-.85h1.4l-.22,1.58,0,.17-.06.38h1.74l-.19,1.26-.06.47,0,.09h5.32l.08-.57h-5.16l.17-1.26h6.84l.08-.55h-8.56l.22-1.58h2.81l0-.32,2.4,0,0,.3h4.74l.46.55.27.3-.27,2H351.6l-.22,1.61-.31.27-.64.58h-6.71l0,.14,0,.27-.19,1.34-.08.55h5.74l.08-.55h-5.6l.19-1.34h7l.72.84-.24,1.69-1,.85h-9.47Zm-.42-3.5-.12-1.18,2.2-2.75,1.68,1,0,.06-1.9,2.33-.92,1.15Zm2.42-.87h-.19l1.46-1.8h2.56l-.25,1.8h-1.54l.28.62-1.66.8Zm3.83.87q-.08-.83-.09-1.18l2.17-2.75,1.68,1-.08.09-1.68,2.1-1.11,1.36Zm2.42-.87h-.17l1.44-1.8H354l-.25,1.8H352l.3.62-1.71.8Z"/><path class="cls-2" d="M367.73,248.25h3l-.27,1.86h-8.3l.16-1.21-4.89.84,0-2,1.11-.19,0,0,2.57-.43,1.25-.19,0,1.83.08-.55h3v0h2.31Zm-8.52-4.15h-1.14l.25-1.89h4.5l-.27,1.89h-1.1L361,247l-2.29.38Zm-.61-4.4.27-2h4.8l-.28,2Zm.89,2.37.33-2.37,0,.14h2.24l-.31,2.22Zm8.64,3.23h2.65l-.25,1.81h-2.65l-.12,1h-2.32l.14-1H363l.27-1.81h2.6v0h2.32Zm3.78-6.91-.69,5q-.81.69-1.27,1.12h-1.69l-.09.63h-2.31l.08-.63h-2.79l1-7.21H371ZM367,239H366l-.12,1-.25,1.74,0,.21-.11.8h.94l.14-1h-.78l.24-1.74h.78Zm2.31,2.71h-.94l-.14,1h.94Zm.38-2.71h-.92l-.14,1h.93Z"/><path class="cls-2" d="M381.89,248.81l1.29-1.55,1.83.52.25-1.81h-3.12l1.49.46-.52.69-1.36,1.66-5.38,1.63-.31-.76.28-.54.38-.69,1.65-.5h-1.27l.33-2.43-1.11.6-.28-.85q.27-.57.57-1.14l2.15-.95h-1.05l-.49-.55.36-2.51.63-.57h2l.06-.49h-3l.24-1.78h3l.06-.49,2.18,0-.08.46h1.41l.08-.5h2.26l-.06.5h2.07a5.06,5.06,0,0,0,.47.57l-.36,2.63-.18.17-.15.13a2.57,2.57,0,0,0-.31.27h-2.07l-.06.49h2.67a6.43,6.43,0,0,0,.49.57l-.3,2-.63.57h-.44l-.41,3.28h-1.49l1.52.43.38,1.17-.55.92Zm-2-7.3L380,241h-1l-.08.49Zm.63,5.73,1-1.26h-1.9l.22-1.61h5.93l.08-.63h1l.08-.58h-1.44l-.11.85h-2.27l.11-.85h-1.71l-2.12,1.21h.28l-.24,1.61,0,.25-.2,1.44Zm2.95-5.73.06-.49h-1.41l-.06.49Zm.28-2,.06-.49h-1.41l-.06.49Zm3.11,0L387,239h-.85l-.06.49Z"/><path class="cls-2" d="M394,250.23l-.66-.87,2.21-12.05h2.42l-.39,1.94-.35,1.85-.36,1.85h0l-.35,1.81-.36,1.88-.72,3.69Zm7.34-1.77h2.1l.27-1.83h-2.56l-.38,2.67H398.5l.38-2.67h-2.6l.38-1.85h7.28l.25-1.85h-2.54l-.24,1.69h-2.24l.24-1.69H397l.35-1.85h7.11l.25-1.83h-2.56l-.22,1.67h-2.24l.24-1.69-2.23,0,.39-2h8.11l.36.43c.25.27.45.5.6.69l-1.49,10.7-1.27,1.14h-3.33Z"/><path class="cls-2" d="M412.56,249.46l-.11-.41q0-.14-.2-.74l1.74-3h-2.75l.3-2.1h3l.41-2.87h2.38l-.41,2.87h2.65l.41-2.87h2.38l-.41,2.87h2.87l-.3,2.1h-2.87l-.63,4.56h-2.38l.63-4.56h-2.78l-2.6,4.65Zm.35-11.39h2.48l-.17-1.18,2.29-.66.28,1.85h2.35l1.16-1.85,1.91,1-.5.82h2.24l-.3,2.13h-12Z"/><path class="cls-2" d="M429.26,248.07h1.21l.28-2-1.15.19-.06-1.88,1.47-.22v0l2.27-.36.85-.13,0,1.86-1.1.17-.44,3.14-.63.55-.66.57H429Zm2.16-6.78h-1.29l.27-2h4.41l-.28,2h-.89l-.33,2.37L431,244Zm.64-4.65h2.21l-.35,2.52h-2.21Zm6.07,11.93-4,1.7-.46-1,.58-1.2,1.32-.55-1.32-1.23.78-1.09h-.85l.24-1.74h1.88l.55-.76h2.38l-.53.76h4.5l-.25,1.74h-1l-1.6,2.21,1.21.71,0,.46,0,.8-.86,1Zm-3.39-7.78h8.74l-.24,1.75H434.5Zm.8-3.38h2.81l-.06-.77h2.43l0,.79h3l-.27,1.88H435.3Zm.53,2.19,2.12,0,.22,1.07h-2.1Zm3.51,5.57h-2.09l-.47.71,1.13.95Zm.71-5.62h2.17l-.5,1.09h-2.15Z"/><path class="cls-2" d="M447.11,249.32l.2-.3.52-.8,2.59-.69,2.7,1.28-5.79,1.61Zm6.38-.52-2.84-1.33-.89-.66,1.18-1.21h-2.18l.16-1.18h-1.63l.35-2.46.66-.57.3-.27H450l-.27,1.83-.09.74,0,.13h8.69l.13-.87h-8.55l.25-1.83H460l.72.84-.34,2.46H458.9l-.2,1.48-2.27,1.45-2.54-.74,1.95-1h-4.52l2.37,1.1,2.59.77h0l2.63.74.2.6.19.55-.6,1Zm-.8-9,1.6-.52-5.08.38,0-2,11.07-.82,0,2-2.67.21,1.93.77-.71,1.12h-2.42l1.05-1.89-2.48.19.44,1.7H453.1Zm-3.26.27,2.26-.46.14,1.31h-2.32Z"/><path class="cls-2" d="M465.34,249.82l-.56-1,.86-3,2,.33-1.13,3.8Zm2.27-10.93H470l-.28,2-.12.95-.14,1h5.73l.27-1.94h-5.55l.28-2H477l1,1.12-.52,3.66-1.27,1.12h-9.36Zm-.06,10.37.56-4.07h2.23l-.42,3.09h3.47l.25-1.81h2l-.39,2.79-.85.76-.42.36H468.5Q467.81,249.6,467.55,249.26Zm1.77-12,2.38-.09,0,1.56h-2.38Zm1.51,8.31,1.9-.62.53,2.27-1.88.68Zm3.59-8.42,2.27,0-.49,1.53H473.9Zm1.29,9,2.09-.52.31,2.92-.75,1-1.24.3Z"/><path class="cls-2" d="M483.4,244.41h2.2l-.27,1.88,0,.36-.24,1.64h2.49l.28-2h-2.34l.25-1.88h3.45l.66.79.3.35-.49,3.52-.36.32-.91.8h-5.8Zm.06-2.52h7.48l-.27,1.86-7.47,0Zm.77-4.15h7.12l-.27,1.88-7.12,0Zm.11,2.33h2.15l.19,1.66H484.6Zm2-3.36,2.43-.09.09,1h-2.42Zm2,3.34,2.2.06-.61,1.61h-2.21Zm3.45-2.82H494l-.25,1.89-.08.49-1.49,10.74H490ZM493,247.1h.85l.47-3.33h-.93l.17-1.36,1.54-3.28H493.9l.27-1.89h2.12q.38.46.6.69l.19.22.19.22-.11.76L495.78,242h.82l-.8,5.7-.91.8-.36.32h-1.76Z"/><path class="cls-2" d="M502,238.34h2.24l-.3,2.1-.41,3-.22,1.56-.08.54-.35,2.49h1.37l.41-3h-1.21l.22-1.56h1.21l.42-3h-1.21l.28-2.1h2.34l1,1.12-.08.6-.19,1.28L506.37,249l-.83.73q-.17.17-.44.39h-4.71Zm2.05-1.12,2.24,0-.36,1h-2.24Zm3.61,5.54,2-.85.91,3.88-2,.85Zm.33,5.36h3l1-7.45h-2l1.25-2.07h2.23q.69.77,1,1.12l-1.32,9.37-.5.44-.77.68h-4.2Zm0-6.89-.19-1.18,1.88-3.2,2,.9-.5.87-1.27,2.07-.67,1.14Z"/><path class="cls-2" d="M523.37,248.61h4.28l.17-1.18h-5.36l-.77-1.21.88-2-2.74,3.19-1.08-.87q0-.71,0-1.17l2.32-2.76h-1.82l.25-1.86h8.33l.89-1.09h-2.09l-.12.93h-2.37l.13-.93h-3.58l.27-1.91h8.5l-.17,1.23,1.71-2,1.77,1.09-2.24,2.71h1.95l-.25,1.86h-8.27l-.64.74h1.87l-.49,1.56-.22.8h4.92l.27.32q.31.39.69.8L530,249l-1.27,1.12h-5.58Zm1.3-11.91,2.37,0-.13.87h-2.37Zm.63,6.61h6.34l-.22,1.56h-6.59Z"/><path class="cls-2" d="M538.47,242.47l-1.54,5.22-.72-.24L536,247l-.14-.28,1.77-5.71H537l.27-1.94h5l-.27,1.94h-1.16l-.06.49.63-.21.53,2.89-.2.36-.28.47-.58.21-.33-2.05-1,7.16h-2.1Zm.63-5.58h2.26l-.28,2h-2.26Zm2.17,8.49,2.53-1.72.09-.08.36-.24,2.57-1.78,2-1.37,1.08,1.81-7.58,5.24Zm.42,4.07q.06-.17.17-.58l.16-.58,6.84-4.76,1.08,1.86-4.11,2.87,0,0-3.4,2.38Zm.47-7.57,1.76-2.21h-1.55l.28-2h8l-.28,2h-3.67l-1.52,1.92,1.36,0-2.57,1.8-1.27,0Zm3.26-5.14h2.26v.77h-2.23Zm.49,11.63,2-1.4,1.05,1.4-.25,1.2-1.25,1Z"/><path class="cls-2" d="M555,248.66l.79-5.63h-1.33l.28-2.05h2.49l.56.65.41.47-.78,5.52,1.24-.46.44,1.78-3.23,1.31Zm1.32-11.36h2.54l-.35,2.56h-2.56Zm5.44,8.54H558.5l.3-2.1h8.94l-.3,2.1h-3.31l-.66,4.62h-2.38Zm.89-6.5h-2.93l.28-2.07h8.5l-.3,2.07H565l-.6,4.24h-2.38Zm-2.71.62,1.65-.27-.06,3.64-1.62.17Zm5.08,3.39.88-3.6,1.57.14-.88,3.6Z"/><path class="cls-2" d="M574,243.62l-1.47-.68L576,236.7l2.05.82-2,3.47h.58l-1.32,9.34H573Zm3.47-.47h2.34l-.28,2-.14.95L579.1,248h3.37l.41-2.86h-3.23l.28-2h.38v0h4.06l.66.79.3.35-.64,4.69-1.29,1.12h-6.9Zm3.17-2.21h-3.17l.28-2h8.64l-.28,2h-3.15l-.28,2.05h-2.32Zm.56-4.1h2.34l-.27,1.91h-2.34Z"/><path class="cls-2" d="M592.49,246.1H597l-.53,3.74H592Zm2.45,2.46.19-1.26-1.07.06-.17,1.21Z"/><path class="cls-2" d="M49.92,290l4,.33.39-2.41-4-.71.61-6.2h2.34l-.44,4.65,4.13.43L56,292.22l-6.57,0Zm3.31-6.25.17-1.89,3.8-.13L56.79,284Z"/><path class="cls-2" d="M61.94,289.68l1.44-1,2.48,2.9-2,1.51Z"/><path class="cls-2" d="M71.79,293.26l-.66-.88,2.31-11.55h2.26l-.42,2-2,10.49Zm3.39-6.06h2.31l-.27,2-.08.5-.22,1.59H81l.3-2.1H77.37l.28-2h5.1l1,1.14-.53,3.74-1.27,1.14H74.33Zm.66-6.37h9l-.28,2H75.42Zm2.29,2.33h2.23l-.16,1.15-.25,1.8-.13.93H77.57Zm-.2-3.31,2.29-.06,0,.9H77.9Zm2.45,4.46h4l-.25,1.8h-4Z"/><path class="cls-2" d="M90.17,283.07H92.4l-.25,1.83,0,.38-.83,5.92h1l.88-6.29h-.86l.27-1.83h1.6l.6-.85h2.43l-.63.85h4.77l.24.27.74.85L101.2,292l-.5.44-.77.68H88.76ZM90,282h0l0-.33q.09-.71.16-1.16a1.32,1.32,0,0,1,.09-.45h13l-.3,2H90Zm6.12,9.17,0,0,.14-1h-1.8l.22-1.62h1.82l.14-1H94.84l.24-1.64h1.8l.14-1h-2l-.14,1-.22,1.64-.14,1-.24,1.63v0l-.14,1Zm2.95,0,.88-6.29H99l-.89,6.29Z"/><path class="cls-2" d="M107.72,289.68l1.44-1,2.48,2.9-2,1.51Z"/><path class="cls-2" d="M117.44,291.95l.83-5.92h-1.07l.28-2h2.26q.38.41,1,1.12l-.77,5.66,1-.43.3,1,.16.82-3.12,1.26Zm1.36-11.83h2.54L121,282.7h-2.54Zm2.68,12.4.35-1.33,1.68-1.28,1.44,1.29-2.73,2.1Zm3.61-1.4-1.44-1.29-1.8-1.74.82-.79h-.89l.25-1.8h6.71q.58.71,1,1.12l-.09.66-2.49,2.38-1.51-1.1,1.33-1.26H124l1.47,1.37L127,289.8l1.79,1.39c0,.18,0,.32,0,.43s0,.2,0,.28,0,.38,0,.52l-1,.9ZM122.6,285l-.58-1,1.46-4.12h2.16l-1.73,5.25Zm4.41-1.12.31-2.22h-2.1l.6-1.77h2.85l.27.32q.31.39.69.8l-.31,2.24h1.1l-.25,1.75H128Q127.39,284.33,127,283.92Z"/><path class="cls-2" d="M134.87,293.12l-.64-.93,2-9h2l-.28,1.25-.58,2.68-1.4,6.14ZM136.3,283h-.83l.27-1.92h5.4l-.28,1.92h-2.53v0h-2Zm.49,8.42h.66l.71-5.13h-.42l.41-1.88h1.27l.52.62a5.05,5.05,0,0,1,.44.5l-.89,6.45-1.27,1.12h-1.65Zm.72-11.64,2.12-.08,0,1.21h-2.13Zm3,12.64-.38-.44.71-5.08-.41.06.06-1.85.61-.08.17-1.31h.88l-.67-.21-.25-.63-.16-.41,1.25-2.92,1.94.6-.3.69-.82,1.86-.44,1h.61l-.14,1.07h0l-.27,1.86h0l-.67,4.81h3.22l-.24,1.63h-4.14Q140.77,292.64,140.53,292.39Zm3.12-5.84-.53,0,.25-1.85.52-.06.23-1.67H146l-.2,1.44-.25,1.88-.61,4.35h-1.87Zm.52-5.73h4.94l-.27,1.86h-5.49Zm1.38,7.23h.34l.25-1.8-.44,0,.27-1.86,1.27-.17,1.11,1.12-.46,3.25q-.31.25-.77.68l-.5.44H145.3Zm.08,3.39.14-1.06h2l-.22,1.56-1.27,1.12h-.85Z"/><path class="cls-2" d="M153.5,289.68l1.44-1,2.48,2.9-2,1.51Z"/><path class="cls-2" d="M163.37,285.2q.72-.66,1.29-1.12h1.1l-.27,1.85-1,7.4h-2.21Zm.2-4.46H169l0-.82,2.53,0,0,.84H177l-.27,1.89H163.31Zm8.61,10.7h.74l.77-5.51h-1.36l1,1.39-.25,1-.71.5-.24,1.7q-.66.6-1.29,1.14l-5.3,0,.41-2.89-.52-.36.3-1.15,1.19-1.29h-1.27l.25-1.85h9.16l.36.43q.38.41.6.69l-1,6.91-1.27,1.12h-1.85Zm-6.59-8.52,2.43,0,.14,1.06h-2.42Zm4.74,7.18.17-1.25h-2.56l.22-1.53h3l-1-1.39H169l-1.32,1.39H168l-.2,1.53,0,.3-.14.95Zm1.63-7.23h2.42l-.39,1.06h-2.46Z"/><path class="cls-2" d="M182.33,280h2.16l-.3,2.13L183,291h7.83l.49-3.47.13-.9.69-5h-7.67l.23-1.7h8.72q.38.41,1,1.12l-1.46,10.52-.39.35q-.47.43-.89.77h-11Zm1.29,7.51.13-.73.86-.62h-.72l.2-1.45h2.38l.14-.43h-2.24l.17-1.4H185l0-.93h1.49l0,.93h.6l.34-1h1.95l-.35,1-.56,1.69,0,.14h3l-.2,1.45h-.66l.69.73-.13.66-.89.79-.35-.46-1.18-1.5-.16-.22H187l-2.59,2.11v0l-.27.22Zm.58,2.29.17-1.31,2.34-1.91h2l1.13,1.47-.08.46h1.05l-.19,1.29q-.31.3-1,.85h-.5l.19-1.28,0-.22V289h-2.6l.09-.66h1.21l.06-.44h-1.8l-.2,1.4h3.06l-.17,1.29h-4.09Zm5-6.91h.38l.27-.92,1.49,0-.25.88h.3l-.17,1.4h-2.48Z"/><path class="cls-2" d="M200.61,292l-1.22-1.5.69-4.92h-1.25l.28-2h2.37q.52.57.66.76l.3.36-.75,5.43,8.66,1.07q.34.54.6,1l-.39,1.21Zm-.27-12h2.38l-.33,2.4H200Zm7.18,10.08-.5-.55.39-2.82h-.64L205,290.47l-1.22-.27-.47-1.09,1.1-2.4h-1.66l.28-2h8.89l-.28,2h-1.88l-.31,2.19h.88l.17-1.2h1l-.3,2.1-.94.85H208Zm-3.92-5.66-.22-.38a2.71,2.71,0,0,1-.14-.24l-.2-.36,1.1-3.33,1.87.27-.35,1-.64,2.05-.38,1.12Zm3-1-1.47,0,.66-2.05h5.79l-.27,2-2.4,0-.14,1.07h-2.32Zm.52-3.68h2.31l-.2,1.48h-2.31Z"/><path class="cls-2" d="M220.17,291.32l-4.22.63,0-2,1.4-.22,0,0,3.45-.52v1.61h8.67l-.28,2.05h-9.27Zm-2.24-5.49H216.7l.3-2.05h4.58l-.28,2.05h-1.14l-.47,3.42-2.29.36Zm.83-6H221l-.52,3.79h-2.24Zm4,1.67H225l-1.29,9.18H221.5Zm3.47-1.74h2.35L228,284l-.28,2-.66,4.65h-2.34Zm1.9,4.26h2l-.3,2h-2Z"/><path class="cls-2" d="M235.76,287.94l-.49.47-.8-.69a2.49,2.49,0,0,1,0-.35q0-.17,0-.87l2.9-3,1.35,1.39-1.44,1.44h.89l-1,7.05H235Zm-.86-3.72-.09-.41q-.13-.6-.14-.74l2.32-3.61,1.95.84-.3.46-2.63,4Zm3.28-1.59h-.63l1.25-1.88h3l-.27,1.88h-1.32l.14.9-2,.52Zm2.37,8.87h2.81l.56-4h-5l.25-1.86h8.66l-.27,1.86h-1.38l-.66,4.75-1.29,1.12h-3.94Zm-1.19-3,2-.9,1,2.59-2,.92Zm2.31-4.34c-.07-.22-.12-.35-.12-.39l-.24-.69,1.79-3.53,2,.63-.3.57h0l-1,1.88-1,2Zm3-1.55H244l1-1.88h3.5l-.27,1.88h-1.52l.16,1-1.91.54Zm-.33,1.8h2.26l-.14,1h-2.26Z"/><path class="cls-2" d="M252.29,285.59q.08-.35.33-1.18l7.29-4.87,1.68,1.36-.31.22-2,1.33h0L256,284.68h6.27l-2.87-2.15,2-1.34,4.27,3,.08,1.18-1,1.15-1.85-1.39-.2,1.47h-7.91l.19-1.29-2.05,1.39Zm.85,1.92h2.35l-.27,1.91,0,.14-.28,2h6.32l.3-2.15h-6.16l.27-1.91H263l.49.55.47.57-.52,3.72-.24.22-.24.21q-.28.27-.78.69h-9.93Z"/><path class="cls-2" d="M270.32,286.29q0-.46,0-1.18l4.6-5.17,1.71,1.4,0,0-5.18,5.84S271.06,286.9,270.32,286.29Zm.11,4.61,5.5-6.15,1.69,1.47-4,4.42,4.78-.33.91,2.05-8.75.55Zm9.1,1.42-.92-2h0l-.85-1.86L280,287.2l2.2,4.89-2.2,1.26Zm-1.21-11,2.1-1.44,3.07,5.38q-.22.73-.35,1.17l-1.4,1Z"/><path class="cls-2" d="M289.05,285.73h2.1l-.25,1.78,0,.33-.11.79h3.37l.16-1.12h-3.22l.24-1.78h4.24l1,1.12-.33,2.43-.24.22-.24.21c-.19.18-.45.41-.78.69h-6.49Zm4.83,5.25h3.44l1.19-8.72h-9.39l.28-1.94H300l1,1.12-1.46,10.37-1.27,1.12h-4.67Zm-4.45-7.94h7.65l-.27,1.94h-7.67Z"/><path class="cls-2" d="M312.19,292h0l-4.08-1.47-.64-.27.83-1h-2.57l.25-1.8h3.79l.57-.68h-3.39l.57-4.09h2.31l-.19,1.42-.06.39-.11.84h1.05l.17-1.23h-.91l.2-1.42h.61l.08-.55h2.21l-.08.55h.89l.09-.55H316l-.08.55h2.21q.33.35.72.84l-.33,2.4-.52.47-.44.38H312l.72.28-.33.39h6.74l-.25,1.8h-1.55L314.81,291l-2.13-.79,1.35-.85h-3.15l-.25.3,1.27.44,5.22,1.88q.13.44.31,1.23l-.17.47Zm-6.42.77q.36-.63.74-1.2l2.4-.57,3,1.07-5.83,1.51Zm1.08-12.53,13.35,0-.25,1.78H306.6Zm6.45,5.11.17-1.23h-.89l-.17,1.23Zm3,0,.17-1.23h-1.1l-.17,1.23Z"/><path class="cls-2" d="M323.4,291.3l.31-1.18,5.54-3.87-.41,2.86-4.75,3.36Zm3.62.09h1.65L329,289l.39-2.86.31-2.26h-5.4l.28-2.1H330l.27-2h2.38l-.27,2h5.24l-.3,2.1h-5.24l-.17,1.23-.47,3.38-.5,3.58-.5.44-.77.68h-2.92Zm-2.6-5.77,1.88-1.1,1.1,2.16-1.85,1.2Zm7.18,3,.49-3.38,1.13,1.48,2.78,3.55-.06.38-.14.8-1.18,1Zm1.74-2,2.4-2.11L337,286l-2.46,2.18Zm.5-6.63L336,280l.16,1.67H334Z"/><path class="cls-2" d="M343.71,289h4.55l-.53,3.74h-4.55Zm2.45,2.46.19-1.26-1.07.06-.17,1.21Z"/><path class="cls-2" d="M50.94,323.88l2.37,0-1.22,9.17,2.29,0,.46-2.82-2.09,0,.25-2.1,2.89.06L57.21,330l-.56,3.8-1.74,1.33H49.45Zm2.38,1.94.25-1.94,4.09,0-.42,2.16Z"/><path class="cls-2" d="M62.41,332.54l1.44-1,2.48,2.9-2,1.51Z"/><path class="cls-2" d="M71.79,331.47l-.2-1.1,2.9-4.72h-2l.28-2h3l.71-1.12,2.27.6-.14.22-1.88,2.92-.19.32L73,332.13Zm1.85-.13,3-4.69-.25,1.78-.13.9L76,331l-.13.88-.22,1.63-.38,2.7H73Zm4.94,3h2.65l.13-.9H75.82l.24-1.62h5.54l.11-.88H76.18l.22-1.61h5.54l.13-.9H76.52l.25-1.86h6.78q.71.82,1,1.14l-1,7.24-.94.85-.33.28H78.34Zm0-10.71,7.5,0-.28,2h-8.5Z"/><path class="cls-2" d="M89.62,334.55l1.52-10.87h2.35l-1.43,10.19,3.26-.68.19,1.86-5.36,1.06Zm4.77-2.3,1.33-1.62H92.66l.27-1.86h6.54l.13-.93H93.05l.2-1.39H99.8l.13-.9-6.54,0,.25-1.88h7.72c.25.31.45.54.6.69l.19.22.19.22-.66,4.72-1,.9-.25.22H96.22l4.17,2.63.91.6q.08.85.09,1.21l-.94,1.12Zm1.49-9.66h2.37l0,.93H95.89ZM98.73,332l1.46-1.42,1.47,1.28-1.27,1.18Z"/><path class="cls-2" d="M107.17,335.75l-.31-1.09,1.58-3,1.49,1.69-1.49,2.92Zm2.84-2.52-1.49-1.67-1-1.18,1.07-3.33h-.8l.27-2h4.86l.74.84.24.28-.13.88-1.69,4.81-1.6-1.74,1.13-3.08h-.82l-.89,2.67.5.6,0,0L112,332l1,1.07q-.06.81-.09,1.15l-1,1.07Zm0-10.46,2.26.32-.61,1.8h-2.32Zm3.59,11.44,1.8,0,.47-3.34h-2.57l.28-2.07H121l-.28,2.07h-2.51L117.6,335l-1.29,1.12h-3Zm2.7-6.39,2.18-2.48h-3.92l.28-2h5.54q.52.57.66.76l.3.36-.11.85-2.65,3,0,.35h-2.35Z"/><path class="cls-2" d="M126.42,324.07h2.24l-.3,2.1-.41,3-.22,1.56-.08.54-.34,2.49h1.36l.41-3h-1.21l.22-1.56h1.21l.42-3h-1.21l.28-2.1h2.34l1,1.12-.08.6-.19,1.28-1.07,7.64-.83.73q-.17.17-.44.39h-4.71Zm2.05-1.12,2.24,0-.36,1h-2.24Zm3.61,5.54,2-.85.91,3.88-2,.85Zm.33,5.36h3l1-7.45h-2l1.25-2.07H138q.69.77,1,1.12l-1.32,9.37-.5.44-.77.68h-4.2Zm0-6.89-.19-1.18,1.88-3.2,2,.9-.5.87-1.27,2.07-.67,1.14Z"/><path class="cls-2" d="M143.64,329.86h2.18l-.27,1.91,0,.24-.28,2.1h1.38l.31-2.33h-1.22l.27-1.91h2.26l.3.35.66.79-.55,3.93L147.37,336h-4.6Zm2.6-6.44h2.24l-.27,1.89-.08.46-.17,1.29h4.58l.25-1.75h-4.44l.27-1.89h5.57l.33.39.63.73-.46,3.33q-.63.54-1.29,1.14h-8Zm4,6.42h2.16l-.27,1.92-.08.54-.25,1.8h1.44l.31-2.33h-1.29l.27-1.92h2.35l1,1.12-.55,4L154,336h-4.66Z"/><path class="cls-2" d="M161.79,330.07,160.73,329l3.25-3,.94.95.19-1.36h2l-.2,1.5-.06.41-.06.43h5.62l.13-.84h-.89l-.11.66h-1.44l.09-.66h-.89l-.09.66H167.7l.09-.66h-.72l.2-1.5h6.6l.71.84-.3,2.13q-.6.55-1,.85l-8.75,0,.27-1.89-1.36,1.33h.61l-.78,5.63.94-2.3,1.49.44L164.36,336l-1.21-.38-.06.47h-2.15Zm-.61-4.67,3.23-2.87,1.16,1.29.08-.6h3.56l.09-.6h2.09l-.09.6h3.54l-.22,1.59h-3.54l-.08.54h-2.09l.08-.54h-3.56l.11-.76-3.22,2.73Zm3.34,4.43h9.63l-.22,1.59h-9.63Zm.89,5.33.46-3.2h2l-.33,2.35h2.43l.17-1.23h1.65l-.28,2.08a6.19,6.19,0,0,0-.63.55l-.33.28h-4.39Q165.74,335.51,165.41,335.16Zm2.48-3.06,1.74-.6.33,2.18-1.76.55Zm3.86.3,1.63-.44.2,2.7-.25.35q-.22.32-.45.62l-.88.3Z"/><path class="cls-2" d="M181.34,331.25,179.9,334l-1-.43-.31-1.09,2.12-4h-1.57l.28-1.94H182l.17-1.23,2.23-.22-.2,1.45h2.24l-.28,1.94h-2.21l-.13.93,1.11-.49.83,2.18-.44,1.09-1,.62-.71-2.08-.8,5.57h-2.2Zm-1.32-7.7,6.67-.68,0,2-6.65.6Zm7.21-.08h2.12l-.28,2v.09L188,333.43h1.49l1.11-8h-1.33l.28-2h2.38l.66.79.3.35-1.35,9.67-.25.22-1,.9h-4.66Z"/><path class="cls-2" d="M200.4,336.19l-.16-.2-.11-.15-.41-.54,0-.17-2.18.79-.67-1.5.8-5.76h-.78l.27-1.94H199l.74.84.24.28-.8,5.66.64-.19.09,1.2,1.84-10.13h2.16l-.33,2-.3,1.67h0l-.33,1.83-1.15,6.41Zm-2-13.06h2.29l-.33,2.3h-2.29Zm8.31,12.2-.06-1.26-.47.46-.85-.82-.08.63-1,.87h-2.07l.25-1.8h.85l.5-3.55h-.77l.33-1.83H205l.39.45.31.37.25.3-.47,3.41,3.26-3.09.8-.79,1.21,1.37-1.95,1.88.08,2.22h.61l-.25,1.88h-1.83Zm-.42-9-2.6,0,.35-2h1.77l-.14-1.64,2.26-.33.19,2h2.7l-.27,2-1.88,0,.09,2.89-2.23,2.15Zm2.46-3.41,1.55,0,0,1.29h-1.52Z"/><path class="cls-2" d="M215.62,329.15l-1.27-.33,2.73-6.12,2.15.65-1.76,3.93.75,0-1.3,9.32h-2.34Zm2.79,2.29h2.38l-.27,1.86-.09.66-.08.58h4.14l.17-1.25h-4l.25-1.86h5.25l.41.47.56.65-.39,2.75-1.27,1.12h-7.8Zm.42-2.49h8.83l-.25,1.75h-8.83Zm.35-2.49H228l-.24,1.75h-8.83Zm.06-2.6,9.44,0-.27,1.88H219Zm3.53-.82h2.34l0,.65-2.31,0Z"/><path class="cls-2" d="M234.77,331.83h4.55l-.53,3.74h-4.55Zm2.45,2.46.19-1.26-1.07.06-.17,1.21Z"/><path class="cls-2" d="M96.06,66.19l-1.26,9H71.35l1.26-9Zm-5.7-1.12-.5-2H79.64l-1,2h-6.4l4.88-9.31-.68-.8H94.26l2.5,10.1Zm-.76,7.3L90.06,69H77.79l-.47,3.37ZM81.14,60.31h8l-.62-2.54H82.49Z"/><path class="cls-2" d="M106.16,57.77l-2.53,17.9H98.32l2.38-16.81L99,59.19l.47-3.37,7.2-1.42Zm2.2-2.63-.62-.74H113l-.62,2.25h11.45l-.38,2.81h-6.17l-.44,3.1h5.05l-.38,2.78H116.5l-.44,3.1h5.61l-.38,2.81h-5.61l-.62,4.43h-5.32L112,59.46h-.35l-.91,3.37h-4.46Z"/><path class="cls-2" d="M137.71,73.61l-4.46,2.07H125.4l9.87-4.58.29-2.1h5.58l-.29,2.1,8.55,4.58h-7.81Zm-5.82-9.1h-4.61l2.23-5.35h4.64Zm12.22,7.3.5-3.63H132.33l-.5,3.63-1.2.56h-3.35l.94-6.74h21.21l-.94,6.74h-3.35Zm-9.84-13.47h-4.76L128.6,55h4.73Zm7.87,3.6-2.23,2.57h-5.38l4.55-5.32h5.4l-1.2,1.39h3.29l3,3.93h-5.46Zm-1.2-6.41h9.9l-.38,2.81L149.37,60H144.9l1.2-2h-6.43l-.44.86h-4.49l1.88-3.66-.68-.83h5.58Z"/><path class="cls-2" d="M178.12,54.4l-.35,2.51-5.61.15-.26,1.83h6.7l-.35,2.51h-6.7l-.15,1.12h5.88l-1.2,8.72h-2.85l-1.47-1.33.68-4.84h-8.37l-.68,4.84-1.79,1.33h-2.85l1.2-8.72h5.87L166,61.4H159.5l-2.79,14.27h-5L155.5,56,154.59,55Zm-7.93,20.77-3-2.75-3.73,2.75h-6.14l7.46-5.52.53-3.72h5.58l-.53,3.75,5.93,5.5ZM160,58.89h6.34l.24-1.71-6.26.15Z"/><rect class="cls-2" x="52.11" y="36.13" width="6.63" height="41.72"/><path class="cls-2" d="M71.76,42.13c0-2.39,1.26-3.9,3.17-3.9a2.5,2.5,0,0,1,1.91.9l-.24.26a2.18,2.18,0,0,0-1.68-.79c-1.72,0-2.76,1.37-2.76,3.53s1,3.57,2.72,3.57a2.47,2.47,0,0,0,1.94-1l.24.25a2.72,2.72,0,0,1-2.2,1.07C73,46.07,71.76,44.52,71.76,42.13Z"/><path class="cls-2" d="M78.58,42.13c0-2.39,1.27-3.9,3.05-3.9s3.05,1.51,3.05,3.9-1.27,3.94-3.05,3.94S78.58,44.52,78.58,42.13Zm5.7,0c0-2.17-1.07-3.53-2.65-3.53S79,40,79,42.13s1.07,3.57,2.65,3.57S84.28,44.3,84.28,42.13Z"/><path class="cls-2" d="M86.39,42.13c0-2.39,1.27-3.9,3.05-3.9s3.05,1.51,3.05,3.9-1.27,3.94-3.05,3.94S86.39,44.52,86.39,42.13Zm5.7,0c0-2.17-1.07-3.53-2.65-3.53S86.79,40,86.79,42.13s1.07,3.57,2.65,3.57S92.09,44.3,92.09,42.13Z"/><path class="cls-2" d="M94.69,38.37H96.5c1.71,0,2.69.55,2.69,2.06s-1,2.17-2.65,2.17H95.07v3.33h-.38Zm1.72,3.89c1.6,0,2.37-.52,2.37-1.82s-.79-1.72-2.41-1.72H95.07v3.54Z"/><path class="cls-2" d="M101.3,38.37h4v.34h-3.65v3h3.06v.34h-3.06v3.52h3.77v.34H101.3Z"/><path class="cls-2" d="M111.69,45.93l-2.12-3.56H107.9v3.56h-.38V38.37h2.08c1.48,0,2.42.55,2.42,1.95a2,2,0,0,1-2,2l2.12,3.58ZM109.46,42c1.38,0,2.14-.55,2.14-1.72s-.77-1.61-2.14-1.61H107.9V42Z"/><path class="cls-2" d="M117.37,43.25h-3l-.94,2.69H113l2.68-7.57H116l2.69,7.57h-.41Zm-.11-.33-.52-1.51c-.32-.92-.58-1.69-.86-2.64h0c-.28.95-.55,1.72-.87,2.64l-.53,1.51Z"/><path class="cls-2" d="M122,38.71h-2.42v-.34h5.25v.34h-2.42v7.22H122Z"/><path class="cls-2" d="M126.72,38.37h.38v7.57h-.38Z"/><path class="cls-2" d="M129.3,42.13c0-2.39,1.27-3.9,3.05-3.9s3.05,1.51,3.05,3.9-1.27,3.94-3.05,3.94S129.3,44.52,129.3,42.13Zm5.7,0c0-2.17-1.07-3.53-2.65-3.53S129.7,40,129.7,42.13s1.07,3.57,2.65,3.57S135,44.3,135,42.13Z"/><path class="cls-2" d="M137.6,38.37h.4l3.31,5.51.86,1.49h.05c0-.73-.06-1.43-.06-2.14V38.37h.37v7.57h-.41l-3.3-5.51L138,38.93h0c0,.71,0,1.36,0,2.07v4.93h-.36Z"/><path class="cls-2" d="M153.5,47.56a3,3,0,0,1-.88.13,2.46,2.46,0,0,1-2.4-1.63c-1.66-.12-2.81-1.65-2.81-3.93s1.27-3.9,3.05-3.9,3.05,1.51,3.05,3.9-1.18,3.81-2.84,3.93a2,2,0,0,0,2,1.24,2.56,2.56,0,0,0,.74-.09Zm-3-1.83c1.58,0,2.65-1.43,2.65-3.6S152,38.6,150.46,38.6s-2.65,1.37-2.65,3.53S148.88,45.73,150.46,45.73Z"/><path class="cls-2" d="M155.69,43.1V38.37h.38V43c0,2.07,1,2.69,2.08,2.69s2.12-.61,2.12-2.69V38.37h.37V43.1c0,2.34-1.27,3-2.49,3S155.69,45.44,155.69,43.1Z"/><path class="cls-2" d="M166.64,43.25h-3l-.94,2.69h-.38L165,38.37h.34L168,45.93h-.41Zm-.11-.33L166,41.4c-.32-.92-.58-1.69-.86-2.64h0c-.28.95-.55,1.72-.87,2.64l-.53,1.51Z"/><path class="cls-2" d="M169.65,38.37H170v7.22h3.52v.34h-3.9Z"/><path class="cls-2" d="M175.32,38.37h.38v7.57h-.38Z"/><path class="cls-2" d="M178.39,38.37h4v.34h-3.63v3.16h3.06v.33h-3.06v3.73h-.38Z"/><path class="cls-2" d="M184.17,38.37h.38v7.57h-.38Z"/><path class="cls-2" d="M186.75,42.13c0-2.39,1.26-3.9,3.17-3.9a2.5,2.5,0,0,1,1.91.9l-.24.26a2.18,2.18,0,0,0-1.68-.79c-1.72,0-2.76,1.37-2.76,3.53s1,3.57,2.72,3.57a2.48,2.48,0,0,0,1.95-1l.24.25a2.72,2.72,0,0,1-2.2,1.07C188,46.07,186.75,44.52,186.75,42.13Z"/><path class="cls-2" d="M197.41,43.25h-3l-.94,2.69H193l2.68-7.57h.34l2.69,7.57h-.41Zm-.11-.33-.52-1.51c-.32-.92-.58-1.69-.86-2.64h0c-.28.95-.55,1.72-.87,2.64l-.53,1.51Z"/><path class="cls-2" d="M202,38.71h-2.42v-.34h5.25v.34h-2.42v7.22H202Z"/><path class="cls-2" d="M206.76,38.37h.38v7.57h-.38Z"/><path class="cls-2" d="M209.34,42.13c0-2.39,1.27-3.9,3.05-3.9s3.05,1.51,3.05,3.9-1.27,3.94-3.05,3.94S209.34,44.52,209.34,42.13Zm5.7,0c0-2.17-1.07-3.53-2.65-3.53s-2.65,1.37-2.65,3.53,1.07,3.57,2.65,3.57S215,44.3,215,42.13Z"/><path class="cls-2" d="M217.64,38.37h.4l3.31,5.51.86,1.49h.05c0-.73-.06-1.43-.06-2.14V38.37h.37v7.57h-.41l-3.3-5.51L218,38.93h0c0,.71,0,1.36,0,2.07v4.93h-.36Z"/></svg>