<svg id="图层_1" data-name="图层 1" xmlns="http://www.w3.org/2000/svg" viewBox="0 0 739.46 703.46"><defs><style>.cls-1{opacity:0.42;}.cls-2{fill:#1b67fa;}.cls-3{fill:#e5ba2d;}.cls-4{fill:#090909;}.cls-5{fill:#160f0f;}.cls-6{fill:#da417b;}.cls-7{fill:#fff;}.cls-8{fill:#49ac79;}.cls-9{fill:#0b0b0b;}</style></defs><title>未标题-1</title><g class="cls-1"><path class="cls-2" d="M372.43,404.16l.31-5a2,2,0,0,1,.41-.23c3.28-.57,3.3-.57,3.49-4q1.65-30.29,3.28-60.59c0-.54.12-1.08.2-1.66l18.44-2.24-.66,12.4-2.81,52.36c-.1,1.87-.16,3.74-.35,5.59,0,.39-.51,1-.84,1.06-7.05.88-14.12,1.7-21.18,2.53,0,0-.1,0-.3-.14"/><path class="cls-2" d="M352.13,393.47c1-5.31,2-10.31,2.93-15.31,1.48-7.7,3-15.4,4.43-23.12a1.66,1.66,0,0,1,1.74-1.63c4.88-.52,9.74-1.15,14.79-1.77-1,5.53-2,10.86-3,16.19-1.36,7.34-2.73,14.67-4,22a1.86,1.86,0,0,1-2,1.84c-4.89.51-9.76,1.15-14.9,1.78"/><path class="cls-2" d="M399.36,348.88l16.26-2c.24,3.18.46,6.28.7,9.38.7,9.15,1.39,18.3,2.15,27.45.1,1.26-.12,1.73-1.45,1.87-4.88.51-9.75,1.15-14.9,1.78l-2.77-38.51"/><path class="cls-2" d="M339.58,403,354,401.2l-.26,5.1-48.15,5.86a37.49,37.49,0,0,1,.24-4.29c.06-.39.85-.88,1.36-.95,3.9-.54,7.82-1,11.73-1.46l2-.24,3.16-58.55L312,348.14l.25-5.25,43.05-5.24-.27,5.2-12.29,1.5L339.58,403"/><path class="cls-2" d="M290.16,387.5l16.34-2c-.31,1.63-.58,3.11-.87,4.6-1.4,7.16-2.82,14.32-4.18,21.5a1.69,1.69,0,0,1-1.77,1.63c-4.83.51-9.65,1.14-14.78,1.77l5.26-27.51"/><path class="cls-2" d="M290.57,384.12,289,367l16-2c.2,1.62.42,3.23.58,4.84.34,3.61.62,7.23,1,10.83.12,1.17-.18,1.66-1.42,1.79-4.4.46-8.79,1-13.18,1.57-.42.05-.85,0-1.46.06"/><path class="cls-2" d="M308,360.91l-16,1.95L290,346,306,344l2,16.89"/><path class="cls-2" d="M487.7,390.21l-17.55,2.14.29-5.49,1.88-.39c.26-4.94.53-9.89.81-15-1.61.2-3,.29-4.4.59-.36.08-.79.8-.82,1.24-.39,6.25-.72,12.51-1.06,18.76,0,.21-.06.42-.1.72l-15.2,1.85,3.73-69.21,1.75-.21,29.16-3.55c3.36-.41,5.17,1.36,5,4.75q-1.52,28.15-3,56.3c-.13,2.47-.29,4.93-.45,7.53m-19.48-23.58c5.08-.24,5.12-.24,5.43-4.94.26-4,.42-8,.64-12l-5.18.63-.89,16.36M474.59,344c.22-3.74.53-7.4.63-11.07.14-5.08,1.33-4.93-4.72-4,0,0-.09.06-.24.18q-.41,7.63-.84,15.56l5.18-.63"/><path class="cls-2" d="M421.67,391.59c.22-4.38.41-8.65.65-12.93.78-14.32,1.59-28.64,2.32-43,.06-1.18.48-1.46,1.52-1.58,7.06-.82,14.12-1.71,21.18-2.55,3.24-.39,4.95,1.16,4.82,4.57-.23,5.88-.58,11.75-.9,17.62-.61,11.14-1.24,22.28-1.83,33.42,0,.86-.21,1.28-1.14,1.39-8.64,1-17.27,2.08-25.91,3.12a3.94,3.94,0,0,1-.71-.09m14.59-28.22-1.15,21.3,2.23-.27,1.15-21.3-2.23.27m.27-5.07c1-.73,2.22.15,2.3-1.5.28-5.64.63-11.28.9-16.92.09-1.89-.23-2.1-2.13-1.6l-1.08,20"/><path class="cls-2" d="M441,215.76a26,26,0,1,1,25.86-26,26,26,0,0,1-25.86,26m0-49.92a23.89,23.89,0,1,0,23.73,23.89A23.83,23.83,0,0,0,441,165.84"/><path class="cls-2" d="M441,215.76a26,26,0,1,1,25.86-26A26,26,0,0,1,441,215.76Zm0-49.92a23.89,23.89,0,1,0,23.73,23.89A23.83,23.83,0,0,0,441,165.84Z"/><path class="cls-2" d="M449.69,249.15a12.52,12.52,0,1,1,12.43-12.52,12.49,12.49,0,0,1-12.43,12.52m0-22.88A10.37,10.37,0,1,0,460,236.63a10.34,10.34,0,0,0-10.3-10.37"/><path class="cls-2" d="M449.69,249.15a12.52,12.52,0,1,1,12.43-12.52A12.49,12.49,0,0,1,449.69,249.15Zm0-22.88A10.37,10.37,0,1,0,460,236.63,10.34,10.34,0,0,0,449.69,226.27Z"/><path class="cls-2" d="M275,476.65a1.08,1.08,0,0,1-.37-.06l-57.6-21.26c-.52-.19-13.1-4.79-15.87-14.51-1.46-5.14.11-10.67,4.67-16.45a41,41,0,0,1,8.92-8.18l63.46-43.89a1.07,1.07,0,0,1,1.49.28,1.08,1.08,0,0,1-.28,1.5L216,418a38.82,38.82,0,0,0-8.45,7.75c-4.1,5.2-5.55,10.08-4.29,14.51,2.46,8.66,14.42,13,14.54,13.09l57.61,21.26a1.08,1.08,0,0,1-.37,2.08"/><path class="cls-2" d="M275,476.65a1.08,1.08,0,0,1-.37-.06l-57.6-21.26c-.52-.19-13.1-4.79-15.87-14.51-1.46-5.14.11-10.67,4.67-16.45a41,41,0,0,1,8.92-8.18l63.46-43.89a1.07,1.07,0,0,1,1.49.28,1.08,1.08,0,0,1-.28,1.5L216,418a38.82,38.82,0,0,0-8.45,7.75c-4.1,5.2-5.55,10.08-4.29,14.51,2.46,8.66,14.42,13,14.54,13.09l57.61,21.26a1.08,1.08,0,0,1-.37,2.08Z"/><path class="cls-2" d="M502.7,558.28q-6.74,0-16.18-3.52L353,505.47a1.08,1.08,0,0,1-.63-1.38,1.06,1.06,0,0,1,1.37-.64l133.56,49.28c12.18,4.54,20.66,4.53,25.2,0,8.87-8.91.38-32.47.29-32.7l0-.09-9.28-34.71a1.07,1.07,0,1,1,2.06-.56l9.27,34.67c.56,1.55,8.9,25.17-.81,34.92-2.68,2.69-6.45,4-11.26,4"/><path class="cls-2" d="M502.7,558.28q-6.74,0-16.18-3.52L353,505.47a1.08,1.08,0,0,1-.63-1.38,1.06,1.06,0,0,1,1.37-.64l133.56,49.28c12.18,4.54,20.66,4.53,25.2,0,8.87-8.91.38-32.47.29-32.7l0-.09-9.28-34.71a1.07,1.07,0,1,1,2.06-.56l9.27,34.67c.56,1.55,8.9,25.17-.81,34.92C511.28,556.93,507.51,558.28,502.7,558.28Z"/><path class="cls-2" d="M484.1,409.82a1.07,1.07,0,0,1-1-.8l-3.73-14a1.07,1.07,0,1,1,2.06-.56l3.73,14a1.07,1.07,0,0,1-.75,1.32,1,1,0,0,1-.28,0"/><path class="cls-2" d="M484.1,409.82a1.07,1.07,0,0,1-1-.8l-3.73-14a1.07,1.07,0,1,1,2.06-.56l3.73,14a1.07,1.07,0,0,1-.75,1.32A1,1,0,0,1,484.1,409.82Z"/><path class="cls-2" d="M446.43,327.53a1.07,1.07,0,0,1-1-1.41l24.41-74,24.06,8.48L474,319.43a1.07,1.07,0,1,1-2-.69l19.2-56.79-20-7.05-23.72,71.9a1.07,1.07,0,0,1-1,.74"/><path class="cls-2" d="M446.43,327.53a1.07,1.07,0,0,1-1-1.41l24.41-74,24.06,8.48L474,319.43a1.07,1.07,0,1,1-2-.69l19.2-56.79-20-7.05-23.72,71.9A1.07,1.07,0,0,1,446.43,327.53Z"/><path class="cls-2" d="M459.14,414.19a1.07,1.07,0,0,1-1-.78l-3.66-12.86a1.07,1.07,0,1,1,2.05-.59l3.66,12.86a1.07,1.07,0,0,1-.73,1.33,1,1,0,0,1-.29,0"/><path class="cls-2" d="M459.14,414.19a1.07,1.07,0,0,1-1-.78l-3.66-12.86a1.07,1.07,0,1,1,2.05-.59l3.66,12.86a1.07,1.07,0,0,1-.73,1.33A1,1,0,0,1,459.14,414.19Z"/><path class="cls-2" d="M494.14,532.05l-91.89-33.93a1.08,1.08,0,0,1-.63-1.38,1.06,1.06,0,0,1,1.37-.64l87.94,32.48-12-42A1.07,1.07,0,1,1,481,486Z"/><path class="cls-2" d="M494.14,532.05l-91.89-33.93a1.08,1.08,0,0,1-.63-1.38,1.06,1.06,0,0,1,1.37-.64l87.94,32.48-12-42A1.07,1.07,0,1,1,481,486Z"/><path class="cls-2" d="M330.46,471.53a1.07,1.07,0,0,1-.37-.07l-23.8-8.79a1.08,1.08,0,0,1-.63-1.38,1.06,1.06,0,0,1,1.37-.64l23.8,8.79a1.08,1.08,0,0,1-.37,2.08"/><path class="cls-2" d="M330.46,471.53a1.07,1.07,0,0,1-.37-.07l-23.8-8.79a1.08,1.08,0,0,1-.63-1.38,1.06,1.06,0,0,1,1.37-.64l23.8,8.79a1.08,1.08,0,0,1-.37,2.08Z"/><path class="cls-2" d="M277.68,452a1.07,1.07,0,0,1-.37-.07l-44.67-16.5,47.9-33.59a1.06,1.06,0,0,1,1.49.27,1.08,1.08,0,0,1-.27,1.5l-44.54,31.23L278,450a1.08,1.08,0,0,1-.37,2.08"/><path class="cls-2" d="M277.68,452a1.07,1.07,0,0,1-.37-.07l-44.67-16.5,47.9-33.59a1.06,1.06,0,0,1,1.49.27,1.08,1.08,0,0,1-.27,1.5l-44.54,31.23L278,450a1.08,1.08,0,0,1-.37,2.08Z"/><path class="cls-2" d="M354.08,352.72a1.06,1.06,0,0,1-.88-.46,1.08,1.08,0,0,1,.27-1.5L371.62,338a1.06,1.06,0,0,1,1.49.27,1.08,1.08,0,0,1-.27,1.5l-18.16,12.73a1.06,1.06,0,0,1-.61.19"/><path class="cls-2" d="M354.08,352.72a1.06,1.06,0,0,1-.88-.46,1.08,1.08,0,0,1,.27-1.5L371.62,338a1.06,1.06,0,0,1,1.49.27,1.08,1.08,0,0,1-.27,1.5l-18.16,12.73A1.06,1.06,0,0,1,354.08,352.72Z"/><path class="cls-2" d="M338.37,333.1a1.06,1.06,0,0,1-.88-.47,1.08,1.08,0,0,1,.28-1.49l29.49-20.4s4.53-3.72,7-11.91l26.45-73.76,23.21,11-28.21,82.35c0,.13-1.11,3.18-5.34,7.69a1.06,1.06,0,0,1-1.51,0,1.08,1.08,0,0,1,0-1.52c3.87-4.13,4.87-6.89,4.88-6.92L421.3,237.2,401.95,228l-25.64,71.49c-2.69,8.84-7.57,12.8-7.78,13L339,332.91a1.06,1.06,0,0,1-.6.19"/><path class="cls-2" d="M338.37,333.1a1.06,1.06,0,0,1-.88-.47,1.08,1.08,0,0,1,.28-1.49l29.49-20.4s4.53-3.72,7-11.91l26.45-73.76,23.21,11-28.21,82.35c0,.13-1.11,3.18-5.34,7.69a1.06,1.06,0,0,1-1.51,0,1.08,1.08,0,0,1,0-1.52c3.87-4.13,4.87-6.89,4.88-6.92L421.3,237.2,401.95,228l-25.64,71.49c-2.69,8.84-7.57,12.8-7.78,13L339,332.91A1.06,1.06,0,0,1,338.37,333.1Z"/><path class="cls-2" d="M249.06,487l8.46-.92c.28.28.77.76,1.47,1.42l.66.62-.06,1.46-1.92,9-3.51-2,1.46-6.53-1.4.15-1.32,6,.57.28,4.14,2.36,1.37.8,0,2.5-1.18,1.8-7-4.57-.07,0-1.89-1.25,1.54-7.52-1.4.15Zm2.29,13.13,3.48,2.3-2.32,6.41-2.55-.64c-.11-.28-.28-.64-.49-1.08l-.2-.44c-.08-.17-.16-.37-.25-.59ZM255.5,486l-4.37.48,1-4.62,4.37-.48Zm4.32,14.14,1.75-13.73,4.4-.48-2.72,21.6-2.73,0-1.43-1.68.63-4.93Zm.3-17.9L272,481c1,.92,1.73,1.59,2.13,2l-.06,1.8-3.61,6.08,1.76-.19,2.13,2-.35,11c-.6.63-1.07,1.15-1.4,1.54-.15.14-.29.3-.44.46l-.43.49-6.69.73.11-3.93,4.49-.49.26-8.11-2.85.31-1.26-3.2,3.5-6.22-9.3,1Z"/><path class="cls-2" d="M284.32,480.19l4.86-.53.05-2.12,4.59-.5-.08,2.12,6.48-.71.09-2.12,4.55-.5-.05,2.12,4.87-.53-.14,3.93-4.87.53-.07,2.28-3,.33-1.08.69,0,0-4,2.55-8.26,5.38,6.48-.71.05-2.41,4.53-.49-.06,2.4,5.86-.64-8.26-3.39,4-2.58,7.59,2.61.34,1.13c0,.14.09.31.15.49s.13.41.2.67l-1.26,2.25-1.44-.57-.11,3.11-2,.22,3.61,3.3-.17,2.51-1.73,1.7-5.13-4.84,2.51-2.58-13.79,1.51,2.41,2-5.5,6-1.65-1.34q0-1.61,0-2.5l3.82-4.11-2.07.23.08-3-1.49,1L284,493q.28-.95.77-2.42l8.46-5.31-4.27.47.05-2.09-4.87.53Zm10.23,16.43,4.52-.49-.18,5-.45.49-1.85,2-5.89.61.13-3.42,3.59-.42Zm-.92-13.53-.07,2,3.5-2.18,3,.75,0-1.23Z"/><path class="cls-2" d="M325,492.41l-7.65.83.12-3.8,6.17-.67-2.54-.61,1.25-3.23,5.45,1.36L327,488.4l1.86-.2,2-7.09,4.47.39-1.75,6.16-2.23,4h0l-9.35,9.83-2-1.84.21-2.45ZM323.26,477l-.13,3.8-.12,3.26-4.71.51.17-4.82,2.27-2.49Zm20.32,0-.17,4.82-4.71.51.11-3.3-15.4,1.71.12-3.8,17.91-2q1.22,1.13,2.13,2m-20,7.33,1.2-3.13,4.37.94L328,485.46Zm10-8.82-4.9.53-.11-1.57,4.89-.63Zm-1.93,16.12,2.17-4,10.1-1.1-.12,3.8-8.27.9,6.06,3.32c.07.5.22,1.26.43,2.29l-1.72,2.68-8.45-4.82,2.34-3.32Z"/><path class="cls-2" d="M352.87,492.49l-.59-3.47,6-2-.1,3.71Zm9.34-11.37-4.21.46.22-6.65-5,.55.13-4,7-.77,2.13,2-.12,3.83-.06,1.74Zm-3.6,5.82,0-1.2-5.61.61.29-9.25,3.5-.38-.18,5.29,6.26-.69-.41,12.77-2.27,2.49-7,.77.12-3.55,5.11-.56.09-2.66Zm8.62-9-2.39,2.28-1.47-1.45.13-2.82,8.37-7.92,3.23,2.36-.63.6-.14.11-3.55,3.45-2.31,2.18ZM363.44,492l15.43-1.69-.13,4L363.31,496Zm5.25-1.65-3.83.86-.91-8.42,3.83-.86Zm5-14.18,2.22,1.43,0,1.62-8.68.95.06-1.81,1.73-1.67Zm2.68,14.13-4.12.45.48-1.66-2.79.62-.89-8.27,3.73-.85.62,6.06,1.8-6.54,3.82.53ZM379.21,474l.13.65q.18,1.11.24,1.68l-1.51,2.31-.94-.56-.07-.09-1.18-.72-1.72-1.11-2.82-1.75,3.21-3.1Z"/><path class="cls-2" d="M397.76,488.73l4.71-.52v0L413,487.09l-.11,4L387,493.88l.14-4,10.63-1.16Zm-5.31-19.94,18.56-2q.83.73,2.13,2l-.1,3.45-1.86.2-.09,2.88-2.67.29,4.23,4.34-3.53,2.44L408,481.2h0l-2.87-3h0l-1.11-1.24,1.83-1.05-16.05,1.75.1-2.88-1.83.2.1-3.45q1.26-1.4,2.27-2.49l1.67-.18-.12,3.29,0,.92,0,.6,17.2-1.88.06-1.52-16.89,1.84Zm12.33,9.42,2.87,3.06-4.91.73-.08,1.59,9.2-1-.11,3.61-9.23,1,0,.7-4.71.52,0-.7-9.45,1,.11-3.61,9.48-1,.1-1.4L389.66,484l-1.24-2.52,4.23-3.81,5.8-.63-3,2.72Zm-1.89-10.91-4.52.49-.2-1.84,4.49-.49Z"/><polygon class="cls-2" points="294.67 428.3 304.89 446.51 315.71 425.51 323.45 424.53 322.88 459.59 314.17 460.69 315 441.58 309.26 454.37 300.17 455.57 294.86 444.51 295.11 463.13 286.4 464.23 286.96 429.17 294.67 428.3"/><path class="cls-2" d="M343.53,457.19l-8,1-.09-23.69,8.76-1.1Zm.35-26.91-8.23,1,.15-7.54,8.23-1Z"/><path class="cls-2" d="M363.25,447.44l12.88-2.76.51,7.7L360.45,455a4.51,4.51,0,0,1-3.54-.79,3.51,3.51,0,0,1-1.45-3l.1-31.68,8.52-1.07Z"/><polygon class="cls-2" points="391.75 451.28 384.93 452.14 385.02 415.66 392.76 414.68 392.13 436.14 400.37 426.84 405.04 431.25 398.35 437.53 406.05 446.91 398.55 451.42 393.77 441.87 391.96 443.53 391.75 451.28"/><path class="cls-2" d="M412.74,423.16l4.25-.63,0-6.53,8.28-1-.14,6.4,6.23-.93-.08,6.89-6.31.64-.27,12.51,5.71-.72-.09,6.4-8.57,1.08a4.15,4.15,0,0,1-3.17-.79A4,4,0,0,1,417,443.6a3,3,0,0,1,0-.64l0-14.15-4.27.44Z"/><path class="cls-2" d="M459.14,433.06l-10.57,1.18.06,3.26,15.7-2.62-.12,6.6-17.82,2.59a3.86,3.86,0,0,1-3.31-.94,4.26,4.26,0,0,1-1.43-3.21l0-15a5.33,5.33,0,0,1,1.45-3.75,5.11,5.11,0,0,1,3.47-1.78l13-1.29a4,4,0,0,1,4.42,3.55,4.12,4.12,0,0,1,0,.74l-.09,5.21a5.4,5.4,0,0,1-1.39,3.64,5,5,0,0,1-3.39,1.81m-10.55-4.61,8.57-.63.25-3.94-8.9,1.17Z"/><path class="cls-2" d="M497.57,439l-6,.75a3.21,3.21,0,0,1-1.88-.31,3.29,3.29,0,0,1-1.36-1.27l-9.25,2.35-.58.12a4.2,4.2,0,0,1-3.2-.81,4.06,4.06,0,0,1-1.58-2.85,2.84,2.84,0,0,1,0-.64L473.65,422a5.73,5.73,0,0,1,5.09-5.69l9.88-.85h0l0-.94,7.16-.9-.71,20.43,2.52-.32Zm-9.49-7.91h0l.28-8.49v-.35l-7.64,1,.14,9.83Z"/><path class="cls-2" d="M446.66,480.71l12.39-1.56-.1,7.09-15.87,2a4.07,4.07,0,0,1-3.18-.84,4.17,4.17,0,0,1-1.56-2.87,2.85,2.85,0,0,1,0-.64l.49-30.15,8.71-1.1Z"/><path class="cls-2" d="M491.05,483.49l-6,.75a3.21,3.21,0,0,1-1.88-.31,3.26,3.26,0,0,1-1.36-1.27L472.56,485l-.58.12a4.18,4.18,0,0,1-3.2-.81,4.06,4.06,0,0,1-1.58-2.85,2.84,2.84,0,0,1,0-.64l-.05-14.29a5.74,5.74,0,0,1,5.09-5.69l9.87-.85h0l0-.94,7.16-.9-.71,20.43,2.51-.31Zm-9.49-7.91h0l.28-8.5v-.35l-7.64,1,.14,9.83Z"/><path class="cls-2" d="M524.42,459.7,524.18,474a5.48,5.48,0,0,1-1.61,3.84,5.38,5.38,0,0,1-3.69,1.78l-11.15.46,0,1.34-7.55.95.1-39.6,8.52-1.07-.43,14.8,11.4-1.19a4.09,4.09,0,0,1,3.11.9,4.15,4.15,0,0,1,1.53,2.83,3.17,3.17,0,0,1,0,.64M507.9,472.77l8.72-.6.15-9.52-8.64,1.28Z"/></g><path class="cls-3" d="M272.14,139.23h-119a21.93,21.93,0,0,1,0-43.86h119a21.93,21.93,0,0,1,0,43.86"/><path class="cls-4" d="M272.14,139.92h-119a22.63,22.63,0,0,1,0-45.25h119a22.63,22.63,0,0,1,0,45.25Zm-119-43.86a21.24,21.24,0,0,0,0,42.47h119a21.24,21.24,0,0,0,0-42.47Z"/><path class="cls-3" d="M272.14,200.47h-119a21.93,21.93,0,0,1,0-43.86h119a21.93,21.93,0,0,1,0,43.86"/><path class="cls-4" d="M272.14,201.16h-119a22.63,22.63,0,0,1,0-45.25h119a22.63,22.63,0,0,1,0,45.25Zm-119-43.86a21.24,21.24,0,0,0,0,42.47h119a21.24,21.24,0,0,0,0-42.47Z"/><path class="cls-3" d="M475.7,139.23h-119a21.93,21.93,0,0,1,0-43.86h119a21.93,21.93,0,0,1,0,43.86"/><path class="cls-4" d="M475.7,139.92h-119a22.63,22.63,0,0,1,0-45.25h119a22.63,22.63,0,0,1,0,45.25Zm-119-43.86a21.24,21.24,0,0,0,0,42.47h119a21.24,21.24,0,0,0,0-42.47Z"/><path class="cls-3" d="M475.7,200.47h-119a21.93,21.93,0,0,1,0-43.86h119a21.93,21.93,0,0,1,0,43.86"/><path class="cls-4" d="M475.7,201.16h-119a22.63,22.63,0,0,1,0-45.25h119a22.63,22.63,0,0,1,0,45.25Zm-119-43.86a21.24,21.24,0,0,0,0,42.47h119a21.24,21.24,0,0,0,0-42.47Z"/><path class="cls-3" d="M679.26,139.23h-119a21.93,21.93,0,0,1,0-43.86h119a21.93,21.93,0,0,1,0,43.86"/><path class="cls-4" d="M679.26,139.92h-119a22.63,22.63,0,0,1,0-45.25h119a22.63,22.63,0,0,1,0,45.25Zm-119-43.86a21.24,21.24,0,0,0,0,42.47h119a21.24,21.24,0,0,0,0-42.47Z"/><path class="cls-3" d="M679.26,200.47h-119a21.93,21.93,0,0,1,0-43.86h119a21.93,21.93,0,0,1,0,43.86"/><path class="cls-4" d="M679.26,201.16h-119a22.63,22.63,0,0,1,0-45.25h119a22.63,22.63,0,0,1,0,45.25Zm-119-43.86a21.24,21.24,0,0,0,0,42.47h119a21.24,21.24,0,0,0,0-42.47Z"/><path class="cls-5" d="M158,115.33h3.77l-.51,3.82-1.28,9H156.2Zm8.57-2.25H158l.49-3.41h21.11l-.46,3.41h-8.65l-.28,2h-3.9Zm-.8,5.66h-4.23l.49-3.41h14.52q.74.9,1.59,1.86l-1.28,9.17-1,.9-1.08.93h-4.18l.46-3.43h2.26l.85-6h-4.46L168.1,130h-3.9Zm1.56-10.69,4.08,0,0,1.39h-4.13Z"/><path class="cls-5" d="M189.6,129.64l-.8-1.7.62-1.58-7.23,1.21,0-3.28,6.54-1v-.05l1.13-.18,0,2.35,2.49-6.43,3.16.83-3.9,10.3Zm-4.39-12.47h-2.08l.46-3.2h2.05v-.05h3.64V114l1.92-.05-.46,3.25h-1.87l-.82,5.94-3.75.59Zm1.26-9.14h3.64l-.77,5.66h-3.67Zm11.42,18.85h1.67l1.15-8h-9.18l-.46-3.07,7.29-4h-5.52l.41-3.07h10.29l.62.72q.38.41.95,1.11l-.18,1.24-7.13,4h5.41q.59.67,1.56,1.86l-1.41,10.2-2.08,1.83h-3.8Zm-3.44,2.71-.33-.72-.44-.88,3.21-8.88,3.23.77-3.69,10.25Z"/><path class="cls-5" d="M209.58,127.6l1.28-9.22h-2.18l.46-3.36h4.08q.33.36.92,1.06l.67.77-1.28,9,2-.75.72,2.92L211,130.21ZM211.74,109h4.16l-.56,4.18h-4.18Zm8.9,14h-5.31l.49-3.43h14.62L230,123h-5.41l-1.08,7.57h-3.9Zm1.46-10.64h-4.8l.46-3.38h13.9l-.49,3.38H226l-1,6.95h-3.9Zm-4.44,1,2.69-.44-.1,6-2.64.28ZM226,118.9l1.44-5.89,2.56.23-1.44,5.89Z"/><path class="cls-5" d="M237.59,119.36l-2.41-1.11L240.93,108l3.36,1.34L241.06,115H242l-2.15,15.29h-3.8Zm5.67-.77h3.82l-.46,3.31-.23,1.55-.44,3.13h5.52l.67-4.67h-5.28l.46-3.31h.62v0h6.64q.31.39,1.08,1.29l.49.57-1.05,7.67-2.1,1.83H241.7Zm5.18-3.62h-5.18l.46-3.33h14.13L257.4,115h-5.16l-.46,3.36H248Zm.92-6.71h3.82l-.44,3.13h-3.82Z"/><path class="cls-5" d="M361.47,128.35l-2-2.45,1.13-8.06h-2.05l.46-3.28h3.87q.85.93,1.08,1.24l.49.59-1.23,8.88L377.37,127q.56.88,1,1.63l-.64,2Zm-.44-19.6h3.9l-.54,3.93h-3.9Zm11.75,16.5-.82-.9.64-4.62h-1.05l-2.92,6.15-2-.44-.77-1.78,1.8-3.93h-2.72l.46-3.33h14.54l-.46,3.33H376.4l-.51,3.59h1.44l.28-2h1.62l-.49,3.43-1.54,1.39h-3.62ZM366.37,116l-.36-.62c-.07-.1-.14-.24-.23-.4s-.2-.36-.33-.58l1.8-5.45,3.05.44-.56,1.68-1.05,3.36-.62,1.83Zm5-1.6-2.41,0L370,111h9.47l-.44,3.28-3.92.05-.23,1.76h-3.8Zm.85-6h3.77l-.33,2.43h-3.77Z"/><path class="cls-5" d="M390.4,127.26l-6.9,1,0-3.2,2.28-.36,0,0,5.64-.85v2.63h14.19l-.46,3.36H390Zm-3.67-9h-2l.49-3.36h7.49l-.46,3.36h-1.87l-.77,5.6-3.75.59Zm1.36-9.79h3.64l-.85,6.2h-3.67Zm6.59,2.74h3.67l-2.1,15h-3.67Zm5.67-2.84h3.85l-1,7-.46,3.28-1.08,7.62h-3.82Zm3.1,7h3.26l-.49,3.28H403Z"/><path class="cls-5" d="M411,127.26l1.36-9.71h-1.57l.44-3h3.33c.22.24.53.59.92,1.06l.67.77-1.26,9.09.77-.28-.56,3.54-3,1Zm2.21-18.59H417l-.54,3.74H412.7Zm3.26,21.54-1.13-1.42,3.41-20.32h3.59l-.64,4-3,17.82Zm7.62-1.91H420l1.1-8h2.62l-.31,2.27-.28,1.86-.21,1.55h1.28l.49-3.41h-1.05l.31-2.27h2.31l1.18,1.37-.77,5.37h.62l2.16-15.34h-7.36l.51-3.28h9q.56.7.95,1.11l.62.72-2.54,18.18-2.08,1.83h-4.72Zm-2.82-11.18h7l-.36,2.45h-7Zm2.39-1.14h-1.75l.33-2.45h6.26l-.36,2.45h-1.72l-.13.9h-2.77Zm.51-3.72H427l-.15,1H424Z"/><path class="cls-5" d="M438.55,122.8l-1.21,5.06-1.28-.31a6.35,6.35,0,0,1-.32-.58l-.22-.45,4.21-14.2H438l.46-3.31h9l-.46,3.31h-3.77l-1,3.12h.15l-.38,2.79-.1.83-1.21,8.52h1.21l1.31-9.35h-.95l.38-2.79h2.49q.41.44,1.18,1.37l-1.67,11.93a20.52,20.52,0,0,1-1.56,1.39h-5.57Zm8.36,7.62-1.05-1.5,1.74-8.34h-1.46l.46-3.28h12.19l-.46,3.28h-1.72l-1.36,9.89h-3.57l1.36-9.89h-1.87l-2.13,10Zm1.44-21.51,11.31,0-.46,3.23H447.89Zm1.05,3.46h3.51l-1,4.7h-3.57Zm4.8,0h3.57l-.64,4.7h-3.56Z"/><path class="cls-5" d="M570.33,130.21l-1-1.52,3.64-16.84h3.69l-1.82,9.09-2.05,9.45Zm4.62-5.37h2.38l.54-3.9h-2.8l.62-3.15H580l1.56,1.83-.9,6.38-1.9,1.83h-4.26Zm8.57-9.66H576.2l.69-3.36h6.44l-.18-2.94,3.82-.72.21,3.67h5.87l-.49,3.36h-5.13l.18,3.36-3.64,4Zm-3.9,14.2q.05-1.5.05-1.91l8.54-9.25,1.62-1.7,2.41,2.32-8,8.6-3.16,3.36Zm4.7-1.63,3.64-4,.21,3h3.16l-.46,3.43h-6.44Zm4.21-18.85,3.15-.05.26,2.74h-3.18Z"/><path class="cls-5" d="M596.78,129q-.36-.75-.74-1.7l5.26-13.07h-3.57l.49-3.36h21.7l-.49,3.36h-3.59l1.64,13.07q-.38.62-1.21,1.7l-2.44.65-1.9-15.42H610.5l-1.28,9.09h-3.9l1.28-9.09h-1.38L599,129.67Zm5-5.4,3.46-.05h7.49l-.46,3.33h-11Zm3,3.51h3.9l-.41,3h-3.92Zm2.72-19.08h3.9l-.36,2.58h-3.9Z"/><path class="cls-5" d="M632.07,126.88h4.39l.82-5.94H625.81l.44-3-1.72,1.76-1.62-1.73q.05-.57.15-1.89l8.23-8.47,2.49,2.61-7.13,7.31H640.1l1.31,1.88-1.28,9q-1,.83-2.08,1.83h-6.49ZM624,129q0-.65,0-.93l0-1,4.77-6h4.64l-7.52,9.3Zm17.55-10.82-.49-.7-4.87-7.41,3.33-2.37,5.67,8.55-.46,1.94-2.16,1.58Z"/><path class="cls-5" d="M652.29,116.93l-2.49,8.88-1.13-.26q-.18-.36-.85-1.55l2.21-7.62h-.74l.44-3.25h8.57l-.44,3.25h-2.1l-.26,1.83,1.26-.39.69,5.42,2.64-13.4,11.29-1.11,0,3.28-8.18.77-.51,2.63-.74,3.87-2.28,11.42-2.31-.13a8.67,8.67,0,0,0-.54-.72l-.54-.75,1-5.22-1.72.54-.46-3.69-1.39,10h-3.39Zm1.15-8.32h3.39l-.59,4.26h-3.39Zm9.39,7.33h8.34l-.46,3.33-2.39,0h-6.13Zm1.67,3.59h3.8l-1.64,11.18h-3.77Z"/><path class="cls-5" d="M155.82,188.21h2.13l.51-3.69-2.15.34-.08-3.28,1.74-.23,4.82-.72,1.67-.23,0,3.2-2.1.31-.77,5.55-2.1,1.86h-4.08Zm3.72-11.34H157.2l.46-3.28h8l-.46,3.28h-1.92l-.49,3.51-3.85.54Zm1-7.39h3.77l-.54,3.87H160Zm3.8,20.94c0-.21,0-.38.05-.53s0-.28.05-.4l.13-1,3.26-3-2.44-3.59,2.41-1.58h-2.26L166,177h10.57q.62.7,1.08,1.27t.51.59l-.23,1.55-3.69,4.7,2.51,3.31-.44,2-2,1.47-3.49-4.62-5,4.73ZM170.67,175H166l.49-3.36h13.06l-.46,3.36h-4.59l-.26,1.81h-3.82Zm3.28,5.32h-4.82l2.15,3.18Zm-2.51-10.82h3.82L175,171.4h-3.8Z"/><path class="cls-5" d="M192.19,177h-.74l-6.67,14.44-2.23-.62q-.28-.65-.69-1.76L187.44,177h-4.16l.46-3.31h21.7L205,177h-4.16l2.31,12.19L202,190.9l-2.44.8L196.81,177h-.72L194,191.7h-3.92Zm1-7.41h3.9l-.51,3.77h-3.9Zm6.26,1.42,4.39-.16.41,2.5h-4.39Z"/><path class="cls-5" d="M207.5,186.82l8-1.11v3.23l-8,1.11Zm3.23-7.62h-1.92l.46-3.31h7.08l-.46,3.31h-1.41l-.9,6.51-3.82.52Zm1.36-9.68h3.75l-.85,6.09h-3.75Zm4.54,12.24h3.8l-.41,3-.13,1-.36,2.38h5l.49-3.36h-4.77l.44-3h6.72l1.59,1.83-.82,5.81-1.49,1.32-.59.52H215.3Zm-.13-4.26h14.42l-.44,3.07H216.07Zm1.64-6.64h13.26L231,174H217.71Zm.41,3.72,3.69,0,.28,2.69h-3.69Zm3.92-5.55h4l.18,1.6h-4Zm3.23,5.55,3.67,0-1,2.63h-3.69Z"/><path class="cls-5" d="M236.31,188.49l1.26-8.94h-2.28l.44-3.2h4.08q.59.67,1.56,1.86L240.19,187l1.33-.41.46,2.79-4.52,1.55Zm2.13-18.18h3.77l-.54,3.77h-3.75Zm4.46,21.62-1.1-1.42,3.54-20.69,3.46.1L245.24,192Zm6.82-21H253l-2.77,19.76H247Zm4.57-1.19h3.64l-3.08,22.13h-3.67Z"/><path class="cls-5" d="M360.75,181.37h-2.69l.46-3.28q.9-.75,1.56-1.39h2.28l-.36,2.58,0,.28-.1.62h2.85l-.31,2.07-.1.77,0,.16H373l.13-.93h-8.44l.28-2.07h11.18l.13-.9h-14l.36-2.58h4.59l0-.52,3.93,0,0,.49h7.75l.74.9.44.49-.44,3.28h-2.74l-.36,2.63-.51.44-1.05,1H364l0,.23-.05.44-.31,2.2-.13.9h9.39l.13-.9h-9.16l.31-2.2h11.44l1.18,1.37-.38,2.76-1.56,1.39H359.31Zm-.69-5.73-.21-1.94,3.59-4.49,2.74,1.58-.08.1L363,174.7l-1.51,1.89Zm4-1.42h-.31l2.39-2.94h4.18l-.41,2.94h-2.51l.46,1-2.72,1.32Zm6.26,1.42q-.13-1.37-.15-1.94l3.54-4.49,2.75,1.58-.13.15-2.75,3.43-1.82,2.22Zm4-1.42h-.28l2.36-2.94h4.44l-.41,2.94h-2.74l.49,1-2.8,1.32Z"/><path class="cls-5" d="M400.2,188.18h4.87l-.44,3H391.07l.26-2-8,1.37-.08-3.23,1.82-.31,0,0,4.21-.7,2.05-.31.05,3,.13-.9h5v-.05h3.77Zm-13.93-6.79H384.4l.41-3.1h7.36l-.44,3.1h-1.8l-.67,4.75-3.75.62Zm-1-7.21.44-3.2h7.85l-.46,3.2Zm1.46,3.87.54-3.87,0,.23h3.67l-.51,3.64Zm14.13,5.29h4.33l-.41,3h-4.34l-.21,1.58h-3.8l.23-1.58H392.4l.44-3h4.26v-.05h3.8ZM407.05,172l-1.13,8.13q-1.33,1.14-2.08,1.83h-2.77l-.15,1h-3.77l.13-1h-4.57l1.64-11.8h11.13Zm-8.06,1h-1.54l-.21,1.6-.41,2.84-.05.34-.18,1.32h1.54l.23-1.65H397.1l.38-2.84h1.28Zm3.77,4.44h-1.54l-.23,1.65h1.54Zm.62-4.44h-1.51l-.23,1.6h1.51Z"/><path class="cls-5" d="M409.08,186.82l8-1.11v3.23l-8,1.11Zm3.23-7.62h-1.92l.46-3.31h7.08l-.46,3.31h-1.41l-.9,6.51-3.82.52Zm1.36-9.68h3.75l-.85,6.09h-3.74Zm4.54,12.24H422l-.41,3-.13,1-.36,2.38h5l.49-3.36h-4.77l.44-3H429l1.59,1.83-.82,5.81-1.49,1.32-.59.52h-10.8Zm-.13-4.26H432.5l-.44,3.07H417.65Zm1.64-6.64H433l-.44,3.1H419.29Zm.41,3.72,3.69,0,.28,2.69h-3.69Zm3.92-5.55h4l.18,1.6h-4Zm3.23,5.55,3.67,0-1,2.63h-3.69Z"/><path class="cls-5" d="M437.89,188.49l1.26-8.94h-2.28l.44-3.2h4.08q.59.67,1.56,1.86L441.76,187l1.33-.41.46,2.79L439,190.95ZM440,170.31h3.77l-.54,3.77H439.5Zm4.46,21.62-1.1-1.42,3.54-20.69,3.46.1L446.81,192Zm6.82-21h3.31l-2.77,19.76h-3.28Zm4.57-1.19h3.64l-3.08,22.13h-3.67Z"/><path class="cls-5" d="M573.74,190.25l-2-2.45,1.21-8.57h-2.05l.46-3.31h3.9q.74.9,1.59,1.86l-1.33,9.4,14.19,1.29q.25.44,1,1.6l-.62,2Zm-.36-20.12h3.9l-.54,3.92h-3.9Zm4.46,13.66,2.87-4.31h3.92l-2.54,3.85,4-.49,1.13,2.94-8.52.85ZM579,176h13.62l-.46,3.2H578.51Zm2.18-5.91h10.7l-.44,3.18h-10.7Zm6.26,15.62-1.08-2.94-.69-1.91,2.9-1.45,2.41,6.25-3,1.42Z"/><path class="cls-5" d="M599.75,180.44H596.7l.49-3.54,1-.9.54-.46H601l-.36,2.63-.1.65-.05.34h3.23l-.26,2-.1.65-.08.65h7.85l.18-1.29H603.7l.28-2h10.75l.15-1h-14l.38-2.63h16.21l1.18,1.37-.51,3.54h-3l-.36,2.53-1.05,1-.51.44-14,0Zm-2.16,4.93h3.87l-.31,2.25-.13.78-.1.77H611.5l.23-1.55H601.39l.31-2.25h12.8q.41.44,1.18,1.37l-.46,3.36-1.56,1.37h-16.9ZM602.14,174h-4.28l.41-2.89h4.28l.18-1.21h3.77l-.18,1.21h4.82l.18-1.21h3.77l-.18,1.21h4.31l-.41,2.89h-4.28l-.18,1.14h-3.77l.15-1.14h-4.8l-.18,1.14H602Z"/><path class="cls-5" d="M621.4,186.82l8-1.11v3.23l-8,1.11Zm3.23-7.62h-1.92l.46-3.31h7.08l-.46,3.31h-1.41l-.9,6.51-3.82.52Zm1.36-9.68h3.75l-.85,6.09h-3.75Zm4.54,12.24h3.8l-.41,3-.13,1-.36,2.38h5l.49-3.36h-4.77l.44-3h6.72l1.59,1.83-.82,5.81-1.49,1.32-.59.52H629.2Zm-.13-4.26h14.42l-.44,3.07H630Zm1.64-6.64h13.26l-.44,3.1H631.61Zm.41,3.72,3.69,0,.28,2.69h-3.69Zm3.93-5.55h4l.18,1.6h-4Zm3.23,5.55,3.67,0-1,2.63h-3.69Z"/><path class="cls-5" d="M650.21,188.49l1.26-8.94h-2.28l.44-3.2h4.08q.59.67,1.57,1.86L654.08,187l1.33-.41.46,2.79-4.52,1.55Zm2.13-18.18h3.77l-.54,3.77h-3.75Zm4.46,21.62-1.1-1.42,3.54-20.69,3.46.1L659.14,192Zm6.82-21h3.31l-2.77,19.76h-3.28Zm4.57-1.19h3.64l-3.08,22.13h-3.67Z"/><path class="cls-5" d="M165.33,595.36l-8,7.8-1.28-1.81q.1-.7.31-1.83l5.21-5H157l.46-3.18h8.44l.18-1.39h3.85l-.21,1.39h8.18l-.46,3.18h-4.8l3.82,5.37-.33,1.86-1.8,1.58L169.08,596l-1,7.33H164.2Zm-5.9-13,18.75-.88-.31,3-18.73.9Zm.26,5.66,2.8-2.14,2.21,3-2.82,2.14Zm6.52-1.65,3.18-1.27,1,3.31-3.21,1.29Zm5.36,2.76,3.39-4.29,2.36,2L174,591.07Z"/><path class="cls-5" d="M182.13,602.15q-.05-1.14-.05-1.39a4.79,4.79,0,0,1,0-.59l3.39-4,1.28-9.22h2.92l-1.31,10,2.31,2.25q-.08,1-.1,1.91l-1.62,1.71L186.24,600l-2.64,3.18ZM184,582.57h2.87l-.59,4.24L185,596.47h-2.87Zm6.26,3.31h-3.59l.46-3.31H192q.64.8,1.18,1.37l-.23,1.65-.23,1.6-1.26,9h-2.64ZM192,595.2l3.39-6.87-2.21-1v-1.83l2.72-4.88,3.31,1.14-.74,1.29-2,3.51-.62,1.08,2.67,1-2.8,5.86,1.28-.33.13,2.81-4.34.85Zm2.49,4.39h4.69l.28-2-2,.39-.15-3.74v-2.76l2.23-.36.08,5.5,1.44-10.2h-4.16l1.87-3.28h4.62l1.59,1.83L202.68,601l-2.08,1.83H194Z"/><path class="cls-5" d="M209.71,602.53q-.1-.34-.31-.85l-.33-.88,5.67-13h4.13l-.67,1.5-.05.16-.46,1-1.44,3.36-4.13,9.45ZM211,584.2h7.59v0h4.54v0h8l-.49,3.38H210.51Zm7.62,15.7h5l.8-6h-7.9l1.49-3.36h9q.85,1,1.56,1.83l-1.21,8.78-2.1,1.86h-7Zm-.26-17.77,4.54-.23.21,2h-4.54Z"/><path class="cls-5" d="M243.24,599l-8.11,4.08-.62-1.52.82-1.91,3.05-1.47h-3.87l.38-2.79h1.56l-.26-.83.19-.31.19-.31.77-1.24,2.72-.75-2.05-.54,1.46-1.78H235.8l.38-2.71h5.54l1.46-1.78,3.05,1.27-.46.52H257.4L257,589.6h-3.57l.59,1.16-2.44.9,3.15,1,.59,1.83-.44.83h1.39l-.38,2.79h-3.75l2.62,1.47q.13.72.28,1.91l-1,1.52-7-4.08-.59,4.11h-3.82Zm-6.72-15.52.54-.46,1-.9h2.51l-.49,3.51-.08.52h-3.9Zm7.23,11.91.18-1.27h3.82l-.15,1.27h5.8L246,593.11l-8.29,2.25Zm10.13-10.46H240.44l.41-2.82h16l1.18,1.37-.33,2.66h-3.92Zm-4.54,4.7h-5.93l-.51.57,3.41.57Zm-3.69-8.78,4-.05v1.06h-3.92Z"/><path class="cls-5" d="M372.45,595.59l-3.16.54-.15-3.25,8.65-1.52.69-.13.13,2.76,4.62-7h3.46l-7.54,12-1.64-1q-.1-.8-.33-1.88l1.08-1.6-2.1.39L375,603.15H371.4Zm-2.26-4.49-1-1.5,1.85-7.33,2.67.34-.59,2.35h0L372,589.57l-.46,1.73Zm3.28-3h-.87l.82-3.18h5.36l-.44,3.18h-1.26l-.46,3.2-3.7.65Zm1-7.1h3.59l-.51,3.67H374Zm4.54,8.52q-.33-1.34-.44-1.81l4.1-7.18,2.77,1.29-.08.16-2.95,4.75h0l-2.05,3.43Zm.79,12.63-.26-1.32c0,.05,0-.13-.13-.54l8.26-13,.08-.52h-5.11l1.9-3h5.36q1.15,1.34,1.56,1.86L389.33,601q-.74.7-2.08,1.83h-3.92l.41-2.94h2.21l.77-5.42-5.16,8.6Z"/><path class="cls-5" d="M395.1,602.46l.54-1.29.33-.85,3.44-1.27H396l.74-5.4.77-.67.79-.7h2.49l-.41,2.92-.15,1-.36,2.69,2.69-1,1.15-2.53,3.82.67-.74,1.63,3.57,1.19.49-3.64H400.61l.41-2.92h1.92l-.41-1.06.31-.62q.18-.41.62-1.29l4.31-1.78,1.85-1.81h-2.21l3-2.84h6.34a5.42,5.42,0,0,0,.41.52l.36.41.41.46-.51,3.62h-3.64l.31-2.17h-3.57l2.18,1.34-1.23,1.14,4.21,1.5.56,1.86-.67,1.19-.46-.21-1.44-.44-5.26-1.89-5.08,2.07h10l1.62,1.16-.79,5.6h-3.23l3.08,1,.44,2.07-1.26,1.58-8.44-3.41L396,603.77Zm.51-12.14q.31-.75.85-1.91l4.64-2.25,1.26,3-6,2.87Zm1.13-6.12,2-2.94,3.87,1.86-2.08,3Zm6.85,2.69q0-.83,0-2.07l4.39-4.29,2.64,1.83-.59.52-3,2.84H407l-2.23,2.09Z"/><path class="cls-5" d="M422.52,586.26h2.87l-.36,2.5-1.46,10.54h0l-.13,1h4.72l.15-1.24h-4.46l.28-2h4.46l.26-1.86h-1.23c-.17-.19-.32-.36-.44-.52l-.36-.44.82-5.5h-.44l-1.33,8-.9-.05a4.74,4.74,0,0,1-.41-.53l-.26-.37.21-1.52,1-5.5h-.21l.36-2.5h5.59l.05-.26H428.5l.28-1.71h-.9l-.26,1.71h-3.1l.26-1.71h-2.23l.41-2.87h10.72l-.38,2.87h-1.41l-.31,2q.44.47,1.23,1.39L430.94,601l-1.54,1.39-.54.46h-8.64Zm6.62,7.31.64-4.73h-.33l-.69,4.73Zm2.41,7.54,1.28-9.27,2.1-1.83h4v0h4.23L443,591.4q-1.13,1-2.1,1.86h-4.62l-.9,6.4h4l-.46,3.28h-5.77Zm8.77-16.5h-6.23l.46-3.23h8q.62.67,1.56,1.83l-.9,6.53h-3.59Zm-.74,15.06.44-3.15h2.69l-.64,4.6-1.18,1-.92.83h-.85Z"/><path class="cls-5" d="M450.53,601.89l-2.21-2.53,1.08-7.83h-1.67l.46-3.28h3.72q.72.93,1.56,1.83l-1.18,8.42,3.75.34L455,598c0-.76-.05-1.22-.05-1.39a4.36,4.36,0,0,1,0-.57l2.54-2.94h-3.28l.46-3.33H468.9l-.46,3.33H462.1L457.23,599l9.9.9.51.78q.31.46.49.77l-.56,2.3Zm-.26-19.47h3.9l-.54,3.93h-3.9Zm9.47,5.19h-4.39l.46-3.31h13.44l-.46,3.31h-5.13l-.51,1.94h-3.93Zm-2.54-6h3.87l.44,2.45h-3.9Zm4.21,14.13,3-2.56L466.8,596q-.18,1.42-.28,2l-1.82,1.55ZM464,581.56h4L466.77,584h-3.9Z"/><path class="cls-5" d="M569.46,600.06h.74V600h21.19l-.41,2.92H569.07Zm1.23-3.54q.13-.13,1.38-1.24l.69-.59h1.39l-.36,2.56-.18,1.24-.18,1.29h-3.21Zm.79-2.45-.77-1.65,3-7.77h3.62l-.38,1h8.18L584.8,588l-2.28,2.69-2.08-1.42,1-1.26H576l-2.62,6.61Zm13.75-2.17h3.57l.33-2.45h-3.57l-.49-2.22,2-2.82H572l.44-3.1H590q.67.8,1.56,1.83l-.18,1.27-2,2.45h1.8l.49.59q.23.31,1.08,1.24l-.49,3.56q-.44.34-1.44,1.24l-.67.59h-5.23Zm-8.75,5.35H574l.36-2.56h1.28l-.49-.83.28-.88.38-1.16,1.33-.67,2.18,1.52-3.59,2,13.8,0,1.57,1.83-.46,3.28h-3.18l.36-2.56-2.69,0-.38,2.53h-3l.33-2.53h-2.64l-.36,2.53h-3Zm3.13-4.7L577.41,591,576,589.88l2-1.81,2.31,1.45.08-.08,2.05,1.39v0l1.1.8q0,1.24.05,2l-.85.88Z"/><path class="cls-5" d="M597.6,587h21.19l-.44,3.23H597.14Zm5.08,12.29h8.62l.46-3.41H599.29l-.26-3.15,1.15-2.25h4l-1.08,2.14H614.3l1.56,1.83L615,600.6l-.69.59-1.39,1.24h-10.7Zm-3.13-17.77h18.68l-.44,3.2h-18.7Z"/><path class="cls-5" d="M632.07,599.69h4.39l.82-5.94H625.81l.44-3-1.72,1.76-1.62-1.73q.05-.57.15-1.89l8.23-8.47,2.49,2.61-7.13,7.31H640.1l1.31,1.88-1.28,9q-1,.83-2.08,1.83h-6.49ZM624,601.84q0-.65,0-.93l0-1,4.77-6h4.64l-7.52,9.3ZM641.57,591l-.49-.7-4.87-7.41,3.33-2.37,5.67,8.55-.46,1.94-2.16,1.58Z"/><path class="cls-5" d="M652.29,589.75l-2.49,8.88-1.13-.26q-.18-.36-.85-1.55l2.21-7.62h-.74l.44-3.25h8.57l-.44,3.25h-2.1l-.26,1.83,1.26-.39.69,5.42,2.64-13.4,11.29-1.11,0,3.28-8.18.77-.51,2.63-.74,3.87-2.28,11.42-2.31-.13a8.67,8.67,0,0,0-.54-.72l-.54-.75,1-5.22-1.72.54-.46-3.69-1.39,10h-3.39Zm1.15-8.32h3.39l-.59,4.26h-3.39Zm9.39,7.33h8.34l-.46,3.33-2.39,0h-6.13Zm1.67,3.59h3.8l-1.64,11.18h-3.77Z"/><path class="cls-5" d="M157.12,652.84q-.21-.77-.36-1.21l1.59-3,1.87.77-2,3.87Zm7.44-3.54,2-.77h-2.15l-.62,4.34H160.1l.62-4.34H157l.36-2.61h3.33v0h3.67v0h4l-.36,2.61h-1.28l.67,2.81-.72,1.16-1.18.44Zm-5.85,3.87h3.87l-.36,2.53-.1.75-.26,1.81-.1.75-.23,1.76-.05.31-.05.44h9.65l.1-.75h-9.41L162,659h9.41l.1-.75h-9.41l.26-1.81h9.41l.1-.75h-9.41l.36-2.53h6.88l-1.13-1.27q.26-1.32.26-1.37l1.59-1.16,2.41,1.6-2.8,2.2h4.23l1.59,1.83-1,7.28-2.08,1.83H157.23Zm2.46-10.9h3.69l-.1.77-.28,2.09-.08.52h-3.69Zm3.87.77h3l-.28,2.09h-3Zm5.59,6.12-1.85-1.32,1.49-2h-1l.38-2.74H178q.69.85,1.18,1.39l-.13.9-2.9,3.38-2.44-1.34,1.44-1.63-4.64,0,2.51,1.5,3.13,1.76,1.74,1.14q.08.77.08,1.32l-1.31,1.55Z"/><path class="cls-5" d="M184.16,659.94l1.8-1.29h-4.1l.41-3.12h14l.15-1.08h3.8l-.15,1.08h4.23l-.38,3.13H187.62l2.56,3.46-2.87,2.09Zm.54-7-.49-.57,1.31-9.32h3.8l-.38,2.81-.18,1.19,0,.28H199l.21-1.47H189.16l.41-2.81h12.49q.51.57,1.18,1.39l-.62,4.29-1.8,1.29H188.34l-.18,1.32H201l-.41,2.89H185.78Q185.47,653.82,184.7,652.92Zm5.9,8.91h4.85l.38-2.92h3.8L199,663,197,664.88h-6.8ZM201.4,650l3.23,0-.41,2.84q-.9.75-1.56,1.39h-1.85Z"/><path class="cls-5" d="M212.12,663.07l-1.9-2.45,1.15-8.32h-1.92l.46-3.3h3.72q.56.7.95,1.11l.62.72L214,659.71l14.72,1.14q.36.59.62,1l.41.65-.54,1.76Zm0-19.86H216l-.54,3.93h-3.87Zm3.59,8.75q.1-.9.13-1.32l3.72-7.93,2.92,1.11L219,651.19l2,6.82-3.13,1.34Zm4.72.08q.05-.83.13-1.32l3.69-7.9,2.92,1.06-3.54,7.41,2.1,6.77-3.15,1.34Zm4.69-.05q.1-1.06.13-1.37l3.92-7.72,3,1.08-3.77,7.21,2.13,6.74-3.21,1.37Z"/><path class="cls-5" d="M235.88,664.51l-1.08-1.45,3.77-18.9h3.69l-.69,3.33-3.28,17.17Zm5.54-9.92h3.77l-.44,3.2-.13.83-.36,2.61h6.67l.49-3.43H245l.46-3.2h8.34l1.59,1.86-.87,6.12-2.08,1.86H240Zm1.08-10.43h14.7l-.46,3.33h-14.9Zm3.75,3.82h3.64l-.26,1.89-.41,2.94-.21,1.52h-3.67Zm-.33-5.42,3.75-.1,0,1.47h-3.75Zm4,7.31h6.52l-.41,2.94H249.5Z"/><path class="cls-5" d="M357.85,664l-1.05-1.55,3.33-12.5h3.75l-1.59,6.35-2,7.88Zm2.64-20.56h19.6l-.46,3.28-19.6.05Zm3.64,6.51h15.65l-.44,3.28-16.06,0Zm.1-2.79h4l.23,2.56h-3.9Zm3.87-5.6h4l.18,1.65h-4Zm4.08,5.6h4.1l-1.1,2.56h-4Z"/><path class="cls-5" d="M385,654.26h3.57l-.44,3.13-.05.39-.46,3.43h2.26l.51-3.82h-2l.44-3.12h3.69l.49.57q.77.9,1.08,1.29l-.9,6.43-2.08,1.83h-7.52Zm4.26-10.54h3.67l-.44,3.1-.13.75-.28,2.12h7.49l.41-2.87h-7.26l.44-3.1h9.11q.36.41.54.65l1,1.19-.74,5.45q-1,.88-2.1,1.86H388Zm6.54,10.51h3.54l-.44,3.15-.13.88-.41,2.94h2.36l.51-3.82h-2.1l.44-3.15h3.85l1.56,1.83-.9,6.48L402,664.39h-7.62Z"/><path class="cls-5" d="M412.34,664q-.31-.62-.46-.88a2.38,2.38,0,0,1-.22-.37l-.17-.35,2.46-7.54h-3.54l.51-3.64h21.73l-.51,3.64h-4.05l-1.36,9.68h-3.87l1.36-9.68h-6.34l-3.08,9.68Zm.51-20.35,11.29-1.34,0,3.67-3.46.36-7.82.9Zm3.59,3.43,4.1-.49-1.38,4.34h-4ZM426,642.2h3.87l-1.23,8.7h-3.87Z"/><path class="cls-5" d="M435.35,661l7.85-.8-.15,3.33-7.88.8Zm.49-3.69,3.87-4.67-1.72.23,3-3.28,1.44-.23,1.16-1.37,2.62,1.76-5.46,6.77-4.1,3.77Zm.72-7.54,5.77-7.77,3,1.5-4.64,6.09-3,3.28Zm4.49,6.77,2.69-.39-.21,3.23-6.52.85Zm3.23,7.85-1-1.52,4.36-16.29h3.44l-1.64,6.33,1-.83,2.8,3.41,2.44,3.07,1.69,2.76-.36,1.24-.18.65-1.9,1.32-2.36-3.75h0l-2-3h0l-1.69-2.43-2.41,9.27Zm9.06-9.19,1-2.35h-1.62L452,649.9l2.69-3.56h-8.62l.49-3.43H458.1l.59.67q.36.41.56.7l-.28,2.07-2.51,3.41h2.31l-.46,3.25-2.54,5.27Zm-6,8.16.33-2.09,2.64-3.25,2,3-3,3.74Z"/><path class="cls-5" d="M574,656.84l-3.16.54-.15-3.25,8.64-1.52.69-.13.13,2.76,4.62-7h3.46l-7.54,12-1.64-1q-.1-.8-.33-1.88l1.08-1.6-2.1.39-1.15,8.24H573Zm-2.26-4.49-1-1.5,1.85-7.33,2.67.34-.59,2.35h0l-1.15,4.62-.46,1.73Zm3.28-3h-.87l.82-3.18h5.36l-.44,3.18h-1.26l-.46,3.2-3.69.65Zm1-7.1h3.59l-.51,3.67h-3.59Zm4.54,8.52q-.33-1.34-.44-1.81l4.1-7.18,2.77,1.29-.08.16L584,648h0l-2.05,3.43Zm.8,12.63-.26-1.32q0,.08-.13-.54l8.26-13,.08-.52h-5.1l1.9-3h5.36q1.15,1.34,1.57,1.86l-2.16,15.42q-.74.7-2.08,1.83H584.9l.41-2.94h2.21l.77-5.42-5.16,8.6Z"/><path class="cls-5" d="M599.62,656.25l-2.31,5.53-1.33-.67q-.23-.88-.46-1.52l3-6.33h-1.67l.46-3.31h9.49l-.46,3.31h-3l-.13.9,1.77-.85,1,3.9-.54,1.6-1.36.52-1-4-1.23,9.4h-3.39Zm-1.85-11.57,2.39-.49.08,4.67-2.26.49Zm3.49-2.09h3.64l-1,7.13h-3.62Zm2.92,6.15,1.39-4.67,2.26.49-1.51,4.67Zm7.75,9.76-5.85.46.05-.46v-.57l.18-2.35,3.87-.31h.05l8.29-.67L618.3,658l-2.49.21-.92,6.51h-3.8Zm-4.69-7.62,2.1-2.2,3.31,3.28-2.1,2.19Zm.69-5.24,2.1-2.22,3.33,3.15-2.1,2.2Zm6.23-3H618l-1.64,11.91-3.87.34Z"/><path class="cls-5" d="M623.92,660.25l-.36-.08-.05,0-1-.18,1.44-3h-.49l1.41-10.23h3.77l-.41,2.84-.15,1.08-.33,2.38-.15,1.06h4l.15-1.06H628l.33-2.38h3.77l.15-1.08h-3.77l.38-2.84h3.77l.1-.67h3.82l-.1.67-.38,2.84-.15,1.08-.33,2.38-.15,1.06h4l.13-1.06h-3.77l.33-2.38h3.77l.15-1.08h-3.77l.38-2.84h5.72l1.57,1.83-.92,6.56-1.36,1.19a9.29,9.29,0,0,1-.72.65H635.1l-2.1,1.32-4.36-.62,1.21-.7h-5.77l4.18.88,4.67.67,9.23,1.55.28.57.24.46a5.54,5.54,0,0,1,.29.65l-.79,2.14Zm-1.28,2.53q.08-.31.15-.58l.15-.56.28-1,.36-.21,4.62,1-4.41,2.76Zm1.69-20.07H646l-.44,3.15H623.86Z"/><path class="cls-5" d="M648.93,663.46l-.26-.49-.62-1.11,1.59-5.19,2.72.49-2.08,6.58Zm2.41-2.09h.87l.74-5.27h-3.74l.41-3h11l-.44,3h-3.72l-.85,6.22-.64.57q-.77.7-1.46,1.26h-2.56Zm2.21-9.53h-4l.41-3h11.44l-.44,3h-4l-.15,1h-3.49Zm-2.36-8.62H655v-1.29l3.46,0,0,1.32h3.69l-.41,3.07H650.75Zm.15,3.51h3.39l.23,1.81h-3.39Zm5.36,10.33,2.77-.49.15,4.83-1.05,2-1.57.31Zm.85-10.36,3.41,0-.77,1.81H656.8Zm3,17.38q-.74-1.06-1.08-1.45L663,643.21l9.41-1-.1,3.23-6.31.59-.46,2.53-.67,3.72-2.18,11.85Zm5.62-11.52h3.51L668,664.18h-3.51Zm-.44-3.43h6.11l-.44,3.2h-6.26Z"/><path class="cls-6" d="M243,52.31a20,20,0,0,1,10.36-17.52,2.61,2.61,0,0,0-1.26-4.89H57.2a2.6,2.6,0,0,0-2.59,2.61V65.73a9,9,0,0,0,8.92,9H252.1a2.61,2.61,0,0,0,1.26-4.88A20,20,0,0,1,243,52.31"/><path class="cls-5" d="M252.1,75.21H63.54a9.47,9.47,0,0,1-9.42-9.48V32.51A3.11,3.11,0,0,1,57.2,29.4H252.1a3.11,3.11,0,0,1,1.5,5.82,19.5,19.5,0,0,0,0,34.17,3.11,3.11,0,0,1-1.5,5.82ZM57.2,30.4a2.1,2.1,0,0,0-2.09,2.11V65.73a8.46,8.46,0,0,0,8.42,8.48H252.1a2.1,2.1,0,0,0,2.09-2.11,2.08,2.08,0,0,0-1.07-1.83,20.5,20.5,0,0,1,0-35.92,2.11,2.11,0,0,0-1-3.95Z"/><path class="cls-7" d="M92.9,56.63H86.43l-2.7,10.85-3-.22-1.32-1.9,2.17-8.67H77.25l.6-4.21H98.53l0-.06h4.68l-.6,4.21h-5L96.17,67.57H91.39ZM80.64,41.91h22.85l-.6,4.11H80Zm3.58,4.43H89l-1.45,5.79H82.78Zm10.12,0h4.78l-.79,5.79H93.53Z"/><path class="cls-7" d="M113.83,67.79,112.51,66l4.62-23.16h4.53l-.85,4.08-4,21Zm6.79-12.15h4.62l-.53,3.92-.16,1-.44,3.2h8.17l.6-4.21H125l.57-3.92H135.8l1.95,2.28-1.07,7.5-2.55,2.28H118.92Zm1.32-12.78h18l-.57,4.08H121.12Zm4.59,4.68H131l-.31,2.31-.5,3.61-.25,1.87h-4.49Zm-.41-6.64,4.59-.13,0,1.8h-4.59Zm4.9,9h8l-.5,3.61h-8Z"/><path class="cls-7" d="M150.38,47.67h4.34l-.57,3.92-.25,1.77-.47,3.51-.88,6.3-.63,4.46h-4.37Zm-.19-5.06h26.59l-.57,3.89H149.63ZM155,64.47h2.33l.31-2.37H153l.5-3.48h4.65l.25-1.77-4.68,0,.5-3.51h4.65l.25-1.77h-4.65l.53-3.92h6.79l1.95,2.28-2.17,15.44-2.51,2.25-4.49,0Zm.47-24.17h4.68l0,2h-4.65Zm7.76,22.5,2-14.68h3.77l-2,14.71Zm2,4.9.53-3.86h2.42l2.29-16.45h4.18l-2.55,18.1-2.61,2.28Zm1.95-27.3h4.75l-.72,1.9h-4.78Z"/><path class="cls-7" d="M182.82,66.18l.28-1.27s.1-.4.25-1.08l2.48-1.93h-2.55l.53-3.83h13.8l-.53,3.83h-2.67l1.85,1.36,0,2.59-1.32,1.74-4.59-3.54,1.76-2.15h-4.24l1.32,2L184,68Zm3.65-19.74h-.88l.53-3.76h13.67l-.53,3.73h-.88l-1.6,11.39h-4.27l.22-1.68h-3l.41-2.91,3-.06.28-1.9h-3l.41-2.94h3l.25-1.9-3.33,0-.25,1.87-.41,2.94-.28,2-.41,3.07-.19,1.52h-4.34Zm.82-5.88h4.27l-.25,1.8H187Zm7.61,0h4.31l-.25,1.8h-4.31Zm2.89,26.89-.53-.73-.79-1,4.65-24.52h4.34l-.94,5.13L204,48.81l-.63,3.42-.66,3.8v0l-.63,3.45-1.51,8.19Zm4.87-3.58h2.2l.63-4.43h-3.08L203,56h2.92l.53-3.8h-2.77l.63-3.42H207l.53-3.86h-2.42l.69-3.8h4.46q.38.47,1.32,1.58l.6.7-3,21.67-2.55,2.28h-4.4Z"/><path class="cls-7" d="M225.9,56.21h4.65l-.63,4.68H225Zm1.32-9.4,5.09-.47-1.1,5.16h-4.65Z"/><path class="cls-8" d="M243,275a20,20,0,0,1,10.36-17.52,2.61,2.61,0,0,0-1.26-4.88H57.2a2.6,2.6,0,0,0-2.59,2.61v33.22a9,9,0,0,0,8.92,9H252.1a2.61,2.61,0,0,0,1.26-4.89A20,20,0,0,1,243,275"/><path class="cls-9" d="M252.1,297.85H63.54a9.36,9.36,0,0,1-9.32-9.38V255.25a3,3,0,0,1,3-3H252.1a3,3,0,0,1,1.45,5.63,19.6,19.6,0,0,0,0,34.35,3,3,0,0,1-1.45,5.63ZM57.2,253a2.21,2.21,0,0,0-2.2,2.22v33.22a8.57,8.57,0,0,0,8.53,8.59H252.1a2.21,2.21,0,0,0,1.07-4.14,20.39,20.39,0,0,1,0-35.74A2.21,2.21,0,0,0,252.1,253Z"/><path class="cls-7" d="M92.9,279.36H86.43l-2.7,10.85-3-.22-1.32-1.9,2.17-8.67H77.25l.6-4.21H98.53l0-.06h4.68l-.6,4.21h-5l-1.51,10.95H91.39ZM80.64,264.65h22.85l-.6,4.11H80Zm3.58,4.43H89l-1.45,5.79H82.78Zm10.12,0h4.78l-.79,5.79H93.53Z"/><path class="cls-7" d="M113.83,290.53l-1.32-1.77,4.62-23.16h4.53l-.85,4.08-4,21Zm6.79-12.15h4.62l-.53,3.92-.16,1-.44,3.2h8.17l.6-4.21H125l.57-3.92H135.8l1.95,2.28-1.07,7.5-2.55,2.28H118.92Zm1.32-12.78h18l-.57,4.08H121.12Zm4.59,4.68H131l-.31,2.31-.5,3.61-.25,1.87h-4.49Zm-.41-6.64,4.59-.13,0,1.8h-4.59Zm4.9,9h8l-.5,3.61h-8Z"/><path class="cls-7" d="M159,282.84h-9.24l2.11-15h4.68l-.57,4-.09.7-.88,6.3h4.56l1-7h-4.27l.57-4h16l1.92,2.25-1.48,10.54q-1.13,1-2.55,2.25h-7l-1.07,7.69H158Zm2.7-19.39h4.71l-.57,4.08h-4.71Zm7.2,15.34,1-7h-4.62l-1,7Z"/><path class="cls-7" d="M182.82,288.92l.28-1.27s.1-.4.25-1.08l2.48-1.93h-2.55l.53-3.83h13.8l-.53,3.83h-2.67l1.85,1.36,0,2.59-1.32,1.74-4.59-3.54,1.76-2.15h-4.24l1.32,2L184,290.72Zm3.65-19.74h-.88l.53-3.76h13.67l-.53,3.73h-.88l-1.6,11.39h-4.27l.22-1.68h-3l.41-2.91,3-.06.28-1.9h-3l.41-2.94h3l.25-1.9-3.33,0-.25,1.87-.41,2.94-.28,2-.41,3.07-.19,1.52h-4.34Zm.82-5.88h4.27l-.25,1.8H187Zm7.61,0h4.31l-.25,1.8h-4.31Zm2.89,26.89-.53-.73-.79-1,4.65-24.52h4.34L204.5,269l-.47,2.53L203.4,275l-.66,3.8v0l-.63,3.45-1.51,8.19Zm4.87-3.58h2.2l.63-4.43h-3.08l.63-3.42h2.92l.53-3.8h-2.77l.63-3.42H207l.53-3.86h-2.42l.69-3.8h4.46q.38.47,1.32,1.58l.6.7-3,21.67-2.55,2.28h-4.4Z"/><path class="cls-7" d="M225.9,279h4.65l-.63,4.68H225Zm1.32-9.4,5.09-.47-1.1,5.16h-4.65Z"/><path class="cls-6" d="M243,505.33a20,20,0,0,1,10.36-17.52,2.61,2.61,0,0,0-1.26-4.89H57.2a2.6,2.6,0,0,0-2.59,2.61v33.22a9,9,0,0,0,8.92,9H252.1a2.61,2.61,0,0,0,1.26-4.88A20,20,0,0,1,243,505.33"/><path class="cls-4" d="M252.1,528.43H63.54a9.66,9.66,0,0,1-9.62-9.68V485.53a3.3,3.3,0,0,1,3.29-3.31H252.1a3.3,3.3,0,0,1,1.59,6.19,19.3,19.3,0,0,0,0,33.83,3.3,3.3,0,0,1-1.59,6.19ZM57.2,483.62a1.91,1.91,0,0,0-1.9,1.92v33.22A8.27,8.27,0,0,0,63.54,527H252.1a1.91,1.91,0,0,0,1.9-1.92,1.89,1.89,0,0,0-1-1.66,20.69,20.69,0,0,1,0-36.27,1.89,1.89,0,0,0,1-1.66,1.91,1.91,0,0,0-1.9-1.92Z"/><path class="cls-7" d="M92.9,509.65H86.43l-2.7,10.85-3-.22-1.32-1.9,2.17-8.67H77.25l.6-4.21H98.53l0-.06h4.68l-.6,4.21h-5L96.17,520.6H91.39ZM80.64,494.94h22.85l-.6,4.11H80Zm3.58,4.43H89l-1.45,5.79H82.78Zm10.12,0h4.78l-.79,5.79H93.53Z"/><path class="cls-7" d="M113.83,520.82,112.51,519l4.62-23.16h4.53l-.85,4.08-4,21Zm6.79-12.15h4.62l-.53,3.92-.16,1-.44,3.2h8.17l.6-4.21H125l.57-3.92H135.8l1.95,2.28-1.07,7.5-2.55,2.28H118.92Zm1.32-12.78h18l-.57,4.08H121.12Zm4.59,4.68H131l-.31,2.31-.5,3.61-.25,1.87h-4.49Zm-.41-6.64,4.59-.13,0,1.8h-4.59Zm4.9,9h8l-.5,3.61h-8Z"/><path class="cls-7" d="M148.28,520.85,147.05,519l5.78-23.92,23.44-1.36-.25,4L156.6,499l-.44,1.93L155,505.44l-3.83,15.72Zm7-13.57h4.49l-.53,3.73-.06.6-.72,5.06H168l.79-5.66h-9.24l.5-3.73h11.5l1.95,2.25-1.23,8.61-1.54,1.42a5.81,5.81,0,0,0-.49.41l-.49.44-16.31.06Zm1.19-6.36H176l-.57,4h-20Z"/><path class="cls-7" d="M182.82,519.21l.28-1.27s.1-.4.25-1.08l2.48-1.93h-2.55l.53-3.83h13.8l-.53,3.83h-2.67l1.85,1.36,0,2.59-1.32,1.74-4.59-3.54,1.76-2.15h-4.24l1.32,2L184,521Zm3.65-19.74h-.88l.53-3.76h13.67l-.53,3.73h-.88l-1.6,11.39h-4.27l.22-1.68h-3l.41-2.91,3-.06.28-1.9h-3l.41-2.94h3l.25-1.9-3.33,0-.25,1.87-.41,2.94-.28,2-.41,3.07-.19,1.52h-4.34Zm.82-5.88h4.27l-.25,1.8H187Zm7.61,0h4.31l-.25,1.8h-4.31Zm2.89,26.89-.53-.73-.79-1,4.65-24.52h4.34l-.94,5.13-.47,2.53-.63,3.42-.66,3.8v0l-.63,3.45-1.51,8.19Zm4.87-3.58h2.2l.63-4.43h-3.08l.63-3.42h2.92l.53-3.8h-2.77l.63-3.42H207l.53-3.86h-2.42l.69-3.8h4.46q.38.47,1.32,1.58l.6.7-3,21.67-2.55,2.28h-4.4Z"/><path class="cls-7" d="M225.9,509.24h4.65l-.63,4.68H225Zm1.32-9.4,5.09-.47-1.1,5.16h-4.65Z"/><path class="cls-3" d="M272.14,385.3h-119a21.93,21.93,0,0,1,0-43.86h119a21.93,21.93,0,0,1,0,43.86"/><path class="cls-4" d="M272.14,386h-119a22.63,22.63,0,0,1,0-45.25h119a22.63,22.63,0,0,1,0,45.25Zm-119-43.86a21.24,21.24,0,0,0,0,42.47h119a21.24,21.24,0,0,0,0-42.47Z"/><path class="cls-3" d="M272.14,446.54h-119a21.93,21.93,0,0,1,0-43.86h119a21.93,21.93,0,0,1,0,43.86"/><path class="cls-4" d="M272.14,447.23h-119a22.63,22.63,0,0,1,0-45.25h119a22.63,22.63,0,0,1,0,45.25Zm-119-43.86a21.24,21.24,0,0,0,0,42.47h119a21.24,21.24,0,0,0,0-42.47Z"/><path class="cls-3" d="M475.7,385.3h-119a21.93,21.93,0,0,1,0-43.86h119a21.93,21.93,0,0,1,0,43.86"/><path class="cls-4" d="M475.7,386h-119a22.63,22.63,0,0,1,0-45.25h119a22.63,22.63,0,0,1,0,45.25Zm-119-43.86a21.24,21.24,0,0,0,0,42.47h119a21.24,21.24,0,0,0,0-42.47Z"/><path class="cls-3" d="M475.7,446.54h-119a21.93,21.93,0,0,1,0-43.86h119a21.93,21.93,0,0,1,0,43.86"/><path class="cls-4" d="M475.7,447.23h-119a22.63,22.63,0,0,1,0-45.25h119a22.63,22.63,0,0,1,0,45.25Zm-119-43.86a21.24,21.24,0,0,0,0,42.47h119a21.24,21.24,0,0,0,0-42.47Z"/><path class="cls-3" d="M679.26,385.3h-119a21.93,21.93,0,0,1,0-43.86h119a21.93,21.93,0,0,1,0,43.86"/><path class="cls-4" d="M679.26,386h-119a22.63,22.63,0,0,1,0-45.25h119a22.63,22.63,0,0,1,0,45.25Zm-119-43.86a21.24,21.24,0,0,0,0,42.47h119a21.24,21.24,0,0,0,0-42.47Z"/><path class="cls-3" d="M679.26,446.54h-119a21.93,21.93,0,0,1,0-43.86h119a21.93,21.93,0,0,1,0,43.86"/><path class="cls-4" d="M679.26,447.23h-119a22.63,22.63,0,0,1,0-45.25h119a22.63,22.63,0,0,1,0,45.25Zm-119-43.86a21.24,21.24,0,0,0,0,42.47h119a21.24,21.24,0,0,0,0-42.47Z"/><path class="cls-5" d="M168.1,363.68l-9.62,13-2-1.37-.21-1.91,9.06-12.14,2.51,1.76-2.54-6.4,3.64-2,7.67,18.93-.77,1.86-2.54,1.34Z"/><path class="cls-5" d="M182.83,373.73h4.85l.28-2.14.44-3,.13-1h-3.46l-.38-.44-1.21-1.39.79-5.71h2.87l-.62,4.34h6l-1.44,10.38-1.31,1.16-.79.7h-6.54Zm-.41-4,5.72-1.06-.41,3-5.16,1Zm6.8-11h-5.13l.46-3.25h6.77l1.56,1.83-.95,6.82h-3.46ZM191.7,373h12.18l-.46,3.36-12.21,0Zm4.9-4.8h-3.8l.46-3.33h11.36l-.46,3.33h-3.82l-.64,4.54H196Zm1-7h-4l.46-3.36h11.8l-.49,3.36h-4l-.49,3.46h-3.75Zm.59-6,3.87,0,.08,2.4h-3.85Z"/><path class="cls-5" d="M208,373.42h2.13l.56-4-2,.46-.31-3.31,8.46-1.86.05,3.33-2.28.52-.85,6.12q-1.08,1-2.1,1.86h-4.08Zm3.69-11.21h-2.26l.49-3.41h8l-.49,3.41h-1.92l-.36,2.61-3.9.83Zm1.05-7.52h3.77l-.54,3.87H212.2Zm5,21.15q-.39-1.08-.59-1.78l3.67-7h-3.36l.46-3.36,13.08,0-.46,3.38H225l-.87,1.71,3-1.39,2.15,6.3q-.36.83-.82,1.81l-2.41,1.24-2.39-7.08-3.59,7.13ZM222.56,361h-3.67l.46-3.36h12.13L231,361h-4.39l-.44,2.45h-4.1Zm1.21-6.51h4.08l-.51,2.92h-4.1Z"/><path class="cls-5" d="M234.26,373.6H236l.64-4.49-1.8.36-.18-3.2,7.31-1.39.46-.1.15,3.07-2.13.41-.92,6.58q-1.33,1.14-2.08,1.83h-3.59Zm3.26-11.16h-2.05l.46-3.23h7.29l-.46,3.23h-1.51l-.33,2.35-3.82.75Zm1.05-7.62h3.72l-.56,4.11H238ZM242.8,371l2.08-1.47h-2.44l.44-3.12h7.21l.18-1.32h3.82l-.18,1.32h2.74l-.44,3.12h-10.7l1.92,2.71L245,374Zm.46-9.71h14.29l-.44,3.12H242.83Zm5.46-1.55h-4.39l.44-3.1h12.88l-.44,3.1H252.5l-.18,1.29h-3.77Zm-3.59,14.2H249l.59-4.13h3.8l-.74,5.35q-.54.49-.82.72-.74.7-1.26,1.11h-5.87Zm4.28-19.11h3.75L253,356.4h-3.75Z"/><path class="cls-5" d="M378.73,356.81h3.9l2.62,18.33h-3.87Zm5.85,11,4.64-11h4.18l-7.72,18.31Z"/><path class="cls-5" d="M398.64,357h3.87l-2.57,18.26h-3.87Z"/><path class="cls-5" d="M406.8,374.71l1.36-9.68h-1.74l.46-3.31h3.69q.62.67,1.57,1.83l-1.26,9.27,1.57-.7.49,1.68.26,1.34-5.1,2.07ZM409,355.34h4.16l-.59,4.24h-4.16Zm4.39,20.3.56-2.17,2.75-2.09,2.36,2.12-4.46,3.43Zm5.9-2.3L417,371.22l-3-2.84,1.33-1.29h-1.46l.41-2.94h11q.95,1.16,1.56,1.83l-.15,1.08L422.6,371l-2.46-1.81,2.18-2.07h-4.8l2.41,2.25,2.54,1.86,2.92,2.27q-.05.44-.06.71t0,.45c0,.34,0,.63,0,.85L423.67,377Zm-4.08-9.94-.95-1.63,2.39-6.74h3.54l-2.82,8.6Zm7.21-1.83.51-3.64h-3.44l1-2.89h4.67l.44.52q.51.65,1.13,1.32l-.51,3.67H428l-.41,2.87H424Q423.06,362.24,422.44,361.56Z"/><path class="cls-5" d="M433.5,374l1.28-9.32h-2.31l.44-3.07h4.21q.36.46,1,1.14l.59.7-1.26,9,2.67-.83.49,2.79-5.93,2.07Zm2.13-18.15h3.75l-.51,3.74h-3.75Zm5,5.91h14.08l-.49,3.43H440.14Zm4.54,3.67h3.9l-1.56,11.23-3.9,0Zm1.46-10.74h3.9l-.92,6.82h-3.9Z"/><path class="cls-5" d="M577.82,376.85l-1.08-1.45,3.77-18.9h3.69l-.69,3.33L580.23,377Zm5.54-9.92h3.77l-.44,3.2-.13.83-.36,2.61h6.67l.49-3.43h-6.41l.46-3.2h8.34l1.59,1.86-.87,6.12-2.08,1.86H582Zm1.08-10.43h14.7l-.46,3.33h-14.9Zm3.75,3.82h3.64l-.26,1.89-.41,2.94-.21,1.52h-3.67Zm-.33-5.42,3.75-.1,0,1.47h-3.74Zm4,7.31h6.52l-.41,2.94h-6.52Z"/><path class="cls-5" d="M604.83,360.17h3.64l-.41,3-.08.62-1.36,9.68h1.64l1.44-10.3h-1.41l.44-3h2.62l1-1.39h4l-1,1.39h7.8l.38.44,1.21,1.39-1.8,12.73q-.54.49-.82.72l-1.26,1.11H602.52Zm-.26-1.71h0l.08-.54q.15-1.16.26-1.9a2.13,2.13,0,0,1,.15-.74H626.3l-.49,3.25H604.6Zm10,15,0,0,.23-1.63h-3l.36-2.66h3l.23-1.65h-3l.38-2.69h3l.23-1.65h-3.21l-.23,1.65-.36,2.69-.23,1.65-.38,2.66v.08l-.23,1.58Zm4.82,0,1.44-10.3H619.2l-1.46,10.3Z"/><path class="cls-5" d="M629.94,374.71,631.3,365h-1.74l.46-3.31h3.69q.62.67,1.57,1.83L634,372.82l1.56-.7.49,1.68.26,1.34-5.11,2.07Zm2.23-19.37h4.16l-.59,4.24h-4.16Zm4.39,20.3.56-2.17,2.75-2.09,2.36,2.12-4.46,3.43Zm5.9-2.3-2.36-2.12-3-2.84,1.33-1.29H637l.41-2.94h11q.95,1.16,1.56,1.83l-.15,1.08-4.08,3.9-2.46-1.81,2.18-2.07h-4.8l2.41,2.25,2.54,1.86,2.92,2.27q-.05.44-.06.71c0,.18,0,.33,0,.45q0,.52,0,.85L646.82,377Zm-4.08-9.94-.95-1.63,2.38-6.74h3.54l-2.82,8.6Zm7.21-1.83.51-3.64h-3.44l1-2.89h4.67l.44.52q.51.65,1.13,1.32l-.51,3.67h1.8l-.41,2.87h-3.59Q646.21,362.24,645.59,361.56Z"/><path class="cls-5" d="M656.62,374l1.28-9.32H655.6l.44-3.07h4.21q.36.46,1,1.14l.59.7-1.26,9,2.67-.83.49,2.79-5.93,2.07Zm2.13-18.15h3.75l-.51,3.74h-3.75Zm5,5.91h14.08l-.49,3.43H663.27Zm4.54,3.67h3.9l-1.56,11.23-3.9,0Zm1.46-10.74h3.9l-.92,6.82h-3.9Z"/><path class="cls-5" d="M157.43,438.11l-1.08-1.45,3.77-18.9h3.69l-.69,3.33-3.28,17.17Zm5.54-9.92h3.77l-.44,3.2-.13.83-.36,2.61h6.67l.49-3.43h-6.41l.46-3.2h8.34l1.59,1.86-.87,6.12L174,438H161.59ZM164,417.76h14.7l-.46,3.33h-14.9Zm3.75,3.82h3.64l-.26,1.89-.41,2.94-.21,1.52H166.9Zm-.33-5.42,3.75-.1,0,1.47h-3.75Zm4,7.31H178l-.41,2.94h-6.52Z"/><path class="cls-5" d="M184.42,421.43h3.64l-.41,3-.08.62-1.36,9.68h1.64l1.44-10.3h-1.41l.44-3h2.62l1-1.39h4l-1,1.39h7.8l.38.44,1.21,1.39L202.45,436q-.54.49-.82.72l-1.26,1.11H182.11Zm-.26-1.71h0l.08-.54q.15-1.16.26-1.9a2.14,2.14,0,0,1,.15-.74h21.21l-.49,3.25H184.19Zm10,15,0,0,.23-1.63h-3l.36-2.66h3l.23-1.65h-3l.38-2.69h3l.23-1.65h-3.21l-.23,1.65-.36,2.69-.23,1.65-.38,2.66v.08l-.23,1.58Zm4.82,0,1.44-10.3h-1.64l-1.46,10.3Z"/><path class="cls-5" d="M219.66,432.53l1.67-1.73h-2.62l-2.36,1.68h0l-3.05,2.07-3.9,2.76-1.13-1.55.51-2,4.41-2.92h-4.62l.44-3.12h8.85V427l3.62-.41,0,1.11h8.72l-.44,3.13h-2.13l1.82,2-1.8,1.52.74.57a3.8,3.8,0,0,0,0,.55c0,.2,0,.34,0,.43v1l-1.49,1.63Zm-10.29-9.63,5.59-1.32-.44,3.1-4.85,1.11Zm1.56-5.22,2.85-.93.74,3.93-2.8.93Zm2.13,18.72.23-1.55,3.46-2.38h.8l-.38,2.66,3.64-.62.21,2.71-7,1.08Zm1.72-11.8.44-3.1.74-5.32h3.72l-1.51,10.69h-3.69Zm5.36-1.34h10.62l-.44,3.13H219.72Zm3.8-1.88h-4l.41-3.1H232l-.44,3.1h-3.85l-.23,1.65h-3.72Zm3.67,9.43h-4.36l2.31,1.83Zm-2.92-14.62h3.72l-.26,1.81h-3.72Z"/><path class="cls-5" d="M236.16,426.8l-1.62-.44,4.16-9.81,3.51,1-2.56,6.09h.79l-2.13,15.26h-3.82Zm5.77-8.39h3.46l-.31,2.09-.51,3.74-.31,2.14-1.49,10.79h-3.46Zm1.44,18.85.56-.62.8-.93,10.77-1.6.05,3-12.19,1.73Zm.72-5.19,11.31-1.6.08,2.92L244,435Zm.64-3.9,9.29-1.32-2.9-1.24L245,427.8l-.38-1.39,1-1.83,2-.78-.41-.33,2.13-2.45,2,1.6,1.62-1.73h-3.54l2.77-3.12h3.64q.62.7,1.08,1.27t.51.59l-.18,1.27-2.72,2.66,2.18.88.51,1.83-.92,1.58-.85-.34.1,2.09-11,1.5Zm.46-5.17,0-2,4.18-5.19,2.8,1.58-5.1,5.91H247l-.59.65Z"/><path class="cls-5" d="M381.91,429h-5.28l-2.21,8.86-2.41-.18-1.08-1.55L372.7,429h-3.57l.49-3.43H386.5l0-.05h3.82l-.49,3.43h-4.05l-1.23,8.94h-3.9Zm-10-12h18.65l-.49,3.36H371.42Zm2.92,3.62h3.9l-1.18,4.73h-3.9Zm8.26,0H387l-.64,4.73h-3.92Z"/><path class="cls-5" d="M394.23,434.85h21.5l-.44,3.15-21.52.05Zm2.21-14.23,3.46-.49.08,10.17-3.52.49Zm6.31-4h3.59l-2.51,18h-3.59Zm5.88,0h3.59l-2.46,18H406.1ZM411,430.28l3.21-10.15,3.33.62-3.21,10.15Z"/><path class="cls-5" d="M420.44,437l-.1-.9-.13-1,4.69-6.66,3,2-5.44,7.75Zm2.41-13.64h4.08l-.59,4.11h-4.08Zm1-6.82h4.08l-.56,4.11h-4.08ZM429,428.73h3.54l-.46,3.43,0,.18-.31,2.14h5.7l.33-2.32h-5.46l.49-3.43H440q.67.8,1.56,1.83l-.77,5.53-2.08,1.83h-11Zm5-2.45h-4.46l.51-3.69h12.75l-.51,3.69h-4.64l-.31,2.2h-3.64Zm.79-5.66-4.44.34.13-3.56,13-1-.13,3.56-4.9.36-.28,2h-3.62Z"/><path class="cls-5" d="M446.79,433.87l3-7.33h3.64l-2.51,6.09,2.8-.67.31,3.13-6.41,1.65Zm1.46-11,10.75,0-.49,3.43-10.72,0ZM450,416.6h9l-.49,3.44h-9ZM454.28,435l-.31-3.1,0-.46-.08-.62-.13-1.37,3.16-.67.69,6.53-3.21.8Zm4.21,2.45-1-1.55,3.36-12.68h-1.72l.46-3.43h8.57q.62.67,1.13,1.32l.44.52-1.95,14-2.08,1.83h-3.54l.46-3.28h1.77l1.54-11h-1.44l-3.82,14.46Zm4.41-21.74,3.51.21-1,3.62h-3.57Z"/><path class="cls-5" d="M583.49,429H578.2L576,437.85l-2.41-.18-1.08-1.55,1.77-7.08h-3.57l.49-3.43h16.88l0-.05h3.82l-.49,3.43h-4.05l-1.23,8.94h-3.9Zm-10-12h18.65l-.49,3.36H573Zm2.92,3.62h3.9l-1.18,4.73h-3.9Zm8.26,0h3.9l-.64,4.73H584Z"/><path class="cls-5" d="M595.78,434.85h21.5l-.44,3.15-21.52.05ZM598,420.63l3.46-.49.08,10.17-3.52.49Zm6.31-4h3.59l-2.51,18h-3.59Zm5.88,0h3.59l-2.46,18h-3.64Zm2.33,13.66,3.21-10.15,3.33.62-3.21,10.15Z"/><path class="cls-5" d="M623.4,436l1.36-9.68H623l.46-3.31h3.69q.62.67,1.57,1.83l-1.26,9.27,1.57-.7.49,1.68.26,1.34-5.1,2.07Zm2.23-19.37h4.16l-.59,4.24H625Zm4.39,20.3.56-2.17,2.75-2.09,2.36,2.12-4.46,3.43Zm5.9-2.3-2.36-2.12-3-2.84,1.33-1.29h-1.46l.41-2.94h11q.95,1.16,1.56,1.83l-.15,1.08-4.08,3.9-2.46-1.81,2.18-2.07h-4.8l2.41,2.25,2.54,1.86,2.92,2.27q-.05.44-.06.71t0,.45c0,.34,0,.63,0,.85l-1.62,1.47Zm-4.08-9.94-.95-1.63,2.39-6.74h3.54l-2.82,8.6Zm7.21-1.83.51-3.64h-3.44l1-2.89h4.67l.44.52q.51.65,1.13,1.32l-.51,3.67h1.8l-.41,2.87h-3.59Q639.67,423.49,639.05,422.82Z"/><path class="cls-5" d="M650.11,435.24l1.28-9.32h-2.31l.44-3.07h4.21q.36.46,1,1.14l.59.7-1.26,9,2.67-.83.49,2.79-5.93,2.07Zm2.13-18.15H656l-.51,3.74h-3.75Zm5,5.91h14.08l-.49,3.43H656.75Zm4.54,3.67h3.9l-1.56,11.23-3.9,0Zm1.46-10.74h3.9l-.92,6.82h-3.9Z"/></svg>