<svg id="图层_1" data-name="图层 1" xmlns="http://www.w3.org/2000/svg" xmlns:xlink="http://www.w3.org/1999/xlink" viewBox="0 0 739.46 703.46"><defs><style>.cls-1,.cls-11,.cls-16,.cls-6{fill:none;}.cls-2{opacity:0.42;}.cls-3{fill:#1b67fa;}.cls-4{clip-path:url(#clip-path);}.cls-5{fill:#e5ba2d;}.cls-6{stroke:#090909;stroke-width:1.39px;}.cls-11,.cls-16,.cls-6{stroke-miterlimit:10;}.cls-7{font-size:25.82px;fill:#160f0f;letter-spacing:0.02em;}.cls-12,.cls-7{font-family:zihun152hao-jijiachaojihei, zihun152hao-jijiachaojihei;}.cls-8{letter-spacing:0.02em;}.cls-9{letter-spacing:-0.12em;}.cls-10{fill:#da417b;}.cls-11{stroke:#160f0f;}.cls-12{font-size:31.64px;fill:#fff;}.cls-13{letter-spacing:0.14em;}.cls-14{letter-spacing:0.14em;}.cls-15{fill:#49ac79;}.cls-16{stroke:#0b0b0b;stroke-width:0.79px;}</style><clipPath id="clip-path"><rect class="cls-1" x="-801.29" y="-53.31" width="1624.9" height="818.92"/></clipPath></defs><title>未标题-1</title><g class="cls-2"><path class="cls-3" d="M372.43,404.16l.31-5a2,2,0,0,1,.41-.23c3.28-.57,3.3-.57,3.49-4q1.65-30.29,3.28-60.59c0-.54.12-1.08.2-1.66l18.44-2.24-.66,12.4-2.81,52.36c-.1,1.87-.16,3.74-.35,5.59,0,.39-.51,1-.84,1.06-7.05.88-14.12,1.7-21.18,2.53,0,0-.1,0-.3-.14"/><path class="cls-3" d="M352.13,393.47c1-5.31,2-10.31,2.93-15.31,1.48-7.7,3-15.4,4.43-23.12a1.66,1.66,0,0,1,1.74-1.63c4.88-.52,9.74-1.15,14.79-1.77-1,5.53-2,10.86-3,16.19-1.36,7.34-2.73,14.67-4,22a1.86,1.86,0,0,1-2,1.84c-4.89.51-9.76,1.15-14.9,1.78"/><path class="cls-3" d="M399.36,348.88l16.26-2c.24,3.18.46,6.28.7,9.38.7,9.15,1.39,18.3,2.15,27.45.1,1.26-.12,1.73-1.45,1.87-4.88.51-9.75,1.15-14.9,1.78l-2.77-38.51"/><path class="cls-3" d="M339.58,403,354,401.2l-.26,5.1-48.15,5.86a37.49,37.49,0,0,1,.24-4.29c.06-.39.85-.88,1.36-.95,3.9-.54,7.82-1,11.73-1.46l2-.24,3.16-58.55L312,348.14l.25-5.25,43.05-5.24-.27,5.2-12.29,1.5L339.58,403"/><path class="cls-3" d="M290.16,387.5l16.34-2c-.31,1.63-.58,3.11-.87,4.6-1.4,7.16-2.82,14.32-4.18,21.5a1.69,1.69,0,0,1-1.77,1.63c-4.83.51-9.65,1.14-14.78,1.77l5.26-27.51"/><path class="cls-3" d="M290.57,384.12,289,367l16-2c.2,1.62.42,3.23.58,4.84.34,3.61.62,7.23,1,10.83.12,1.17-.18,1.66-1.42,1.79-4.4.46-8.79,1-13.18,1.57-.42.05-.85,0-1.46.06"/><path class="cls-3" d="M308,360.91l-16,1.95L290,346,306,344l2,16.89"/><path class="cls-3" d="M487.7,390.21l-17.55,2.14.29-5.49,1.88-.39c.26-4.94.53-9.89.81-15-1.61.2-3,.29-4.4.59-.36.08-.79.8-.82,1.24-.39,6.25-.72,12.51-1.06,18.76,0,.21-.06.42-.1.72l-15.2,1.85,3.73-69.21,1.75-.21,29.16-3.55c3.36-.41,5.17,1.36,5,4.75q-1.52,28.15-3,56.3c-.13,2.47-.29,4.93-.45,7.53m-19.48-23.58c5.08-.24,5.12-.24,5.43-4.94.26-4,.42-8,.64-12l-5.18.63-.89,16.36M474.59,344c.22-3.74.53-7.4.63-11.07.14-5.08,1.33-4.93-4.72-4,0,0-.09.06-.24.18q-.41,7.63-.84,15.56l5.18-.63"/><path class="cls-3" d="M421.67,391.59c.22-4.38.41-8.65.65-12.93.78-14.32,1.59-28.64,2.32-43,.06-1.18.48-1.46,1.52-1.58,7.06-.82,14.12-1.71,21.18-2.55,3.24-.39,4.95,1.16,4.82,4.57-.23,5.88-.58,11.75-.9,17.62-.61,11.14-1.24,22.28-1.83,33.42,0,.86-.21,1.28-1.14,1.39-8.64,1-17.27,2.08-25.91,3.12a3.94,3.94,0,0,1-.71-.09m14.59-28.22-1.15,21.3,2.23-.27,1.15-21.3-2.23.27m.27-5.07c1-.73,2.22.15,2.3-1.5.28-5.64.63-11.28.9-16.92.09-1.89-.23-2.1-2.13-1.6l-1.08,20"/><path class="cls-3" d="M441,215.76a26,26,0,1,1,25.86-26,26,26,0,0,1-25.86,26m0-49.92a23.89,23.89,0,1,0,23.73,23.89A23.83,23.83,0,0,0,441,165.84"/><path class="cls-3" d="M441,215.76a26,26,0,1,1,25.86-26A26,26,0,0,1,441,215.76Zm0-49.92a23.89,23.89,0,1,0,23.73,23.89A23.83,23.83,0,0,0,441,165.84Z"/><path class="cls-3" d="M449.69,249.15a12.52,12.52,0,1,1,12.43-12.52,12.49,12.49,0,0,1-12.43,12.52m0-22.88A10.37,10.37,0,1,0,460,236.63a10.34,10.34,0,0,0-10.3-10.37"/><path class="cls-3" d="M449.69,249.15a12.52,12.52,0,1,1,12.43-12.52A12.49,12.49,0,0,1,449.69,249.15Zm0-22.88A10.37,10.37,0,1,0,460,236.63,10.34,10.34,0,0,0,449.69,226.27Z"/><path class="cls-3" d="M275,476.65a1.08,1.08,0,0,1-.37-.06l-57.6-21.26c-.52-.19-13.1-4.79-15.87-14.51-1.46-5.14.11-10.67,4.67-16.45a41,41,0,0,1,8.92-8.18l63.46-43.89a1.07,1.07,0,0,1,1.49.28,1.08,1.08,0,0,1-.28,1.5L216,418a38.82,38.82,0,0,0-8.45,7.75c-4.1,5.2-5.55,10.08-4.29,14.51,2.46,8.66,14.42,13,14.54,13.09l57.61,21.26a1.08,1.08,0,0,1-.37,2.08"/><path class="cls-3" d="M275,476.65a1.08,1.08,0,0,1-.37-.06l-57.6-21.26c-.52-.19-13.1-4.79-15.87-14.51-1.46-5.14.11-10.67,4.67-16.45a41,41,0,0,1,8.92-8.18l63.46-43.89a1.07,1.07,0,0,1,1.49.28,1.08,1.08,0,0,1-.28,1.5L216,418a38.82,38.82,0,0,0-8.45,7.75c-4.1,5.2-5.55,10.08-4.29,14.51,2.46,8.66,14.42,13,14.54,13.09l57.61,21.26a1.08,1.08,0,0,1-.37,2.08Z"/><path class="cls-3" d="M502.7,558.28q-6.74,0-16.18-3.52L353,505.47a1.08,1.08,0,0,1-.63-1.38,1.06,1.06,0,0,1,1.37-.64l133.56,49.28c12.18,4.54,20.66,4.53,25.2,0,8.87-8.91.38-32.47.29-32.7l0-.09-9.28-34.71a1.07,1.07,0,1,1,2.06-.56l9.27,34.67c.56,1.55,8.9,25.17-.81,34.92-2.68,2.69-6.45,4-11.26,4"/><path class="cls-3" d="M502.7,558.28q-6.74,0-16.18-3.52L353,505.47a1.08,1.08,0,0,1-.63-1.38,1.06,1.06,0,0,1,1.37-.64l133.56,49.28c12.18,4.54,20.66,4.53,25.2,0,8.87-8.91.38-32.47.29-32.7l0-.09-9.28-34.71a1.07,1.07,0,1,1,2.06-.56l9.27,34.67c.56,1.55,8.9,25.17-.81,34.92C511.28,556.93,507.51,558.28,502.7,558.28Z"/><path class="cls-3" d="M484.1,409.82a1.07,1.07,0,0,1-1-.8l-3.73-14a1.07,1.07,0,1,1,2.06-.56l3.73,14a1.07,1.07,0,0,1-.75,1.32,1,1,0,0,1-.28,0"/><path class="cls-3" d="M484.1,409.82a1.07,1.07,0,0,1-1-.8l-3.73-14a1.07,1.07,0,1,1,2.06-.56l3.73,14a1.07,1.07,0,0,1-.75,1.32A1,1,0,0,1,484.1,409.82Z"/><path class="cls-3" d="M446.43,327.53a1.07,1.07,0,0,1-1-1.41l24.41-74,24.06,8.48L474,319.43a1.07,1.07,0,1,1-2-.69l19.2-56.79-20-7.05-23.72,71.9a1.07,1.07,0,0,1-1,.74"/><path class="cls-3" d="M446.43,327.53a1.07,1.07,0,0,1-1-1.41l24.41-74,24.06,8.48L474,319.43a1.07,1.07,0,1,1-2-.69l19.2-56.79-20-7.05-23.72,71.9A1.07,1.07,0,0,1,446.43,327.53Z"/><path class="cls-3" d="M459.14,414.19a1.07,1.07,0,0,1-1-.78l-3.66-12.86a1.07,1.07,0,1,1,2.05-.59l3.66,12.86a1.07,1.07,0,0,1-.73,1.33,1,1,0,0,1-.29,0"/><path class="cls-3" d="M459.14,414.19a1.07,1.07,0,0,1-1-.78l-3.66-12.86a1.07,1.07,0,1,1,2.05-.59l3.66,12.86a1.07,1.07,0,0,1-.73,1.33A1,1,0,0,1,459.14,414.19Z"/><path class="cls-3" d="M494.14,532.05l-91.89-33.93a1.08,1.08,0,0,1-.63-1.38,1.06,1.06,0,0,1,1.37-.64l87.94,32.48-12-42A1.07,1.07,0,1,1,481,486Z"/><path class="cls-3" d="M494.14,532.05l-91.89-33.93a1.08,1.08,0,0,1-.63-1.38,1.06,1.06,0,0,1,1.37-.64l87.94,32.48-12-42A1.07,1.07,0,1,1,481,486Z"/><path class="cls-3" d="M330.46,471.53a1.07,1.07,0,0,1-.37-.07l-23.8-8.79a1.08,1.08,0,0,1-.63-1.38,1.06,1.06,0,0,1,1.37-.64l23.8,8.79a1.08,1.08,0,0,1-.37,2.08"/><path class="cls-3" d="M330.46,471.53a1.07,1.07,0,0,1-.37-.07l-23.8-8.79a1.08,1.08,0,0,1-.63-1.38,1.06,1.06,0,0,1,1.37-.64l23.8,8.79a1.08,1.08,0,0,1-.37,2.08Z"/><path class="cls-3" d="M277.68,452a1.07,1.07,0,0,1-.37-.07l-44.67-16.5,47.9-33.59a1.06,1.06,0,0,1,1.49.27,1.08,1.08,0,0,1-.27,1.5l-44.54,31.23L278,450a1.08,1.08,0,0,1-.37,2.08"/><path class="cls-3" d="M277.68,452a1.07,1.07,0,0,1-.37-.07l-44.67-16.5,47.9-33.59a1.06,1.06,0,0,1,1.49.27,1.08,1.08,0,0,1-.27,1.5l-44.54,31.23L278,450a1.08,1.08,0,0,1-.37,2.08Z"/><path class="cls-3" d="M354.08,352.72a1.06,1.06,0,0,1-.88-.46,1.08,1.08,0,0,1,.27-1.5L371.62,338a1.06,1.06,0,0,1,1.49.27,1.08,1.08,0,0,1-.27,1.5l-18.16,12.73a1.06,1.06,0,0,1-.61.19"/><path class="cls-3" d="M354.08,352.72a1.06,1.06,0,0,1-.88-.46,1.08,1.08,0,0,1,.27-1.5L371.62,338a1.06,1.06,0,0,1,1.49.27,1.08,1.08,0,0,1-.27,1.5l-18.16,12.73A1.06,1.06,0,0,1,354.08,352.72Z"/><path class="cls-3" d="M338.37,333.1a1.06,1.06,0,0,1-.88-.47,1.08,1.08,0,0,1,.28-1.49l29.49-20.4s4.53-3.72,7-11.91l26.45-73.76,23.21,11-28.21,82.35c0,.13-1.11,3.18-5.34,7.69a1.06,1.06,0,0,1-1.51,0,1.08,1.08,0,0,1,0-1.52c3.87-4.13,4.87-6.89,4.88-6.92L421.3,237.2,401.95,228l-25.64,71.49c-2.69,8.84-7.57,12.8-7.78,13L339,332.91a1.06,1.06,0,0,1-.6.19"/><path class="cls-3" d="M338.37,333.1a1.06,1.06,0,0,1-.88-.47,1.08,1.08,0,0,1,.28-1.49l29.49-20.4s4.53-3.72,7-11.91l26.45-73.76,23.21,11-28.21,82.35c0,.13-1.11,3.18-5.34,7.69a1.06,1.06,0,0,1-1.51,0,1.08,1.08,0,0,1,0-1.52c3.87-4.13,4.87-6.89,4.88-6.92L421.3,237.2,401.95,228l-25.64,71.49c-2.69,8.84-7.57,12.8-7.78,13L339,332.91A1.06,1.06,0,0,1,338.37,333.1Z"/><path class="cls-3" d="M249.06,487l8.46-.92c.28.28.77.76,1.47,1.42l.66.62-.06,1.46-1.92,9-3.51-2,1.46-6.53-1.4.15-1.32,6,.57.28,4.14,2.36,1.37.8,0,2.5-1.18,1.8-7-4.57-.07,0-1.89-1.25,1.54-7.52-1.4.15Zm2.29,13.13,3.48,2.3-2.32,6.41-2.55-.64c-.11-.28-.28-.64-.49-1.08l-.2-.44c-.08-.17-.16-.37-.25-.59ZM255.5,486l-4.37.48,1-4.62,4.37-.48Zm4.32,14.14,1.75-13.73,4.4-.48-2.72,21.6-2.73,0-1.43-1.68.63-4.93Zm.3-17.9L272,481c1,.92,1.73,1.59,2.13,2l-.06,1.8-3.61,6.08,1.76-.19,2.13,2-.35,11c-.6.63-1.07,1.15-1.4,1.54-.15.14-.29.3-.44.46l-.43.49-6.69.73.11-3.93,4.49-.49.26-8.11-2.85.31-1.26-3.2,3.5-6.22-9.3,1Z"/><path class="cls-3" d="M284.32,480.19l4.86-.53.05-2.12,4.59-.5-.08,2.12,6.48-.71.09-2.12,4.55-.5-.05,2.12,4.87-.53-.14,3.93-4.87.53-.07,2.28-3,.33-1.08.69,0,0-4,2.55-8.26,5.38,6.48-.71.05-2.41,4.53-.49-.06,2.4,5.86-.64-8.26-3.39,4-2.58,7.59,2.61.34,1.13c0,.14.09.31.15.49s.13.41.2.67l-1.26,2.25-1.44-.57-.11,3.11-2,.22,3.61,3.3-.17,2.51-1.73,1.7-5.13-4.84,2.51-2.58-13.79,1.51,2.41,2-5.5,6-1.65-1.34q0-1.61,0-2.5l3.82-4.11-2.07.23.08-3-1.49,1L284,493q.28-.95.77-2.42l8.46-5.31-4.27.47.05-2.09-4.87.53Zm10.23,16.43,4.52-.49-.18,5-.45.49-1.85,2-5.89.61.13-3.42,3.59-.42Zm-.92-13.53-.07,2,3.5-2.18,3,.75,0-1.23Z"/><path class="cls-3" d="M325,492.41l-7.65.83.12-3.8,6.17-.67-2.54-.61,1.25-3.23,5.45,1.36L327,488.4l1.86-.2,2-7.09,4.47.39-1.75,6.16-2.23,4h0l-9.35,9.83-2-1.84.21-2.45ZM323.26,477l-.13,3.8-.12,3.26-4.71.51.17-4.82,2.27-2.49Zm20.32,0-.17,4.82-4.71.51.11-3.3-15.4,1.71.12-3.8,17.91-2q1.22,1.13,2.13,2m-20,7.33,1.2-3.13,4.37.94L328,485.46Zm10-8.82-4.9.53-.11-1.57,4.89-.63Zm-1.93,16.12,2.17-4,10.1-1.1-.12,3.8-8.27.9,6.06,3.32c.07.5.22,1.26.43,2.29l-1.72,2.68-8.45-4.82,2.34-3.32Z"/><path class="cls-3" d="M352.87,492.49l-.59-3.47,6-2-.1,3.71Zm9.34-11.37-4.21.46.22-6.65-5,.55.13-4,7-.77,2.13,2-.12,3.83-.06,1.74Zm-3.6,5.82,0-1.2-5.61.61.29-9.25,3.5-.38-.18,5.29,6.26-.69-.41,12.77-2.27,2.49-7,.77.12-3.55,5.11-.56.09-2.66Zm8.62-9-2.39,2.28-1.47-1.45.13-2.82,8.37-7.92,3.23,2.36-.63.6-.14.11-3.55,3.45-2.31,2.18ZM363.44,492l15.43-1.69-.13,4L363.31,496Zm5.25-1.65-3.83.86-.91-8.42,3.83-.86Zm5-14.18,2.22,1.43,0,1.62-8.68.95.06-1.81,1.73-1.67Zm2.68,14.13-4.12.45.48-1.66-2.79.62-.89-8.27,3.73-.85.62,6.06,1.8-6.54,3.82.53ZM379.21,474l.13.65q.18,1.11.24,1.68l-1.51,2.31-.94-.56-.07-.09-1.18-.72-1.72-1.11-2.82-1.75,3.21-3.1Z"/><path class="cls-3" d="M397.76,488.73l4.71-.52v0L413,487.09l-.11,4L387,493.88l.14-4,10.63-1.16Zm-5.31-19.94,18.56-2q.83.73,2.13,2l-.1,3.45-1.86.2-.09,2.88-2.67.29,4.23,4.34-3.53,2.44L408,481.2h0l-2.87-3h0l-1.11-1.24,1.83-1.05-16.05,1.75.1-2.88-1.83.2.1-3.45q1.26-1.4,2.27-2.49l1.67-.18-.12,3.29,0,.92,0,.6,17.2-1.88.06-1.52-16.89,1.84Zm12.33,9.42,2.87,3.06-4.91.73-.08,1.59,9.2-1-.11,3.61-9.23,1,0,.7-4.71.52,0-.7-9.45,1,.11-3.61,9.48-1,.1-1.4L389.66,484l-1.24-2.52,4.23-3.81,5.8-.63-3,2.72Zm-1.89-10.91-4.52.49-.2-1.84,4.49-.49Z"/><polygon class="cls-3" points="294.67 428.3 304.89 446.51 315.71 425.51 323.45 424.53 322.88 459.59 314.17 460.69 315 441.58 309.26 454.37 300.17 455.57 294.86 444.51 295.11 463.13 286.4 464.23 286.96 429.17 294.67 428.3"/><path class="cls-3" d="M343.53,457.19l-8,1-.09-23.69,8.76-1.1Zm.35-26.91-8.23,1,.15-7.54,8.23-1Z"/><path class="cls-3" d="M363.25,447.44l12.88-2.76.51,7.7L360.45,455a4.51,4.51,0,0,1-3.54-.79,3.51,3.51,0,0,1-1.45-3l.1-31.68,8.52-1.07Z"/><polygon class="cls-3" points="391.75 451.28 384.93 452.14 385.02 415.66 392.76 414.68 392.13 436.14 400.37 426.84 405.04 431.25 398.35 437.53 406.05 446.91 398.55 451.42 393.77 441.87 391.96 443.53 391.75 451.28"/><path class="cls-3" d="M412.74,423.16l4.25-.63,0-6.53,8.28-1-.14,6.4,6.23-.93-.08,6.89-6.31.64-.27,12.51,5.71-.72-.09,6.4-8.57,1.08a4.15,4.15,0,0,1-3.17-.79A4,4,0,0,1,417,443.6a3,3,0,0,1,0-.64l0-14.15-4.27.44Z"/><path class="cls-3" d="M459.14,433.06l-10.57,1.18.06,3.26,15.7-2.62-.12,6.6-17.82,2.59a3.86,3.86,0,0,1-3.31-.94,4.26,4.26,0,0,1-1.43-3.21l0-15a5.33,5.33,0,0,1,1.45-3.75,5.11,5.11,0,0,1,3.47-1.78l13-1.29a4,4,0,0,1,4.42,3.55,4.12,4.12,0,0,1,0,.74l-.09,5.21a5.4,5.4,0,0,1-1.39,3.64,5,5,0,0,1-3.39,1.81m-10.55-4.61,8.57-.63.25-3.94-8.9,1.17Z"/><path class="cls-3" d="M497.57,439l-6,.75a3.21,3.21,0,0,1-1.88-.31,3.29,3.29,0,0,1-1.36-1.27l-9.25,2.35-.58.12a4.2,4.2,0,0,1-3.2-.81,4.06,4.06,0,0,1-1.58-2.85,2.84,2.84,0,0,1,0-.64L473.65,422a5.73,5.73,0,0,1,5.09-5.69l9.88-.85h0l0-.94,7.16-.9-.71,20.43,2.52-.32Zm-9.49-7.91h0l.28-8.49v-.35l-7.64,1,.14,9.83Z"/><path class="cls-3" d="M446.66,480.71l12.39-1.56-.1,7.09-15.87,2a4.07,4.07,0,0,1-3.18-.84,4.17,4.17,0,0,1-1.56-2.87,2.85,2.85,0,0,1,0-.64l.49-30.15,8.71-1.1Z"/><path class="cls-3" d="M491.05,483.49l-6,.75a3.21,3.21,0,0,1-1.88-.31,3.26,3.26,0,0,1-1.36-1.27L472.56,485l-.58.12a4.18,4.18,0,0,1-3.2-.81,4.06,4.06,0,0,1-1.58-2.85,2.84,2.84,0,0,1,0-.64l-.05-14.29a5.74,5.74,0,0,1,5.09-5.69l9.87-.85h0l0-.94,7.16-.9-.71,20.43,2.51-.31Zm-9.49-7.91h0l.28-8.5v-.35l-7.64,1,.14,9.83Z"/><path class="cls-3" d="M524.42,459.7,524.18,474a5.48,5.48,0,0,1-1.61,3.84,5.38,5.38,0,0,1-3.69,1.78l-11.15.46,0,1.34-7.55.95.1-39.6,8.52-1.07-.43,14.8,11.4-1.19a4.09,4.09,0,0,1,3.11.9,4.15,4.15,0,0,1,1.53,2.83,3.17,3.17,0,0,1,0,.64M507.9,472.77l8.72-.6.15-9.52-8.64,1.28Z"/></g><g class="cls-4"><path class="cls-5" d="M272.14,139.23h-119a21.93,21.93,0,0,1,0-43.86h119a21.93,21.93,0,0,1,0,43.86"/><path class="cls-6" d="M272.14,139.23h-119a21.93,21.93,0,0,1,0-43.86h119a21.93,21.93,0,0,1,0,43.86Z"/><path class="cls-5" d="M272.14,200.47h-119a21.93,21.93,0,0,1,0-43.86h119a21.93,21.93,0,0,1,0,43.86"/><path class="cls-6" d="M272.14,200.47h-119a21.93,21.93,0,0,1,0-43.86h119a21.93,21.93,0,0,1,0,43.86Z"/><path class="cls-5" d="M475.7,139.23h-119a21.93,21.93,0,0,1,0-43.86h119a21.93,21.93,0,0,1,0,43.86"/><path class="cls-6" d="M475.7,139.23h-119a21.93,21.93,0,0,1,0-43.86h119a21.93,21.93,0,0,1,0,43.86Z"/><path class="cls-5" d="M475.7,200.47h-119a21.93,21.93,0,0,1,0-43.86h119a21.93,21.93,0,0,1,0,43.86"/><path class="cls-6" d="M475.7,200.47h-119a21.93,21.93,0,0,1,0-43.86h119a21.93,21.93,0,0,1,0,43.86Z"/><path class="cls-5" d="M679.26,139.23h-119a21.93,21.93,0,0,1,0-43.86h119a21.93,21.93,0,0,1,0,43.86"/><path class="cls-6" d="M679.26,139.23h-119a21.93,21.93,0,0,1,0-43.86h119a21.93,21.93,0,0,1,0,43.86Z"/><path class="cls-5" d="M679.26,200.47h-119a21.93,21.93,0,0,1,0-43.86h119a21.93,21.93,0,0,1,0,43.86"/><path class="cls-6" d="M679.26,200.47h-119a21.93,21.93,0,0,1,0-43.86h119a21.93,21.93,0,0,1,0,43.86Z"/></g><text class="cls-7" transform="translate(154.61 126.57) scale(0.99 1)">市场<tspan class="cls-8" x="52.63" y="0">评</tspan><tspan x="78.97" y="0">估</tspan><tspan class="cls-8" x="105.29" y="0" xml:space="preserve">         选</tspan><tspan x="229.24" y="0">址</tspan><tspan class="cls-8" x="255.56" y="0">调</tspan><tspan x="281.9" y="0">研</tspan><tspan class="cls-8" x="308.21" y="0" xml:space="preserve">          </tspan><tspan x="416.68" y="0">成本</tspan><tspan class="cls-8" x="469.31" y="0">分析 </tspan><tspan class="cls-9" x="532.84" y="0"> </tspan></text><text class="cls-7" transform="translate(154.61 187.82) scale(0.99 1)">技术<tspan class="cls-8" x="52.63" y="0">培</tspan><tspan x="78.97" y="0">训</tspan><tspan class="cls-8" x="105.29" y="0" xml:space="preserve">         管</tspan><tspan x="229.24" y="0">理</tspan><tspan class="cls-8" x="255.56" y="0">培</tspan><tspan x="281.9" y="0">训</tspan><tspan class="cls-8" x="308.21" y="0" xml:space="preserve">          </tspan><tspan x="416.68" y="0">运营</tspan><tspan class="cls-8" x="469.31" y="0">培</tspan><tspan class="cls-9" x="495.65" y="0">训</tspan></text><g class="cls-4"><path class="cls-5" d="M272.14,612h-119a21.92,21.92,0,0,1-21.79-21.93h0a21.92,21.92,0,0,1,21.79-21.93h119a21.92,21.92,0,0,1,21.79,21.93h0A21.92,21.92,0,0,1,272.14,612"/><path class="cls-6" d="M272.14,612h-119a21.92,21.92,0,0,1-21.79-21.93h0a21.92,21.92,0,0,1,21.79-21.93h119a21.92,21.92,0,0,1,21.79,21.93h0A21.92,21.92,0,0,1,272.14,612Z"/><path class="cls-5" d="M272.14,673.29h-119a21.93,21.93,0,0,1,0-43.86h119a21.93,21.93,0,0,1,0,43.86"/><path class="cls-6" d="M272.14,673.29h-119a21.93,21.93,0,0,1,0-43.86h119a21.93,21.93,0,0,1,0,43.86Z"/><path class="cls-5" d="M475.7,612h-119a21.92,21.92,0,0,1-21.79-21.93h0a21.92,21.92,0,0,1,21.79-21.93h119a21.92,21.92,0,0,1,21.79,21.93h0A21.92,21.92,0,0,1,475.7,612"/><path class="cls-6" d="M475.7,612h-119a21.92,21.92,0,0,1-21.79-21.93h0a21.92,21.92,0,0,1,21.79-21.93h119a21.92,21.92,0,0,1,21.79,21.93h0A21.92,21.92,0,0,1,475.7,612Z"/><path class="cls-5" d="M475.7,673.29h-119a21.93,21.93,0,0,1,0-43.86h119a21.93,21.93,0,0,1,0,43.86"/><path class="cls-6" d="M475.7,673.29h-119a21.93,21.93,0,0,1,0-43.86h119a21.93,21.93,0,0,1,0,43.86Z"/><path class="cls-5" d="M679.26,612h-119a21.92,21.92,0,0,1-21.79-21.93h0a21.92,21.92,0,0,1,21.79-21.93h119A21.92,21.92,0,0,1,701,590.11h0A21.92,21.92,0,0,1,679.26,612"/><path class="cls-6" d="M679.26,612h-119a21.92,21.92,0,0,1-21.79-21.93h0a21.92,21.92,0,0,1,21.79-21.93h119A21.92,21.92,0,0,1,701,590.11h0A21.92,21.92,0,0,1,679.26,612Z"/><path class="cls-5" d="M679.26,673.29h-119a21.93,21.93,0,0,1,0-43.86h119a21.93,21.93,0,0,1,0,43.86"/><path class="cls-6" d="M679.26,673.29h-119a21.93,21.93,0,0,1,0-43.86h119a21.93,21.93,0,0,1,0,43.86Z"/></g><text class="cls-7" transform="translate(154.61 599.38) scale(0.99 1)">采购<tspan class="cls-8" x="52.63" y="0">方</tspan><tspan x="78.97" y="0">案</tspan><tspan class="cls-8" x="105.29" y="0" xml:space="preserve">          物资</tspan><tspan x="266.43" y="0">配送</tspan><tspan class="cls-8" x="319.06" y="0" xml:space="preserve">         </tspan><tspan x="416.68" y="0">盈亏</tspan><tspan class="cls-8" x="469.31" y="0">分析 </tspan><tspan class="cls-9" x="532.84" y="0"> </tspan></text><text class="cls-7" transform="translate(154.61 660.64) scale(0.99 1)">督导<tspan class="cls-8" x="52.63" y="0">巡</tspan><tspan x="78.97" y="0">店</tspan><tspan class="cls-8" x="105.29" y="0" xml:space="preserve">         产</tspan><tspan x="229.24" y="0">品</tspan><tspan class="cls-8" x="255.56" y="0">升</tspan><tspan x="281.9" y="0">级</tspan><tspan class="cls-8" x="308.21" y="0" xml:space="preserve">          </tspan><tspan x="416.68" y="0">物料</tspan><tspan class="cls-8" x="469.31" y="0">更</tspan><tspan class="cls-9" x="495.65" y="0">新</tspan></text><g class="cls-4"><path class="cls-10" d="M243,52.31a20,20,0,0,1,10.36-17.52,2.61,2.61,0,0,0-1.26-4.89H57.2a2.6,2.6,0,0,0-2.59,2.61V65.73a9,9,0,0,0,8.92,9H252.1a2.61,2.61,0,0,0,1.26-4.88A20,20,0,0,1,243,52.31"/><path class="cls-11" d="M243,52.31a20,20,0,0,1,10.36-17.52,2.61,2.61,0,0,0-1.26-4.89H57.2a2.6,2.6,0,0,0-2.59,2.61V65.73a9,9,0,0,0,8.92,9H252.1a2.61,2.61,0,0,0,1.26-4.88A20,20,0,0,1,243,52.31Z"/></g><text class="cls-12" transform="translate(74.55 63.05) scale(0.99 1)"><tspan class="cls-13">开</tspan><tspan class="cls-14" x="36.07" y="0">店</tspan><tspan class="cls-13" x="72.1" y="0">前</tspan><tspan class="cls-14" x="108.17" y="0">期</tspan><tspan x="144.21" y="0">：</tspan></text><path class="cls-15" d="M243,275a20,20,0,0,1,10.36-17.52,2.61,2.61,0,0,0-1.26-4.88H57.2a2.6,2.6,0,0,0-2.59,2.61v33.22a9,9,0,0,0,8.92,9H252.1a2.61,2.61,0,0,0,1.26-4.89A20,20,0,0,1,243,275"/><path class="cls-16" d="M243,275a20,20,0,0,1,10.36-17.52,2.61,2.61,0,0,0-1.26-4.88H57.2a2.6,2.6,0,0,0-2.59,2.61v33.22a9,9,0,0,0,8.92,9H252.1a2.61,2.61,0,0,0,1.26-4.89A20,20,0,0,1,243,275Z"/><text class="cls-12" transform="translate(74.55 285.78) scale(0.99 1)"><tspan class="cls-13">开</tspan><tspan class="cls-14" x="36.07" y="0">店</tspan><tspan class="cls-13" x="72.1" y="0">中</tspan><tspan class="cls-14" x="108.17" y="0">期</tspan><tspan x="144.21" y="0">：</tspan></text><path class="cls-10" d="M243,505.33a20,20,0,0,1,10.36-17.52,2.61,2.61,0,0,0-1.26-4.89H57.2a2.6,2.6,0,0,0-2.59,2.61v33.22a9,9,0,0,0,8.92,9H252.1a2.61,2.61,0,0,0,1.26-4.88A20,20,0,0,1,243,505.33"/><path class="cls-6" d="M243,505.33a20,20,0,0,1,10.36-17.52,2.61,2.61,0,0,0-1.26-4.89H57.2a2.6,2.6,0,0,0-2.59,2.61v33.22a9,9,0,0,0,8.92,9H252.1a2.61,2.61,0,0,0,1.26-4.88A20,20,0,0,1,243,505.33Z"/><text class="cls-12" transform="translate(74.55 516.07) scale(0.99 1)"><tspan class="cls-13">开</tspan><tspan class="cls-14" x="36.07" y="0">店</tspan><tspan class="cls-13" x="72.1" y="0">后</tspan><tspan class="cls-14" x="108.17" y="0">期</tspan><tspan x="144.21" y="0">：</tspan></text><path class="cls-5" d="M272.14,385.3h-119a21.93,21.93,0,0,1,0-43.86h119a21.93,21.93,0,0,1,0,43.86"/><path class="cls-6" d="M272.14,385.3h-119a21.93,21.93,0,0,1,0-43.86h119a21.93,21.93,0,0,1,0,43.86Z"/><path class="cls-5" d="M272.14,446.54h-119a21.93,21.93,0,0,1,0-43.86h119a21.93,21.93,0,0,1,0,43.86"/><path class="cls-6" d="M272.14,446.54h-119a21.93,21.93,0,0,1,0-43.86h119a21.93,21.93,0,0,1,0,43.86Z"/><path class="cls-5" d="M475.7,385.3h-119a21.93,21.93,0,0,1,0-43.86h119a21.93,21.93,0,0,1,0,43.86"/><path class="cls-6" d="M475.7,385.3h-119a21.93,21.93,0,0,1,0-43.86h119a21.93,21.93,0,0,1,0,43.86Z"/><path class="cls-5" d="M475.7,446.54h-119a21.93,21.93,0,0,1,0-43.86h119a21.93,21.93,0,0,1,0,43.86"/><path class="cls-6" d="M475.7,446.54h-119a21.93,21.93,0,0,1,0-43.86h119a21.93,21.93,0,0,1,0,43.86Z"/><path class="cls-5" d="M679.26,385.3h-119a21.93,21.93,0,0,1,0-43.86h119a21.93,21.93,0,0,1,0,43.86"/><path class="cls-6" d="M679.26,385.3h-119a21.93,21.93,0,0,1,0-43.86h119a21.93,21.93,0,0,1,0,43.86Z"/><path class="cls-5" d="M679.26,446.54h-119a21.93,21.93,0,0,1,0-43.86h119a21.93,21.93,0,0,1,0,43.86"/><path class="cls-6" d="M679.26,446.54h-119a21.93,21.93,0,0,1,0-43.86h119a21.93,21.93,0,0,1,0,43.86Z"/><text class="cls-7" transform="translate(154.61 372.98) scale(0.99 1)">入驻<tspan class="cls-8" x="52.63" y="0">扶</tspan><tspan x="78.97" y="0">持</tspan><tspan class="cls-8" x="105.29" y="0" xml:space="preserve">           </tspan><tspan x="224.59" y="0">V</tspan><tspan class="cls-8" x="241.92" y="0">I设</tspan><tspan x="277.59" y="0">计</tspan><tspan class="cls-8" x="303.9" y="0" xml:space="preserve">           店面</tspan><tspan x="475.89" y="0">设计</tspan><tspan class="cls-8" x="528.52" y="0"> </tspan><tspan class="cls-9" x="539.37" y="0"> </tspan></text><text class="cls-7" transform="translate(154.61 434.23) scale(0.99 1)">店面<tspan class="cls-8" x="52.63" y="0">装</tspan><tspan x="78.97" y="0">修</tspan><tspan class="cls-8" x="105.29" y="0" xml:space="preserve">          开业</tspan><tspan x="266.43" y="0">活动</tspan><tspan class="cls-8" x="319.06" y="0" xml:space="preserve">         </tspan><tspan x="416.68" y="0">开业</tspan><tspan class="cls-8" x="469.31" y="0">设</tspan><tspan class="cls-9" x="495.65" y="0">计</tspan></text></svg>