<?xml version="1.0" encoding="UTF-8" standalone="no"?>
<svg
   xmlns:dc="http://purl.org/dc/elements/1.1/"
   xmlns:cc="http://creativecommons.org/ns#"
   xmlns:rdf="http://www.w3.org/1999/02/22-rdf-syntax-ns#"
   xmlns:svg="http://www.w3.org/2000/svg"
   xmlns="http://www.w3.org/2000/svg"
   xmlns:sodipodi="http://sodipodi.sourceforge.net/DTD/sodipodi-0.dtd"
   xmlns:inkscape="http://www.inkscape.org/namespaces/inkscape"
   width="210mm"
   height="297mm"
   viewBox="0 0 210 297"
   version="1.1"
   id="svg8"
   sodipodi:docname="字扩展.svg"
   inkscape:version="1.0.2-2 (e86c870879, 2021-01-15)">
  <circle
     style="fill:none;fill-opacity:1;stroke:#000000;stroke-width:0.2;stroke-miterlimit:4;stroke-dasharray:none;stroke-opacity:1"
     id="path2506-1"
     cx="81.533302"
     cy="78.828445"
     r="0.66145831" />
  <defs
     id="defs2" />
  <sodipodi:namedview
     id="base"
     pagecolor="#ffffff"
     bordercolor="#666666"
     borderopacity="1.0"
     inkscape:pageopacity="0.0"
     inkscape:pageshadow="2"
     inkscape:zoom="0.49497475"
     inkscape:cx="-143.65445"
     inkscape:cy="415.44023"
     inkscape:document-units="mm"
     inkscape:current-layer="svg8"
     inkscape:document-rotation="0"
     showgrid="false"
     inkscape:window-width="2560"
     inkscape:window-height="1027"
     inkscape:window-x="-8"
     inkscape:window-y="-8"
     inkscape:window-maximized="1">
    <inkscape:grid
       type="xygrid"
       id="grid1155" />
  </sodipodi:namedview>
  <metadata
     id="metadata5">
    <rdf:RDF>
      <cc:Work
         rdf:about="">
        <dc:format>image/svg+xml</dc:format>
        <dc:type
           rdf:resource="http://purl.org/dc/dcmitype/StillImage" />
        <dc:title></dc:title>
      </cc:Work>
    </rdf:RDF>
  </metadata>
  <g
     inkscape:label="图层 1"
     inkscape:groupmode="layer"
     id="layer1" />
  <g
     id="g1187"
     transform="translate(5.0532832,-40.469538)">
    <g
       transform="matrix(0.2,0,0,0.2,60.152541,123.5575)"
       id="g955" />
  </g>
  <rect
     style="fill:none;fill-opacity:1;stroke:#000000;stroke-width:0.198045;stroke-miterlimit:4;stroke-dasharray:none;stroke-opacity:1"
     id="rect1853"
     width="37.041664"
     height="54.239586"
     x="55.081692"
     y="12.03786" />
  <g
     transform="matrix(0.2,0,0,0.2,57.044259,14.822199)"
     id="g1883">
    <svg
       version="1.1"
       id="svg1881"
       width="100%"
       height="100%">
      <path
         d="M 9.9200001,1.8266402 5.98,8.4266405 h 4.579999 z m 1.1399989,-2.47999961 c 0.2,0 0.313334,0.0666666 0.340001,0.19999987 0.01333,0.0400009 0.02667,0.1333341 0.04,0.27999967 L 12.66,12.32664 c 0.04,0.333333 0.119999,0.533334 0.24,0.600001 h 0.02 v 0.02 c 0.16,0.06667 0.506666,0.1 1.04,0.1 0.293333,0 0.446666,0.07333 0.46,0.220001 0,0.266666 -0.120001,0.399999 -0.360001,0.399999 L 11.82,13.60664 H 11.8 l -2.4800003,0.06 h -0.02 c -0.1866675,0 -0.2800007,-0.07333 -0.2800007,-0.22 0.1066666,-0.253333 0.2666664,-0.386666 0.4800005,-0.4 0.9599985,0 1.4399995,-0.22 1.4399995,-0.659999 0,0.01333 -0.106668,-1.100001 -0.32,-3.3400006 H 5.5999999 l -1.52,2.5599996 C 3.893333,11.939974 3.7999997,12.186641 3.8,12.346641 c -3e-7,0.413333 0.3133327,0.646666 0.9399998,0.699999 0.2133331,0 0.3199997,0.08 0.3200001,0.24 -4e-7,0.253333 -0.126667,0.38 -0.3800001,0.38 L 2.76,13.60664 H 2.68 L 1,13.66664 H 0.96 c -0.17333335,0 -0.25999999,-0.07333 -0.25999999,-0.22 0,-0.24 0.1,-0.366667 0.29999999,-0.38 v -0.02 h 0.12 c 0.8399998,-0.05333 1.5266665,-0.413333 2.0599998,-1.08 0.1333332,-0.173333 0.2666667,-0.373333 0.4000001,-0.6 L 10.54,-0.31335917 c 0.133332,-0.21333227 0.306666,-0.32666597 0.519999,-0.34000024 z"
         fill="#000000"
         id="path1865" />
      <path
         d="m 18.794041,7.342639 c 0.177332,0 0.279998,0.032667 0.307998,0.098 v 0.014 c 0.0093,0.028 0.014,0.1119995 0.014,0.2519999 v 7.8540001 c 0,0.28 0.056,0.457334 0.168001,0.532001 0.158667,0.09333 0.536667,0.139999 1.134001,0.139999 h 0.447998 v 0.434 c -0.326666,-0.028 -1.082664,-0.042 -2.267999,-0.042 -1.185334,0 -1.941334,0.014 -2.268,0.042 v -0.434 h 0.448 c 0.718666,0 1.129333,-0.084 1.232,-0.252 l 0.014,-0.014 c 0.03733,-0.07467 0.056,-0.210001 0.056,-0.406001 V 8.3086395 c -0.485333,0.2426663 -1.096666,0.3639994 -1.834,0.3639994 v -0.434 c 1.119999,0 1.969334,-0.298667 2.548001,-0.8959999 z"
         fill="#000000"
         id="path1867" />
      <path
         d="m 25.542068,7.6926394 c -0.615999,0 -1.082666,0.2939996 -1.399999,0.8819999 -0.196001,0.3453341 -0.294001,0.9333334 -0.294001,1.7639997 v 0.168 c 0,0.924 0.084,1.558667 0.252001,1.904 0.289333,0.588001 0.723333,0.882001 1.302,0.882 0.728001,1e-6 1.236666,-0.429333 1.525999,-1.288 0.121334,-0.382666 0.182001,-0.793333 0.182001,-1.232 0,-0.9146659 -0.07467,-1.5726668 -0.224001,-1.9739997 -0.242666,-0.6533337 -0.629999,-1.017334 -1.161998,-1.092 -0.06534,-0.00933 -0.126002,-0.014 -0.182002,-0.014 z m 0,-0.3500004 c 0.933335,0 1.656668,0.4526663 2.170001,1.3580007 0.457334,0.8120003 0.685998,1.9320003 0.686,3.3599993 -2e-6,1.596 -0.429334,2.874667 -1.288,3.836 -0.644001,0.718668 -1.386001,1.078001 -2.226,1.078001 -0.914667,0 -1.516668,-0.284668 -1.806001,-0.854 -0.09333,-0.196 -0.14,-0.415334 -0.14,-0.658001 0,-0.373333 0.172667,-0.592667 0.518,-0.658 0.04667,-0.0093 0.08867,-0.014 0.126001,-0.014 0.298666,10e-7 0.499333,0.130667 0.602,0.392 0.028,0.07467 0.042,0.158667 0.042,0.252 0,0.373334 -0.186666,0.583334 -0.559999,0.630001 -0.056,0.0093 -0.111999,0.014 -0.168001,0.014 0.270668,0.335999 0.728,0.504 1.372002,0.504 0.662666,0 1.203998,-0.331333 1.623998,-0.994001 0.429333,-0.681333 0.644001,-1.656666 0.644001,-2.925999 v -0.448 c -0.373333,0.933332 -0.956667,1.399999 -1.75,1.399999 -0.868,0 -1.577333,-0.354666 -2.128,-1.064 v -0.014 c -0.448,-0.578666 -0.672001,-1.26 -0.672001,-2.043999 0,-0.7840009 0.228668,-1.4606671 0.686001,-2.0300011 l 0.209999,-0.238 c 0.560001,-0.5880003 1.246,-0.8819999 2.057999,-0.8819999 z"
         fill="#000000"
         id="path1869" />
      <path
         d="m 35.613438,7.6066403 c 0.440002,5e-7 0.760002,0.2000003 0.960003,0.5999999 0.06667,0.1466675 0.1,0.3000002 0.1,0.4600001 0,0.4400005 -0.200001,0.7600002 -0.599998,0.96 -0.146668,0.066668 -0.300004,0.1000004 -0.460003,0.1000004 -0.439999,0 -0.759999,-0.1999998 -0.959999,-0.6000004 -0.06667,-0.1466665 -0.1,-0.2999992 -0.1,-0.46 0,-0.4399996 0.199997,-0.7599998 0.599999,-0.9600001 0.146667,-0.066666 0.299999,-0.099999 0.459999,-0.1 z"
         fill="#000000"
         id="path1871" />
      <path
         d="m 45.613476,7.6066403 c 0.440002,5e-7 0.760002,0.2000003 0.960003,0.5999999 0.06667,0.1466675 0.1,0.3000002 0.1,0.4600001 0,0.4400005 -0.200001,0.7600002 -0.599998,0.96 -0.146668,0.066668 -0.300003,0.1000004 -0.460003,0.1000004 -0.439999,0 -0.759999,-0.1999998 -0.959999,-0.6000004 -0.06667,-0.1466665 -0.1,-0.2999992 -0.1,-0.46 0,-0.4399996 0.199997,-0.7599998 0.599999,-0.9600001 0.146667,-0.066666 0.299999,-0.099999 0.459999,-0.1 z"
         fill="#000000"
         id="path1873" />
      <path
         d="m 55.613514,7.6066403 c 0.440002,5e-7 0.760002,0.2000003 0.960003,0.5999999 0.06667,0.1466675 0.1,0.3000002 0.1,0.4600001 0,0.4400005 -0.2,0.7600002 -0.599998,0.96 -0.146668,0.066668 -0.300003,0.1000004 -0.460003,0.1000004 -0.439999,0 -0.759998,-0.1999998 -0.959999,-0.6000004 -0.06667,-0.1466665 -0.1,-0.2999992 -0.1,-0.46 0,-0.4399996 0.199997,-0.7599998 0.599999,-0.9600001 0.146667,-0.066666 0.299999,-0.099999 0.459999,-0.1 z"
         fill="#000000"
         id="path1875" />
      <path
         d="m 71.642441,1.8266402 -3.940003,6.6000003 h 4.580002 z m 1.139999,-2.47999961 c 0.199997,0 0.313332,0.0666666 0.339997,0.19999987 0.01334,0.0400009 0.02667,0.1333341 0.04,0.27999967 L 74.382439,12.32664 c 0.04,0.333333 0.120002,0.533334 0.239998,0.600001 h 0.02 v 0.02 c 0.159996,0.06667 0.506668,0.1 1.040001,0.1 0.293327,0 0.446663,0.07333 0.459999,0.220001 0,0.266666 -0.120003,0.399999 -0.360001,0.399999 l -2.240005,-0.06 h -0.02 l -2.480003,0.06 h -0.02 c -0.186668,0 -0.279999,-0.07333 -0.279999,-0.22 0.106667,-0.253333 0.266663,-0.386666 0.480004,-0.4 0.959991,0 1.439994,-0.22 1.439994,-0.659999 0,0.01333 -0.106666,-1.100001 -0.319999,-3.3400006 H 67.322441 L 65.802437,11.60664 c -0.186669,0.333334 -0.279999,0.580001 -0.279999,0.740001 0,0.413333 0.313332,0.646666 0.940002,0.699999 0.213334,0 0.32,0.08 0.32,0.24 0,0.253333 -0.126671,0.38 -0.380005,0.38 l -1.919998,-0.06 h -0.08 l -1.679996,0.06 h -0.04 c -0.173332,0 -0.259998,-0.07333 -0.259998,-0.22 0,-0.24 0.1,-0.366667 0.299999,-0.38 v -0.02 h 0.119999 c 0.84,-0.05333 1.526664,-0.413333 2.059997,-1.08 0.133339,-0.173333 0.266671,-0.373333 0.400002,-0.6 l 6.959999,-11.67999917 c 0.133331,-0.21333227 0.306671,-0.32666597 0.520004,-0.34000024 z"
         fill="#000000"
         id="path1877" />
      <path
         d="m 80.208481,7.6506386 c -0.653336,0 -1.129334,0.3266668 -1.428002,0.9800005 -0.102668,0.224 -0.181999,0.494667 -0.237999,0.8119993 -0.07467,0.5040007 -0.111999,1.3626666 -0.111999,2.5760006 0,1.409334 0.05133,2.394001 0.153999,2.954 0.168,0.896 0.578667,1.442 1.232003,1.638001 0.130668,0.03733 0.261329,0.056 0.391998,0.056 0.587997,0 1.040665,-0.284666 1.358002,-0.854 0.130661,-0.252 0.223999,-0.550667 0.279998,-0.896 0.102669,-0.597334 0.154,-1.563333 0.154,-2.898 0,-1.297333 -0.04667,-2.207333 -0.14,-2.7299999 C 81.692482,8.4019728 81.263145,7.8699722 80.572479,7.6926394 80.451149,7.6646385 80.329811,7.6506386 80.208481,7.6506386 Z M 80.054482,7.342639 h 0.167999 c 0.830665,0 1.507332,0.3313341 2.029999,0.9940004 v 0.014 c 0.130668,0.1680003 0.247337,0.3546668 0.349998,0.5599995 0.373337,0.793334 0.560005,1.8853341 0.560005,3.2760011 0,1.362666 -0.172668,2.417332 -0.518005,3.163999 -0.550667,1.045334 -1.362663,1.586666 -2.435997,1.624001 -0.849335,0 -1.53067,-0.336001 -2.043999,-1.008 -0.102669,-0.121334 -0.191337,-0.256668 -0.265999,-0.406001 -0.420006,-0.774666 -0.630005,-1.899333 -0.630005,-3.373999 0,-1.372 0.172669,-2.4313337 0.518006,-3.1780015 0.466667,-1.045332 1.222664,-1.6006661 2.267998,-1.6659995 z"
         fill="#000000"
         id="path1879" />
    </svg>
  </g>
  <g
     transform="matrix(0.2,0,0,0.2,77.192073,60.89172)"
     id="g1983">
    <svg
       version="1.1"
       id="svg1981"
       width="100%"
       height="100%">
      <rect
         x="0"
         y="0.79997998"
         width="26.55834"
         height="0.79997998"
         id="rect1975" />
      <path
         d="m 9.96,3.5665407 c 1.453332,1e-6 2.559999,0.5933342 3.32,1.7799998 l 1.399999,-1.54 c 0.16,-0.1599989 0.26,-0.2399988 0.300001,-0.2399998 0.146665,1e-6 0.219999,0.066668 0.22,0.1999998 L 13.94,8.86654 c -0.06667,0.2400007 -0.133334,0.3666677 -0.2,0.3800001 l -0.02,0.02 h -0.14 c -0.200001,0 -0.300001,-0.066667 -0.3,-0.1999998 l 0.06,-0.9800005 v -0.04 C 13.339999,6.3932071 12.82,5.2532077 11.78,4.6265397 L 11.76,4.6065407 C 11.293332,4.3265409 10.746666,4.1865406 10.12,4.1865406 c -1.4133331,0 -2.7533337,0.5266666 -4.0200001,1.5799999 C 5.7799997,6.0198746 5.4933329,6.2998743 5.2399998,6.6065407 3.9733331,8.0865402 3.1933331,9.9665403 2.8999999,12.24654 c -0.053333,0.413334 -0.08,0.773335 -0.08,1.08 0,1.866667 0.7066667,3.126667 2.1200002,3.780001 0.5466666,0.253332 1.146666,0.379999 1.7999997,0.379999 1.2533331,0 2.4799995,-0.486666 3.6800002,-1.459999 0.933333,-0.786667 1.606666,-1.84 2.02,-3.16 0.02667,-0.133333 0.113332,-0.200001 0.26,-0.200001 0.16,0 0.24,0.06667 0.24,0.200001 0,0.24 -0.153334,0.666666 -0.46,1.279999 -0.413334,0.84 -0.993334,1.586667 -1.74,2.239999 -1.3199999,1.146668 -2.7600005,1.720002 -4.3199999,1.720002 -1.706667,0 -3.0733338,-0.586668 -4.1000002,-1.760001 -0.88,-1 -1.3199999,-2.239999 -1.32000002,-3.72 C 1,10.639874 1.7266666,8.7798748 3.1799998,7.0465403 4.5266662,5.4332075 6.1199999,4.3665409 7.96,3.8465405 8.6399994,3.6598749 9.3066664,3.5665417 9.96,3.5665407 Z"
         fill="#000000"
         id="path1977" />
      <path
         d="m 22.794441,3.5665407 c 1.359999,1e-6 2.313332,0.4800005 2.859999,1.4399996 l 0.960001,-1.1399994 c 0.173332,-0.1999988 0.293331,-0.2999992 0.359999,-0.3000002 0.146665,1e-6 0.219999,0.066668 0.219999,0.1999998 l -1.079998,4.3800001 c -0.120003,0.2533331 -0.220001,0.3866663 -0.300001,0.3999997 -0.16,9e-7 -0.24,-0.066667 -0.24,-0.1999998 l 0.08,-1.08 v -0.04 c 0,-1.8399992 -0.773333,-2.8599997 -2.32,-3.0600005 -0.173334,-0.026666 -0.36,-0.039999 -0.559999,-0.04 -1.040001,9e-7 -1.926666,0.420001 -2.66,1.2600002 -0.560001,0.6400004 -0.84,1.3266668 -0.84,2.0600004 0,0.8000002 0.326666,1.373333 0.979999,1.7199993 0.08,0.040001 0.16,0.073334 0.24,0.1000004 0.06667,0.013333 0.513332,0.1333332 1.34,0.3599997 1.226668,0.3200006 1.960001,0.560001 2.199999,0.72 0.106667,0.06667 0.220001,0.16 0.34,0.28 0.653334,0.613334 0.98,1.393335 0.98,2.34 0,1.226667 -0.48,2.366667 -1.439999,3.419999 -1.093334,1.106667 -2.306667,1.680001 -3.639999,1.720002 -1.546667,0 -2.673334,-0.480002 -3.380001,-1.440001 l -0.98,1.14 c -0.173333,0.2 -0.293333,0.300001 -0.36,0.300001 -0.146666,0 -0.22,-0.06667 -0.22,-0.200001 l 1.14,-4.5 v -0.04 c 0.02667,-0.09333 0.04667,-0.146668 0.06,-0.160001 0.05333,-0.05333 0.119999,-0.08 0.199999,-0.08 0.16,0 0.24,0.07333 0.24,0.22 l -0.04,0.14 c -0.08,0.48 -0.120001,0.84 -0.120001,1.08 0,1.506668 0.766666,2.433334 2.300001,2.78 0.373333,0.09333 0.773333,0.14 1.199999,0.14 1.053333,0 1.953333,-0.453333 2.700001,-1.359999 0.6,-0.706667 0.899999,-1.48 0.899999,-2.320001 0,-1.039999 -0.479999,-1.713334 -1.44,-2.019999 l -0.4,-0.1 -2.139999,-0.560001 C 19.05444,10.873207 18.441107,10.339874 18.09444,9.5265408 17.934441,9.1398735 17.854441,8.7265406 17.854441,8.28654 c 0,-1.2133331 0.506666,-2.3066663 1.519998,-3.2799997 1.013335,-0.9599991 2.153334,-1.4399986 3.420002,-1.4399996 z"
         fill="#000000"
         id="path1979" />
    </svg>
  </g>
  <g
     transform="matrix(0.2,0,0,0.2,65.966753,60.89172)"
     id="g2033">
    <svg
       version="1.1"
       id="svg2031"
       width="100%"
       height="100%">
      <rect
         x="0"
         y="0.79997998"
         width="34.074718"
         height="0.79997998"
         id="rect2025" />
      <path
         d="m 9.2799997,4.6265402 c -0.6933336,9e-7 -1.1000003,0.00667 -1.2200002,0.02 -0.2400003,0.04 -0.4000001,0.1866665 -0.4799996,0.4399996 -0.013334,0.066668 -0.04,0.166668 -0.08,0.3000002 l -1.3000001,5.220001 h 2.2399998 c 1.4799995,0 2.6066664,-0.386668 3.3800004,-1.1600011 0.586666,-0.5866661 0.946666,-1.3999987 1.08,-2.4399996 V 6.9865413 C 12.91333,6.8398748 12.92,6.7132077 12.92,6.6065412 12.92,5.4198747 12.08,4.766541 10.4,4.6465411 H 10.36 C 10.106667,4.6332081 9.746666,4.6265421 9.2799997,4.6265402 Z M 4.3800001,4.0065403 H 4.6599998 10.36 c 1.666667,1e-6 2.906666,0.4400005 3.72,1.3199997 0.466666,0.4800005 0.699999,1.0400009 0.7,1.6800003 -10e-7,1.1599998 -0.713334,2.1533337 -2.140001,2.9799995 -0.693333,0.4133342 -1.446666,0.7066672 -2.259999,0.8800012 1.146666,0.426666 1.766666,1.126667 1.86,2.099999 0.01333,0.08 0.02,0.166667 0.02,0.26 -10e-7,0.253334 -0.02667,0.566667 -0.08,0.94 -0.133335,1.066667 -0.2,1.826667 -0.2,2.280001 0,0.693333 0.173333,1.086666 0.52,1.179998 h 0.02 c 0.08,0.02667 0.166666,0.04 0.26,0.04 0.573333,0 1.059999,-0.346666 1.46,-1.039999 0.146666,-0.226667 0.266666,-0.486667 0.359999,-0.780001 0.05333,-0.186666 0.140001,-0.28 0.260001,-0.28 0.159999,0 0.239998,0.08 0.239999,0.24 -1e-6,0.266668 -0.16,0.640001 -0.479999,1.12 -0.253333,0.386668 -0.546667,0.686667 -0.88,0.9 -0.320001,0.186666 -0.666667,0.280001 -1.04,0.280001 -1.106667,0 -1.88,-0.326668 -2.32,-0.98 -0.226667,-0.320001 -0.340001,-0.713335 -0.34,-1.180001 -10e-7,-0.28 0.106666,-0.846666 0.32,-1.7 0.186665,-0.719999 0.279999,-1.179999 0.279999,-1.379999 0,-0.826667 -0.373334,-1.373334 -1.1199995,-1.640001 v -0.02 C 9.2133331,11.099874 8.8599997,11.04654 8.46,11.04654 H 6.0799999 l -1.3200001,5.3 -0.06,0.340001 c 0,0.226665 0.3066664,0.346666 0.9200001,0.359998 H 6 c 0.3466663,0 0.5333328,0.07333 0.5599999,0.220002 -4e-7,0.266666 -0.1333336,0.399999 -0.4000001,0.399999 l -2.5199999,-0.06 h -0.02 L 1.12,17.66654 H 1.1 c -0.1866667,0 -0.28000007,-0.07333 -0.28000001,-0.219999 -6e-8,-0.24 0.1,-0.373335 0.30000001,-0.400002 h 0.2399999 c 0.8666666,0 1.3866665,-0.09333 1.5599999,-0.279998 0.08,-0.09333 0.1599999,-0.280001 0.24,-0.56 -2e-7,-0.01333 0.00667,-0.04667 0.02,-0.1 L 5.8599997,5.36654 c 0.053333,-0.2133332 0.08,-0.3399992 0.08,-0.3799992 -5e-7,-0.1599999 -0.1066671,-0.2600002 -0.3200002,-0.3000002 h -0.02 -0.02 c -0.04,0 -0.1,-0.00667 -0.1799998,-0.020001 -0.2266669,-0.026667 -0.4800005,-0.039999 -0.7600002,-0.04 -0.3466668,9e-7 -0.5333333,-0.073333 -0.56,-0.2199993 0,-0.2399998 0.1,-0.373333 0.3000006,-0.4 z"
         fill="#000000"
         id="path2027" />
      <path
         d="m 16.6458,4.0065403 2.08,0.06 h 0.02 l 2.42,-0.06 h 0.04 c 0.186667,1e-6 0.279999,0.073334 0.280001,0.2200003 -0.05334,0.2533331 -0.193335,0.3866663 -0.42,0.3999996 -1,0.013333 -1.506668,0.253334 -1.520001,0.7200003 l 0.76,10.1399995 5.06,-8.8199999 -0.12,-1.5399999 c -0.02667,-0.2533331 -0.16,-0.4066668 -0.400002,-0.4600001 -0.146667,-0.026667 -0.366664,-0.039999 -0.659999,-0.04 -0.293333,9e-7 -0.453333,-0.073333 -0.48,-0.2199993 0,-0.2666664 0.126667,-0.3999996 0.380001,-0.4000006 l 2.079998,0.06 h 0.02 l 2.319999,-0.06 h 0.120001 c 0.199999,1e-6 0.299999,0.073334 0.300001,0.2200003 -2e-6,0.2400007 -0.100002,0.3733339 -0.300001,0.3999996 h -0.24 C 27.479134,4.6398735 27.012466,4.8732071 26.9858,5.32654 v 0.2400007 l 0.74,9.9199993 5.400001,-9.4199993 c 0.173332,-0.3066664 0.259998,-0.5266657 0.259998,-0.6599998 0,-0.4800005 -0.393333,-0.7400008 -1.18,-0.7800007 -0.200001,9e-7 -0.299999,-0.079999 -0.299999,-0.2399998 0,-0.2533331 0.126667,-0.3799991 0.380001,-0.3800001 l 2.059997,0.06 h 0.02 l 1.5,-0.06 h 0.04 c 0.133331,1e-6 0.213333,0.073334 0.239998,0.2200003 0,0.2400007 -0.1,0.3733339 -0.3,0.3999996 h -0.08 c -0.800003,0.066667 -1.433334,0.4466677 -1.900001,1.1400003 l -0.02,0.019999 v 0.020001 c -0.09333,0.1333341 -0.2,0.3066664 -0.319999,0.5199995 l -6.56,11.4 c -0.146665,0.253334 -0.306665,0.380001 -0.479999,0.380001 -0.160002,0 -0.253336,-0.08 -0.280001,-0.24 -0.01333,-0.06667 -0.02667,-0.16 -0.04,-0.280001 L 25.4258,7.4865408 19.545799,17.686541 c -0.146667,0.253332 -0.273332,0.386665 -0.379999,0.399999 l -0.02,0.02 h -0.08 c -0.173334,0 -0.273335,-0.100001 -0.3,-0.300001 -0.01333,-0.05333 -0.02,-0.126666 -0.02,-0.22 l -0.900002,-12.22 C 17.819134,5.0198736 17.739132,4.8065405 17.605799,4.7265406 h -0.02 -0.02 c -0.133333,-0.066667 -0.393334,-0.1 -0.780001,-0.1000004 -0.306665,9e-7 -0.473333,-0.079999 -0.5,-0.2399998 0,-0.2533331 0.120001,-0.3799991 0.360002,-0.3800001 z"
         fill="#000000"
         id="path2029" />
    </svg>
  </g>
  <g
     transform="matrix(0.2,0,0,0.2,56.478685,21.202193)"
     id="g2096">
    <svg
       version="1.1"
       id="svg2094"
       width="100%"
       height="100%">
      <path
         d="m 8.5799999,0.62664032 c -0.4800005,9.5e-7 -0.773334,0.0666666 -0.8800001,0.19999975 v 0.0200005 h -0.02 v 0.0200005 C 7.6266661,0.94664192 7.5666661,1.1199751 7.5,1.3866404 L 4.7599998,12.36664 c -0.066667,0.24 -0.1,0.393334 -0.1,0.46 0,0.106667 0.059999,0.173333 0.1799999,0.2 h 0.08 c 0.08,0.01333 0.2266664,0.02 0.4399996,0.02 h 2.2600002 c 1.6533327,0 3.0799995,-0.619999 4.2800005,-1.86 0.119999,-0.133333 0.233332,-0.266667 0.34,-0.4 1.066666,-1.3866661 1.74,-3.1999996 2.019999,-5.4399994 0.05333,-0.413333 0.08,-0.7533331 0.08,-1.0200005 0,-1.7866659 -0.700001,-2.9333324 -2.1,-3.43999949 -0.453333,-0.17333323 -0.96,-0.25999934 -1.52,-0.26000029 z M 4.4000001,0.00664048 H 4.6599998 11.38 c 1.733333,9.1e-7 3.026666,0.67333408 3.879999,2.02000042 0.546666,0.8533335 0.820001,1.8666668 0.820001,3.04 0,1.9333334 -0.673334,3.7399997 -2.020001,5.4200001 -1.28,1.559999 -2.786666,2.553332 -4.519999,2.979999 -0.5200005,0.133334 -1.04,0.2 -1.56,0.2 H 1.3599999 c -0.3333333,0 -0.51333333,-0.05333 -0.53999991,-0.16 -0.0133334,-0.01333 -0.0200001,-0.04 -0.02,-0.08 -6e-8,-0.226667 0.10666663,-0.353334 0.31999991,-0.380001 h 0.24 c 0.8666666,0 1.3866665,-0.09333 1.5599999,-0.279999 0.08,-0.09333 0.1599999,-0.280001 0.24,-0.560001 -2e-7,-0.01333 0.00667,-0.04667 0.02,-0.1 L 5.8599997,1.3666402 c 0.053333,-0.2133332 0.08,-0.3399993 0.08,-0.37999915 C 5.9399996,0.82664108 5.833333,0.7266407 5.6199999,0.68664068 h -0.02 C 5.5733333,0.67330742 5.54,0.66664028 5.5,0.66664016 5.1799998,0.63997364 4.893333,0.62664127 4.6399999,0.62664032 c -0.3466668,9.5e-7 -0.5333333,-0.0533323 -0.56,-0.15999985 -0.013333,-0.0266657 -0.02,-0.0533323 -0.02,-0.0799999 0,-0.22666645 0.1133333,-0.35333252 0.3400002,-0.38000009 z"
         fill="#000000"
         id="path2080" />
      <path
         d="m 17.80434,7.2026386 h 0.350001 c 0.03733,0.1586676 0.121332,0.2660008 0.251999,0.3220005 h 0.014 c 0.242666,0.084 0.751333,0.1259995 1.526001,0.1259995 h 3.402 c -2e-6,0.2146673 -0.042,0.3780002 -0.126001,0.4900007 l -1.89,2.6599997 c -0.401333,0.560001 -0.690666,1.358001 -0.868,2.394 -0.102667,0.690666 -0.153999,1.456001 -0.153999,2.296001 v 0.713999 c 0,0.513333 -0.214668,0.770001 -0.644001,0.770001 -0.429333,0 -0.643999,-0.256668 -0.643999,-0.770001 0,-1.558666 0.452665,-3.121999 1.358,-4.69 l 0.364,-0.574 1.567999,-2.2119994 h -2.897999 c -0.849335,0 -1.306667,0.028 -1.372002,0.084 -0.09333,0.084 -0.209999,0.508667 -0.349998,1.2739994 H 17.34234 Z"
         fill="#000000"
         id="path2082" />
      <path
         d="m 30.171713,7.6066403 c 0.439999,5e-7 0.759998,0.2000003 0.959999,0.5999999 0.06667,0.1466675 0.1,0.3000002 0.1,0.4600001 0,0.4400005 -0.2,0.7600002 -0.6,0.96 -0.146666,0.066668 -0.299999,0.1000004 -0.459999,0.1000004 -0.440001,0 -0.76,-0.1999998 -0.960001,-0.6000004 -0.06667,-0.1466665 -0.1,-0.2999992 -0.1,-0.46 0,-0.4399996 0.2,-0.7599998 0.6,-0.9600001 0.146667,-0.066666 0.299999,-0.099999 0.460001,-0.1 z"
         fill="#000000"
         id="path2084" />
      <path
         d="m 40.171749,7.6066403 c 0.440003,5e-7 0.760002,0.2000003 0.960003,0.5999999 0.06667,0.1466675 0.1,0.3000002 0.1,0.4600001 0,0.4400005 -0.2,0.7600002 -0.599998,0.96 -0.146667,0.066668 -0.300003,0.1000004 -0.460003,0.1000004 -0.439999,0 -0.759998,-0.1999998 -0.959999,-0.6000004 -0.06667,-0.1466665 -0.1,-0.2999992 -0.1,-0.46 0,-0.4399996 0.199997,-0.7599998 0.599998,-0.9600001 0.146668,-0.066666 0.299999,-0.099999 0.459999,-0.1 z"
         fill="#000000"
         id="path2086" />
      <path
         d="m 50.171787,7.6066403 c 0.440003,5e-7 0.760002,0.2000003 0.960003,0.5999999 0.06667,0.1466675 0.1,0.3000002 0.1,0.4600001 0,0.4400005 -0.200001,0.7600002 -0.599999,0.96 -0.146667,0.066668 -0.300003,0.1000004 -0.460003,0.1000004 -0.439998,0 -0.759998,-0.1999998 -0.959999,-0.6000004 -0.06667,-0.1466665 -0.1,-0.2999992 -0.1,-0.46 0,-0.4399996 0.199997,-0.7599998 0.599998,-0.9600001 0.146668,-0.066666 0.299999,-0.099999 0.459999,-0.1 z"
         fill="#000000"
         id="path2088" />
      <path
         d="m 64.86071,0.62664038 c -0.479996,8.9e-7 -0.773331,0.0666665 -0.879997,0.19999969 v 0.0200005 h -0.02 v 0.0200005 c -0.05333,0.0800009 -0.113334,0.25333403 -0.18,0.51999963 L 61.04071,12.36664 c -0.06667,0.24 -0.1,0.393334 -0.1,0.46 0,0.106667 0.06,0.173333 0.18,0.2 h 0.08 c 0.08,0.01333 0.226666,0.02 0.439999,0.02 h 2.259998 c 1.653336,0 3.080002,-0.619999 4.279999,-1.86 0.120003,-0.133333 0.233337,-0.266667 0.340004,-0.4 1.066665,-1.3866661 1.739998,-3.1999996 2.019996,-5.4399994 0.05334,-0.413333 0.08,-0.7533331 0.08,-1.0200005 0,-1.7866659 -0.699997,-2.9333324 -2.099998,-3.43999949 C 68.067375,0.71330738 67.560715,0.62664127 67.00071,0.62664038 Z M 60.680714,0.00664033 h 0.259998 6.720001 c 1.73333,1.06e-6 3.026665,0.67333423 3.879997,2.02000057 0.546669,0.8533335 0.82,1.8666668 0.82,3.04 0,1.9333334 -0.673332,3.7399997 -2.019996,5.4200001 -1.279999,1.559999 -2.786667,2.553332 -4.520005,2.979999 -0.519996,0.133334 -1.039993,0.2 -1.559997,0.2 h -6.619999 c -0.333332,0 -0.513333,-0.05333 -0.540001,-0.16 -0.01333,-0.01333 -0.02,-0.04 -0.02,-0.08 0,-0.226667 0.106667,-0.353334 0.32,-0.380001 h 0.240002 c 0.866665,0 1.386665,-0.09333 1.559997,-0.279999 0.08,-0.09333 0.16,-0.280001 0.240002,-0.560001 0,-0.01333 0.0067,-0.04667 0.02,-0.1 l 2.68,-10.7399988 c 0.05333,-0.2133332 0.08,-0.3399993 0.08,-0.37999939 0,-0.15999973 -0.106667,-0.26000011 -0.32,-0.30000013 h -0.02 c -0.02667,-0.0133333 -0.06,-0.0200004 -0.1,-0.0200005 -0.32,-0.0266666 -0.606666,-0.0399989 -0.86,-0.0399998 -0.346669,8.9e-7 -0.533333,-0.0533324 -0.560002,-0.15999985 -0.01333,-0.0266657 -0.02,-0.0533324 -0.02,-0.0799999 0,-0.22666651 0.11333,-0.35333258 0.34,-0.38000028 z"
         fill="#000000"
         id="path2090" />
      <path
         d="m 76.32505,7.6506386 c -0.653335,0 -1.129333,0.3266668 -1.428001,0.9800005 -0.102669,0.224 -0.181999,0.494667 -0.237999,0.8119993 -0.07467,0.5040007 -0.112,1.3626666 -0.112,2.5760006 0,1.409334 0.05133,2.394001 0.154,2.954 0.167999,0.896 0.578666,1.442 1.232002,1.638001 0.130669,0.03733 0.26133,0.056 0.391998,0.056 0.587998,0 1.040665,-0.284666 1.358002,-0.854 0.130669,-0.252 0.223999,-0.550667 0.279999,-0.896 0.102669,-0.597334 0.153999,-1.563333 0.153999,-2.898 0,-1.297333 -0.04667,-2.207333 -0.139999,-2.7299999 C 77.809052,8.4019728 77.379715,7.8699722 76.689049,7.6926394 76.567719,7.6646385 76.446381,7.6506386 76.32505,7.6506386 Z M 76.171051,7.342639 h 0.167999 c 0.830666,0 1.507332,0.3313341 2.029999,0.9940004 v 0.014 c 0.130669,0.1680003 0.247337,0.3546668 0.349999,0.5599995 0.373336,0.793334 0.560005,1.8853341 0.560005,3.2760011 0,1.362666 -0.172669,2.417332 -0.518006,3.163999 -0.550666,1.045334 -1.362663,1.586666 -2.435997,1.624001 -0.849334,0 -1.53067,-0.336001 -2.043998,-1.008 -0.102669,-0.121334 -0.191338,-0.256668 -0.265999,-0.406001 -0.420006,-0.774666 -0.630005,-1.899333 -0.630005,-3.373999 0,-1.372 0.172668,-2.4313337 0.518005,-3.1780015 0.466667,-1.045332 1.222664,-1.6006661 2.267998,-1.6659995 z"
         fill="#000000"
         id="path2092" />
    </svg>
  </g>
  <rect
     style="fill:none;fill-opacity:1;stroke:#000000;stroke-width:0.198045;stroke-miterlimit:4;stroke-dasharray:none;stroke-opacity:1"
     id="rect2109"
     width="37.041664"
     height="54.239586"
     x="105.35252"
     y="12.037856" />
  <g
     transform="matrix(0.2,0,0,0.2,107.31509,14.822194)"
     id="g2129">
    <svg
       version="1.1"
       id="svg2127"
       width="100%"
       height="100%">
      <path
         d="M 9.9200001,1.8266402 5.98,8.4266405 h 4.579999 z m 1.1399989,-2.47999961 c 0.2,0 0.313334,0.0666666 0.340001,0.19999987 0.01333,0.0400009 0.02667,0.1333341 0.04,0.27999967 L 12.66,12.32664 c 0.04,0.333333 0.119999,0.533334 0.24,0.600001 h 0.02 v 0.02 c 0.16,0.06667 0.506666,0.1 1.04,0.1 0.293333,0 0.446666,0.07333 0.46,0.220001 0,0.266666 -0.120001,0.399999 -0.360001,0.399999 L 11.82,13.60664 H 11.8 l -2.4800003,0.06 h -0.02 c -0.1866675,0 -0.2800007,-0.07333 -0.2800007,-0.22 0.1066666,-0.253333 0.2666664,-0.386666 0.4800005,-0.4 0.9599985,0 1.4399995,-0.22 1.4399995,-0.659999 0,0.01333 -0.106668,-1.100001 -0.32,-3.3400006 H 5.5999999 l -1.52,2.5599996 C 3.893333,11.939974 3.7999997,12.186641 3.8,12.346641 c -3e-7,0.413333 0.3133327,0.646666 0.9399998,0.699999 0.2133331,0 0.3199997,0.08 0.3200001,0.24 -4e-7,0.253333 -0.126667,0.38 -0.3800001,0.38 L 2.76,13.60664 H 2.68 L 1,13.66664 H 0.96 c -0.17333335,0 -0.25999999,-0.07333 -0.25999999,-0.22 0,-0.24 0.1,-0.366667 0.29999999,-0.38 v -0.02 h 0.12 c 0.8399998,-0.05333 1.5266665,-0.413333 2.0599998,-1.08 0.1333332,-0.173333 0.2666667,-0.373333 0.4000001,-0.6 L 10.54,-0.31335917 c 0.133332,-0.21333227 0.306666,-0.32666597 0.519999,-0.34000024 z"
         fill="#000000"
         id="path2111" />
      <path
         d="m 18.794041,7.342639 c 0.177332,0 0.279998,0.032667 0.307998,0.098 v 0.014 c 0.0093,0.028 0.014,0.1119995 0.014,0.2519999 v 7.8540001 c 0,0.28 0.056,0.457334 0.168001,0.532001 0.158667,0.09333 0.536667,0.139999 1.134001,0.139999 h 0.447998 v 0.434 c -0.326666,-0.028 -1.082664,-0.042 -2.267999,-0.042 -1.185334,0 -1.941334,0.014 -2.268,0.042 v -0.434 h 0.448 c 0.718666,0 1.129333,-0.084 1.232,-0.252 l 0.014,-0.014 c 0.03733,-0.07467 0.056,-0.210001 0.056,-0.406001 V 8.3086395 c -0.485333,0.2426663 -1.096666,0.3639994 -1.834,0.3639994 v -0.434 c 1.119999,0 1.969334,-0.298667 2.548001,-0.8959999 z"
         fill="#000000"
         id="path2113" />
      <path
         d="m 25.542068,7.6926394 c -0.615999,0 -1.082666,0.2939996 -1.399999,0.8819999 -0.196001,0.3453341 -0.294001,0.9333334 -0.294001,1.7639997 v 0.168 c 0,0.924 0.084,1.558667 0.252001,1.904 0.289333,0.588001 0.723333,0.882001 1.302,0.882 0.728001,1e-6 1.236666,-0.429333 1.525999,-1.288 0.121334,-0.382666 0.182001,-0.793333 0.182001,-1.232 0,-0.9146659 -0.07467,-1.5726668 -0.224001,-1.9739997 -0.242666,-0.6533337 -0.629999,-1.017334 -1.161998,-1.092 -0.06534,-0.00933 -0.126002,-0.014 -0.182002,-0.014 z m 0,-0.3500004 c 0.933335,0 1.656668,0.4526663 2.170001,1.3580007 0.457334,0.8120003 0.685998,1.9320003 0.686,3.3599993 -2e-6,1.596 -0.429334,2.874667 -1.288,3.836 -0.644001,0.718668 -1.386001,1.078001 -2.226,1.078001 -0.914667,0 -1.516668,-0.284668 -1.806001,-0.854 -0.09333,-0.196 -0.14,-0.415334 -0.14,-0.658001 0,-0.373333 0.172667,-0.592667 0.518,-0.658 0.04667,-0.0093 0.08867,-0.014 0.126001,-0.014 0.298666,10e-7 0.499333,0.130667 0.602,0.392 0.028,0.07467 0.042,0.158667 0.042,0.252 0,0.373334 -0.186666,0.583334 -0.559999,0.630001 -0.056,0.0093 -0.111999,0.014 -0.168001,0.014 0.270668,0.335999 0.728,0.504 1.372002,0.504 0.662666,0 1.203998,-0.331333 1.623998,-0.994001 0.429333,-0.681333 0.644001,-1.656666 0.644001,-2.925999 v -0.448 c -0.373333,0.933332 -0.956667,1.399999 -1.75,1.399999 -0.868,0 -1.577333,-0.354666 -2.128,-1.064 v -0.014 c -0.448,-0.578666 -0.672001,-1.26 -0.672001,-2.043999 0,-0.7840009 0.228668,-1.4606671 0.686001,-2.0300011 l 0.209999,-0.238 c 0.560001,-0.5880003 1.246,-0.8819999 2.057999,-0.8819999 z"
         fill="#000000"
         id="path2115" />
      <path
         d="m 35.613438,7.6066403 c 0.440002,5e-7 0.760002,0.2000003 0.960003,0.5999999 0.06667,0.1466675 0.1,0.3000002 0.1,0.4600001 0,0.4400005 -0.200001,0.7600002 -0.599998,0.96 -0.146668,0.066668 -0.300004,0.1000004 -0.460003,0.1000004 -0.439999,0 -0.759999,-0.1999998 -0.959999,-0.6000004 -0.06667,-0.1466665 -0.1,-0.2999992 -0.1,-0.46 0,-0.4399996 0.199997,-0.7599998 0.599999,-0.9600001 0.146667,-0.066666 0.299999,-0.099999 0.459999,-0.1 z"
         fill="#000000"
         id="path2117" />
      <path
         d="m 45.613476,7.6066403 c 0.440002,5e-7 0.760002,0.2000003 0.960003,0.5999999 0.06667,0.1466675 0.1,0.3000002 0.1,0.4600001 0,0.4400005 -0.200001,0.7600002 -0.599998,0.96 -0.146668,0.066668 -0.300003,0.1000004 -0.460003,0.1000004 -0.439999,0 -0.759999,-0.1999998 -0.959999,-0.6000004 -0.06667,-0.1466665 -0.1,-0.2999992 -0.1,-0.46 0,-0.4399996 0.199997,-0.7599998 0.599999,-0.9600001 0.146667,-0.066666 0.299999,-0.099999 0.459999,-0.1 z"
         fill="#000000"
         id="path2119" />
      <path
         d="m 55.613514,7.6066403 c 0.440002,5e-7 0.760002,0.2000003 0.960003,0.5999999 0.06667,0.1466675 0.1,0.3000002 0.1,0.4600001 0,0.4400005 -0.2,0.7600002 -0.599998,0.96 -0.146668,0.066668 -0.300003,0.1000004 -0.460003,0.1000004 -0.439999,0 -0.759998,-0.1999998 -0.959999,-0.6000004 -0.06667,-0.1466665 -0.1,-0.2999992 -0.1,-0.46 0,-0.4399996 0.199997,-0.7599998 0.599999,-0.9600001 0.146667,-0.066666 0.299999,-0.099999 0.459999,-0.1 z"
         fill="#000000"
         id="path2121" />
      <path
         d="m 71.642441,1.8266402 -3.940003,6.6000003 h 4.580002 z m 1.139999,-2.47999961 c 0.199997,0 0.313332,0.0666666 0.339997,0.19999987 0.01334,0.0400009 0.02667,0.1333341 0.04,0.27999967 L 74.382439,12.32664 c 0.04,0.333333 0.120002,0.533334 0.239998,0.600001 h 0.02 v 0.02 c 0.159996,0.06667 0.506668,0.1 1.040001,0.1 0.293327,0 0.446663,0.07333 0.459999,0.220001 0,0.266666 -0.120003,0.399999 -0.360001,0.399999 l -2.240005,-0.06 h -0.02 l -2.480003,0.06 h -0.02 c -0.186668,0 -0.279999,-0.07333 -0.279999,-0.22 0.106667,-0.253333 0.266663,-0.386666 0.480004,-0.4 0.959991,0 1.439994,-0.22 1.439994,-0.659999 0,0.01333 -0.106666,-1.100001 -0.319999,-3.3400006 H 67.322441 L 65.802437,11.60664 c -0.186669,0.333334 -0.279999,0.580001 -0.279999,0.740001 0,0.413333 0.313332,0.646666 0.940002,0.699999 0.213334,0 0.32,0.08 0.32,0.24 0,0.253333 -0.126671,0.38 -0.380005,0.38 l -1.919998,-0.06 h -0.08 l -1.679996,0.06 h -0.04 c -0.173332,0 -0.259998,-0.07333 -0.259998,-0.22 0,-0.24 0.1,-0.366667 0.299999,-0.38 v -0.02 h 0.119999 c 0.84,-0.05333 1.526664,-0.413333 2.059997,-1.08 0.133339,-0.173333 0.266671,-0.373333 0.400002,-0.6 l 6.959999,-11.67999917 c 0.133331,-0.21333227 0.306671,-0.32666597 0.520004,-0.34000024 z"
         fill="#000000"
         id="path2123" />
      <path
         d="m 80.208481,7.6506386 c -0.653336,0 -1.129334,0.3266668 -1.428002,0.9800005 -0.102668,0.224 -0.181999,0.494667 -0.237999,0.8119993 -0.07467,0.5040007 -0.111999,1.3626666 -0.111999,2.5760006 0,1.409334 0.05133,2.394001 0.153999,2.954 0.168,0.896 0.578667,1.442 1.232003,1.638001 0.130668,0.03733 0.261329,0.056 0.391998,0.056 0.587997,0 1.040665,-0.284666 1.358002,-0.854 0.130661,-0.252 0.223999,-0.550667 0.279998,-0.896 0.102669,-0.597334 0.154,-1.563333 0.154,-2.898 0,-1.297333 -0.04667,-2.207333 -0.14,-2.7299999 C 81.692482,8.4019728 81.263145,7.8699722 80.572479,7.6926394 80.451149,7.6646385 80.329811,7.6506386 80.208481,7.6506386 Z M 80.054482,7.342639 h 0.167999 c 0.830665,0 1.507332,0.3313341 2.029999,0.9940004 v 0.014 c 0.130668,0.1680003 0.247337,0.3546668 0.349998,0.5599995 0.373337,0.793334 0.560005,1.8853341 0.560005,3.2760011 0,1.362666 -0.172668,2.417332 -0.518005,3.163999 -0.550667,1.045334 -1.362663,1.586666 -2.435997,1.624001 -0.849335,0 -1.53067,-0.336001 -2.043999,-1.008 -0.102669,-0.121334 -0.191337,-0.256668 -0.265999,-0.406001 -0.420006,-0.774666 -0.630005,-1.899333 -0.630005,-3.373999 0,-1.372 0.172669,-2.4313337 0.518006,-3.1780015 0.466667,-1.045332 1.222664,-1.6006661 2.267998,-1.6659995 z"
         fill="#000000"
         id="path2125" />
    </svg>
  </g>
  <g
     transform="matrix(0.2,0,0,0.2,127.4629,60.89172)"
     id="g2139">
    <svg
       version="1.1"
       id="svg2137"
       width="100%"
       height="100%">
      <rect
         x="0"
         y="0.79997998"
         width="26.55834"
         height="0.79997998"
         id="rect2131" />
      <path
         d="m 9.96,3.5665407 c 1.453332,1e-6 2.559999,0.5933342 3.32,1.7799998 l 1.399999,-1.54 c 0.16,-0.1599989 0.26,-0.2399988 0.300001,-0.2399998 0.146665,1e-6 0.219999,0.066668 0.22,0.1999998 L 13.94,8.86654 c -0.06667,0.2400007 -0.133334,0.3666677 -0.2,0.3800001 l -0.02,0.02 h -0.14 c -0.200001,0 -0.300001,-0.066667 -0.3,-0.1999998 l 0.06,-0.9800005 v -0.04 C 13.339999,6.3932071 12.82,5.2532077 11.78,4.6265397 L 11.76,4.6065407 C 11.293332,4.3265409 10.746666,4.1865406 10.12,4.1865406 c -1.4133331,0 -2.7533337,0.5266666 -4.0200001,1.5799999 C 5.7799997,6.0198746 5.4933329,6.2998743 5.2399998,6.6065407 3.9733331,8.0865402 3.1933331,9.9665403 2.8999999,12.24654 c -0.053333,0.413334 -0.08,0.773335 -0.08,1.08 0,1.866667 0.7066667,3.126667 2.1200002,3.780001 0.5466666,0.253332 1.146666,0.379999 1.7999997,0.379999 1.2533331,0 2.4799995,-0.486666 3.6800002,-1.459999 0.933333,-0.786667 1.606666,-1.84 2.02,-3.16 0.02667,-0.133333 0.113332,-0.200001 0.26,-0.200001 0.16,0 0.24,0.06667 0.24,0.200001 0,0.24 -0.153334,0.666666 -0.46,1.279999 -0.413334,0.84 -0.993334,1.586667 -1.74,2.239999 -1.3199999,1.146668 -2.7600005,1.720002 -4.3199999,1.720002 -1.706667,0 -3.0733338,-0.586668 -4.1000002,-1.760001 -0.88,-1 -1.3199999,-2.239999 -1.32000002,-3.72 C 1,10.639874 1.7266666,8.7798748 3.1799998,7.0465403 4.5266662,5.4332075 6.1199999,4.3665409 7.96,3.8465405 8.6399994,3.6598749 9.3066664,3.5665417 9.96,3.5665407 Z"
         fill="#000000"
         id="path2133" />
      <path
         d="m 22.794441,3.5665407 c 1.359999,1e-6 2.313332,0.4800005 2.859999,1.4399996 l 0.960001,-1.1399994 c 0.173332,-0.1999988 0.293331,-0.2999992 0.359999,-0.3000002 0.146665,1e-6 0.219999,0.066668 0.219999,0.1999998 l -1.079998,4.3800001 c -0.120003,0.2533331 -0.220001,0.3866663 -0.300001,0.3999997 -0.16,9e-7 -0.24,-0.066667 -0.24,-0.1999998 l 0.08,-1.08 v -0.04 c 0,-1.8399992 -0.773333,-2.8599997 -2.32,-3.0600005 -0.173334,-0.026666 -0.36,-0.039999 -0.559999,-0.04 -1.040001,9e-7 -1.926666,0.420001 -2.66,1.2600002 -0.560001,0.6400004 -0.84,1.3266668 -0.84,2.0600004 0,0.8000002 0.326666,1.373333 0.979999,1.7199993 0.08,0.040001 0.16,0.073334 0.24,0.1000004 0.06667,0.013333 0.513332,0.1333332 1.34,0.3599997 1.226668,0.3200006 1.960001,0.560001 2.199999,0.72 0.106667,0.06667 0.220001,0.16 0.34,0.28 0.653334,0.613334 0.98,1.393335 0.98,2.34 0,1.226667 -0.48,2.366667 -1.439999,3.419999 -1.093334,1.106667 -2.306667,1.680001 -3.639999,1.720002 -1.546667,0 -2.673334,-0.480002 -3.380001,-1.440001 l -0.98,1.14 c -0.173333,0.2 -0.293333,0.300001 -0.36,0.300001 -0.146666,0 -0.22,-0.06667 -0.22,-0.200001 l 1.14,-4.5 v -0.04 c 0.02667,-0.09333 0.04667,-0.146668 0.06,-0.160001 0.05333,-0.05333 0.119999,-0.08 0.199999,-0.08 0.16,0 0.24,0.07333 0.24,0.22 l -0.04,0.14 c -0.08,0.48 -0.120001,0.84 -0.120001,1.08 0,1.506668 0.766666,2.433334 2.300001,2.78 0.373333,0.09333 0.773333,0.14 1.199999,0.14 1.053333,0 1.953333,-0.453333 2.700001,-1.359999 0.6,-0.706667 0.899999,-1.48 0.899999,-2.320001 0,-1.039999 -0.479999,-1.713334 -1.44,-2.019999 l -0.4,-0.1 -2.139999,-0.560001 C 19.05444,10.873207 18.441107,10.339874 18.09444,9.5265408 17.934441,9.1398735 17.854441,8.7265406 17.854441,8.28654 c 0,-1.2133331 0.506666,-2.3066663 1.519998,-3.2799997 1.013335,-0.9599991 2.153334,-1.4399986 3.420002,-1.4399996 z"
         fill="#000000"
         id="path2135" />
    </svg>
  </g>
  <g
     transform="matrix(0.2,0,0,0.2,116.23758,60.89172)"
     id="g2149">
    <svg
       version="1.1"
       id="svg2147"
       width="100%"
       height="100%">
      <rect
         x="0"
         y="0.79997998"
         width="34.074718"
         height="0.79997998"
         id="rect2141" />
      <path
         d="m 9.2799997,4.6265402 c -0.6933336,9e-7 -1.1000003,0.00667 -1.2200002,0.02 -0.2400003,0.04 -0.4000001,0.1866665 -0.4799996,0.4399996 -0.013334,0.066668 -0.04,0.166668 -0.08,0.3000002 l -1.3000001,5.220001 h 2.2399998 c 1.4799995,0 2.6066664,-0.386668 3.3800004,-1.1600011 0.586666,-0.5866661 0.946666,-1.3999987 1.08,-2.4399996 V 6.9865413 C 12.91333,6.8398748 12.92,6.7132077 12.92,6.6065412 12.92,5.4198747 12.08,4.766541 10.4,4.6465411 H 10.36 C 10.106667,4.6332081 9.746666,4.6265421 9.2799997,4.6265402 Z M 4.3800001,4.0065403 H 4.6599998 10.36 c 1.666667,1e-6 2.906666,0.4400005 3.72,1.3199997 0.466666,0.4800005 0.699999,1.0400009 0.7,1.6800003 -10e-7,1.1599998 -0.713334,2.1533337 -2.140001,2.9799995 -0.693333,0.4133342 -1.446666,0.7066672 -2.259999,0.8800012 1.146666,0.426666 1.766666,1.126667 1.86,2.099999 0.01333,0.08 0.02,0.166667 0.02,0.26 -10e-7,0.253334 -0.02667,0.566667 -0.08,0.94 -0.133335,1.066667 -0.2,1.826667 -0.2,2.280001 0,0.693333 0.173333,1.086666 0.52,1.179998 h 0.02 c 0.08,0.02667 0.166666,0.04 0.26,0.04 0.573333,0 1.059999,-0.346666 1.46,-1.039999 0.146666,-0.226667 0.266666,-0.486667 0.359999,-0.780001 0.05333,-0.186666 0.140001,-0.28 0.260001,-0.28 0.159999,0 0.239998,0.08 0.239999,0.24 -1e-6,0.266668 -0.16,0.640001 -0.479999,1.12 -0.253333,0.386668 -0.546667,0.686667 -0.88,0.9 -0.320001,0.186666 -0.666667,0.280001 -1.04,0.280001 -1.106667,0 -1.88,-0.326668 -2.32,-0.98 -0.226667,-0.320001 -0.340001,-0.713335 -0.34,-1.180001 -10e-7,-0.28 0.106666,-0.846666 0.32,-1.7 0.186665,-0.719999 0.279999,-1.179999 0.279999,-1.379999 0,-0.826667 -0.373334,-1.373334 -1.1199995,-1.640001 v -0.02 C 9.2133331,11.099874 8.8599997,11.04654 8.46,11.04654 H 6.0799999 l -1.3200001,5.3 -0.06,0.340001 c 0,0.226665 0.3066664,0.346666 0.9200001,0.359998 H 6 c 0.3466663,0 0.5333328,0.07333 0.5599999,0.220002 -4e-7,0.266666 -0.1333336,0.399999 -0.4000001,0.399999 l -2.5199999,-0.06 h -0.02 L 1.12,17.66654 H 1.1 c -0.1866667,0 -0.28000007,-0.07333 -0.28000001,-0.219999 -6e-8,-0.24 0.1,-0.373335 0.30000001,-0.400002 h 0.2399999 c 0.8666666,0 1.3866665,-0.09333 1.5599999,-0.279998 0.08,-0.09333 0.1599999,-0.280001 0.24,-0.56 -2e-7,-0.01333 0.00667,-0.04667 0.02,-0.1 L 5.8599997,5.36654 c 0.053333,-0.2133332 0.08,-0.3399992 0.08,-0.3799992 -5e-7,-0.1599999 -0.1066671,-0.2600002 -0.3200002,-0.3000002 h -0.02 -0.02 c -0.04,0 -0.1,-0.00667 -0.1799998,-0.020001 -0.2266669,-0.026667 -0.4800005,-0.039999 -0.7600002,-0.04 -0.3466668,9e-7 -0.5333333,-0.073333 -0.56,-0.2199993 0,-0.2399998 0.1,-0.373333 0.3000006,-0.4 z"
         fill="#000000"
         id="path2143" />
      <path
         d="m 16.6458,4.0065403 2.08,0.06 h 0.02 l 2.42,-0.06 h 0.04 c 0.186667,1e-6 0.279999,0.073334 0.280001,0.2200003 -0.05334,0.2533331 -0.193335,0.3866663 -0.42,0.3999996 -1,0.013333 -1.506668,0.253334 -1.520001,0.7200003 l 0.76,10.1399995 5.06,-8.8199999 -0.12,-1.5399999 c -0.02667,-0.2533331 -0.16,-0.4066668 -0.400002,-0.4600001 -0.146667,-0.026667 -0.366664,-0.039999 -0.659999,-0.04 -0.293333,9e-7 -0.453333,-0.073333 -0.48,-0.2199993 0,-0.2666664 0.126667,-0.3999996 0.380001,-0.4000006 l 2.079998,0.06 h 0.02 l 2.319999,-0.06 h 0.120001 c 0.199999,1e-6 0.299999,0.073334 0.300001,0.2200003 -2e-6,0.2400007 -0.100002,0.3733339 -0.300001,0.3999996 h -0.24 C 27.479134,4.6398735 27.012466,4.8732071 26.9858,5.32654 v 0.2400007 l 0.74,9.9199993 5.400001,-9.4199993 c 0.173332,-0.3066664 0.259998,-0.5266657 0.259998,-0.6599998 0,-0.4800005 -0.393333,-0.7400008 -1.18,-0.7800007 -0.200001,9e-7 -0.299999,-0.079999 -0.299999,-0.2399998 0,-0.2533331 0.126667,-0.3799991 0.380001,-0.3800001 l 2.059997,0.06 h 0.02 l 1.5,-0.06 h 0.04 c 0.133331,1e-6 0.213333,0.073334 0.239998,0.2200003 0,0.2400007 -0.1,0.3733339 -0.3,0.3999996 h -0.08 c -0.800003,0.066667 -1.433334,0.4466677 -1.900001,1.1400003 l -0.02,0.019999 v 0.020001 c -0.09333,0.1333341 -0.2,0.3066664 -0.319999,0.5199995 l -6.56,11.4 c -0.146665,0.253334 -0.306665,0.380001 -0.479999,0.380001 -0.160002,0 -0.253336,-0.08 -0.280001,-0.24 -0.01333,-0.06667 -0.02667,-0.16 -0.04,-0.280001 L 25.4258,7.4865408 19.545799,17.686541 c -0.146667,0.253332 -0.273332,0.386665 -0.379999,0.399999 l -0.02,0.02 h -0.08 c -0.173334,0 -0.273335,-0.100001 -0.3,-0.300001 -0.01333,-0.05333 -0.02,-0.126666 -0.02,-0.22 l -0.900002,-12.22 C 17.819134,5.0198736 17.739132,4.8065405 17.605799,4.7265406 h -0.02 -0.02 c -0.133333,-0.066667 -0.393334,-0.1 -0.780001,-0.1000004 -0.306665,9e-7 -0.473333,-0.079999 -0.5,-0.2399998 0,-0.2533331 0.120001,-0.3799991 0.360002,-0.3800001 z"
         fill="#000000"
         id="path2145" />
    </svg>
  </g>
  <g
     transform="matrix(0.2,0,0,0.2,106.74951,21.202188)"
     id="g2167">
    <svg
       version="1.1"
       id="svg2165"
       width="100%"
       height="100%">
      <path
         d="m 8.5799999,0.62664032 c -0.4800005,9.5e-7 -0.773334,0.0666666 -0.8800001,0.19999975 v 0.0200005 h -0.02 v 0.0200005 C 7.6266661,0.94664192 7.5666661,1.1199751 7.5,1.3866404 L 4.7599998,12.36664 c -0.066667,0.24 -0.1,0.393334 -0.1,0.46 0,0.106667 0.059999,0.173333 0.1799999,0.2 h 0.08 c 0.08,0.01333 0.2266664,0.02 0.4399996,0.02 h 2.2600002 c 1.6533327,0 3.0799995,-0.619999 4.2800005,-1.86 0.119999,-0.133333 0.233332,-0.266667 0.34,-0.4 1.066666,-1.3866661 1.74,-3.1999996 2.019999,-5.4399994 0.05333,-0.413333 0.08,-0.7533331 0.08,-1.0200005 0,-1.7866659 -0.700001,-2.9333324 -2.1,-3.43999949 -0.453333,-0.17333323 -0.96,-0.25999934 -1.52,-0.26000029 z M 4.4000001,0.00664048 H 4.6599998 11.38 c 1.733333,9.1e-7 3.026666,0.67333408 3.879999,2.02000042 0.546666,0.8533335 0.820001,1.8666668 0.820001,3.04 0,1.9333334 -0.673334,3.7399997 -2.020001,5.4200001 -1.28,1.559999 -2.786666,2.553332 -4.519999,2.979999 -0.5200005,0.133334 -1.04,0.2 -1.56,0.2 H 1.3599999 c -0.3333333,0 -0.51333333,-0.05333 -0.53999991,-0.16 -0.0133334,-0.01333 -0.0200001,-0.04 -0.02,-0.08 -6e-8,-0.226667 0.10666663,-0.353334 0.31999991,-0.380001 h 0.24 c 0.8666666,0 1.3866665,-0.09333 1.5599999,-0.279999 0.08,-0.09333 0.1599999,-0.280001 0.24,-0.560001 -2e-7,-0.01333 0.00667,-0.04667 0.02,-0.1 L 5.8599997,1.3666402 c 0.053333,-0.2133332 0.08,-0.3399993 0.08,-0.37999915 C 5.9399996,0.82664108 5.833333,0.7266407 5.6199999,0.68664068 h -0.02 C 5.5733333,0.67330742 5.54,0.66664028 5.5,0.66664016 5.1799998,0.63997364 4.893333,0.62664127 4.6399999,0.62664032 c -0.3466668,9.5e-7 -0.5333333,-0.0533323 -0.56,-0.15999985 -0.013333,-0.0266657 -0.02,-0.0533323 -0.02,-0.0799999 0,-0.22666645 0.1133333,-0.35333252 0.3400002,-0.38000009 z"
         fill="#000000"
         id="path2151" />
      <path
         d="m 17.80434,7.2026386 h 0.350001 c 0.03733,0.1586676 0.121332,0.2660008 0.251999,0.3220005 h 0.014 c 0.242666,0.084 0.751333,0.1259995 1.526001,0.1259995 h 3.402 c -2e-6,0.2146673 -0.042,0.3780002 -0.126001,0.4900007 l -1.89,2.6599997 c -0.401333,0.560001 -0.690666,1.358001 -0.868,2.394 -0.102667,0.690666 -0.153999,1.456001 -0.153999,2.296001 v 0.713999 c 0,0.513333 -0.214668,0.770001 -0.644001,0.770001 -0.429333,0 -0.643999,-0.256668 -0.643999,-0.770001 0,-1.558666 0.452665,-3.121999 1.358,-4.69 l 0.364,-0.574 1.567999,-2.2119994 h -2.897999 c -0.849335,0 -1.306667,0.028 -1.372002,0.084 -0.09333,0.084 -0.209999,0.508667 -0.349998,1.2739994 H 17.34234 Z"
         fill="#000000"
         id="path2153" />
      <path
         d="m 30.171713,7.6066403 c 0.439999,5e-7 0.759998,0.2000003 0.959999,0.5999999 0.06667,0.1466675 0.1,0.3000002 0.1,0.4600001 0,0.4400005 -0.2,0.7600002 -0.6,0.96 -0.146666,0.066668 -0.299999,0.1000004 -0.459999,0.1000004 -0.440001,0 -0.76,-0.1999998 -0.960001,-0.6000004 -0.06667,-0.1466665 -0.1,-0.2999992 -0.1,-0.46 0,-0.4399996 0.2,-0.7599998 0.6,-0.9600001 0.146667,-0.066666 0.299999,-0.099999 0.460001,-0.1 z"
         fill="#000000"
         id="path2155" />
      <path
         d="m 40.171749,7.6066403 c 0.440003,5e-7 0.760002,0.2000003 0.960003,0.5999999 0.06667,0.1466675 0.1,0.3000002 0.1,0.4600001 0,0.4400005 -0.2,0.7600002 -0.599998,0.96 -0.146667,0.066668 -0.300003,0.1000004 -0.460003,0.1000004 -0.439999,0 -0.759998,-0.1999998 -0.959999,-0.6000004 -0.06667,-0.1466665 -0.1,-0.2999992 -0.1,-0.46 0,-0.4399996 0.199997,-0.7599998 0.599998,-0.9600001 0.146668,-0.066666 0.299999,-0.099999 0.459999,-0.1 z"
         fill="#000000"
         id="path2157" />
      <path
         d="m 50.171787,7.6066403 c 0.440003,5e-7 0.760002,0.2000003 0.960003,0.5999999 0.06667,0.1466675 0.1,0.3000002 0.1,0.4600001 0,0.4400005 -0.200001,0.7600002 -0.599999,0.96 -0.146667,0.066668 -0.300003,0.1000004 -0.460003,0.1000004 -0.439998,0 -0.759998,-0.1999998 -0.959999,-0.6000004 -0.06667,-0.1466665 -0.1,-0.2999992 -0.1,-0.46 0,-0.4399996 0.199997,-0.7599998 0.599998,-0.9600001 0.146668,-0.066666 0.299999,-0.099999 0.459999,-0.1 z"
         fill="#000000"
         id="path2159" />
      <path
         d="m 64.86071,0.62664038 c -0.479996,8.9e-7 -0.773331,0.0666665 -0.879997,0.19999969 v 0.0200005 h -0.02 v 0.0200005 c -0.05333,0.0800009 -0.113334,0.25333403 -0.18,0.51999963 L 61.04071,12.36664 c -0.06667,0.24 -0.1,0.393334 -0.1,0.46 0,0.106667 0.06,0.173333 0.18,0.2 h 0.08 c 0.08,0.01333 0.226666,0.02 0.439999,0.02 h 2.259998 c 1.653336,0 3.080002,-0.619999 4.279999,-1.86 0.120003,-0.133333 0.233337,-0.266667 0.340004,-0.4 1.066665,-1.3866661 1.739998,-3.1999996 2.019996,-5.4399994 0.05334,-0.413333 0.08,-0.7533331 0.08,-1.0200005 0,-1.7866659 -0.699997,-2.9333324 -2.099998,-3.43999949 C 68.067375,0.71330738 67.560715,0.62664127 67.00071,0.62664038 Z M 60.680714,0.00664033 h 0.259998 6.720001 c 1.73333,1.06e-6 3.026665,0.67333423 3.879997,2.02000057 0.546669,0.8533335 0.82,1.8666668 0.82,3.04 0,1.9333334 -0.673332,3.7399997 -2.019996,5.4200001 -1.279999,1.559999 -2.786667,2.553332 -4.520005,2.979999 -0.519996,0.133334 -1.039993,0.2 -1.559997,0.2 h -6.619999 c -0.333332,0 -0.513333,-0.05333 -0.540001,-0.16 -0.01333,-0.01333 -0.02,-0.04 -0.02,-0.08 0,-0.226667 0.106667,-0.353334 0.32,-0.380001 h 0.240002 c 0.866665,0 1.386665,-0.09333 1.559997,-0.279999 0.08,-0.09333 0.16,-0.280001 0.240002,-0.560001 0,-0.01333 0.0067,-0.04667 0.02,-0.1 l 2.68,-10.7399988 c 0.05333,-0.2133332 0.08,-0.3399993 0.08,-0.37999939 0,-0.15999973 -0.106667,-0.26000011 -0.32,-0.30000013 h -0.02 c -0.02667,-0.0133333 -0.06,-0.0200004 -0.1,-0.0200005 -0.32,-0.0266666 -0.606666,-0.0399989 -0.86,-0.0399998 -0.346669,8.9e-7 -0.533333,-0.0533324 -0.560002,-0.15999985 -0.01333,-0.0266657 -0.02,-0.0533324 -0.02,-0.0799999 0,-0.22666651 0.11333,-0.35333258 0.34,-0.38000028 z"
         fill="#000000"
         id="path2161" />
      <path
         d="m 76.32505,7.6506386 c -0.653335,0 -1.129333,0.3266668 -1.428001,0.9800005 -0.102669,0.224 -0.181999,0.494667 -0.237999,0.8119993 -0.07467,0.5040007 -0.112,1.3626666 -0.112,2.5760006 0,1.409334 0.05133,2.394001 0.154,2.954 0.167999,0.896 0.578666,1.442 1.232002,1.638001 0.130669,0.03733 0.26133,0.056 0.391998,0.056 0.587998,0 1.040665,-0.284666 1.358002,-0.854 0.130669,-0.252 0.223999,-0.550667 0.279999,-0.896 0.102669,-0.597334 0.153999,-1.563333 0.153999,-2.898 0,-1.297333 -0.04667,-2.207333 -0.139999,-2.7299999 C 77.809052,8.4019728 77.379715,7.8699722 76.689049,7.6926394 76.567719,7.6646385 76.446381,7.6506386 76.32505,7.6506386 Z M 76.171051,7.342639 h 0.167999 c 0.830666,0 1.507332,0.3313341 2.029999,0.9940004 v 0.014 c 0.130669,0.1680003 0.247337,0.3546668 0.349999,0.5599995 0.373336,0.793334 0.560005,1.8853341 0.560005,3.2760011 0,1.362666 -0.172669,2.417332 -0.518006,3.163999 -0.550666,1.045334 -1.362663,1.586666 -2.435997,1.624001 -0.849334,0 -1.53067,-0.336001 -2.043998,-1.008 -0.102669,-0.121334 -0.191338,-0.256668 -0.265999,-0.406001 -0.420006,-0.774666 -0.630005,-1.899333 -0.630005,-3.373999 0,-1.372 0.172668,-2.4313337 0.518005,-3.1780015 0.466667,-1.045332 1.222664,-1.6006661 2.267998,-1.6659995 z"
         fill="#000000"
         id="path2163" />
    </svg>
  </g>
  <g
     transform="matrix(0.2,0,0,0.2,10.80526,80.14203)"
     id="g2187">
    <svg
       version="1.1"
       id="svg2185"
       width="100%"
       height="100%">
      <path
         d="M 9.9200001,1.8266402 5.98,8.4266405 h 4.579999 z m 1.1399989,-2.47999961 c 0.2,0 0.313334,0.0666666 0.340001,0.19999987 0.01333,0.0400009 0.02667,0.1333341 0.04,0.27999967 L 12.66,12.32664 c 0.04,0.333333 0.119999,0.533334 0.24,0.600001 h 0.02 v 0.02 c 0.16,0.06667 0.506666,0.1 1.04,0.1 0.293333,0 0.446666,0.07333 0.46,0.220001 0,0.266666 -0.120001,0.399999 -0.360001,0.399999 L 11.82,13.60664 H 11.8 l -2.4800003,0.06 h -0.02 c -0.1866675,0 -0.2800007,-0.07333 -0.2800007,-0.22 0.1066666,-0.253333 0.2666664,-0.386666 0.4800005,-0.4 0.9599985,0 1.4399995,-0.22 1.4399995,-0.659999 0,0.01333 -0.106668,-1.100001 -0.32,-3.3400006 H 5.5999999 l -1.52,2.5599996 C 3.893333,11.939974 3.7999997,12.186641 3.8,12.346641 c -3e-7,0.413333 0.3133327,0.646666 0.9399998,0.699999 0.2133331,0 0.3199997,0.08 0.3200001,0.24 -4e-7,0.253333 -0.126667,0.38 -0.3800001,0.38 L 2.76,13.60664 H 2.68 L 1,13.66664 H 0.96 c -0.17333335,0 -0.25999999,-0.07333 -0.25999999,-0.22 0,-0.24 0.1,-0.366667 0.29999999,-0.38 v -0.02 h 0.12 c 0.8399998,-0.05333 1.5266665,-0.413333 2.0599998,-1.08 0.1333332,-0.173333 0.2666667,-0.373333 0.4000001,-0.6 L 10.54,-0.31335917 c 0.133332,-0.21333227 0.306666,-0.32666597 0.519999,-0.34000024 z"
         fill="#000000"
         id="path2169" />
      <path
         d="m 18.794041,7.342639 c 0.177332,0 0.279998,0.032667 0.307998,0.098 v 0.014 c 0.0093,0.028 0.014,0.1119995 0.014,0.2519999 v 7.8540001 c 0,0.28 0.056,0.457334 0.168001,0.532001 0.158667,0.09333 0.536667,0.139999 1.134001,0.139999 h 0.447998 v 0.434 c -0.326666,-0.028 -1.082664,-0.042 -2.267999,-0.042 -1.185334,0 -1.941334,0.014 -2.268,0.042 v -0.434 h 0.448 c 0.718666,0 1.129333,-0.084 1.232,-0.252 l 0.014,-0.014 c 0.03733,-0.07467 0.056,-0.210001 0.056,-0.406001 V 8.3086395 c -0.485333,0.2426663 -1.096666,0.3639994 -1.834,0.3639994 v -0.434 c 1.119999,0 1.969334,-0.298667 2.548001,-0.8959999 z"
         fill="#000000"
         id="path2171" />
      <path
         d="m 25.542068,7.6926394 c -0.615999,0 -1.082666,0.2939996 -1.399999,0.8819999 -0.196001,0.3453341 -0.294001,0.9333334 -0.294001,1.7639997 v 0.168 c 0,0.924 0.084,1.558667 0.252001,1.904 0.289333,0.588001 0.723333,0.882001 1.302,0.882 0.728001,1e-6 1.236666,-0.429333 1.525999,-1.288 0.121334,-0.382666 0.182001,-0.793333 0.182001,-1.232 0,-0.9146659 -0.07467,-1.5726668 -0.224001,-1.9739997 -0.242666,-0.6533337 -0.629999,-1.017334 -1.161998,-1.092 -0.06534,-0.00933 -0.126002,-0.014 -0.182002,-0.014 z m 0,-0.3500004 c 0.933335,0 1.656668,0.4526663 2.170001,1.3580007 0.457334,0.8120003 0.685998,1.9320003 0.686,3.3599993 -2e-6,1.596 -0.429334,2.874667 -1.288,3.836 -0.644001,0.718668 -1.386001,1.078001 -2.226,1.078001 -0.914667,0 -1.516668,-0.284668 -1.806001,-0.854 -0.09333,-0.196 -0.14,-0.415334 -0.14,-0.658001 0,-0.373333 0.172667,-0.592667 0.518,-0.658 0.04667,-0.0093 0.08867,-0.014 0.126001,-0.014 0.298666,10e-7 0.499333,0.130667 0.602,0.392 0.028,0.07467 0.042,0.158667 0.042,0.252 0,0.373334 -0.186666,0.583334 -0.559999,0.630001 -0.056,0.0093 -0.111999,0.014 -0.168001,0.014 0.270668,0.335999 0.728,0.504 1.372002,0.504 0.662666,0 1.203998,-0.331333 1.623998,-0.994001 0.429333,-0.681333 0.644001,-1.656666 0.644001,-2.925999 v -0.448 c -0.373333,0.933332 -0.956667,1.399999 -1.75,1.399999 -0.868,0 -1.577333,-0.354666 -2.128,-1.064 v -0.014 c -0.448,-0.578666 -0.672001,-1.26 -0.672001,-2.043999 0,-0.7840009 0.228668,-1.4606671 0.686001,-2.0300011 l 0.209999,-0.238 c 0.560001,-0.5880003 1.246,-0.8819999 2.057999,-0.8819999 z"
         fill="#000000"
         id="path2173" />
      <path
         d="m 35.613438,7.6066403 c 0.440002,5e-7 0.760002,0.2000003 0.960003,0.5999999 0.06667,0.1466675 0.1,0.3000002 0.1,0.4600001 0,0.4400005 -0.200001,0.7600002 -0.599998,0.96 -0.146668,0.066668 -0.300004,0.1000004 -0.460003,0.1000004 -0.439999,0 -0.759999,-0.1999998 -0.959999,-0.6000004 -0.06667,-0.1466665 -0.1,-0.2999992 -0.1,-0.46 0,-0.4399996 0.199997,-0.7599998 0.599999,-0.9600001 0.146667,-0.066666 0.299999,-0.099999 0.459999,-0.1 z"
         fill="#000000"
         id="path2175" />
      <path
         d="m 45.613476,7.6066403 c 0.440002,5e-7 0.760002,0.2000003 0.960003,0.5999999 0.06667,0.1466675 0.1,0.3000002 0.1,0.4600001 0,0.4400005 -0.200001,0.7600002 -0.599998,0.96 -0.146668,0.066668 -0.300003,0.1000004 -0.460003,0.1000004 -0.439999,0 -0.759999,-0.1999998 -0.959999,-0.6000004 -0.06667,-0.1466665 -0.1,-0.2999992 -0.1,-0.46 0,-0.4399996 0.199997,-0.7599998 0.599999,-0.9600001 0.146667,-0.066666 0.299999,-0.099999 0.459999,-0.1 z"
         fill="#000000"
         id="path2177" />
      <path
         d="m 55.613514,7.6066403 c 0.440002,5e-7 0.760002,0.2000003 0.960003,0.5999999 0.06667,0.1466675 0.1,0.3000002 0.1,0.4600001 0,0.4400005 -0.2,0.7600002 -0.599998,0.96 -0.146668,0.066668 -0.300003,0.1000004 -0.460003,0.1000004 -0.439999,0 -0.759998,-0.1999998 -0.959999,-0.6000004 -0.06667,-0.1466665 -0.1,-0.2999992 -0.1,-0.46 0,-0.4399996 0.199997,-0.7599998 0.599999,-0.9600001 0.146667,-0.066666 0.299999,-0.099999 0.459999,-0.1 z"
         fill="#000000"
         id="path2179" />
      <path
         d="m 71.642441,1.8266402 -3.940003,6.6000003 h 4.580002 z m 1.139999,-2.47999961 c 0.199997,0 0.313332,0.0666666 0.339997,0.19999987 0.01334,0.0400009 0.02667,0.1333341 0.04,0.27999967 L 74.382439,12.32664 c 0.04,0.333333 0.120002,0.533334 0.239998,0.600001 h 0.02 v 0.02 c 0.159996,0.06667 0.506668,0.1 1.040001,0.1 0.293327,0 0.446663,0.07333 0.459999,0.220001 0,0.266666 -0.120003,0.399999 -0.360001,0.399999 l -2.240005,-0.06 h -0.02 l -2.480003,0.06 h -0.02 c -0.186668,0 -0.279999,-0.07333 -0.279999,-0.22 0.106667,-0.253333 0.266663,-0.386666 0.480004,-0.4 0.959991,0 1.439994,-0.22 1.439994,-0.659999 0,0.01333 -0.106666,-1.100001 -0.319999,-3.3400006 H 67.322441 L 65.802437,11.60664 c -0.186669,0.333334 -0.279999,0.580001 -0.279999,0.740001 0,0.413333 0.313332,0.646666 0.940002,0.699999 0.213334,0 0.32,0.08 0.32,0.24 0,0.253333 -0.126671,0.38 -0.380005,0.38 l -1.919998,-0.06 h -0.08 l -1.679996,0.06 h -0.04 c -0.173332,0 -0.259998,-0.07333 -0.259998,-0.22 0,-0.24 0.1,-0.366667 0.299999,-0.38 v -0.02 h 0.119999 c 0.84,-0.05333 1.526664,-0.413333 2.059997,-1.08 0.133339,-0.173333 0.266671,-0.373333 0.400002,-0.6 l 6.959999,-11.67999917 c 0.133331,-0.21333227 0.306671,-0.32666597 0.520004,-0.34000024 z"
         fill="#000000"
         id="path2181" />
      <path
         d="m 80.208481,7.6506386 c -0.653336,0 -1.129334,0.3266668 -1.428002,0.9800005 -0.102668,0.224 -0.181999,0.494667 -0.237999,0.8119993 -0.07467,0.5040007 -0.111999,1.3626666 -0.111999,2.5760006 0,1.409334 0.05133,2.394001 0.153999,2.954 0.168,0.896 0.578667,1.442 1.232003,1.638001 0.130668,0.03733 0.261329,0.056 0.391998,0.056 0.587997,0 1.040665,-0.284666 1.358002,-0.854 0.130661,-0.252 0.223999,-0.550667 0.279998,-0.896 0.102669,-0.597334 0.154,-1.563333 0.154,-2.898 0,-1.297333 -0.04667,-2.207333 -0.14,-2.7299999 C 81.692482,8.4019728 81.263145,7.8699722 80.572479,7.6926394 80.451149,7.6646385 80.329811,7.6506386 80.208481,7.6506386 Z M 80.054482,7.342639 h 0.167999 c 0.830665,0 1.507332,0.3313341 2.029999,0.9940004 v 0.014 c 0.130668,0.1680003 0.247337,0.3546668 0.349998,0.5599995 0.373337,0.793334 0.560005,1.8853341 0.560005,3.2760011 0,1.362666 -0.172668,2.417332 -0.518005,3.163999 -0.550667,1.045334 -1.362663,1.586666 -2.435997,1.624001 -0.849335,0 -1.53067,-0.336001 -2.043999,-1.008 -0.102669,-0.121334 -0.191337,-0.256668 -0.265999,-0.406001 -0.420006,-0.774666 -0.630005,-1.899333 -0.630005,-3.373999 0,-1.372 0.172669,-2.4313337 0.518006,-3.1780015 0.466667,-1.045332 1.222664,-1.6006661 2.267998,-1.6659995 z"
         fill="#000000"
         id="path2183" />
    </svg>
  </g>
  <g
     transform="matrix(0.2,0,0,0.2,10.71566,84.32638)"
     id="g2274">
    <svg
       version="1.1"
       id="svg2272"
       width="100%"
       height="100%">
      <path
         d="M 9.9200001,1.8266402 5.98,8.4266405 h 4.579999 z m 1.1399989,-2.47999961 c 0.2,0 0.313334,0.0666666 0.340001,0.19999987 0.01333,0.0400009 0.02667,0.1333341 0.04,0.27999967 L 12.66,12.32664 c 0.04,0.333333 0.119999,0.533334 0.24,0.600001 h 0.02 v 0.02 c 0.16,0.06667 0.506666,0.1 1.04,0.1 0.293333,0 0.446666,0.07333 0.46,0.220001 0,0.266666 -0.120001,0.399999 -0.360001,0.399999 L 11.82,13.60664 H 11.8 l -2.4800003,0.06 h -0.02 c -0.1866675,0 -0.2800007,-0.07333 -0.2800007,-0.22 0.1066666,-0.253333 0.2666664,-0.386666 0.4800005,-0.4 0.9599985,0 1.4399995,-0.22 1.4399995,-0.659999 0,0.01333 -0.106668,-1.100001 -0.32,-3.3400006 H 5.5999999 l -1.52,2.5599996 C 3.893333,11.939974 3.7999997,12.186641 3.8,12.346641 c -3e-7,0.413333 0.3133327,0.646666 0.9399998,0.699999 0.2133331,0 0.3199997,0.08 0.3200001,0.24 -4e-7,0.253333 -0.126667,0.38 -0.3800001,0.38 L 2.76,13.60664 H 2.68 L 1,13.66664 H 0.96 c -0.17333335,0 -0.25999999,-0.07333 -0.25999999,-0.22 0,-0.24 0.1,-0.366667 0.29999999,-0.38 v -0.02 h 0.12 c 0.8399998,-0.05333 1.5266665,-0.413333 2.0599998,-1.08 0.1333332,-0.173333 0.2666667,-0.373333 0.4000001,-0.6 L 10.54,-0.31335917 c 0.133332,-0.21333227 0.306666,-0.32666597 0.519999,-0.34000024 z"
         fill="#000000"
         id="path2266" />
      <path
         d="m 18.318041,7.342639 c 1.026666,0 1.824667,0.345334 2.393999,1.0360002 0.326668,0.4013329 0.513332,0.8773327 0.560001,1.4279995 0.0093,0.084001 0.014,0.1680012 0.014,0.2520013 0,0.681333 -0.256668,1.329999 -0.77,1.945999 -0.270668,0.317333 -0.690668,0.737333 -1.26,1.26 l -0.854001,0.756 -0.140001,0.126 -1.483999,1.442 h 2.52 c 0.821333,0 1.264666,-0.03733 1.33,-0.112 0.09333,-0.130666 0.195999,-0.546 0.308001,-1.246 h 0.35 l -0.392002,2.436 H 15.70004 c 0,-0.233333 0.028,-0.382667 0.084,-0.448 l 0.07,-0.07 2.688,-2.996001 c 0.979999,-1.101333 1.469999,-2.132666 1.469999,-3.093999 0,-0.830667 -0.251999,-1.4606671 -0.755998,-1.8900008 l -0.014,-0.014 h -0.014 C 18.929373,7.9026394 18.565372,7.776639 18.13604,7.776639 c -0.671999,0 -1.208666,0.2893333 -1.610001,0.868 -0.111999,0.1680002 -0.205332,0.3546667 -0.279999,0.5600004 0.028,-0.00933 0.08867,-0.014 0.182,-0.014 0.373333,0 0.611333,0.1680002 0.714,0.5039997 v 0.014 c 0.01867,0.065333 0.028,0.1353341 0.028,0.2100001 0,0.3733338 -0.177334,0.6113328 -0.531999,0.7139998 -0.07467,0.01867 -0.140002,0.028 -0.196002,0.028 -0.345333,1e-6 -0.573999,-0.144666 -0.685998,-0.434 -0.03733,-0.102666 -0.056,-0.219333 -0.056,-0.3500006 0,-0.7186661 0.275333,-1.3346653 0.825999,-1.8479996 0.494666,-0.4573326 1.092,-0.6859998 1.792001,-0.6859998 z"
         fill="#000000"
         id="path2268" />
      <path
         d="m 25.486069,7.6506386 c -0.653334,0 -1.129334,0.3266668 -1.428,0.9800005 -0.102667,0.224 -0.182001,0.494667 -0.238001,0.8119993 -0.07467,0.5040007 -0.111999,1.3626666 -0.111999,2.5760006 0,1.409334 0.05133,2.394001 0.153999,2.954 0.168001,0.896 0.578667,1.442 1.232001,1.638001 0.130666,0.03733 0.261333,0.056 0.392,0.056 0.587999,0 1.040666,-0.284666 1.358,-0.854 0.130666,-0.252 0.224,-0.550667 0.28,-0.896 0.102667,-0.597334 0.154,-1.563333 0.154,-2.898 0,-1.297333 -0.04667,-2.207333 -0.14,-2.7299999 -0.167999,-0.8866663 -0.597334,-1.4186669 -1.288,-1.5959997 -0.121334,-0.028001 -0.242666,-0.042001 -0.364,-0.042002 z m -0.154,-0.3079996 h 0.168 c 0.830665,0 1.507333,0.3313341 2.03,0.9940004 v 0.014 c 0.130667,0.1680003 0.247332,0.3546668 0.350001,0.5599995 0.373333,0.793334 0.559997,1.8853341 0.559999,3.2760011 -2e-6,1.362666 -0.172666,2.417332 -0.517999,3.163999 -0.550667,1.045334 -1.362668,1.586666 -2.436001,1.624001 -0.849333,0 -1.530667,-0.336001 -2.044001,-1.008 -0.102667,-0.121334 -0.191332,-0.256668 -0.265999,-0.406001 -0.42,-0.774666 -0.630001,-1.899333 -0.630001,-3.373999 0,-1.372 0.172667,-2.4313337 0.518,-3.1780015 0.466667,-1.045332 1.222668,-1.6006661 2.268001,-1.6659995 z"
         fill="#000000"
         id="path2270" />
    </svg>
  </g>
  <path
     style="fill:none;stroke:#000000;stroke-width:0.264583px;stroke-linecap:butt;stroke-linejoin:miter;stroke-opacity:1"
     d="m 55.081684,16.006609 h -7.9375 V 82.15244 h -15.875"
     id="path2283" />
  <path
     style="fill:none;stroke:#000000;stroke-width:0.264583px;stroke-linecap:butt;stroke-linejoin:miter;stroke-opacity:1"
     d="m 105.35252,16.006609 h -5.29167 -2.645833 V 82.15244 H 47.144184"
     id="path2287" />
  <g
     transform="matrix(0.2,0,0,0.2,10.899297,89.05555)"
     id="g2381">
    <svg
       version="1.1"
       id="svg2379"
       width="100%"
       height="100%">
      <rect
         x="0"
         y="0.79997998"
         width="26.55834"
         height="0.79997998"
         id="rect2373" />
      <path
         d="m 9.96,3.5665407 c 1.453332,1e-6 2.559999,0.5933342 3.32,1.7799998 l 1.399999,-1.54 c 0.16,-0.1599989 0.26,-0.2399988 0.300001,-0.2399998 0.146665,1e-6 0.219999,0.066668 0.22,0.1999998 L 13.94,8.86654 c -0.06667,0.2400007 -0.133334,0.3666677 -0.2,0.3800001 l -0.02,0.02 h -0.14 c -0.200001,0 -0.300001,-0.066667 -0.3,-0.1999998 l 0.06,-0.9800005 v -0.04 C 13.339999,6.3932071 12.82,5.2532077 11.78,4.6265397 L 11.76,4.6065407 C 11.293332,4.3265409 10.746666,4.1865406 10.12,4.1865406 c -1.4133331,0 -2.7533337,0.5266666 -4.0200001,1.5799999 C 5.7799997,6.0198746 5.4933329,6.2998743 5.2399998,6.6065407 3.9733331,8.0865402 3.1933331,9.9665403 2.8999999,12.24654 c -0.053333,0.413334 -0.08,0.773335 -0.08,1.08 0,1.866667 0.7066667,3.126667 2.1200002,3.780001 0.5466666,0.253332 1.146666,0.379999 1.7999997,0.379999 1.2533331,0 2.4799995,-0.486666 3.6800002,-1.459999 0.933333,-0.786667 1.606666,-1.84 2.02,-3.16 0.02667,-0.133333 0.113332,-0.200001 0.26,-0.200001 0.16,0 0.24,0.06667 0.24,0.200001 0,0.24 -0.153334,0.666666 -0.46,1.279999 -0.413334,0.84 -0.993334,1.586667 -1.74,2.239999 -1.3199999,1.146668 -2.7600005,1.720002 -4.3199999,1.720002 -1.706667,0 -3.0733338,-0.586668 -4.1000002,-1.760001 -0.88,-1 -1.3199999,-2.239999 -1.32000002,-3.72 C 1,10.639874 1.7266666,8.7798748 3.1799998,7.0465403 4.5266662,5.4332075 6.1199999,4.3665409 7.96,3.8465405 8.6399994,3.6598749 9.3066664,3.5665417 9.96,3.5665407 Z"
         fill="#000000"
         id="path2375" />
      <path
         d="m 22.794441,3.5665407 c 1.359999,1e-6 2.313332,0.4800005 2.859999,1.4399996 l 0.960001,-1.1399994 c 0.173332,-0.1999988 0.293331,-0.2999992 0.359999,-0.3000002 0.146665,1e-6 0.219999,0.066668 0.219999,0.1999998 l -1.079998,4.3800001 c -0.120003,0.2533331 -0.220001,0.3866663 -0.300001,0.3999997 -0.16,9e-7 -0.24,-0.066667 -0.24,-0.1999998 l 0.08,-1.08 v -0.04 c 0,-1.8399992 -0.773333,-2.8599997 -2.32,-3.0600005 -0.173334,-0.026666 -0.36,-0.039999 -0.559999,-0.04 -1.040001,9e-7 -1.926666,0.420001 -2.66,1.2600002 -0.560001,0.6400004 -0.84,1.3266668 -0.84,2.0600004 0,0.8000002 0.326666,1.373333 0.979999,1.7199993 0.08,0.040001 0.16,0.073334 0.24,0.1000004 0.06667,0.013333 0.513332,0.1333332 1.34,0.3599997 1.226668,0.3200006 1.960001,0.560001 2.199999,0.72 0.106667,0.06667 0.220001,0.16 0.34,0.28 0.653334,0.613334 0.98,1.393335 0.98,2.34 0,1.226667 -0.48,2.366667 -1.439999,3.419999 -1.093334,1.106667 -2.306667,1.680001 -3.639999,1.720002 -1.546667,0 -2.673334,-0.480002 -3.380001,-1.440001 l -0.98,1.14 c -0.173333,0.2 -0.293333,0.300001 -0.36,0.300001 -0.146666,0 -0.22,-0.06667 -0.22,-0.200001 l 1.14,-4.5 v -0.04 c 0.02667,-0.09333 0.04667,-0.146668 0.06,-0.160001 0.05333,-0.05333 0.119999,-0.08 0.199999,-0.08 0.16,0 0.24,0.07333 0.24,0.22 l -0.04,0.14 c -0.08,0.48 -0.120001,0.84 -0.120001,1.08 0,1.506668 0.766666,2.433334 2.300001,2.78 0.373333,0.09333 0.773333,0.14 1.199999,0.14 1.053333,0 1.953333,-0.453333 2.700001,-1.359999 0.6,-0.706667 0.899999,-1.48 0.899999,-2.320001 0,-1.039999 -0.479999,-1.713334 -1.44,-2.019999 l -0.4,-0.1 -2.139999,-0.560001 C 19.05444,10.873207 18.441107,10.339874 18.09444,9.5265408 17.934441,9.1398735 17.854441,8.7265406 17.854441,8.28654 c 0,-1.2133331 0.506666,-2.3066663 1.519998,-3.2799997 1.013335,-0.9599991 2.153334,-1.4399986 3.420002,-1.4399996 z"
         fill="#000000"
         id="path2377" />
    </svg>
  </g>
  <rect
     style="fill:none;fill-opacity:1;stroke:#000000;stroke-width:0.2;stroke-miterlimit:4;stroke-dasharray:none;stroke-opacity:1"
     id="rect2496"
     width="10.583333"
     height="5.2916665"
     x="73.602516"
     y="72.892021" />
  <text
     xml:space="preserve"
     style="font-style:normal;font-weight:normal;font-size:3.52778px;line-height:1.25;font-family:sans-serif;fill:#000000;fill-opacity:1;stroke:none;stroke-width:0.264583"
     x="74.925438"
     y="76.606934"
     id="text2500"><tspan
       sodipodi:role="line"
       id="tspan2498"
       x="74.925438"
       y="76.606934"
       style="font-style:normal;font-variant:normal;font-weight:normal;font-stretch:normal;font-size:3.52778px;font-family:'Times New Roman';-inkscape-font-specification:'Times New Roman, ';stroke-width:0.264583">&amp;</tspan></text>
  <path
     style="fill:none;stroke:#000000;stroke-width:0.264583px;stroke-linecap:butt;stroke-linejoin:miter;stroke-opacity:1"
     d="M 31.269184,86.12119 H 76.24835 v -7.9375 0"
     id="path2502" />
  <circle
     style="fill:none;fill-opacity:1;stroke:#000000;stroke-width:0.2;stroke-miterlimit:4;stroke-dasharray:none;stroke-opacity:1"
     id="path2506"
     cx="126.5014"
     cy="77.709244"
     r="0.66145831" />
  <circle
     style="fill:none;fill-opacity:1;stroke:#000000;stroke-width:0.2;stroke-miterlimit:4;stroke-dasharray:none;stroke-opacity:1"
     id="path2511"
     cx="79.555641"
     cy="72.23056"
     r="0.66145831" />
  <rect
     style="fill:none;fill-opacity:1;stroke:#000000;stroke-width:0.2;stroke-miterlimit:4;stroke-dasharray:none;stroke-opacity:1"
     id="rect2513"
     width="10.583333"
     height="5.2916665"
     x="123.87335"
     y="71.569107" />
  <text
     xml:space="preserve"
     style="font-style:normal;font-weight:normal;font-size:3.52778px;line-height:1.25;font-family:sans-serif;fill:#000000;fill-opacity:1;stroke:none;stroke-width:0.264583"
     x="125.19627"
     y="75.284027"
     id="text2517"><tspan
       sodipodi:role="line"
       id="tspan2515"
       x="125.19627"
       y="75.284027"
       style="font-style:normal;font-variant:normal;font-weight:normal;font-stretch:normal;font-size:3.52778px;font-family:'Times New Roman';-inkscape-font-specification:'Times New Roman, ';stroke-width:0.264583">&amp;</tspan></text>
  <circle
     style="fill:none;fill-opacity:1;stroke:#000000;stroke-width:0.2;stroke-miterlimit:4;stroke-dasharray:none;stroke-opacity:1"
     id="circle2521"
     cx="129.82646"
     cy="70.907654"
     r="0.66145831" />
  <circle
     style="fill:none;fill-opacity:1;stroke:#000000;stroke-width:0.2;stroke-miterlimit:4;stroke-dasharray:none;stroke-opacity:1"
     id="circle2543"
     cx="131.79666"
     cy="77.642426"
     r="0.66145831" />
  <path
     style="fill:none;stroke:#000000;stroke-width:0.264583px;stroke-linecap:butt;stroke-linejoin:miter;stroke-opacity:1"
     d="M 79.445866,71.59482 V 66.34966"
     id="path2545" />
  <path
     style="fill:none;stroke:#000000;stroke-width:0.264583px;stroke-linecap:butt;stroke-linejoin:miter;stroke-opacity:1"
     d="M 129.73198,70.19895 V 66.27744"
     id="path2547" />
  <path
     style="fill:none;stroke:#000000;stroke-width:0.264583px;stroke-linecap:butt;stroke-linejoin:miter;stroke-opacity:1"
     d="m 76.24835,86.12119 h 50.27083 v -7.9375"
     id="path2549" />
  <path
     style="fill:none;stroke:#000000;stroke-width:0.264583px;stroke-linecap:butt;stroke-linejoin:miter;stroke-opacity:1"
     d="M 31.269184,90.08994 H 81.540017 V 79.50661"
     id="path2551" />
  <path
     style="fill:none;stroke:#000000;stroke-width:0.264583px;stroke-linecap:butt;stroke-linejoin:miter;stroke-opacity:1"
     d="M 81.540017,90.08994 H 131.81085 V 78.18369"
     id="path2553" />
  <g
     transform="matrix(0.2,0,0,0.2,9.8490248,93.60722)"
     id="g2563">
    <svg
       version="1.1"
       id="svg2561"
       width="100%"
       height="100%">
      <rect
         x="0"
         y="0.79997998"
         width="34.074718"
         height="0.79997998"
         id="rect2555" />
      <path
         d="m 9.2799997,4.6265402 c -0.6933336,9e-7 -1.1000003,0.00667 -1.2200002,0.02 -0.2400003,0.04 -0.4000001,0.1866665 -0.4799996,0.4399996 -0.013334,0.066668 -0.04,0.166668 -0.08,0.3000002 l -1.3000001,5.220001 h 2.2399998 c 1.4799995,0 2.6066664,-0.386668 3.3800004,-1.1600011 0.586666,-0.5866661 0.946666,-1.3999987 1.08,-2.4399996 V 6.9865413 C 12.91333,6.8398748 12.92,6.7132077 12.92,6.6065412 12.92,5.4198747 12.08,4.766541 10.4,4.6465411 H 10.36 C 10.106667,4.6332081 9.746666,4.6265421 9.2799997,4.6265402 Z M 4.3800001,4.0065403 H 4.6599998 10.36 c 1.666667,1e-6 2.906666,0.4400005 3.72,1.3199997 0.466666,0.4800005 0.699999,1.0400009 0.7,1.6800003 -10e-7,1.1599998 -0.713334,2.1533337 -2.140001,2.9799995 -0.693333,0.4133342 -1.446666,0.7066672 -2.259999,0.8800012 1.146666,0.426666 1.766666,1.126667 1.86,2.099999 0.01333,0.08 0.02,0.166667 0.02,0.26 -10e-7,0.253334 -0.02667,0.566667 -0.08,0.94 -0.133335,1.066667 -0.2,1.826667 -0.2,2.280001 0,0.693333 0.173333,1.086666 0.52,1.179998 h 0.02 c 0.08,0.02667 0.166666,0.04 0.26,0.04 0.573333,0 1.059999,-0.346666 1.46,-1.039999 0.146666,-0.226667 0.266666,-0.486667 0.359999,-0.780001 0.05333,-0.186666 0.140001,-0.28 0.260001,-0.28 0.159999,0 0.239998,0.08 0.239999,0.24 -1e-6,0.266668 -0.16,0.640001 -0.479999,1.12 -0.253333,0.386668 -0.546667,0.686667 -0.88,0.9 -0.320001,0.186666 -0.666667,0.280001 -1.04,0.280001 -1.106667,0 -1.88,-0.326668 -2.32,-0.98 -0.226667,-0.320001 -0.340001,-0.713335 -0.34,-1.180001 -10e-7,-0.28 0.106666,-0.846666 0.32,-1.7 0.186665,-0.719999 0.279999,-1.179999 0.279999,-1.379999 0,-0.826667 -0.373334,-1.373334 -1.1199995,-1.640001 v -0.02 C 9.2133331,11.099874 8.8599997,11.04654 8.46,11.04654 H 6.0799999 l -1.3200001,5.3 -0.06,0.340001 c 0,0.226665 0.3066664,0.346666 0.9200001,0.359998 H 6 c 0.3466663,0 0.5333328,0.07333 0.5599999,0.220002 -4e-7,0.266666 -0.1333336,0.399999 -0.4000001,0.399999 l -2.5199999,-0.06 h -0.02 L 1.12,17.66654 H 1.1 c -0.1866667,0 -0.28000007,-0.07333 -0.28000001,-0.219999 -6e-8,-0.24 0.1,-0.373335 0.30000001,-0.400002 h 0.2399999 c 0.8666666,0 1.3866665,-0.09333 1.5599999,-0.279998 0.08,-0.09333 0.1599999,-0.280001 0.24,-0.56 -2e-7,-0.01333 0.00667,-0.04667 0.02,-0.1 L 5.8599997,5.36654 c 0.053333,-0.2133332 0.08,-0.3399992 0.08,-0.3799992 -5e-7,-0.1599999 -0.1066671,-0.2600002 -0.3200002,-0.3000002 h -0.02 -0.02 c -0.04,0 -0.1,-0.00667 -0.1799998,-0.020001 -0.2266669,-0.026667 -0.4800005,-0.039999 -0.7600002,-0.04 -0.3466668,9e-7 -0.5333333,-0.073333 -0.56,-0.2199993 0,-0.2399998 0.1,-0.373333 0.3000006,-0.4 z"
         fill="#000000"
         id="path2557" />
      <path
         d="m 16.6458,4.0065403 2.08,0.06 h 0.02 l 2.42,-0.06 h 0.04 c 0.186667,1e-6 0.279999,0.073334 0.280001,0.2200003 -0.05334,0.2533331 -0.193335,0.3866663 -0.42,0.3999996 -1,0.013333 -1.506668,0.253334 -1.520001,0.7200003 l 0.76,10.1399995 5.06,-8.8199999 -0.12,-1.5399999 c -0.02667,-0.2533331 -0.16,-0.4066668 -0.400002,-0.4600001 -0.146667,-0.026667 -0.366664,-0.039999 -0.659999,-0.04 -0.293333,9e-7 -0.453333,-0.073333 -0.48,-0.2199993 0,-0.2666664 0.126667,-0.3999996 0.380001,-0.4000006 l 2.079998,0.06 h 0.02 l 2.319999,-0.06 h 0.120001 c 0.199999,1e-6 0.299999,0.073334 0.300001,0.2200003 -2e-6,0.2400007 -0.100002,0.3733339 -0.300001,0.3999996 h -0.24 C 27.479134,4.6398735 27.012466,4.8732071 26.9858,5.32654 v 0.2400007 l 0.74,9.9199993 5.400001,-9.4199993 c 0.173332,-0.3066664 0.259998,-0.5266657 0.259998,-0.6599998 0,-0.4800005 -0.393333,-0.7400008 -1.18,-0.7800007 -0.200001,9e-7 -0.299999,-0.079999 -0.299999,-0.2399998 0,-0.2533331 0.126667,-0.3799991 0.380001,-0.3800001 l 2.059997,0.06 h 0.02 l 1.5,-0.06 h 0.04 c 0.133331,1e-6 0.213333,0.073334 0.239998,0.2200003 0,0.2400007 -0.1,0.3733339 -0.3,0.3999996 h -0.08 c -0.800003,0.066667 -1.433334,0.4466677 -1.900001,1.1400003 l -0.02,0.019999 v 0.020001 c -0.09333,0.1333341 -0.2,0.3066664 -0.319999,0.5199995 l -6.56,11.4 c -0.146665,0.253334 -0.306665,0.380001 -0.479999,0.380001 -0.160002,0 -0.253336,-0.08 -0.280001,-0.24 -0.01333,-0.06667 -0.02667,-0.16 -0.04,-0.280001 L 25.4258,7.4865408 19.545799,17.686541 c -0.146667,0.253332 -0.273332,0.386665 -0.379999,0.399999 l -0.02,0.02 h -0.08 c -0.173334,0 -0.273335,-0.100001 -0.3,-0.300001 -0.01333,-0.05333 -0.02,-0.126666 -0.02,-0.22 l -0.900002,-12.22 C 17.819134,5.0198736 17.739132,4.8065405 17.605799,4.7265406 h -0.02 -0.02 c -0.133333,-0.066667 -0.393334,-0.1 -0.780001,-0.1000004 -0.306665,9e-7 -0.473333,-0.079999 -0.5,-0.2399998 0,-0.2533331 0.120001,-0.3799991 0.360002,-0.3800001 z"
         fill="#000000"
         id="path2559" />
    </svg>
  </g>
  <path
     style="fill:none;stroke:#000000;stroke-width:0.264583px;stroke-linecap:butt;stroke-linejoin:miter;stroke-opacity:1"
     d="M 31.269184,94.05869 H 69.633767 V 66.27744"
     id="path2565" />
  <path
     style="fill:none;stroke:#000000;stroke-width:0.264583px;stroke-linecap:butt;stroke-linejoin:miter;stroke-opacity:1"
     d="M 69.633767,94.05869 H 119.9046 V 66.27744"
     id="path2567" />
  <circle
     style="fill:#000000;fill-opacity:1;stroke:#000000;stroke-width:0.2;stroke-miterlimit:4;stroke-dasharray:none;stroke-opacity:1"
     id="path2573"
     cx="69.492027"
     cy="93.964203"
     r="0.66145831" />
  <circle
     style="fill:#000000;fill-opacity:1;stroke:#000000;stroke-width:0.2;stroke-miterlimit:4;stroke-dasharray:none;stroke-opacity:1"
     id="circle2575"
     cx="81.652794"
     cy="90.088791"
     r="0.66145831" />
  <circle
     style="fill:#000000;fill-opacity:1;stroke:#000000;stroke-width:0.2;stroke-miterlimit:4;stroke-dasharray:none;stroke-opacity:1"
     id="circle2577"
     cx="76.307404"
     cy="86.347015"
     r="0.66145831" />
  <g
     transform="matrix(0.2,0,0,0.2,10.5328,99.97887)"
     id="g2595">
    <svg
       version="1.1"
       id="svg2593"
       width="100%"
       height="100%">
      <path
         d="m 8.5799999,0.62664032 c -0.4800005,9.5e-7 -0.773334,0.0666666 -0.8800001,0.19999975 v 0.0200005 h -0.02 v 0.0200005 C 7.6266661,0.94664192 7.5666661,1.1199751 7.5,1.3866404 L 4.7599998,12.36664 c -0.066667,0.24 -0.1,0.393334 -0.1,0.46 0,0.106667 0.059999,0.173333 0.1799999,0.2 h 0.08 c 0.08,0.01333 0.2266664,0.02 0.4399996,0.02 h 2.2600002 c 1.6533327,0 3.0799995,-0.619999 4.2800005,-1.86 0.119999,-0.133333 0.233332,-0.266667 0.34,-0.4 1.066666,-1.3866661 1.74,-3.1999996 2.019999,-5.4399994 0.05333,-0.413333 0.08,-0.7533331 0.08,-1.0200005 0,-1.7866659 -0.700001,-2.9333324 -2.1,-3.43999949 -0.453333,-0.17333323 -0.96,-0.25999934 -1.52,-0.26000029 z M 4.4000001,0.00664048 H 4.6599998 11.38 c 1.733333,9.1e-7 3.026666,0.67333408 3.879999,2.02000042 0.546666,0.8533335 0.820001,1.8666668 0.820001,3.04 0,1.9333334 -0.673334,3.7399997 -2.020001,5.4200001 -1.28,1.559999 -2.786666,2.553332 -4.519999,2.979999 -0.5200005,0.133334 -1.04,0.2 -1.56,0.2 H 1.3599999 c -0.3333333,0 -0.51333333,-0.05333 -0.53999991,-0.16 -0.0133334,-0.01333 -0.0200001,-0.04 -0.02,-0.08 -6e-8,-0.226667 0.10666663,-0.353334 0.31999991,-0.380001 h 0.24 c 0.8666666,0 1.3866665,-0.09333 1.5599999,-0.279999 0.08,-0.09333 0.1599999,-0.280001 0.24,-0.560001 -2e-7,-0.01333 0.00667,-0.04667 0.02,-0.1 L 5.8599997,1.3666402 c 0.053333,-0.2133332 0.08,-0.3399993 0.08,-0.37999915 C 5.9399996,0.82664108 5.833333,0.7266407 5.6199999,0.68664068 h -0.02 C 5.5733333,0.67330742 5.54,0.66664028 5.5,0.66664016 5.1799998,0.63997364 4.893333,0.62664127 4.6399999,0.62664032 c -0.3466668,9.5e-7 -0.5333333,-0.0533323 -0.56,-0.15999985 -0.013333,-0.0266657 -0.02,-0.0533323 -0.02,-0.0799999 0,-0.22666645 0.1133333,-0.35333252 0.3400002,-0.38000009 z"
         fill="#000000"
         id="path2579" />
      <path
         d="m 17.80434,7.2026386 h 0.350001 c 0.03733,0.1586676 0.121332,0.2660008 0.251999,0.3220005 h 0.014 c 0.242666,0.084 0.751333,0.1259995 1.526001,0.1259995 h 3.402 c -2e-6,0.2146673 -0.042,0.3780002 -0.126001,0.4900007 l -1.89,2.6599997 c -0.401333,0.560001 -0.690666,1.358001 -0.868,2.394 -0.102667,0.690666 -0.153999,1.456001 -0.153999,2.296001 v 0.713999 c 0,0.513333 -0.214668,0.770001 -0.644001,0.770001 -0.429333,0 -0.643999,-0.256668 -0.643999,-0.770001 0,-1.558666 0.452665,-3.121999 1.358,-4.69 l 0.364,-0.574 1.567999,-2.2119994 h -2.897999 c -0.849335,0 -1.306667,0.028 -1.372002,0.084 -0.09333,0.084 -0.209999,0.508667 -0.349998,1.2739994 H 17.34234 Z"
         fill="#000000"
         id="path2581" />
      <path
         d="m 30.171713,7.6066403 c 0.439999,5e-7 0.759998,0.2000003 0.959999,0.5999999 0.06667,0.1466675 0.1,0.3000002 0.1,0.4600001 0,0.4400005 -0.2,0.7600002 -0.6,0.96 -0.146666,0.066668 -0.299999,0.1000004 -0.459999,0.1000004 -0.440001,0 -0.76,-0.1999998 -0.960001,-0.6000004 -0.06667,-0.1466665 -0.1,-0.2999992 -0.1,-0.46 0,-0.4399996 0.2,-0.7599998 0.6,-0.9600001 0.146667,-0.066666 0.299999,-0.099999 0.460001,-0.1 z"
         fill="#000000"
         id="path2583" />
      <path
         d="m 40.171749,7.6066403 c 0.440003,5e-7 0.760002,0.2000003 0.960003,0.5999999 0.06667,0.1466675 0.1,0.3000002 0.1,0.4600001 0,0.4400005 -0.2,0.7600002 -0.599998,0.96 -0.146667,0.066668 -0.300003,0.1000004 -0.460003,0.1000004 -0.439999,0 -0.759998,-0.1999998 -0.959999,-0.6000004 -0.06667,-0.1466665 -0.1,-0.2999992 -0.1,-0.46 0,-0.4399996 0.199997,-0.7599998 0.599998,-0.9600001 0.146668,-0.066666 0.299999,-0.099999 0.459999,-0.1 z"
         fill="#000000"
         id="path2585" />
      <path
         d="m 50.171787,7.6066403 c 0.440003,5e-7 0.760002,0.2000003 0.960003,0.5999999 0.06667,0.1466675 0.1,0.3000002 0.1,0.4600001 0,0.4400005 -0.200001,0.7600002 -0.599999,0.96 -0.146667,0.066668 -0.300003,0.1000004 -0.460003,0.1000004 -0.439998,0 -0.759998,-0.1999998 -0.959999,-0.6000004 -0.06667,-0.1466665 -0.1,-0.2999992 -0.1,-0.46 0,-0.4399996 0.199997,-0.7599998 0.599998,-0.9600001 0.146668,-0.066666 0.299999,-0.099999 0.459999,-0.1 z"
         fill="#000000"
         id="path2587" />
      <path
         d="m 64.86071,0.62664038 c -0.479996,8.9e-7 -0.773331,0.0666665 -0.879997,0.19999969 v 0.0200005 h -0.02 v 0.0200005 c -0.05333,0.0800009 -0.113334,0.25333403 -0.18,0.51999963 L 61.04071,12.36664 c -0.06667,0.24 -0.1,0.393334 -0.1,0.46 0,0.106667 0.06,0.173333 0.18,0.2 h 0.08 c 0.08,0.01333 0.226666,0.02 0.439999,0.02 h 2.259998 c 1.653336,0 3.080002,-0.619999 4.279999,-1.86 0.120003,-0.133333 0.233337,-0.266667 0.340004,-0.4 1.066665,-1.3866661 1.739998,-3.1999996 2.019996,-5.4399994 0.05334,-0.413333 0.08,-0.7533331 0.08,-1.0200005 0,-1.7866659 -0.699997,-2.9333324 -2.099998,-3.43999949 C 68.067375,0.71330738 67.560715,0.62664127 67.00071,0.62664038 Z M 60.680714,0.00664033 h 0.259998 6.720001 c 1.73333,1.06e-6 3.026665,0.67333423 3.879997,2.02000057 0.546669,0.8533335 0.82,1.8666668 0.82,3.04 0,1.9333334 -0.673332,3.7399997 -2.019996,5.4200001 -1.279999,1.559999 -2.786667,2.553332 -4.520005,2.979999 -0.519996,0.133334 -1.039993,0.2 -1.559997,0.2 h -6.619999 c -0.333332,0 -0.513333,-0.05333 -0.540001,-0.16 -0.01333,-0.01333 -0.02,-0.04 -0.02,-0.08 0,-0.226667 0.106667,-0.353334 0.32,-0.380001 h 0.240002 c 0.866665,0 1.386665,-0.09333 1.559997,-0.279999 0.08,-0.09333 0.16,-0.280001 0.240002,-0.560001 0,-0.01333 0.0067,-0.04667 0.02,-0.1 l 2.68,-10.7399988 c 0.05333,-0.2133332 0.08,-0.3399993 0.08,-0.37999939 0,-0.15999973 -0.106667,-0.26000011 -0.32,-0.30000013 h -0.02 c -0.02667,-0.0133333 -0.06,-0.0200004 -0.1,-0.0200005 -0.32,-0.0266666 -0.606666,-0.0399989 -0.86,-0.0399998 -0.346669,8.9e-7 -0.533333,-0.0533324 -0.560002,-0.15999985 -0.01333,-0.0266657 -0.02,-0.0533324 -0.02,-0.0799999 0,-0.22666651 0.11333,-0.35333258 0.34,-0.38000028 z"
         fill="#000000"
         id="path2589" />
      <path
         d="m 76.32505,7.6506386 c -0.653335,0 -1.129333,0.3266668 -1.428001,0.9800005 -0.102669,0.224 -0.181999,0.494667 -0.237999,0.8119993 -0.07467,0.5040007 -0.112,1.3626666 -0.112,2.5760006 0,1.409334 0.05133,2.394001 0.154,2.954 0.167999,0.896 0.578666,1.442 1.232002,1.638001 0.130669,0.03733 0.26133,0.056 0.391998,0.056 0.587998,0 1.040665,-0.284666 1.358002,-0.854 0.130669,-0.252 0.223999,-0.550667 0.279999,-0.896 0.102669,-0.597334 0.153999,-1.563333 0.153999,-2.898 0,-1.297333 -0.04667,-2.207333 -0.139999,-2.7299999 C 77.809052,8.4019728 77.379715,7.8699722 76.689049,7.6926394 76.567719,7.6646385 76.446381,7.6506386 76.32505,7.6506386 Z M 76.171051,7.342639 h 0.167999 c 0.830666,0 1.507332,0.3313341 2.029999,0.9940004 v 0.014 c 0.130669,0.1680003 0.247337,0.3546668 0.349999,0.5599995 0.373336,0.793334 0.560005,1.8853341 0.560005,3.2760011 0,1.362666 -0.172669,2.417332 -0.518006,3.163999 -0.550666,1.045334 -1.362663,1.586666 -2.435997,1.624001 -0.849334,0 -1.53067,-0.336001 -2.043998,-1.008 -0.102669,-0.121334 -0.191338,-0.256668 -0.265999,-0.406001 -0.420006,-0.774666 -0.630005,-1.899333 -0.630005,-3.373999 0,-1.372 0.172668,-2.4313337 0.518005,-3.1780015 0.466667,-1.045332 1.222664,-1.6006661 2.267998,-1.6659995 z"
         fill="#000000"
         id="path2591" />
    </svg>
  </g>
  <path
     style="fill:none;stroke:#000000;stroke-width:0.264583px;stroke-linecap:butt;stroke-linejoin:miter;stroke-opacity:1"
     d="m 55.081684,22.621193 h -3.96875 v 79.374997 h -19.84375"
     id="path2597" />
  <path
     style="fill:none;stroke:#000000;stroke-width:0.264583px;stroke-linecap:butt;stroke-linejoin:miter;stroke-opacity:1"
     d="M 101.38377,101.99619 V 22.621193 h 3.96875"
     id="path2599" />
  <path
     style="fill:none;stroke:#000000;stroke-width:0.264583px;stroke-linecap:butt;stroke-linejoin:miter;stroke-opacity:1"
     d="M 101.38377,101.99619 H 51.112934"
     id="path2601" />
  <circle
     style="fill:#000000;fill-opacity:1;stroke:#000000;stroke-width:0.2;stroke-miterlimit:4;stroke-dasharray:none;stroke-opacity:1"
     id="circle2603"
     cx="51.05043"
     cy="102.11592"
     r="0.66145831" />
  <circle
     style="fill:#000000;fill-opacity:1;stroke:#000000;stroke-width:0.2;stroke-miterlimit:4;stroke-dasharray:none;stroke-opacity:1"
     id="circle2605"
     cx="47.041386"
     cy="82.204346"
     r="0.66145831" />
</svg>
